%TF.GenerationSoftware,KiCad,Pcbnew,(5.1.6)-1*%
%TF.CreationDate,2021-04-28T14:57:31-06:00*%
%TF.ProjectId,oasis_iot,6f617369-735f-4696-9f74-2e6b69636164,rev?*%
%TF.SameCoordinates,Original*%
%TF.FileFunction,Legend,Top*%
%TF.FilePolarity,Positive*%
%FSLAX46Y46*%
G04 Gerber Fmt 4.6, Leading zero omitted, Abs format (unit mm)*
G04 Created by KiCad (PCBNEW (5.1.6)-1) date 2021-04-28 14:57:31*
%MOMM*%
%LPD*%
G01*
G04 APERTURE LIST*
%ADD10C,0.250000*%
%ADD11C,0.152400*%
%ADD12C,0.300000*%
%ADD13C,0.127000*%
%ADD14C,0.200000*%
%ADD15C,0.076200*%
%ADD16C,0.015000*%
G04 APERTURE END LIST*
D10*
X74922380Y-80176666D02*
X73922380Y-80176666D01*
X73922380Y-79938571D01*
X73970000Y-79795714D01*
X74065238Y-79700476D01*
X74160476Y-79652857D01*
X74350952Y-79605238D01*
X74493809Y-79605238D01*
X74684285Y-79652857D01*
X74779523Y-79700476D01*
X74874761Y-79795714D01*
X74922380Y-79938571D01*
X74922380Y-80176666D01*
X74922380Y-78748095D02*
X74398571Y-78748095D01*
X74303333Y-78795714D01*
X74255714Y-78890952D01*
X74255714Y-79081428D01*
X74303333Y-79176666D01*
X74874761Y-78748095D02*
X74922380Y-78843333D01*
X74922380Y-79081428D01*
X74874761Y-79176666D01*
X74779523Y-79224285D01*
X74684285Y-79224285D01*
X74589047Y-79176666D01*
X74541428Y-79081428D01*
X74541428Y-78843333D01*
X74493809Y-78748095D01*
X74255714Y-77843333D02*
X75065238Y-77843333D01*
X75160476Y-77890952D01*
X75208095Y-77938571D01*
X75255714Y-78033809D01*
X75255714Y-78176666D01*
X75208095Y-78271904D01*
X74874761Y-77843333D02*
X74922380Y-77938571D01*
X74922380Y-78129047D01*
X74874761Y-78224285D01*
X74827142Y-78271904D01*
X74731904Y-78319523D01*
X74446190Y-78319523D01*
X74350952Y-78271904D01*
X74303333Y-78224285D01*
X74255714Y-78129047D01*
X74255714Y-77938571D01*
X74303333Y-77843333D01*
X74255714Y-77510000D02*
X74255714Y-77129047D01*
X73922380Y-77367142D02*
X74779523Y-77367142D01*
X74874761Y-77319523D01*
X74922380Y-77224285D01*
X74922380Y-77129047D01*
X74255714Y-76367142D02*
X74922380Y-76367142D01*
X74255714Y-76795714D02*
X74779523Y-76795714D01*
X74874761Y-76748095D01*
X74922380Y-76652857D01*
X74922380Y-76510000D01*
X74874761Y-76414761D01*
X74827142Y-76367142D01*
X74874761Y-75938571D02*
X74922380Y-75843333D01*
X74922380Y-75652857D01*
X74874761Y-75557619D01*
X74779523Y-75510000D01*
X74731904Y-75510000D01*
X74636666Y-75557619D01*
X74589047Y-75652857D01*
X74589047Y-75795714D01*
X74541428Y-75890952D01*
X74446190Y-75938571D01*
X74398571Y-75938571D01*
X74303333Y-75890952D01*
X74255714Y-75795714D01*
X74255714Y-75652857D01*
X74303333Y-75557619D01*
X74779523Y-74224285D02*
X74493809Y-74462380D01*
X74779523Y-74652857D02*
X74112857Y-74652857D01*
X74112857Y-74367142D01*
X74160476Y-74271904D01*
X74255714Y-74224285D01*
X74350952Y-74224285D01*
X74446190Y-74271904D01*
X74493809Y-74367142D01*
X74493809Y-74652857D01*
X73779523Y-74462380D02*
X73827142Y-74700476D01*
X73970000Y-74938571D01*
X74208095Y-75081428D01*
X74446190Y-75129047D01*
X74684285Y-75081428D01*
X74922380Y-74938571D01*
X75065238Y-74700476D01*
X75112857Y-74462380D01*
X75065238Y-74224285D01*
X74922380Y-73986190D01*
X74684285Y-73843333D01*
X74446190Y-73795714D01*
X74208095Y-73843333D01*
X73970000Y-73986190D01*
X73827142Y-74224285D01*
X73779523Y-74462380D01*
D11*
%TO.C,SW1*%
X68924000Y-69360000D02*
G75*
G03*
X68924000Y-69360000I-254000J0D01*
G01*
X68936700Y-71384859D02*
X68936700Y-72415141D01*
X72228121Y-70325200D02*
X70191879Y-70325200D01*
X73483300Y-72415141D02*
X73483300Y-71384859D01*
X70191879Y-73474800D02*
X72228121Y-73474800D01*
D12*
%TO.C,J1*%
X47874900Y-69481700D02*
G75*
G03*
X47874900Y-69481700I-150000J0D01*
G01*
D13*
%TO.C,U3*%
X45303200Y-79333500D02*
X44003200Y-79333500D01*
X45303200Y-77003500D02*
X44003200Y-77003500D01*
D14*
X46798200Y-79343500D02*
G75*
G03*
X46798200Y-79343500I-100000J0D01*
G01*
%TO.C,L2*%
X49128500Y-79351100D02*
G75*
G03*
X49128500Y-79351100I-100000J0D01*
G01*
%TO.C,L1*%
X43534000Y-75622000D02*
G75*
G03*
X43534000Y-75622000I-100000J0D01*
G01*
D13*
%TO.C,U2*%
X45360001Y-65045001D02*
X91080001Y-65045001D01*
X93620001Y-67585001D02*
X93620001Y-85365001D01*
X91080001Y-87905001D02*
X45360001Y-87905001D01*
X42820001Y-85365001D02*
X42820001Y-67585001D01*
X91080001Y-65045001D02*
G75*
G02*
X93620001Y-67585001I0J-2540000D01*
G01*
X93620001Y-85365001D02*
G75*
G02*
X91080001Y-87905001I-2540000J0D01*
G01*
X45360001Y-87905001D02*
G75*
G02*
X42820001Y-85365001I0J2540000D01*
G01*
X42820001Y-67585001D02*
G75*
G02*
X45360001Y-65045001I2540000J0D01*
G01*
D15*
%TO.C,R1*%
X70180200Y-83032600D02*
G75*
G02*
X70307200Y-83159600I0J-127000D01*
G01*
X69418200Y-83159600D02*
G75*
G02*
X69545200Y-83032600I127000J0D01*
G01*
X69545200Y-84810600D02*
G75*
G02*
X69418200Y-84683600I0J127000D01*
G01*
X70307200Y-84683600D02*
G75*
G02*
X70180200Y-84810600I-127000J0D01*
G01*
D14*
%TO.C,U1*%
X68349200Y-81695300D02*
G75*
G03*
X68349200Y-81695300I-100000J0D01*
G01*
D13*
%TO.C,J4*%
X46673900Y-83554700D02*
X43673900Y-83554700D01*
%TO.C,J3*%
X80818000Y-79315900D02*
X80818000Y-81290900D01*
X80818000Y-81290900D02*
X82718000Y-81290900D01*
X80818000Y-76815900D02*
X80818000Y-75915900D01*
X80818000Y-73215900D02*
X80818000Y-71540900D01*
X80818000Y-71540900D02*
X82618000Y-71540900D01*
X93118000Y-81290900D02*
X93118000Y-71540900D01*
X89618000Y-71540900D02*
X90218000Y-71540900D01*
X89618000Y-81290900D02*
X90218000Y-81290900D01*
D14*
X88968000Y-70615900D02*
G75*
G03*
X88968000Y-70615900I-100000J0D01*
G01*
D13*
%TO.C,J2*%
X43661200Y-69581900D02*
X46661200Y-69581900D01*
%TO.C,C7*%
X47110500Y-77810300D02*
X48110500Y-77810300D01*
X48110500Y-76850300D02*
X47110500Y-76850300D01*
%TO.C,C6*%
X50010000Y-78225800D02*
X50010000Y-77225800D01*
X49050000Y-77225800D02*
X49050000Y-78225800D01*
%TO.C,C5*%
X44458000Y-74648000D02*
X45458000Y-74648000D01*
X45458000Y-73688000D02*
X44458000Y-73688000D01*
%TO.C,C4*%
X45458000Y-74958000D02*
X44458000Y-74958000D01*
X44458000Y-75918000D02*
X45458000Y-75918000D01*
%TO.C,C1*%
D16*
X70713707Y-75368516D02*
X70732455Y-75387264D01*
X70751202Y-75443507D01*
X70751202Y-75481002D01*
X70732455Y-75537245D01*
X70694959Y-75574741D01*
X70657464Y-75593488D01*
X70582473Y-75612236D01*
X70526230Y-75612236D01*
X70451240Y-75593488D01*
X70413744Y-75574741D01*
X70376249Y-75537245D01*
X70357501Y-75481002D01*
X70357501Y-75443507D01*
X70376249Y-75387264D01*
X70394997Y-75368516D01*
X70751202Y-74993563D02*
X70751202Y-75218535D01*
X70751202Y-75106049D02*
X70357501Y-75106049D01*
X70413744Y-75143544D01*
X70451240Y-75181040D01*
X70469987Y-75218535D01*
%TO.C,J1*%
X50715333Y-68440904D02*
X50715333Y-68622333D01*
X50703238Y-68658619D01*
X50679047Y-68682809D01*
X50642761Y-68694904D01*
X50618571Y-68694904D01*
X50969333Y-68694904D02*
X50824190Y-68694904D01*
X50896761Y-68694904D02*
X50896761Y-68440904D01*
X50872571Y-68477190D01*
X50848380Y-68501380D01*
X50824190Y-68513476D01*
%TO.C,U3*%
X46999676Y-79299404D02*
X46999676Y-79505023D01*
X47011771Y-79529214D01*
X47023866Y-79541309D01*
X47048057Y-79553404D01*
X47096438Y-79553404D01*
X47120628Y-79541309D01*
X47132723Y-79529214D01*
X47144819Y-79505023D01*
X47144819Y-79299404D01*
X47241580Y-79299404D02*
X47398819Y-79299404D01*
X47314152Y-79396166D01*
X47350438Y-79396166D01*
X47374628Y-79408261D01*
X47386723Y-79420357D01*
X47398819Y-79444547D01*
X47398819Y-79505023D01*
X47386723Y-79529214D01*
X47374628Y-79541309D01*
X47350438Y-79553404D01*
X47277866Y-79553404D01*
X47253676Y-79541309D01*
X47241580Y-79529214D01*
%TO.C,L2*%
X49060704Y-78693433D02*
X49060704Y-78814385D01*
X48806704Y-78814385D01*
X48830895Y-78620861D02*
X48818800Y-78608766D01*
X48806704Y-78584576D01*
X48806704Y-78524100D01*
X48818800Y-78499909D01*
X48830895Y-78487814D01*
X48855085Y-78475719D01*
X48879276Y-78475719D01*
X48915561Y-78487814D01*
X49060704Y-78632957D01*
X49060704Y-78475719D01*
%TO.C,L1*%
X43333004Y-76115333D02*
X43333004Y-76236285D01*
X43079004Y-76236285D01*
X43333004Y-75897619D02*
X43333004Y-76042761D01*
X43333004Y-75970190D02*
X43079004Y-75970190D01*
X43115290Y-75994380D01*
X43139480Y-76018571D01*
X43151576Y-76042761D01*
%TO.C,D1*%
X64582523Y-83934904D02*
X64582523Y-83680904D01*
X64643000Y-83680904D01*
X64679285Y-83693000D01*
X64703476Y-83717190D01*
X64715571Y-83741380D01*
X64727666Y-83789761D01*
X64727666Y-83826047D01*
X64715571Y-83874428D01*
X64703476Y-83898619D01*
X64679285Y-83922809D01*
X64643000Y-83934904D01*
X64582523Y-83934904D01*
X64969571Y-83934904D02*
X64824428Y-83934904D01*
X64897000Y-83934904D02*
X64897000Y-83680904D01*
X64872809Y-83717190D01*
X64848619Y-83741380D01*
X64824428Y-83753476D01*
%TO.C,C3*%
X71998114Y-85132333D02*
X72010209Y-85144428D01*
X72022304Y-85180714D01*
X72022304Y-85204904D01*
X72010209Y-85241190D01*
X71986019Y-85265380D01*
X71961828Y-85277476D01*
X71913447Y-85289571D01*
X71877161Y-85289571D01*
X71828780Y-85277476D01*
X71804590Y-85265380D01*
X71780400Y-85241190D01*
X71768304Y-85204904D01*
X71768304Y-85180714D01*
X71780400Y-85144428D01*
X71792495Y-85132333D01*
X71768304Y-85047666D02*
X71768304Y-84890428D01*
X71865066Y-84975095D01*
X71865066Y-84938809D01*
X71877161Y-84914619D01*
X71889257Y-84902523D01*
X71913447Y-84890428D01*
X71973923Y-84890428D01*
X71998114Y-84902523D01*
X72010209Y-84914619D01*
X72022304Y-84938809D01*
X72022304Y-85011380D01*
X72010209Y-85035571D01*
X71998114Y-85047666D01*
%TO.C,R1*%
X69921966Y-85306504D02*
X69837300Y-85185552D01*
X69776823Y-85306504D02*
X69776823Y-85052504D01*
X69873585Y-85052504D01*
X69897776Y-85064600D01*
X69909871Y-85076695D01*
X69921966Y-85100885D01*
X69921966Y-85137171D01*
X69909871Y-85161361D01*
X69897776Y-85173457D01*
X69873585Y-85185552D01*
X69776823Y-85185552D01*
X70163871Y-85306504D02*
X70018728Y-85306504D01*
X70091300Y-85306504D02*
X70091300Y-85052504D01*
X70067109Y-85088790D01*
X70042919Y-85112980D01*
X70018728Y-85125076D01*
%TO.C,U1*%
X68719095Y-79816476D02*
X68513476Y-79816476D01*
X68489285Y-79828571D01*
X68477190Y-79840666D01*
X68465095Y-79864857D01*
X68465095Y-79913238D01*
X68477190Y-79937428D01*
X68489285Y-79949523D01*
X68513476Y-79961619D01*
X68719095Y-79961619D01*
X68465095Y-80215619D02*
X68465095Y-80070476D01*
X68465095Y-80143047D02*
X68719095Y-80143047D01*
X68682809Y-80118857D01*
X68658619Y-80094666D01*
X68646523Y-80070476D01*
%TO.C,R3*%
X49756666Y-84887404D02*
X49672000Y-84766452D01*
X49611523Y-84887404D02*
X49611523Y-84633404D01*
X49708285Y-84633404D01*
X49732476Y-84645500D01*
X49744571Y-84657595D01*
X49756666Y-84681785D01*
X49756666Y-84718071D01*
X49744571Y-84742261D01*
X49732476Y-84754357D01*
X49708285Y-84766452D01*
X49611523Y-84766452D01*
X49841333Y-84633404D02*
X49998571Y-84633404D01*
X49913904Y-84730166D01*
X49950190Y-84730166D01*
X49974380Y-84742261D01*
X49986476Y-84754357D01*
X49998571Y-84778547D01*
X49998571Y-84839023D01*
X49986476Y-84863214D01*
X49974380Y-84875309D01*
X49950190Y-84887404D01*
X49877619Y-84887404D01*
X49853428Y-84875309D01*
X49841333Y-84863214D01*
%TO.C,R2*%
X68304904Y-84797333D02*
X68183952Y-84882000D01*
X68304904Y-84942476D02*
X68050904Y-84942476D01*
X68050904Y-84845714D01*
X68063000Y-84821523D01*
X68075095Y-84809428D01*
X68099285Y-84797333D01*
X68135571Y-84797333D01*
X68159761Y-84809428D01*
X68171857Y-84821523D01*
X68183952Y-84845714D01*
X68183952Y-84942476D01*
X68075095Y-84700571D02*
X68063000Y-84688476D01*
X68050904Y-84664285D01*
X68050904Y-84603809D01*
X68063000Y-84579619D01*
X68075095Y-84567523D01*
X68099285Y-84555428D01*
X68123476Y-84555428D01*
X68159761Y-84567523D01*
X68304904Y-84712666D01*
X68304904Y-84555428D01*
%TO.C,J4*%
X43282204Y-84565066D02*
X43463633Y-84565066D01*
X43499919Y-84577161D01*
X43524109Y-84601352D01*
X43536204Y-84637638D01*
X43536204Y-84661828D01*
X43366871Y-84335257D02*
X43536204Y-84335257D01*
X43270109Y-84395733D02*
X43451538Y-84456209D01*
X43451538Y-84298971D01*
%TO.C,J3*%
X78878724Y-78177366D02*
X79060153Y-78177366D01*
X79096439Y-78189461D01*
X79120629Y-78213652D01*
X79132724Y-78249938D01*
X79132724Y-78274128D01*
X78878724Y-78080604D02*
X78878724Y-77923366D01*
X78975486Y-78008033D01*
X78975486Y-77971747D01*
X78987581Y-77947557D01*
X78999677Y-77935461D01*
X79023867Y-77923366D01*
X79084343Y-77923366D01*
X79108534Y-77935461D01*
X79120629Y-77947557D01*
X79132724Y-77971747D01*
X79132724Y-78044319D01*
X79120629Y-78068509D01*
X79108534Y-78080604D01*
%TO.C,J2*%
X43218704Y-68855166D02*
X43400133Y-68855166D01*
X43436419Y-68867261D01*
X43460609Y-68891452D01*
X43472704Y-68927738D01*
X43472704Y-68951928D01*
X43242895Y-68746309D02*
X43230800Y-68734214D01*
X43218704Y-68710023D01*
X43218704Y-68649547D01*
X43230800Y-68625357D01*
X43242895Y-68613261D01*
X43267085Y-68601166D01*
X43291276Y-68601166D01*
X43327561Y-68613261D01*
X43472704Y-68758404D01*
X43472704Y-68601166D01*
%TO.C,C7*%
X47791914Y-76547133D02*
X47804009Y-76559228D01*
X47816104Y-76595514D01*
X47816104Y-76619704D01*
X47804009Y-76655990D01*
X47779819Y-76680180D01*
X47755628Y-76692276D01*
X47707247Y-76704371D01*
X47670961Y-76704371D01*
X47622580Y-76692276D01*
X47598390Y-76680180D01*
X47574200Y-76655990D01*
X47562104Y-76619704D01*
X47562104Y-76595514D01*
X47574200Y-76559228D01*
X47586295Y-76547133D01*
X47562104Y-76462466D02*
X47562104Y-76293133D01*
X47816104Y-76401990D01*
%TO.C,C6*%
X49658814Y-76610633D02*
X49670909Y-76622728D01*
X49683004Y-76659014D01*
X49683004Y-76683204D01*
X49670909Y-76719490D01*
X49646719Y-76743680D01*
X49622528Y-76755776D01*
X49574147Y-76767871D01*
X49537861Y-76767871D01*
X49489480Y-76755776D01*
X49465290Y-76743680D01*
X49441100Y-76719490D01*
X49429004Y-76683204D01*
X49429004Y-76659014D01*
X49441100Y-76622728D01*
X49453195Y-76610633D01*
X49429004Y-76392919D02*
X49429004Y-76441300D01*
X49441100Y-76465490D01*
X49453195Y-76477585D01*
X49489480Y-76501776D01*
X49537861Y-76513871D01*
X49634623Y-76513871D01*
X49658814Y-76501776D01*
X49670909Y-76489680D01*
X49683004Y-76465490D01*
X49683004Y-76417109D01*
X49670909Y-76392919D01*
X49658814Y-76380823D01*
X49634623Y-76368728D01*
X49574147Y-76368728D01*
X49549957Y-76380823D01*
X49537861Y-76392919D01*
X49525766Y-76417109D01*
X49525766Y-76465490D01*
X49537861Y-76489680D01*
X49549957Y-76501776D01*
X49574147Y-76513871D01*
%TO.C,C5*%
X46098181Y-73890671D02*
X46109659Y-73902149D01*
X46121136Y-73936581D01*
X46121136Y-73959536D01*
X46109659Y-73993969D01*
X46086704Y-74016924D01*
X46063749Y-74028402D01*
X46017838Y-74039879D01*
X45983406Y-74039879D01*
X45937495Y-74028402D01*
X45914540Y-74016924D01*
X45891585Y-73993969D01*
X45880107Y-73959536D01*
X45880107Y-73936581D01*
X45891585Y-73902149D01*
X45903063Y-73890671D01*
X45880107Y-73672597D02*
X45880107Y-73787373D01*
X45994883Y-73798850D01*
X45983406Y-73787373D01*
X45971928Y-73764418D01*
X45971928Y-73707030D01*
X45983406Y-73684075D01*
X45994883Y-73672597D01*
X46017838Y-73661120D01*
X46075226Y-73661120D01*
X46098181Y-73672597D01*
X46109659Y-73684075D01*
X46121136Y-73707030D01*
X46121136Y-73764418D01*
X46109659Y-73787373D01*
X46098181Y-73798850D01*
%TO.C,C4*%
X46115514Y-75086633D02*
X46127609Y-75098728D01*
X46139704Y-75135014D01*
X46139704Y-75159204D01*
X46127609Y-75195490D01*
X46103419Y-75219680D01*
X46079228Y-75231776D01*
X46030847Y-75243871D01*
X45994561Y-75243871D01*
X45946180Y-75231776D01*
X45921990Y-75219680D01*
X45897800Y-75195490D01*
X45885704Y-75159204D01*
X45885704Y-75135014D01*
X45897800Y-75098728D01*
X45909895Y-75086633D01*
X45970371Y-74868919D02*
X46139704Y-74868919D01*
X45873609Y-74929395D02*
X46055038Y-74989871D01*
X46055038Y-74832633D01*
%TO.C,C2*%
X74830214Y-83270733D02*
X74842309Y-83282828D01*
X74854404Y-83319114D01*
X74854404Y-83343304D01*
X74842309Y-83379590D01*
X74818119Y-83403780D01*
X74793928Y-83415876D01*
X74745547Y-83427971D01*
X74709261Y-83427971D01*
X74660880Y-83415876D01*
X74636690Y-83403780D01*
X74612500Y-83379590D01*
X74600404Y-83343304D01*
X74600404Y-83319114D01*
X74612500Y-83282828D01*
X74624595Y-83270733D01*
X74624595Y-83173971D02*
X74612500Y-83161876D01*
X74600404Y-83137685D01*
X74600404Y-83077209D01*
X74612500Y-83053019D01*
X74624595Y-83040923D01*
X74648785Y-83028828D01*
X74672976Y-83028828D01*
X74709261Y-83040923D01*
X74854404Y-83186066D01*
X74854404Y-83028828D01*
%TD*%
M02*
