%TF.GenerationSoftware,KiCad,Pcbnew,(5.1.6)-1*%
%TF.CreationDate,2021-04-28T14:57:31-06:00*%
%TF.ProjectId,oasis_iot,6f617369-735f-4696-9f74-2e6b69636164,rev?*%
%TF.SameCoordinates,Original*%
%TF.FileFunction,Paste,Top*%
%TF.FilePolarity,Positive*%
%FSLAX46Y46*%
G04 Gerber Fmt 4.6, Leading zero omitted, Abs format (unit mm)*
G04 Created by KiCad (PCBNEW (5.1.6)-1) date 2021-04-28 14:57:31*
%MOMM*%
%LPD*%
G01*
G04 APERTURE LIST*
%ADD10R,1.470000X1.160000*%
%ADD11R,1.143000X0.406400*%
%ADD12R,0.970000X0.390000*%
%ADD13R,0.540000X0.600000*%
%ADD14R,0.600000X0.540000*%
%ADD15R,0.630000X0.510000*%
%ADD16R,0.930000X0.870000*%
%ADD17R,0.635000X0.635000*%
%ADD18R,0.900000X0.900000*%
%ADD19R,0.350000X0.350000*%
%ADD20R,0.700000X0.900000*%
%ADD21R,1.000000X1.050000*%
%ADD22R,1.050000X2.200000*%
%ADD23R,1.000000X1.100000*%
%ADD24R,0.800000X1.000000*%
%ADD25R,2.300000X1.000000*%
G04 APERTURE END LIST*
D10*
%TO.C,C1*%
X69253100Y-76637900D03*
X69253100Y-74887900D03*
%TD*%
D11*
%TO.C,SW1*%
X72885000Y-72950000D03*
X69535000Y-72950000D03*
X72885000Y-70850000D03*
X69535000Y-70850000D03*
%TD*%
D12*
%TO.C,U3*%
X43673200Y-78168500D03*
X43673200Y-78818500D03*
X43673200Y-77518500D03*
X45633200Y-78168500D03*
X45633200Y-77518500D03*
X45633200Y-78818500D03*
%TD*%
D13*
%TO.C,L2*%
X47256500Y-78651100D03*
X48120500Y-78651100D03*
%TD*%
D14*
%TO.C,L1*%
X43434000Y-74854000D03*
X43434000Y-73990000D03*
%TD*%
D15*
%TO.C,D1*%
X66040000Y-83995000D03*
X66040000Y-84915000D03*
%TD*%
D16*
%TO.C,C3*%
X71755000Y-82405000D03*
X71755000Y-83965000D03*
%TD*%
D17*
%TO.C,R1*%
X69862700Y-83477100D03*
X69862700Y-84366100D03*
%TD*%
D18*
%TO.C,U1*%
X53639200Y-79895300D03*
X53639200Y-78295300D03*
X53639200Y-76695300D03*
X53639200Y-75095300D03*
X53639200Y-73495300D03*
X55639200Y-79895300D03*
X55639200Y-78295300D03*
X55639200Y-76695300D03*
X55639200Y-75095300D03*
X55639200Y-73495300D03*
X57639200Y-79895300D03*
X57639200Y-78295300D03*
X57639200Y-76695300D03*
X57639200Y-75095300D03*
X57639200Y-73495300D03*
X59639200Y-79895300D03*
X59639200Y-78295300D03*
X59639200Y-76695300D03*
X59639200Y-75095300D03*
X59639200Y-73495300D03*
X61639200Y-79895300D03*
X61639200Y-78295300D03*
X61639200Y-76695300D03*
X61639200Y-75095300D03*
X61639200Y-73495300D03*
X63639200Y-79895300D03*
X63639200Y-78295300D03*
X63639200Y-76695300D03*
X63639200Y-75095300D03*
X63639200Y-73495300D03*
X65639200Y-79895300D03*
X65639200Y-78295300D03*
X65639200Y-76695300D03*
X65639200Y-75095300D03*
D19*
X65389200Y-81045300D03*
X64889200Y-81045300D03*
X64389200Y-81045300D03*
X63889200Y-81045300D03*
X61389200Y-81045300D03*
X60889200Y-81045300D03*
X60389200Y-81045300D03*
X59889200Y-81045300D03*
X56389200Y-81045300D03*
X55889200Y-81045300D03*
X55389200Y-81045300D03*
X54889200Y-81045300D03*
X54889200Y-72345300D03*
X55389200Y-72345300D03*
X55889200Y-72345300D03*
X56389200Y-72345300D03*
X59889200Y-72345300D03*
X60389200Y-72345300D03*
X60889200Y-72345300D03*
X61389200Y-72345300D03*
X63889200Y-72345300D03*
X64389200Y-72345300D03*
X64889200Y-72345300D03*
X65389200Y-72345300D03*
D18*
X65639200Y-73495300D03*
D19*
X66889200Y-81695300D03*
X66389200Y-81695300D03*
X65889200Y-81695300D03*
X65389200Y-81695300D03*
X64889200Y-81695300D03*
X64389200Y-81695300D03*
X63889200Y-81695300D03*
X63389200Y-81695300D03*
X62889200Y-81695300D03*
X62389200Y-81695300D03*
X61889200Y-81695300D03*
X61389200Y-81695300D03*
X60889200Y-81695300D03*
X60389200Y-81695300D03*
X59889200Y-81695300D03*
X59389200Y-81695300D03*
X58889200Y-81695300D03*
X58389200Y-81695300D03*
X57889200Y-81695300D03*
X57389200Y-81695300D03*
X56889200Y-81695300D03*
X56389200Y-81695300D03*
X55889200Y-81695300D03*
X55389200Y-81695300D03*
X54889200Y-81695300D03*
X54389200Y-81695300D03*
X53889200Y-81695300D03*
X53389200Y-81695300D03*
X52889200Y-81695300D03*
X52389200Y-81695300D03*
X51889200Y-81695300D03*
X51889200Y-81195300D03*
X51889200Y-80695300D03*
X51889200Y-80195300D03*
X51889200Y-79695300D03*
X51889200Y-79195300D03*
X51889200Y-78695300D03*
X51889200Y-78195300D03*
X51889200Y-77695300D03*
X51889200Y-77195300D03*
X51889200Y-76695300D03*
X51889200Y-76195300D03*
X51889200Y-75695300D03*
X51889200Y-75195300D03*
X51889200Y-74695300D03*
X51889200Y-74195300D03*
X51889200Y-73695300D03*
X51889200Y-73195300D03*
X51889200Y-72695300D03*
X51889200Y-72195300D03*
X51889200Y-71695300D03*
X52389200Y-71695300D03*
X52889200Y-71695300D03*
X53389200Y-71695300D03*
X53889200Y-71695300D03*
X54389200Y-71695300D03*
X54889200Y-71695300D03*
X55389200Y-71695300D03*
X55889200Y-71695300D03*
X56389200Y-71695300D03*
X56889200Y-71695300D03*
X57389200Y-71695300D03*
X57889200Y-71695300D03*
X58389200Y-71695300D03*
X58889200Y-71695300D03*
X59389200Y-71695300D03*
X59889200Y-71695300D03*
X60389200Y-71695300D03*
X60889200Y-71695300D03*
X61389200Y-71695300D03*
X61889200Y-71695300D03*
X62389200Y-71695300D03*
X62889200Y-71695300D03*
X63389200Y-71695300D03*
X63889200Y-71695300D03*
X64389200Y-71695300D03*
X64889200Y-71695300D03*
X65389200Y-71695300D03*
X65889200Y-71695300D03*
X66389200Y-71695300D03*
X66889200Y-71695300D03*
X67389200Y-71695300D03*
X67389200Y-72195300D03*
X67389200Y-72695300D03*
X67389200Y-73195300D03*
X67389200Y-73695300D03*
X67389200Y-74195300D03*
X67389200Y-74695300D03*
X67389200Y-75195300D03*
X67389200Y-75695300D03*
X67389200Y-76195300D03*
X67389200Y-76695300D03*
X67389200Y-77195300D03*
X67389200Y-77695300D03*
X67389200Y-78195300D03*
X67389200Y-78695300D03*
X67389200Y-79195300D03*
X67389200Y-79695300D03*
X67389200Y-80195300D03*
X67389200Y-80695300D03*
X67389200Y-81195300D03*
X67389200Y-81695300D03*
%TD*%
D20*
%TO.C,R3*%
X48922700Y-84645500D03*
X47622700Y-84645500D03*
%TD*%
D14*
%TO.C,R2*%
X67310000Y-84887000D03*
X67310000Y-84023000D03*
%TD*%
D21*
%TO.C,J4*%
X45173900Y-80529700D03*
D22*
X43698900Y-82054700D03*
X46648900Y-82054700D03*
%TD*%
D23*
%TO.C,J3*%
X80593000Y-74595900D03*
X80593000Y-78235900D03*
D24*
X86468000Y-81315900D03*
X87668000Y-81315900D03*
X86468000Y-71515900D03*
X87668000Y-71515900D03*
X88868000Y-71515900D03*
X88868000Y-81315900D03*
D25*
X91718000Y-71315900D03*
X84518000Y-71315900D03*
X84518000Y-81515900D03*
X91718000Y-81515900D03*
%TD*%
D21*
%TO.C,J2*%
X45161200Y-72606900D03*
D22*
X46636200Y-71081900D03*
X43686200Y-71081900D03*
%TD*%
D13*
%TO.C,C7*%
X47180500Y-77330300D03*
X48040500Y-77330300D03*
%TD*%
D14*
%TO.C,C6*%
X49530000Y-78155800D03*
X49530000Y-77295800D03*
%TD*%
D13*
%TO.C,C5*%
X44528000Y-74168000D03*
X45388000Y-74168000D03*
%TD*%
%TO.C,C4*%
X45388000Y-75438000D03*
X44528000Y-75438000D03*
%TD*%
D16*
%TO.C,C2*%
X73660000Y-82405000D03*
X73660000Y-83965000D03*
%TD*%
M02*
