G04 #@! TF.GenerationSoftware,KiCad,Pcbnew,(5.1.6)-1*
G04 #@! TF.CreationDate,2021-06-30T18:45:26-06:00*
G04 #@! TF.ProjectId,oasis_iot,6f617369-735f-4696-9f74-2e6b69636164,rev?*
G04 #@! TF.SameCoordinates,Original*
G04 #@! TF.FileFunction,Paste,Top*
G04 #@! TF.FilePolarity,Positive*
%FSLAX46Y46*%
G04 Gerber Fmt 4.6, Leading zero omitted, Abs format (unit mm)*
G04 Created by KiCad (PCBNEW (5.1.6)-1) date 2021-06-30 18:45:26*
%MOMM*%
%LPD*%
G01*
G04 APERTURE LIST*
%ADD10C,0.100000*%
%ADD11C,0.150000*%
%ADD12C,0.300000*%
%ADD13C,0.400000*%
%ADD14R,0.900000X0.700000*%
%ADD15R,1.000000X1.100000*%
%ADD16R,0.800000X1.000000*%
%ADD17R,2.300000X1.000000*%
%ADD18R,0.800000X0.800000*%
%ADD19R,0.300000X0.300000*%
%ADD20R,0.300000X0.540000*%
%ADD21R,0.540000X0.540000*%
%ADD22R,0.540000X0.300000*%
%ADD23R,1.050000X1.000000*%
%ADD24R,2.200000X1.050000*%
%ADD25R,0.600000X0.540000*%
%ADD26R,0.970000X0.390000*%
%ADD27R,1.143000X0.406400*%
%ADD28R,0.630000X0.510000*%
%ADD29R,0.540000X0.600000*%
G04 APERTURE END LIST*
D10*
D11*
X177002200Y-166007200D02*
X177002200Y-198007200D01*
X285002200Y-198007200D01*
X285002200Y-166007200D01*
X177002200Y-166007200D01*
D10*
D11*
X10000000Y-10000000D02*
X10000000Y-200007200D01*
X287002200Y-200007200D01*
X287002200Y-10000000D01*
X10000000Y-10000000D01*
D10*
D11*
X12000000Y-12000000D02*
X12000000Y-198007200D01*
X285002200Y-198007200D01*
X285002200Y-12000000D01*
X12000000Y-12000000D01*
D10*
D11*
X60000000Y-12000000D02*
X60000000Y-10000000D01*
D10*
D11*
X110000000Y-12000000D02*
X110000000Y-10000000D01*
D10*
D11*
X160000000Y-12000000D02*
X160000000Y-10000000D01*
D10*
D11*
X210000000Y-12000000D02*
X210000000Y-10000000D01*
D10*
D11*
X260000000Y-12000000D02*
X260000000Y-10000000D01*
D10*
D11*
X36065476Y-11588095D02*
X35322619Y-11588095D01*
X35694047Y-11588095D02*
X35694047Y-10288095D01*
X35570238Y-10473809D01*
X35446428Y-10597619D01*
X35322619Y-10659523D01*
D10*
D11*
X85322619Y-10411904D02*
X85384523Y-10350000D01*
X85508333Y-10288095D01*
X85817857Y-10288095D01*
X85941666Y-10350000D01*
X86003571Y-10411904D01*
X86065476Y-10535714D01*
X86065476Y-10659523D01*
X86003571Y-10845238D01*
X85260714Y-11588095D01*
X86065476Y-11588095D01*
D10*
D11*
X135260714Y-10288095D02*
X136065476Y-10288095D01*
X135632142Y-10783333D01*
X135817857Y-10783333D01*
X135941666Y-10845238D01*
X136003571Y-10907142D01*
X136065476Y-11030952D01*
X136065476Y-11340476D01*
X136003571Y-11464285D01*
X135941666Y-11526190D01*
X135817857Y-11588095D01*
X135446428Y-11588095D01*
X135322619Y-11526190D01*
X135260714Y-11464285D01*
D10*
D11*
X185941666Y-10721428D02*
X185941666Y-11588095D01*
X185632142Y-10226190D02*
X185322619Y-11154761D01*
X186127380Y-11154761D01*
D10*
D11*
X236003571Y-10288095D02*
X235384523Y-10288095D01*
X235322619Y-10907142D01*
X235384523Y-10845238D01*
X235508333Y-10783333D01*
X235817857Y-10783333D01*
X235941666Y-10845238D01*
X236003571Y-10907142D01*
X236065476Y-11030952D01*
X236065476Y-11340476D01*
X236003571Y-11464285D01*
X235941666Y-11526190D01*
X235817857Y-11588095D01*
X235508333Y-11588095D01*
X235384523Y-11526190D01*
X235322619Y-11464285D01*
D10*
D11*
X285941666Y-10288095D02*
X285694047Y-10288095D01*
X285570238Y-10350000D01*
X285508333Y-10411904D01*
X285384523Y-10597619D01*
X285322619Y-10845238D01*
X285322619Y-11340476D01*
X285384523Y-11464285D01*
X285446428Y-11526190D01*
X285570238Y-11588095D01*
X285817857Y-11588095D01*
X285941666Y-11526190D01*
X286003571Y-11464285D01*
X286065476Y-11340476D01*
X286065476Y-11030952D01*
X286003571Y-10907142D01*
X285941666Y-10845238D01*
X285817857Y-10783333D01*
X285570238Y-10783333D01*
X285446428Y-10845238D01*
X285384523Y-10907142D01*
X285322619Y-11030952D01*
D10*
D11*
X60000000Y-198007200D02*
X60000000Y-200007200D01*
D10*
D11*
X110000000Y-198007200D02*
X110000000Y-200007200D01*
D10*
D11*
X160000000Y-198007200D02*
X160000000Y-200007200D01*
D10*
D11*
X210000000Y-198007200D02*
X210000000Y-200007200D01*
D10*
D11*
X260000000Y-198007200D02*
X260000000Y-200007200D01*
D10*
D11*
X36065476Y-199595295D02*
X35322619Y-199595295D01*
X35694047Y-199595295D02*
X35694047Y-198295295D01*
X35570238Y-198481009D01*
X35446428Y-198604819D01*
X35322619Y-198666723D01*
D10*
D11*
X85322619Y-198419104D02*
X85384523Y-198357200D01*
X85508333Y-198295295D01*
X85817857Y-198295295D01*
X85941666Y-198357200D01*
X86003571Y-198419104D01*
X86065476Y-198542914D01*
X86065476Y-198666723D01*
X86003571Y-198852438D01*
X85260714Y-199595295D01*
X86065476Y-199595295D01*
D10*
D11*
X135260714Y-198295295D02*
X136065476Y-198295295D01*
X135632142Y-198790533D01*
X135817857Y-198790533D01*
X135941666Y-198852438D01*
X136003571Y-198914342D01*
X136065476Y-199038152D01*
X136065476Y-199347676D01*
X136003571Y-199471485D01*
X135941666Y-199533390D01*
X135817857Y-199595295D01*
X135446428Y-199595295D01*
X135322619Y-199533390D01*
X135260714Y-199471485D01*
D10*
D11*
X185941666Y-198728628D02*
X185941666Y-199595295D01*
X185632142Y-198233390D02*
X185322619Y-199161961D01*
X186127380Y-199161961D01*
D10*
D11*
X236003571Y-198295295D02*
X235384523Y-198295295D01*
X235322619Y-198914342D01*
X235384523Y-198852438D01*
X235508333Y-198790533D01*
X235817857Y-198790533D01*
X235941666Y-198852438D01*
X236003571Y-198914342D01*
X236065476Y-199038152D01*
X236065476Y-199347676D01*
X236003571Y-199471485D01*
X235941666Y-199533390D01*
X235817857Y-199595295D01*
X235508333Y-199595295D01*
X235384523Y-199533390D01*
X235322619Y-199471485D01*
D10*
D11*
X285941666Y-198295295D02*
X285694047Y-198295295D01*
X285570238Y-198357200D01*
X285508333Y-198419104D01*
X285384523Y-198604819D01*
X285322619Y-198852438D01*
X285322619Y-199347676D01*
X285384523Y-199471485D01*
X285446428Y-199533390D01*
X285570238Y-199595295D01*
X285817857Y-199595295D01*
X285941666Y-199533390D01*
X286003571Y-199471485D01*
X286065476Y-199347676D01*
X286065476Y-199038152D01*
X286003571Y-198914342D01*
X285941666Y-198852438D01*
X285817857Y-198790533D01*
X285570238Y-198790533D01*
X285446428Y-198852438D01*
X285384523Y-198914342D01*
X285322619Y-199038152D01*
D10*
D11*
X10000000Y-60000000D02*
X12000000Y-60000000D01*
D10*
D11*
X10000000Y-110000000D02*
X12000000Y-110000000D01*
D10*
D11*
X10000000Y-160000000D02*
X12000000Y-160000000D01*
D10*
D11*
X10690476Y-35216666D02*
X11309523Y-35216666D01*
X10566666Y-35588095D02*
X11000000Y-34288095D01*
X11433333Y-35588095D01*
D10*
D11*
X11092857Y-84907142D02*
X11278571Y-84969047D01*
X11340476Y-85030952D01*
X11402380Y-85154761D01*
X11402380Y-85340476D01*
X11340476Y-85464285D01*
X11278571Y-85526190D01*
X11154761Y-85588095D01*
X10659523Y-85588095D01*
X10659523Y-84288095D01*
X11092857Y-84288095D01*
X11216666Y-84350000D01*
X11278571Y-84411904D01*
X11340476Y-84535714D01*
X11340476Y-84659523D01*
X11278571Y-84783333D01*
X11216666Y-84845238D01*
X11092857Y-84907142D01*
X10659523Y-84907142D01*
D10*
D11*
X11402380Y-135464285D02*
X11340476Y-135526190D01*
X11154761Y-135588095D01*
X11030952Y-135588095D01*
X10845238Y-135526190D01*
X10721428Y-135402380D01*
X10659523Y-135278571D01*
X10597619Y-135030952D01*
X10597619Y-134845238D01*
X10659523Y-134597619D01*
X10721428Y-134473809D01*
X10845238Y-134350000D01*
X11030952Y-134288095D01*
X11154761Y-134288095D01*
X11340476Y-134350000D01*
X11402380Y-134411904D01*
D10*
D11*
X10659523Y-185588095D02*
X10659523Y-184288095D01*
X10969047Y-184288095D01*
X11154761Y-184350000D01*
X11278571Y-184473809D01*
X11340476Y-184597619D01*
X11402380Y-184845238D01*
X11402380Y-185030952D01*
X11340476Y-185278571D01*
X11278571Y-185402380D01*
X11154761Y-185526190D01*
X10969047Y-185588095D01*
X10659523Y-185588095D01*
D10*
D11*
X287002200Y-60000000D02*
X285002200Y-60000000D01*
D10*
D11*
X287002200Y-110000000D02*
X285002200Y-110000000D01*
D10*
D11*
X287002200Y-160000000D02*
X285002200Y-160000000D01*
D10*
D11*
X285692676Y-35216666D02*
X286311723Y-35216666D01*
X285568866Y-35588095D02*
X286002200Y-34288095D01*
X286435533Y-35588095D01*
D10*
D11*
X286095057Y-84907142D02*
X286280771Y-84969047D01*
X286342676Y-85030952D01*
X286404580Y-85154761D01*
X286404580Y-85340476D01*
X286342676Y-85464285D01*
X286280771Y-85526190D01*
X286156961Y-85588095D01*
X285661723Y-85588095D01*
X285661723Y-84288095D01*
X286095057Y-84288095D01*
X286218866Y-84350000D01*
X286280771Y-84411904D01*
X286342676Y-84535714D01*
X286342676Y-84659523D01*
X286280771Y-84783333D01*
X286218866Y-84845238D01*
X286095057Y-84907142D01*
X285661723Y-84907142D01*
D10*
D11*
X286404580Y-135464285D02*
X286342676Y-135526190D01*
X286156961Y-135588095D01*
X286033152Y-135588095D01*
X285847438Y-135526190D01*
X285723628Y-135402380D01*
X285661723Y-135278571D01*
X285599819Y-135030952D01*
X285599819Y-134845238D01*
X285661723Y-134597619D01*
X285723628Y-134473809D01*
X285847438Y-134350000D01*
X286033152Y-134288095D01*
X286156961Y-134288095D01*
X286342676Y-134350000D01*
X286404580Y-134411904D01*
D10*
D11*
X285661723Y-185588095D02*
X285661723Y-184288095D01*
X285971247Y-184288095D01*
X286156961Y-184350000D01*
X286280771Y-184473809D01*
X286342676Y-184597619D01*
X286404580Y-184845238D01*
X286404580Y-185030952D01*
X286342676Y-185278571D01*
X286280771Y-185402380D01*
X286156961Y-185526190D01*
X285971247Y-185588095D01*
X285661723Y-185588095D01*
D10*
D11*
X200434342Y-193785771D02*
X200434342Y-192285771D01*
X200791485Y-192285771D01*
X201005771Y-192357200D01*
X201148628Y-192500057D01*
X201220057Y-192642914D01*
X201291485Y-192928628D01*
X201291485Y-193142914D01*
X201220057Y-193428628D01*
X201148628Y-193571485D01*
X201005771Y-193714342D01*
X200791485Y-193785771D01*
X200434342Y-193785771D01*
X202577200Y-193785771D02*
X202577200Y-193000057D01*
X202505771Y-192857200D01*
X202362914Y-192785771D01*
X202077200Y-192785771D01*
X201934342Y-192857200D01*
X202577200Y-193714342D02*
X202434342Y-193785771D01*
X202077200Y-193785771D01*
X201934342Y-193714342D01*
X201862914Y-193571485D01*
X201862914Y-193428628D01*
X201934342Y-193285771D01*
X202077200Y-193214342D01*
X202434342Y-193214342D01*
X202577200Y-193142914D01*
X203077200Y-192785771D02*
X203648628Y-192785771D01*
X203291485Y-192285771D02*
X203291485Y-193571485D01*
X203362914Y-193714342D01*
X203505771Y-193785771D01*
X203648628Y-193785771D01*
X204720057Y-193714342D02*
X204577200Y-193785771D01*
X204291485Y-193785771D01*
X204148628Y-193714342D01*
X204077200Y-193571485D01*
X204077200Y-193000057D01*
X204148628Y-192857200D01*
X204291485Y-192785771D01*
X204577200Y-192785771D01*
X204720057Y-192857200D01*
X204791485Y-193000057D01*
X204791485Y-193142914D01*
X204077200Y-193285771D01*
X205434342Y-193642914D02*
X205505771Y-193714342D01*
X205434342Y-193785771D01*
X205362914Y-193714342D01*
X205434342Y-193642914D01*
X205434342Y-193785771D01*
X205434342Y-192857200D02*
X205505771Y-192928628D01*
X205434342Y-193000057D01*
X205362914Y-192928628D01*
X205434342Y-192857200D01*
X205434342Y-193000057D01*
D10*
D11*
X177002200Y-194507200D02*
X285002200Y-194507200D01*
D10*
D11*
X178434342Y-196585771D02*
X178434342Y-195085771D01*
X179291485Y-196585771D02*
X178648628Y-195728628D01*
X179291485Y-195085771D02*
X178434342Y-195942914D01*
X179934342Y-196585771D02*
X179934342Y-195585771D01*
X179934342Y-195085771D02*
X179862914Y-195157200D01*
X179934342Y-195228628D01*
X180005771Y-195157200D01*
X179934342Y-195085771D01*
X179934342Y-195228628D01*
X181505771Y-196442914D02*
X181434342Y-196514342D01*
X181220057Y-196585771D01*
X181077200Y-196585771D01*
X180862914Y-196514342D01*
X180720057Y-196371485D01*
X180648628Y-196228628D01*
X180577200Y-195942914D01*
X180577200Y-195728628D01*
X180648628Y-195442914D01*
X180720057Y-195300057D01*
X180862914Y-195157200D01*
X181077200Y-195085771D01*
X181220057Y-195085771D01*
X181434342Y-195157200D01*
X181505771Y-195228628D01*
X182791485Y-196585771D02*
X182791485Y-195800057D01*
X182720057Y-195657200D01*
X182577200Y-195585771D01*
X182291485Y-195585771D01*
X182148628Y-195657200D01*
X182791485Y-196514342D02*
X182648628Y-196585771D01*
X182291485Y-196585771D01*
X182148628Y-196514342D01*
X182077200Y-196371485D01*
X182077200Y-196228628D01*
X182148628Y-196085771D01*
X182291485Y-196014342D01*
X182648628Y-196014342D01*
X182791485Y-195942914D01*
X184148628Y-196585771D02*
X184148628Y-195085771D01*
X184148628Y-196514342D02*
X184005771Y-196585771D01*
X183720057Y-196585771D01*
X183577200Y-196514342D01*
X183505771Y-196442914D01*
X183434342Y-196300057D01*
X183434342Y-195871485D01*
X183505771Y-195728628D01*
X183577200Y-195657200D01*
X183720057Y-195585771D01*
X184005771Y-195585771D01*
X184148628Y-195657200D01*
X186005771Y-195800057D02*
X186505771Y-195800057D01*
X186720057Y-196585771D02*
X186005771Y-196585771D01*
X186005771Y-195085771D01*
X186720057Y-195085771D01*
X187362914Y-196442914D02*
X187434342Y-196514342D01*
X187362914Y-196585771D01*
X187291485Y-196514342D01*
X187362914Y-196442914D01*
X187362914Y-196585771D01*
X188077200Y-196585771D02*
X188077200Y-195085771D01*
X188434342Y-195085771D01*
X188648628Y-195157200D01*
X188791485Y-195300057D01*
X188862914Y-195442914D01*
X188934342Y-195728628D01*
X188934342Y-195942914D01*
X188862914Y-196228628D01*
X188791485Y-196371485D01*
X188648628Y-196514342D01*
X188434342Y-196585771D01*
X188077200Y-196585771D01*
X189577200Y-196442914D02*
X189648628Y-196514342D01*
X189577200Y-196585771D01*
X189505771Y-196514342D01*
X189577200Y-196442914D01*
X189577200Y-196585771D01*
X190220057Y-196157200D02*
X190934342Y-196157200D01*
X190077200Y-196585771D02*
X190577200Y-195085771D01*
X191077200Y-196585771D01*
X191577200Y-196442914D02*
X191648628Y-196514342D01*
X191577200Y-196585771D01*
X191505771Y-196514342D01*
X191577200Y-196442914D01*
X191577200Y-196585771D01*
X194577200Y-196585771D02*
X194577200Y-195085771D01*
X194720057Y-196014342D02*
X195148628Y-196585771D01*
X195148628Y-195585771D02*
X194577200Y-196157200D01*
X195791485Y-196585771D02*
X195791485Y-195585771D01*
X195791485Y-195085771D02*
X195720057Y-195157200D01*
X195791485Y-195228628D01*
X195862914Y-195157200D01*
X195791485Y-195085771D01*
X195791485Y-195228628D01*
X197148628Y-196514342D02*
X197005771Y-196585771D01*
X196720057Y-196585771D01*
X196577200Y-196514342D01*
X196505771Y-196442914D01*
X196434342Y-196300057D01*
X196434342Y-195871485D01*
X196505771Y-195728628D01*
X196577200Y-195657200D01*
X196720057Y-195585771D01*
X197005771Y-195585771D01*
X197148628Y-195657200D01*
X198434342Y-196585771D02*
X198434342Y-195800057D01*
X198362914Y-195657200D01*
X198220057Y-195585771D01*
X197934342Y-195585771D01*
X197791485Y-195657200D01*
X198434342Y-196514342D02*
X198291485Y-196585771D01*
X197934342Y-196585771D01*
X197791485Y-196514342D01*
X197720057Y-196371485D01*
X197720057Y-196228628D01*
X197791485Y-196085771D01*
X197934342Y-196014342D01*
X198291485Y-196014342D01*
X198434342Y-195942914D01*
X199791485Y-196585771D02*
X199791485Y-195085771D01*
X199791485Y-196514342D02*
X199648628Y-196585771D01*
X199362914Y-196585771D01*
X199220057Y-196514342D01*
X199148628Y-196442914D01*
X199077200Y-196300057D01*
X199077200Y-195871485D01*
X199148628Y-195728628D01*
X199220057Y-195657200D01*
X199362914Y-195585771D01*
X199648628Y-195585771D01*
X199791485Y-195657200D01*
X202077200Y-197157200D02*
X202005771Y-197085771D01*
X201862914Y-196871485D01*
X201791485Y-196728628D01*
X201720057Y-196514342D01*
X201648628Y-196157200D01*
X201648628Y-195871485D01*
X201720057Y-195514342D01*
X201791485Y-195300057D01*
X201862914Y-195157200D01*
X202005771Y-194942914D01*
X202077200Y-194871485D01*
X203362914Y-195085771D02*
X202648628Y-195085771D01*
X202577200Y-195800057D01*
X202648628Y-195728628D01*
X202791485Y-195657200D01*
X203148628Y-195657200D01*
X203291485Y-195728628D01*
X203362914Y-195800057D01*
X203434342Y-195942914D01*
X203434342Y-196300057D01*
X203362914Y-196442914D01*
X203291485Y-196514342D01*
X203148628Y-196585771D01*
X202791485Y-196585771D01*
X202648628Y-196514342D01*
X202577200Y-196442914D01*
X204077200Y-196442914D02*
X204148628Y-196514342D01*
X204077200Y-196585771D01*
X204005771Y-196514342D01*
X204077200Y-196442914D01*
X204077200Y-196585771D01*
X205577200Y-196585771D02*
X204720057Y-196585771D01*
X205148628Y-196585771D02*
X205148628Y-195085771D01*
X205005771Y-195300057D01*
X204862914Y-195442914D01*
X204720057Y-195514342D01*
X206220057Y-196442914D02*
X206291485Y-196514342D01*
X206220057Y-196585771D01*
X206148628Y-196514342D01*
X206220057Y-196442914D01*
X206220057Y-196585771D01*
X207577200Y-195085771D02*
X207291485Y-195085771D01*
X207148628Y-195157200D01*
X207077200Y-195228628D01*
X206934342Y-195442914D01*
X206862914Y-195728628D01*
X206862914Y-196300057D01*
X206934342Y-196442914D01*
X207005771Y-196514342D01*
X207148628Y-196585771D01*
X207434342Y-196585771D01*
X207577200Y-196514342D01*
X207648628Y-196442914D01*
X207720057Y-196300057D01*
X207720057Y-195942914D01*
X207648628Y-195800057D01*
X207577200Y-195728628D01*
X207434342Y-195657200D01*
X207148628Y-195657200D01*
X207005771Y-195728628D01*
X206934342Y-195800057D01*
X206862914Y-195942914D01*
X208220057Y-197157200D02*
X208291485Y-197085771D01*
X208434342Y-196871485D01*
X208505771Y-196728628D01*
X208577200Y-196514342D01*
X208648628Y-196157200D01*
X208648628Y-195871485D01*
X208577200Y-195514342D01*
X208505771Y-195300057D01*
X208434342Y-195157200D01*
X208291485Y-194942914D01*
X208220057Y-194871485D01*
X209362914Y-196014342D02*
X210505771Y-196014342D01*
X212005771Y-196585771D02*
X211148628Y-196585771D01*
X211577200Y-196585771D02*
X211577200Y-195085771D01*
X211434342Y-195300057D01*
X211291485Y-195442914D01*
X211148628Y-195514342D01*
D10*
D11*
X177002200Y-191507200D02*
X285002200Y-191507200D01*
D10*
D12*
X264411485Y-193785771D02*
X263911485Y-193071485D01*
X263554342Y-193785771D02*
X263554342Y-192285771D01*
X264125771Y-192285771D01*
X264268628Y-192357200D01*
X264340057Y-192428628D01*
X264411485Y-192571485D01*
X264411485Y-192785771D01*
X264340057Y-192928628D01*
X264268628Y-193000057D01*
X264125771Y-193071485D01*
X263554342Y-193071485D01*
X265625771Y-193714342D02*
X265482914Y-193785771D01*
X265197200Y-193785771D01*
X265054342Y-193714342D01*
X264982914Y-193571485D01*
X264982914Y-193000057D01*
X265054342Y-192857200D01*
X265197200Y-192785771D01*
X265482914Y-192785771D01*
X265625771Y-192857200D01*
X265697200Y-193000057D01*
X265697200Y-193142914D01*
X264982914Y-193285771D01*
X266197200Y-192785771D02*
X266554342Y-193785771D01*
X266911485Y-192785771D01*
X267482914Y-193642914D02*
X267554342Y-193714342D01*
X267482914Y-193785771D01*
X267411485Y-193714342D01*
X267482914Y-193642914D01*
X267482914Y-193785771D01*
X267482914Y-192857200D02*
X267554342Y-192928628D01*
X267482914Y-193000057D01*
X267411485Y-192928628D01*
X267482914Y-192857200D01*
X267482914Y-193000057D01*
D10*
D11*
X178362914Y-193714342D02*
X178577200Y-193785771D01*
X178934342Y-193785771D01*
X179077200Y-193714342D01*
X179148628Y-193642914D01*
X179220057Y-193500057D01*
X179220057Y-193357200D01*
X179148628Y-193214342D01*
X179077200Y-193142914D01*
X178934342Y-193071485D01*
X178648628Y-193000057D01*
X178505771Y-192928628D01*
X178434342Y-192857200D01*
X178362914Y-192714342D01*
X178362914Y-192571485D01*
X178434342Y-192428628D01*
X178505771Y-192357200D01*
X178648628Y-192285771D01*
X179005771Y-192285771D01*
X179220057Y-192357200D01*
X179862914Y-193785771D02*
X179862914Y-192785771D01*
X179862914Y-192285771D02*
X179791485Y-192357200D01*
X179862914Y-192428628D01*
X179934342Y-192357200D01*
X179862914Y-192285771D01*
X179862914Y-192428628D01*
X180434342Y-192785771D02*
X181220057Y-192785771D01*
X180434342Y-193785771D01*
X181220057Y-193785771D01*
X182362914Y-193714342D02*
X182220057Y-193785771D01*
X181934342Y-193785771D01*
X181791485Y-193714342D01*
X181720057Y-193571485D01*
X181720057Y-193000057D01*
X181791485Y-192857200D01*
X181934342Y-192785771D01*
X182220057Y-192785771D01*
X182362914Y-192857200D01*
X182434342Y-193000057D01*
X182434342Y-193142914D01*
X181720057Y-193285771D01*
X183077200Y-193642914D02*
X183148628Y-193714342D01*
X183077200Y-193785771D01*
X183005771Y-193714342D01*
X183077200Y-193642914D01*
X183077200Y-193785771D01*
X183077200Y-192857200D02*
X183148628Y-192928628D01*
X183077200Y-193000057D01*
X183005771Y-192928628D01*
X183077200Y-192857200D01*
X183077200Y-193000057D01*
X184862914Y-193357200D02*
X185577200Y-193357200D01*
X184720057Y-193785771D02*
X185220057Y-192285771D01*
X185720057Y-193785771D01*
X186862914Y-192785771D02*
X186862914Y-193785771D01*
X186505771Y-192214342D02*
X186148628Y-193285771D01*
X187077200Y-193285771D01*
D10*
D11*
X263434342Y-196585771D02*
X263434342Y-195085771D01*
X264791485Y-196585771D02*
X264791485Y-195085771D01*
X264791485Y-196514342D02*
X264648628Y-196585771D01*
X264362914Y-196585771D01*
X264220057Y-196514342D01*
X264148628Y-196442914D01*
X264077200Y-196300057D01*
X264077200Y-195871485D01*
X264148628Y-195728628D01*
X264220057Y-195657200D01*
X264362914Y-195585771D01*
X264648628Y-195585771D01*
X264791485Y-195657200D01*
X265505771Y-196442914D02*
X265577200Y-196514342D01*
X265505771Y-196585771D01*
X265434342Y-196514342D01*
X265505771Y-196442914D01*
X265505771Y-196585771D01*
X265505771Y-195657200D02*
X265577200Y-195728628D01*
X265505771Y-195800057D01*
X265434342Y-195728628D01*
X265505771Y-195657200D01*
X265505771Y-195800057D01*
X268148628Y-196585771D02*
X267291485Y-196585771D01*
X267720057Y-196585771D02*
X267720057Y-195085771D01*
X267577200Y-195300057D01*
X267434342Y-195442914D01*
X267291485Y-195514342D01*
X269862914Y-195014342D02*
X268577200Y-196942914D01*
X271148628Y-196585771D02*
X270291485Y-196585771D01*
X270720057Y-196585771D02*
X270720057Y-195085771D01*
X270577200Y-195300057D01*
X270434342Y-195442914D01*
X270291485Y-195514342D01*
D10*
D11*
X177002200Y-187507200D02*
X285002200Y-187507200D01*
D10*
D13*
X178714580Y-188211961D02*
X179857438Y-188211961D01*
X179036009Y-190211961D02*
X179286009Y-188211961D01*
X180274104Y-190211961D02*
X180440771Y-188878628D01*
X180524104Y-188211961D02*
X180416961Y-188307200D01*
X180500295Y-188402438D01*
X180607438Y-188307200D01*
X180524104Y-188211961D01*
X180500295Y-188402438D01*
X181107438Y-188878628D02*
X181869342Y-188878628D01*
X181476485Y-188211961D02*
X181262200Y-189926247D01*
X181333628Y-190116723D01*
X181512200Y-190211961D01*
X181702676Y-190211961D01*
X182655057Y-190211961D02*
X182476485Y-190116723D01*
X182405057Y-189926247D01*
X182619342Y-188211961D01*
X184190771Y-190116723D02*
X183988390Y-190211961D01*
X183607438Y-190211961D01*
X183428866Y-190116723D01*
X183357438Y-189926247D01*
X183452676Y-189164342D01*
X183571723Y-188973866D01*
X183774104Y-188878628D01*
X184155057Y-188878628D01*
X184333628Y-188973866D01*
X184405057Y-189164342D01*
X184381247Y-189354819D01*
X183405057Y-189545295D01*
X185155057Y-190021485D02*
X185238390Y-190116723D01*
X185131247Y-190211961D01*
X185047914Y-190116723D01*
X185155057Y-190021485D01*
X185131247Y-190211961D01*
X185286009Y-188973866D02*
X185369342Y-189069104D01*
X185262200Y-189164342D01*
X185178866Y-189069104D01*
X185286009Y-188973866D01*
X185262200Y-189164342D01*
D10*
D11*
X178934342Y-185600057D02*
X178434342Y-185600057D01*
X178434342Y-186385771D02*
X178434342Y-184885771D01*
X179148628Y-184885771D01*
X179720057Y-186385771D02*
X179720057Y-185385771D01*
X179720057Y-184885771D02*
X179648628Y-184957200D01*
X179720057Y-185028628D01*
X179791485Y-184957200D01*
X179720057Y-184885771D01*
X179720057Y-185028628D01*
X180648628Y-186385771D02*
X180505771Y-186314342D01*
X180434342Y-186171485D01*
X180434342Y-184885771D01*
X181791485Y-186314342D02*
X181648628Y-186385771D01*
X181362914Y-186385771D01*
X181220057Y-186314342D01*
X181148628Y-186171485D01*
X181148628Y-185600057D01*
X181220057Y-185457200D01*
X181362914Y-185385771D01*
X181648628Y-185385771D01*
X181791485Y-185457200D01*
X181862914Y-185600057D01*
X181862914Y-185742914D01*
X181148628Y-185885771D01*
X182505771Y-186242914D02*
X182577200Y-186314342D01*
X182505771Y-186385771D01*
X182434342Y-186314342D01*
X182505771Y-186242914D01*
X182505771Y-186385771D01*
X182505771Y-185457200D02*
X182577200Y-185528628D01*
X182505771Y-185600057D01*
X182434342Y-185528628D01*
X182505771Y-185457200D01*
X182505771Y-185600057D01*
X184577200Y-186385771D02*
X184434342Y-186314342D01*
X184362914Y-186242914D01*
X184291485Y-186100057D01*
X184291485Y-185671485D01*
X184362914Y-185528628D01*
X184434342Y-185457200D01*
X184577200Y-185385771D01*
X184791485Y-185385771D01*
X184934342Y-185457200D01*
X185005771Y-185528628D01*
X185077200Y-185671485D01*
X185077200Y-186100057D01*
X185005771Y-186242914D01*
X184934342Y-186314342D01*
X184791485Y-186385771D01*
X184577200Y-186385771D01*
X186362914Y-186385771D02*
X186362914Y-185600057D01*
X186291485Y-185457200D01*
X186148628Y-185385771D01*
X185862914Y-185385771D01*
X185720057Y-185457200D01*
X186362914Y-186314342D02*
X186220057Y-186385771D01*
X185862914Y-186385771D01*
X185720057Y-186314342D01*
X185648628Y-186171485D01*
X185648628Y-186028628D01*
X185720057Y-185885771D01*
X185862914Y-185814342D01*
X186220057Y-185814342D01*
X186362914Y-185742914D01*
X187005771Y-186314342D02*
X187148628Y-186385771D01*
X187434342Y-186385771D01*
X187577200Y-186314342D01*
X187648628Y-186171485D01*
X187648628Y-186100057D01*
X187577200Y-185957200D01*
X187434342Y-185885771D01*
X187220057Y-185885771D01*
X187077200Y-185814342D01*
X187005771Y-185671485D01*
X187005771Y-185600057D01*
X187077200Y-185457200D01*
X187220057Y-185385771D01*
X187434342Y-185385771D01*
X187577200Y-185457200D01*
X188291485Y-186385771D02*
X188291485Y-185385771D01*
X188291485Y-184885771D02*
X188220057Y-184957200D01*
X188291485Y-185028628D01*
X188362914Y-184957200D01*
X188291485Y-184885771D01*
X188291485Y-185028628D01*
X188934342Y-186314342D02*
X189077200Y-186385771D01*
X189362914Y-186385771D01*
X189505771Y-186314342D01*
X189577200Y-186171485D01*
X189577200Y-186100057D01*
X189505771Y-185957200D01*
X189362914Y-185885771D01*
X189148628Y-185885771D01*
X189005771Y-185814342D01*
X188934342Y-185671485D01*
X188934342Y-185600057D01*
X189005771Y-185457200D01*
X189148628Y-185385771D01*
X189362914Y-185385771D01*
X189505771Y-185457200D01*
X189862914Y-186528628D02*
X191005771Y-186528628D01*
X191362914Y-186385771D02*
X191362914Y-185385771D01*
X191362914Y-184885771D02*
X191291485Y-184957200D01*
X191362914Y-185028628D01*
X191434342Y-184957200D01*
X191362914Y-184885771D01*
X191362914Y-185028628D01*
X192291485Y-186385771D02*
X192148628Y-186314342D01*
X192077200Y-186242914D01*
X192005771Y-186100057D01*
X192005771Y-185671485D01*
X192077200Y-185528628D01*
X192148628Y-185457200D01*
X192291485Y-185385771D01*
X192505771Y-185385771D01*
X192648628Y-185457200D01*
X192720057Y-185528628D01*
X192791485Y-185671485D01*
X192791485Y-186100057D01*
X192720057Y-186242914D01*
X192648628Y-186314342D01*
X192505771Y-186385771D01*
X192291485Y-186385771D01*
X193220057Y-185385771D02*
X193791485Y-185385771D01*
X193434342Y-184885771D02*
X193434342Y-186171485D01*
X193505771Y-186314342D01*
X193648628Y-186385771D01*
X193791485Y-186385771D01*
X194291485Y-186242914D02*
X194362914Y-186314342D01*
X194291485Y-186385771D01*
X194220057Y-186314342D01*
X194291485Y-186242914D01*
X194291485Y-186385771D01*
X195005771Y-186385771D02*
X195005771Y-184885771D01*
X195148628Y-185814342D02*
X195577200Y-186385771D01*
X195577200Y-185385771D02*
X195005771Y-185957200D01*
X196220057Y-186385771D02*
X196220057Y-185385771D01*
X196220057Y-184885771D02*
X196148628Y-184957200D01*
X196220057Y-185028628D01*
X196291485Y-184957200D01*
X196220057Y-184885771D01*
X196220057Y-185028628D01*
X197577200Y-186314342D02*
X197434342Y-186385771D01*
X197148628Y-186385771D01*
X197005771Y-186314342D01*
X196934342Y-186242914D01*
X196862914Y-186100057D01*
X196862914Y-185671485D01*
X196934342Y-185528628D01*
X197005771Y-185457200D01*
X197148628Y-185385771D01*
X197434342Y-185385771D01*
X197577200Y-185457200D01*
X198862914Y-186385771D02*
X198862914Y-185600057D01*
X198791485Y-185457200D01*
X198648628Y-185385771D01*
X198362914Y-185385771D01*
X198220057Y-185457200D01*
X198862914Y-186314342D02*
X198720057Y-186385771D01*
X198362914Y-186385771D01*
X198220057Y-186314342D01*
X198148628Y-186171485D01*
X198148628Y-186028628D01*
X198220057Y-185885771D01*
X198362914Y-185814342D01*
X198720057Y-185814342D01*
X198862914Y-185742914D01*
X200220057Y-186385771D02*
X200220057Y-184885771D01*
X200220057Y-186314342D02*
X200077200Y-186385771D01*
X199791485Y-186385771D01*
X199648628Y-186314342D01*
X199577200Y-186242914D01*
X199505771Y-186100057D01*
X199505771Y-185671485D01*
X199577200Y-185528628D01*
X199648628Y-185457200D01*
X199791485Y-185385771D01*
X200077200Y-185385771D01*
X200220057Y-185457200D01*
X200577200Y-186528628D02*
X201720057Y-186528628D01*
X202077200Y-185385771D02*
X202077200Y-186885771D01*
X202077200Y-185457200D02*
X202220057Y-185385771D01*
X202505771Y-185385771D01*
X202648628Y-185457200D01*
X202720057Y-185528628D01*
X202791485Y-185671485D01*
X202791485Y-186100057D01*
X202720057Y-186242914D01*
X202648628Y-186314342D01*
X202505771Y-186385771D01*
X202220057Y-186385771D01*
X202077200Y-186314342D01*
X204077200Y-186314342D02*
X203934342Y-186385771D01*
X203648628Y-186385771D01*
X203505771Y-186314342D01*
X203434342Y-186242914D01*
X203362914Y-186100057D01*
X203362914Y-185671485D01*
X203434342Y-185528628D01*
X203505771Y-185457200D01*
X203648628Y-185385771D01*
X203934342Y-185385771D01*
X204077200Y-185457200D01*
X204720057Y-186385771D02*
X204720057Y-184885771D01*
X204720057Y-185457200D02*
X204862914Y-185385771D01*
X205148628Y-185385771D01*
X205291485Y-185457200D01*
X205362914Y-185528628D01*
X205434342Y-185671485D01*
X205434342Y-186100057D01*
X205362914Y-186242914D01*
X205291485Y-186314342D01*
X205148628Y-186385771D01*
X204862914Y-186385771D01*
X204720057Y-186314342D01*
D10*
D11*
X177002200Y-181507200D02*
X285002200Y-181507200D01*
D10*
D11*
X178362914Y-183614342D02*
X178577200Y-183685771D01*
X178934342Y-183685771D01*
X179077200Y-183614342D01*
X179148628Y-183542914D01*
X179220057Y-183400057D01*
X179220057Y-183257200D01*
X179148628Y-183114342D01*
X179077200Y-183042914D01*
X178934342Y-182971485D01*
X178648628Y-182900057D01*
X178505771Y-182828628D01*
X178434342Y-182757200D01*
X178362914Y-182614342D01*
X178362914Y-182471485D01*
X178434342Y-182328628D01*
X178505771Y-182257200D01*
X178648628Y-182185771D01*
X179005771Y-182185771D01*
X179220057Y-182257200D01*
X179862914Y-183685771D02*
X179862914Y-182185771D01*
X180505771Y-183685771D02*
X180505771Y-182900057D01*
X180434342Y-182757200D01*
X180291485Y-182685771D01*
X180077200Y-182685771D01*
X179934342Y-182757200D01*
X179862914Y-182828628D01*
X181791485Y-183614342D02*
X181648628Y-183685771D01*
X181362914Y-183685771D01*
X181220057Y-183614342D01*
X181148628Y-183471485D01*
X181148628Y-182900057D01*
X181220057Y-182757200D01*
X181362914Y-182685771D01*
X181648628Y-182685771D01*
X181791485Y-182757200D01*
X181862914Y-182900057D01*
X181862914Y-183042914D01*
X181148628Y-183185771D01*
X183077200Y-183614342D02*
X182934342Y-183685771D01*
X182648628Y-183685771D01*
X182505771Y-183614342D01*
X182434342Y-183471485D01*
X182434342Y-182900057D01*
X182505771Y-182757200D01*
X182648628Y-182685771D01*
X182934342Y-182685771D01*
X183077200Y-182757200D01*
X183148628Y-182900057D01*
X183148628Y-183042914D01*
X182434342Y-183185771D01*
X183577200Y-182685771D02*
X184148628Y-182685771D01*
X183791485Y-182185771D02*
X183791485Y-183471485D01*
X183862914Y-183614342D01*
X184005771Y-183685771D01*
X184148628Y-183685771D01*
X184648628Y-183542914D02*
X184720057Y-183614342D01*
X184648628Y-183685771D01*
X184577200Y-183614342D01*
X184648628Y-183542914D01*
X184648628Y-183685771D01*
X184648628Y-182757200D02*
X184720057Y-182828628D01*
X184648628Y-182900057D01*
X184577200Y-182828628D01*
X184648628Y-182757200D01*
X184648628Y-182900057D01*
D10*
D11*
X197002200Y-191507200D02*
X197002200Y-194507200D01*
D10*
D11*
X261002200Y-191507200D02*
X261002200Y-198007200D01*
D14*
X54990000Y-84650000D03*
X54990000Y-83350000D03*
D15*
X83739000Y-75820000D03*
X83739000Y-79460000D03*
D16*
X89614000Y-82540000D03*
X90814000Y-82540000D03*
X89614000Y-72740000D03*
X90814000Y-72740000D03*
X92014000Y-72740000D03*
X92014000Y-82540000D03*
D17*
X94864000Y-72540000D03*
X87664000Y-72540000D03*
X87664000Y-82740000D03*
X94864000Y-82740000D03*
G36*
G01*
X65914000Y-82729500D02*
X65914000Y-82930500D01*
G75*
G02*
X65834500Y-83010000I-79500J0D01*
G01*
X65675500Y-83010000D01*
G75*
G02*
X65596000Y-82930500I0J79500D01*
G01*
X65596000Y-82729500D01*
G75*
G02*
X65675500Y-82650000I79500J0D01*
G01*
X65834500Y-82650000D01*
G75*
G02*
X65914000Y-82729500I0J-79500D01*
G01*
G37*
G36*
G01*
X66604000Y-82729500D02*
X66604000Y-82930500D01*
G75*
G02*
X66524500Y-83010000I-79500J0D01*
G01*
X66365500Y-83010000D01*
G75*
G02*
X66286000Y-82930500I0J79500D01*
G01*
X66286000Y-82729500D01*
G75*
G02*
X66365500Y-82650000I79500J0D01*
G01*
X66524500Y-82650000D01*
G75*
G02*
X66604000Y-82729500I0J-79500D01*
G01*
G37*
G36*
G01*
X67502500Y-83130000D02*
X67157500Y-83130000D01*
G75*
G02*
X67010000Y-82982500I0J147500D01*
G01*
X67010000Y-82687500D01*
G75*
G02*
X67157500Y-82540000I147500J0D01*
G01*
X67502500Y-82540000D01*
G75*
G02*
X67650000Y-82687500I0J-147500D01*
G01*
X67650000Y-82982500D01*
G75*
G02*
X67502500Y-83130000I-147500J0D01*
G01*
G37*
G36*
G01*
X67502500Y-84100000D02*
X67157500Y-84100000D01*
G75*
G02*
X67010000Y-83952500I0J147500D01*
G01*
X67010000Y-83657500D01*
G75*
G02*
X67157500Y-83510000I147500J0D01*
G01*
X67502500Y-83510000D01*
G75*
G02*
X67650000Y-83657500I0J-147500D01*
G01*
X67650000Y-83952500D01*
G75*
G02*
X67502500Y-84100000I-147500J0D01*
G01*
G37*
G36*
G01*
X68260000Y-75882500D02*
X68260000Y-75537500D01*
G75*
G02*
X68407500Y-75390000I147500J0D01*
G01*
X68702500Y-75390000D01*
G75*
G02*
X68850000Y-75537500I0J-147500D01*
G01*
X68850000Y-75882500D01*
G75*
G02*
X68702500Y-76030000I-147500J0D01*
G01*
X68407500Y-76030000D01*
G75*
G02*
X68260000Y-75882500I0J147500D01*
G01*
G37*
G36*
G01*
X69230000Y-75882500D02*
X69230000Y-75537500D01*
G75*
G02*
X69377500Y-75390000I147500J0D01*
G01*
X69672500Y-75390000D01*
G75*
G02*
X69820000Y-75537500I0J-147500D01*
G01*
X69820000Y-75882500D01*
G75*
G02*
X69672500Y-76030000I-147500J0D01*
G01*
X69377500Y-76030000D01*
G75*
G02*
X69230000Y-75882500I0J147500D01*
G01*
G37*
G36*
G01*
X70906000Y-84500500D02*
X70906000Y-84299500D01*
G75*
G02*
X70985500Y-84220000I79500J0D01*
G01*
X71144500Y-84220000D01*
G75*
G02*
X71224000Y-84299500I0J-79500D01*
G01*
X71224000Y-84500500D01*
G75*
G02*
X71144500Y-84580000I-79500J0D01*
G01*
X70985500Y-84580000D01*
G75*
G02*
X70906000Y-84500500I0J79500D01*
G01*
G37*
G36*
G01*
X70216000Y-84500500D02*
X70216000Y-84299500D01*
G75*
G02*
X70295500Y-84220000I79500J0D01*
G01*
X70454500Y-84220000D01*
G75*
G02*
X70534000Y-84299500I0J-79500D01*
G01*
X70534000Y-84500500D01*
G75*
G02*
X70454500Y-84580000I-79500J0D01*
G01*
X70295500Y-84580000D01*
G75*
G02*
X70216000Y-84500500I0J79500D01*
G01*
G37*
G36*
G01*
X69389500Y-77176000D02*
X69590500Y-77176000D01*
G75*
G02*
X69670000Y-77255500I0J-79500D01*
G01*
X69670000Y-77414500D01*
G75*
G02*
X69590500Y-77494000I-79500J0D01*
G01*
X69389500Y-77494000D01*
G75*
G02*
X69310000Y-77414500I0J79500D01*
G01*
X69310000Y-77255500D01*
G75*
G02*
X69389500Y-77176000I79500J0D01*
G01*
G37*
G36*
G01*
X69389500Y-76486000D02*
X69590500Y-76486000D01*
G75*
G02*
X69670000Y-76565500I0J-79500D01*
G01*
X69670000Y-76724500D01*
G75*
G02*
X69590500Y-76804000I-79500J0D01*
G01*
X69389500Y-76804000D01*
G75*
G02*
X69310000Y-76724500I0J79500D01*
G01*
X69310000Y-76565500D01*
G75*
G02*
X69389500Y-76486000I79500J0D01*
G01*
G37*
G36*
G01*
X70206000Y-83720500D02*
X70206000Y-83519500D01*
G75*
G02*
X70285500Y-83440000I79500J0D01*
G01*
X70444500Y-83440000D01*
G75*
G02*
X70524000Y-83519500I0J-79500D01*
G01*
X70524000Y-83720500D01*
G75*
G02*
X70444500Y-83800000I-79500J0D01*
G01*
X70285500Y-83800000D01*
G75*
G02*
X70206000Y-83720500I0J79500D01*
G01*
G37*
G36*
G01*
X70896000Y-83720500D02*
X70896000Y-83519500D01*
G75*
G02*
X70975500Y-83440000I79500J0D01*
G01*
X71134500Y-83440000D01*
G75*
G02*
X71214000Y-83519500I0J-79500D01*
G01*
X71214000Y-83720500D01*
G75*
G02*
X71134500Y-83800000I-79500J0D01*
G01*
X70975500Y-83800000D01*
G75*
G02*
X70896000Y-83720500I0J79500D01*
G01*
G37*
G36*
G01*
X68417500Y-76430000D02*
X68762500Y-76430000D01*
G75*
G02*
X68910000Y-76577500I0J-147500D01*
G01*
X68910000Y-76872500D01*
G75*
G02*
X68762500Y-77020000I-147500J0D01*
G01*
X68417500Y-77020000D01*
G75*
G02*
X68270000Y-76872500I0J147500D01*
G01*
X68270000Y-76577500D01*
G75*
G02*
X68417500Y-76430000I147500J0D01*
G01*
G37*
G36*
G01*
X68417500Y-77400000D02*
X68762500Y-77400000D01*
G75*
G02*
X68910000Y-77547500I0J-147500D01*
G01*
X68910000Y-77842500D01*
G75*
G02*
X68762500Y-77990000I-147500J0D01*
G01*
X68417500Y-77990000D01*
G75*
G02*
X68270000Y-77842500I0J147500D01*
G01*
X68270000Y-77547500D01*
G75*
G02*
X68417500Y-77400000I147500J0D01*
G01*
G37*
G36*
G01*
X69276250Y-83617500D02*
X68363750Y-83617500D01*
G75*
G02*
X68120000Y-83373750I0J243750D01*
G01*
X68120000Y-82886250D01*
G75*
G02*
X68363750Y-82642500I243750J0D01*
G01*
X69276250Y-82642500D01*
G75*
G02*
X69520000Y-82886250I0J-243750D01*
G01*
X69520000Y-83373750D01*
G75*
G02*
X69276250Y-83617500I-243750J0D01*
G01*
G37*
G36*
G01*
X69276250Y-85492500D02*
X68363750Y-85492500D01*
G75*
G02*
X68120000Y-85248750I0J243750D01*
G01*
X68120000Y-84761250D01*
G75*
G02*
X68363750Y-84517500I243750J0D01*
G01*
X69276250Y-84517500D01*
G75*
G02*
X69520000Y-84761250I0J-243750D01*
G01*
X69520000Y-85248750D01*
G75*
G02*
X69276250Y-85492500I-243750J0D01*
G01*
G37*
G36*
G01*
X68633750Y-70842500D02*
X69546250Y-70842500D01*
G75*
G02*
X69790000Y-71086250I0J-243750D01*
G01*
X69790000Y-71573750D01*
G75*
G02*
X69546250Y-71817500I-243750J0D01*
G01*
X68633750Y-71817500D01*
G75*
G02*
X68390000Y-71573750I0J243750D01*
G01*
X68390000Y-71086250D01*
G75*
G02*
X68633750Y-70842500I243750J0D01*
G01*
G37*
G36*
G01*
X68633750Y-72717500D02*
X69546250Y-72717500D01*
G75*
G02*
X69790000Y-72961250I0J-243750D01*
G01*
X69790000Y-73448750D01*
G75*
G02*
X69546250Y-73692500I-243750J0D01*
G01*
X68633750Y-73692500D01*
G75*
G02*
X68390000Y-73448750I0J243750D01*
G01*
X68390000Y-72961250D01*
G75*
G02*
X68633750Y-72717500I243750J0D01*
G01*
G37*
G36*
G01*
X71270500Y-71504000D02*
X71069500Y-71504000D01*
G75*
G02*
X70990000Y-71424500I0J79500D01*
G01*
X70990000Y-71265500D01*
G75*
G02*
X71069500Y-71186000I79500J0D01*
G01*
X71270500Y-71186000D01*
G75*
G02*
X71350000Y-71265500I0J-79500D01*
G01*
X71350000Y-71424500D01*
G75*
G02*
X71270500Y-71504000I-79500J0D01*
G01*
G37*
G36*
G01*
X71270500Y-70814000D02*
X71069500Y-70814000D01*
G75*
G02*
X70990000Y-70734500I0J79500D01*
G01*
X70990000Y-70575500D01*
G75*
G02*
X71069500Y-70496000I79500J0D01*
G01*
X71270500Y-70496000D01*
G75*
G02*
X71350000Y-70575500I0J-79500D01*
G01*
X71350000Y-70734500D01*
G75*
G02*
X71270500Y-70814000I-79500J0D01*
G01*
G37*
G36*
G01*
X70490500Y-70814000D02*
X70289500Y-70814000D01*
G75*
G02*
X70210000Y-70734500I0J79500D01*
G01*
X70210000Y-70575500D01*
G75*
G02*
X70289500Y-70496000I79500J0D01*
G01*
X70490500Y-70496000D01*
G75*
G02*
X70570000Y-70575500I0J-79500D01*
G01*
X70570000Y-70734500D01*
G75*
G02*
X70490500Y-70814000I-79500J0D01*
G01*
G37*
G36*
G01*
X70490500Y-71504000D02*
X70289500Y-71504000D01*
G75*
G02*
X70210000Y-71424500I0J79500D01*
G01*
X70210000Y-71265500D01*
G75*
G02*
X70289500Y-71186000I79500J0D01*
G01*
X70490500Y-71186000D01*
G75*
G02*
X70570000Y-71265500I0J-79500D01*
G01*
X70570000Y-71424500D01*
G75*
G02*
X70490500Y-71504000I-79500J0D01*
G01*
G37*
D18*
X53639200Y-79895300D03*
X53639200Y-78295300D03*
X53639200Y-76695300D03*
X53639200Y-75095300D03*
X53639200Y-73495300D03*
X55639200Y-79895300D03*
X55639200Y-78295300D03*
X55639200Y-76695300D03*
X55639200Y-75095300D03*
X55639200Y-73495300D03*
X57639200Y-79895300D03*
X57639200Y-78295300D03*
X57639200Y-76695300D03*
X57639200Y-75095300D03*
X57639200Y-73495300D03*
X59639200Y-79895300D03*
X59639200Y-78295300D03*
X59639200Y-76695300D03*
X59639200Y-75095300D03*
X59639200Y-73495300D03*
X61639200Y-79895300D03*
X61639200Y-78295300D03*
X61639200Y-76695300D03*
X61639200Y-75095300D03*
X61639200Y-73495300D03*
X63639200Y-79895300D03*
X63639200Y-78295300D03*
X63639200Y-76695300D03*
X63639200Y-75095300D03*
X63639200Y-73495300D03*
X65639200Y-79895300D03*
X65639200Y-78295300D03*
X65639200Y-76695300D03*
X65639200Y-75095300D03*
D19*
X65389200Y-81045300D03*
X64889200Y-81045300D03*
X64389200Y-81045300D03*
X63889200Y-81045300D03*
X61389200Y-81045300D03*
X60889200Y-81045300D03*
X60389200Y-81045300D03*
X59889200Y-81045300D03*
X56389200Y-81045300D03*
X55889200Y-81045300D03*
X55389200Y-81045300D03*
X54889200Y-81045300D03*
X54889200Y-72345300D03*
X55389200Y-72345300D03*
X55889200Y-72345300D03*
X56389200Y-72345300D03*
X59889200Y-72345300D03*
X60389200Y-72345300D03*
X60889200Y-72345300D03*
X61389200Y-72345300D03*
X63889200Y-72345300D03*
X64389200Y-72345300D03*
X64889200Y-72345300D03*
X65389200Y-72345300D03*
D18*
X65639200Y-73495300D03*
D20*
X66889200Y-81815300D03*
X66389200Y-81815300D03*
X65889200Y-81815300D03*
X65389200Y-81815300D03*
X64889200Y-81815300D03*
X64389200Y-81815300D03*
X63889200Y-81815300D03*
X63389200Y-81815300D03*
X62889200Y-81815300D03*
X62389200Y-81815300D03*
X61889200Y-81815300D03*
X61389200Y-81815300D03*
X60889200Y-81815300D03*
X60389200Y-81815300D03*
X59889200Y-81815300D03*
X59389200Y-81815300D03*
X58889200Y-81815300D03*
X58389200Y-81815300D03*
X57889200Y-81815300D03*
X57389200Y-81815300D03*
X56889200Y-81815300D03*
X56389200Y-81815300D03*
X55889200Y-81815300D03*
X55389200Y-81815300D03*
X54889200Y-81815300D03*
X54389200Y-81815300D03*
X53889200Y-81815300D03*
X53389200Y-81815300D03*
X52889200Y-81815300D03*
X52389200Y-81815300D03*
D21*
X51769200Y-81815300D03*
D22*
X51769200Y-81195300D03*
X51769200Y-80695300D03*
X51769200Y-80195300D03*
X51769200Y-79695300D03*
X51769200Y-79195300D03*
X51769200Y-78695300D03*
X51769200Y-78195300D03*
X51769200Y-77695300D03*
X51769200Y-77195300D03*
X51769200Y-76695300D03*
X51769200Y-76195300D03*
X51769200Y-75695300D03*
X51769200Y-75195300D03*
X51769200Y-74695300D03*
X51769200Y-74195300D03*
X51769200Y-73695300D03*
X51769200Y-73195300D03*
X51769200Y-72695300D03*
X51769200Y-72195300D03*
D21*
X51769200Y-71575300D03*
D20*
X52389200Y-71575300D03*
X52889200Y-71575300D03*
X53389200Y-71575300D03*
X53889200Y-71575300D03*
X54389200Y-71575300D03*
X54889200Y-71575300D03*
X55389200Y-71575300D03*
X55889200Y-71575300D03*
X56389200Y-71575300D03*
X56889200Y-71575300D03*
X57389200Y-71575300D03*
X57889200Y-71575300D03*
X58389200Y-71575300D03*
X58889200Y-71575300D03*
X59389200Y-71575300D03*
X59889200Y-71575300D03*
X60389200Y-71575300D03*
X60889200Y-71575300D03*
X61389200Y-71575300D03*
X61889200Y-71575300D03*
X62389200Y-71575300D03*
X62889200Y-71575300D03*
X63389200Y-71575300D03*
X63889200Y-71575300D03*
X64389200Y-71575300D03*
X64889200Y-71575300D03*
X65389200Y-71575300D03*
X65889200Y-71575300D03*
X66389200Y-71575300D03*
X66889200Y-71575300D03*
D21*
X67509200Y-71575300D03*
D22*
X67509200Y-72195300D03*
X67509200Y-72695300D03*
X67509200Y-73195300D03*
X67509200Y-73695300D03*
X67509200Y-74195300D03*
X67509200Y-74695300D03*
X67509200Y-75195300D03*
X67509200Y-75695300D03*
X67509200Y-76195300D03*
X67509200Y-76695300D03*
X67509200Y-77195300D03*
X67509200Y-77695300D03*
X67509200Y-78195300D03*
X67509200Y-78695300D03*
X67509200Y-79195300D03*
X67509200Y-79695300D03*
X67509200Y-80195300D03*
X67509200Y-80695300D03*
X67509200Y-81195300D03*
D21*
X67509200Y-81815300D03*
D23*
X49185000Y-73220000D03*
D24*
X47660000Y-71745000D03*
X47660000Y-74695000D03*
D25*
X50610000Y-72380000D03*
X50610000Y-73244000D03*
X50540000Y-81832000D03*
X50540000Y-80968000D03*
D26*
X51070000Y-83150000D03*
X51070000Y-84450000D03*
X51070000Y-83800000D03*
X53030000Y-84450000D03*
X53030000Y-83150000D03*
X53030000Y-83800000D03*
D25*
X63590000Y-84632000D03*
X63590000Y-83768000D03*
D27*
X87685000Y-68800000D03*
X91035000Y-68800000D03*
X87685000Y-70900000D03*
X91035000Y-70900000D03*
D28*
X64780000Y-83720000D03*
X64780000Y-84640000D03*
D25*
X50550000Y-79090000D03*
X50550000Y-79950000D03*
D29*
X50750000Y-76240000D03*
X49890000Y-76240000D03*
D25*
X50630000Y-74310000D03*
X50630000Y-75170000D03*
X49730000Y-82870000D03*
X49730000Y-83730000D03*
D24*
X47610000Y-81445000D03*
X47610000Y-78495000D03*
D23*
X49135000Y-79970000D03*
M02*
