G04 #@! TF.GenerationSoftware,KiCad,Pcbnew,(5.1.6)-1*
G04 #@! TF.CreationDate,2021-06-30T18:45:26-06:00*
G04 #@! TF.ProjectId,oasis_iot,6f617369-735f-4696-9f74-2e6b69636164,rev?*
G04 #@! TF.SameCoordinates,Original*
G04 #@! TF.FileFunction,Copper,L2,Bot*
G04 #@! TF.FilePolarity,Positive*
%FSLAX46Y46*%
G04 Gerber Fmt 4.6, Leading zero omitted, Abs format (unit mm)*
G04 Created by KiCad (PCBNEW (5.1.6)-1) date 2021-06-30 18:45:26*
%MOMM*%
%LPD*%
G01*
G04 APERTURE LIST*
%ADD10C,0.100000*%
%ADD11C,0.150000*%
%ADD12C,0.300000*%
%ADD13C,0.400000*%
G04 #@! TA.AperFunction,ComponentPad*
%ADD14C,1.676400*%
G04 #@! TD*
G04 #@! TA.AperFunction,ComponentPad*
%ADD15R,1.676400X1.676400*%
G04 #@! TD*
G04 #@! TA.AperFunction,ComponentPad*
%ADD16C,3.200000*%
G04 #@! TD*
G04 #@! TA.AperFunction,ViaPad*
%ADD17C,0.500000*%
G04 #@! TD*
G04 #@! TA.AperFunction,ViaPad*
%ADD18C,0.350000*%
G04 #@! TD*
G04 #@! TA.AperFunction,Conductor*
%ADD19C,0.300000*%
G04 #@! TD*
G04 #@! TA.AperFunction,Conductor*
%ADD20C,0.200000*%
G04 #@! TD*
G04 #@! TA.AperFunction,Conductor*
%ADD21C,3.000000*%
G04 #@! TD*
G04 #@! TA.AperFunction,Conductor*
%ADD22C,1.500000*%
G04 #@! TD*
G04 #@! TA.AperFunction,Conductor*
%ADD23C,1.000000*%
G04 #@! TD*
G04 APERTURE END LIST*
D10*
D11*
X177002200Y-166007200D02*
X177002200Y-198007200D01*
X285002200Y-198007200D01*
X285002200Y-166007200D01*
X177002200Y-166007200D01*
D10*
D11*
X10000000Y-10000000D02*
X10000000Y-200007200D01*
X287002200Y-200007200D01*
X287002200Y-10000000D01*
X10000000Y-10000000D01*
D10*
D11*
X12000000Y-12000000D02*
X12000000Y-198007200D01*
X285002200Y-198007200D01*
X285002200Y-12000000D01*
X12000000Y-12000000D01*
D10*
D11*
X60000000Y-12000000D02*
X60000000Y-10000000D01*
D10*
D11*
X110000000Y-12000000D02*
X110000000Y-10000000D01*
D10*
D11*
X160000000Y-12000000D02*
X160000000Y-10000000D01*
D10*
D11*
X210000000Y-12000000D02*
X210000000Y-10000000D01*
D10*
D11*
X260000000Y-12000000D02*
X260000000Y-10000000D01*
D10*
D11*
X36065476Y-11588095D02*
X35322619Y-11588095D01*
X35694047Y-11588095D02*
X35694047Y-10288095D01*
X35570238Y-10473809D01*
X35446428Y-10597619D01*
X35322619Y-10659523D01*
D10*
D11*
X85322619Y-10411904D02*
X85384523Y-10350000D01*
X85508333Y-10288095D01*
X85817857Y-10288095D01*
X85941666Y-10350000D01*
X86003571Y-10411904D01*
X86065476Y-10535714D01*
X86065476Y-10659523D01*
X86003571Y-10845238D01*
X85260714Y-11588095D01*
X86065476Y-11588095D01*
D10*
D11*
X135260714Y-10288095D02*
X136065476Y-10288095D01*
X135632142Y-10783333D01*
X135817857Y-10783333D01*
X135941666Y-10845238D01*
X136003571Y-10907142D01*
X136065476Y-11030952D01*
X136065476Y-11340476D01*
X136003571Y-11464285D01*
X135941666Y-11526190D01*
X135817857Y-11588095D01*
X135446428Y-11588095D01*
X135322619Y-11526190D01*
X135260714Y-11464285D01*
D10*
D11*
X185941666Y-10721428D02*
X185941666Y-11588095D01*
X185632142Y-10226190D02*
X185322619Y-11154761D01*
X186127380Y-11154761D01*
D10*
D11*
X236003571Y-10288095D02*
X235384523Y-10288095D01*
X235322619Y-10907142D01*
X235384523Y-10845238D01*
X235508333Y-10783333D01*
X235817857Y-10783333D01*
X235941666Y-10845238D01*
X236003571Y-10907142D01*
X236065476Y-11030952D01*
X236065476Y-11340476D01*
X236003571Y-11464285D01*
X235941666Y-11526190D01*
X235817857Y-11588095D01*
X235508333Y-11588095D01*
X235384523Y-11526190D01*
X235322619Y-11464285D01*
D10*
D11*
X285941666Y-10288095D02*
X285694047Y-10288095D01*
X285570238Y-10350000D01*
X285508333Y-10411904D01*
X285384523Y-10597619D01*
X285322619Y-10845238D01*
X285322619Y-11340476D01*
X285384523Y-11464285D01*
X285446428Y-11526190D01*
X285570238Y-11588095D01*
X285817857Y-11588095D01*
X285941666Y-11526190D01*
X286003571Y-11464285D01*
X286065476Y-11340476D01*
X286065476Y-11030952D01*
X286003571Y-10907142D01*
X285941666Y-10845238D01*
X285817857Y-10783333D01*
X285570238Y-10783333D01*
X285446428Y-10845238D01*
X285384523Y-10907142D01*
X285322619Y-11030952D01*
D10*
D11*
X60000000Y-198007200D02*
X60000000Y-200007200D01*
D10*
D11*
X110000000Y-198007200D02*
X110000000Y-200007200D01*
D10*
D11*
X160000000Y-198007200D02*
X160000000Y-200007200D01*
D10*
D11*
X210000000Y-198007200D02*
X210000000Y-200007200D01*
D10*
D11*
X260000000Y-198007200D02*
X260000000Y-200007200D01*
D10*
D11*
X36065476Y-199595295D02*
X35322619Y-199595295D01*
X35694047Y-199595295D02*
X35694047Y-198295295D01*
X35570238Y-198481009D01*
X35446428Y-198604819D01*
X35322619Y-198666723D01*
D10*
D11*
X85322619Y-198419104D02*
X85384523Y-198357200D01*
X85508333Y-198295295D01*
X85817857Y-198295295D01*
X85941666Y-198357200D01*
X86003571Y-198419104D01*
X86065476Y-198542914D01*
X86065476Y-198666723D01*
X86003571Y-198852438D01*
X85260714Y-199595295D01*
X86065476Y-199595295D01*
D10*
D11*
X135260714Y-198295295D02*
X136065476Y-198295295D01*
X135632142Y-198790533D01*
X135817857Y-198790533D01*
X135941666Y-198852438D01*
X136003571Y-198914342D01*
X136065476Y-199038152D01*
X136065476Y-199347676D01*
X136003571Y-199471485D01*
X135941666Y-199533390D01*
X135817857Y-199595295D01*
X135446428Y-199595295D01*
X135322619Y-199533390D01*
X135260714Y-199471485D01*
D10*
D11*
X185941666Y-198728628D02*
X185941666Y-199595295D01*
X185632142Y-198233390D02*
X185322619Y-199161961D01*
X186127380Y-199161961D01*
D10*
D11*
X236003571Y-198295295D02*
X235384523Y-198295295D01*
X235322619Y-198914342D01*
X235384523Y-198852438D01*
X235508333Y-198790533D01*
X235817857Y-198790533D01*
X235941666Y-198852438D01*
X236003571Y-198914342D01*
X236065476Y-199038152D01*
X236065476Y-199347676D01*
X236003571Y-199471485D01*
X235941666Y-199533390D01*
X235817857Y-199595295D01*
X235508333Y-199595295D01*
X235384523Y-199533390D01*
X235322619Y-199471485D01*
D10*
D11*
X285941666Y-198295295D02*
X285694047Y-198295295D01*
X285570238Y-198357200D01*
X285508333Y-198419104D01*
X285384523Y-198604819D01*
X285322619Y-198852438D01*
X285322619Y-199347676D01*
X285384523Y-199471485D01*
X285446428Y-199533390D01*
X285570238Y-199595295D01*
X285817857Y-199595295D01*
X285941666Y-199533390D01*
X286003571Y-199471485D01*
X286065476Y-199347676D01*
X286065476Y-199038152D01*
X286003571Y-198914342D01*
X285941666Y-198852438D01*
X285817857Y-198790533D01*
X285570238Y-198790533D01*
X285446428Y-198852438D01*
X285384523Y-198914342D01*
X285322619Y-199038152D01*
D10*
D11*
X10000000Y-60000000D02*
X12000000Y-60000000D01*
D10*
D11*
X10000000Y-110000000D02*
X12000000Y-110000000D01*
D10*
D11*
X10000000Y-160000000D02*
X12000000Y-160000000D01*
D10*
D11*
X10690476Y-35216666D02*
X11309523Y-35216666D01*
X10566666Y-35588095D02*
X11000000Y-34288095D01*
X11433333Y-35588095D01*
D10*
D11*
X11092857Y-84907142D02*
X11278571Y-84969047D01*
X11340476Y-85030952D01*
X11402380Y-85154761D01*
X11402380Y-85340476D01*
X11340476Y-85464285D01*
X11278571Y-85526190D01*
X11154761Y-85588095D01*
X10659523Y-85588095D01*
X10659523Y-84288095D01*
X11092857Y-84288095D01*
X11216666Y-84350000D01*
X11278571Y-84411904D01*
X11340476Y-84535714D01*
X11340476Y-84659523D01*
X11278571Y-84783333D01*
X11216666Y-84845238D01*
X11092857Y-84907142D01*
X10659523Y-84907142D01*
D10*
D11*
X11402380Y-135464285D02*
X11340476Y-135526190D01*
X11154761Y-135588095D01*
X11030952Y-135588095D01*
X10845238Y-135526190D01*
X10721428Y-135402380D01*
X10659523Y-135278571D01*
X10597619Y-135030952D01*
X10597619Y-134845238D01*
X10659523Y-134597619D01*
X10721428Y-134473809D01*
X10845238Y-134350000D01*
X11030952Y-134288095D01*
X11154761Y-134288095D01*
X11340476Y-134350000D01*
X11402380Y-134411904D01*
D10*
D11*
X10659523Y-185588095D02*
X10659523Y-184288095D01*
X10969047Y-184288095D01*
X11154761Y-184350000D01*
X11278571Y-184473809D01*
X11340476Y-184597619D01*
X11402380Y-184845238D01*
X11402380Y-185030952D01*
X11340476Y-185278571D01*
X11278571Y-185402380D01*
X11154761Y-185526190D01*
X10969047Y-185588095D01*
X10659523Y-185588095D01*
D10*
D11*
X287002200Y-60000000D02*
X285002200Y-60000000D01*
D10*
D11*
X287002200Y-110000000D02*
X285002200Y-110000000D01*
D10*
D11*
X287002200Y-160000000D02*
X285002200Y-160000000D01*
D10*
D11*
X285692676Y-35216666D02*
X286311723Y-35216666D01*
X285568866Y-35588095D02*
X286002200Y-34288095D01*
X286435533Y-35588095D01*
D10*
D11*
X286095057Y-84907142D02*
X286280771Y-84969047D01*
X286342676Y-85030952D01*
X286404580Y-85154761D01*
X286404580Y-85340476D01*
X286342676Y-85464285D01*
X286280771Y-85526190D01*
X286156961Y-85588095D01*
X285661723Y-85588095D01*
X285661723Y-84288095D01*
X286095057Y-84288095D01*
X286218866Y-84350000D01*
X286280771Y-84411904D01*
X286342676Y-84535714D01*
X286342676Y-84659523D01*
X286280771Y-84783333D01*
X286218866Y-84845238D01*
X286095057Y-84907142D01*
X285661723Y-84907142D01*
D10*
D11*
X286404580Y-135464285D02*
X286342676Y-135526190D01*
X286156961Y-135588095D01*
X286033152Y-135588095D01*
X285847438Y-135526190D01*
X285723628Y-135402380D01*
X285661723Y-135278571D01*
X285599819Y-135030952D01*
X285599819Y-134845238D01*
X285661723Y-134597619D01*
X285723628Y-134473809D01*
X285847438Y-134350000D01*
X286033152Y-134288095D01*
X286156961Y-134288095D01*
X286342676Y-134350000D01*
X286404580Y-134411904D01*
D10*
D11*
X285661723Y-185588095D02*
X285661723Y-184288095D01*
X285971247Y-184288095D01*
X286156961Y-184350000D01*
X286280771Y-184473809D01*
X286342676Y-184597619D01*
X286404580Y-184845238D01*
X286404580Y-185030952D01*
X286342676Y-185278571D01*
X286280771Y-185402380D01*
X286156961Y-185526190D01*
X285971247Y-185588095D01*
X285661723Y-185588095D01*
D10*
D11*
X200434342Y-193785771D02*
X200434342Y-192285771D01*
X200791485Y-192285771D01*
X201005771Y-192357200D01*
X201148628Y-192500057D01*
X201220057Y-192642914D01*
X201291485Y-192928628D01*
X201291485Y-193142914D01*
X201220057Y-193428628D01*
X201148628Y-193571485D01*
X201005771Y-193714342D01*
X200791485Y-193785771D01*
X200434342Y-193785771D01*
X202577200Y-193785771D02*
X202577200Y-193000057D01*
X202505771Y-192857200D01*
X202362914Y-192785771D01*
X202077200Y-192785771D01*
X201934342Y-192857200D01*
X202577200Y-193714342D02*
X202434342Y-193785771D01*
X202077200Y-193785771D01*
X201934342Y-193714342D01*
X201862914Y-193571485D01*
X201862914Y-193428628D01*
X201934342Y-193285771D01*
X202077200Y-193214342D01*
X202434342Y-193214342D01*
X202577200Y-193142914D01*
X203077200Y-192785771D02*
X203648628Y-192785771D01*
X203291485Y-192285771D02*
X203291485Y-193571485D01*
X203362914Y-193714342D01*
X203505771Y-193785771D01*
X203648628Y-193785771D01*
X204720057Y-193714342D02*
X204577200Y-193785771D01*
X204291485Y-193785771D01*
X204148628Y-193714342D01*
X204077200Y-193571485D01*
X204077200Y-193000057D01*
X204148628Y-192857200D01*
X204291485Y-192785771D01*
X204577200Y-192785771D01*
X204720057Y-192857200D01*
X204791485Y-193000057D01*
X204791485Y-193142914D01*
X204077200Y-193285771D01*
X205434342Y-193642914D02*
X205505771Y-193714342D01*
X205434342Y-193785771D01*
X205362914Y-193714342D01*
X205434342Y-193642914D01*
X205434342Y-193785771D01*
X205434342Y-192857200D02*
X205505771Y-192928628D01*
X205434342Y-193000057D01*
X205362914Y-192928628D01*
X205434342Y-192857200D01*
X205434342Y-193000057D01*
D10*
D11*
X177002200Y-194507200D02*
X285002200Y-194507200D01*
D10*
D11*
X178434342Y-196585771D02*
X178434342Y-195085771D01*
X179291485Y-196585771D02*
X178648628Y-195728628D01*
X179291485Y-195085771D02*
X178434342Y-195942914D01*
X179934342Y-196585771D02*
X179934342Y-195585771D01*
X179934342Y-195085771D02*
X179862914Y-195157200D01*
X179934342Y-195228628D01*
X180005771Y-195157200D01*
X179934342Y-195085771D01*
X179934342Y-195228628D01*
X181505771Y-196442914D02*
X181434342Y-196514342D01*
X181220057Y-196585771D01*
X181077200Y-196585771D01*
X180862914Y-196514342D01*
X180720057Y-196371485D01*
X180648628Y-196228628D01*
X180577200Y-195942914D01*
X180577200Y-195728628D01*
X180648628Y-195442914D01*
X180720057Y-195300057D01*
X180862914Y-195157200D01*
X181077200Y-195085771D01*
X181220057Y-195085771D01*
X181434342Y-195157200D01*
X181505771Y-195228628D01*
X182791485Y-196585771D02*
X182791485Y-195800057D01*
X182720057Y-195657200D01*
X182577200Y-195585771D01*
X182291485Y-195585771D01*
X182148628Y-195657200D01*
X182791485Y-196514342D02*
X182648628Y-196585771D01*
X182291485Y-196585771D01*
X182148628Y-196514342D01*
X182077200Y-196371485D01*
X182077200Y-196228628D01*
X182148628Y-196085771D01*
X182291485Y-196014342D01*
X182648628Y-196014342D01*
X182791485Y-195942914D01*
X184148628Y-196585771D02*
X184148628Y-195085771D01*
X184148628Y-196514342D02*
X184005771Y-196585771D01*
X183720057Y-196585771D01*
X183577200Y-196514342D01*
X183505771Y-196442914D01*
X183434342Y-196300057D01*
X183434342Y-195871485D01*
X183505771Y-195728628D01*
X183577200Y-195657200D01*
X183720057Y-195585771D01*
X184005771Y-195585771D01*
X184148628Y-195657200D01*
X186005771Y-195800057D02*
X186505771Y-195800057D01*
X186720057Y-196585771D02*
X186005771Y-196585771D01*
X186005771Y-195085771D01*
X186720057Y-195085771D01*
X187362914Y-196442914D02*
X187434342Y-196514342D01*
X187362914Y-196585771D01*
X187291485Y-196514342D01*
X187362914Y-196442914D01*
X187362914Y-196585771D01*
X188077200Y-196585771D02*
X188077200Y-195085771D01*
X188434342Y-195085771D01*
X188648628Y-195157200D01*
X188791485Y-195300057D01*
X188862914Y-195442914D01*
X188934342Y-195728628D01*
X188934342Y-195942914D01*
X188862914Y-196228628D01*
X188791485Y-196371485D01*
X188648628Y-196514342D01*
X188434342Y-196585771D01*
X188077200Y-196585771D01*
X189577200Y-196442914D02*
X189648628Y-196514342D01*
X189577200Y-196585771D01*
X189505771Y-196514342D01*
X189577200Y-196442914D01*
X189577200Y-196585771D01*
X190220057Y-196157200D02*
X190934342Y-196157200D01*
X190077200Y-196585771D02*
X190577200Y-195085771D01*
X191077200Y-196585771D01*
X191577200Y-196442914D02*
X191648628Y-196514342D01*
X191577200Y-196585771D01*
X191505771Y-196514342D01*
X191577200Y-196442914D01*
X191577200Y-196585771D01*
X194577200Y-196585771D02*
X194577200Y-195085771D01*
X194720057Y-196014342D02*
X195148628Y-196585771D01*
X195148628Y-195585771D02*
X194577200Y-196157200D01*
X195791485Y-196585771D02*
X195791485Y-195585771D01*
X195791485Y-195085771D02*
X195720057Y-195157200D01*
X195791485Y-195228628D01*
X195862914Y-195157200D01*
X195791485Y-195085771D01*
X195791485Y-195228628D01*
X197148628Y-196514342D02*
X197005771Y-196585771D01*
X196720057Y-196585771D01*
X196577200Y-196514342D01*
X196505771Y-196442914D01*
X196434342Y-196300057D01*
X196434342Y-195871485D01*
X196505771Y-195728628D01*
X196577200Y-195657200D01*
X196720057Y-195585771D01*
X197005771Y-195585771D01*
X197148628Y-195657200D01*
X198434342Y-196585771D02*
X198434342Y-195800057D01*
X198362914Y-195657200D01*
X198220057Y-195585771D01*
X197934342Y-195585771D01*
X197791485Y-195657200D01*
X198434342Y-196514342D02*
X198291485Y-196585771D01*
X197934342Y-196585771D01*
X197791485Y-196514342D01*
X197720057Y-196371485D01*
X197720057Y-196228628D01*
X197791485Y-196085771D01*
X197934342Y-196014342D01*
X198291485Y-196014342D01*
X198434342Y-195942914D01*
X199791485Y-196585771D02*
X199791485Y-195085771D01*
X199791485Y-196514342D02*
X199648628Y-196585771D01*
X199362914Y-196585771D01*
X199220057Y-196514342D01*
X199148628Y-196442914D01*
X199077200Y-196300057D01*
X199077200Y-195871485D01*
X199148628Y-195728628D01*
X199220057Y-195657200D01*
X199362914Y-195585771D01*
X199648628Y-195585771D01*
X199791485Y-195657200D01*
X202077200Y-197157200D02*
X202005771Y-197085771D01*
X201862914Y-196871485D01*
X201791485Y-196728628D01*
X201720057Y-196514342D01*
X201648628Y-196157200D01*
X201648628Y-195871485D01*
X201720057Y-195514342D01*
X201791485Y-195300057D01*
X201862914Y-195157200D01*
X202005771Y-194942914D01*
X202077200Y-194871485D01*
X203362914Y-195085771D02*
X202648628Y-195085771D01*
X202577200Y-195800057D01*
X202648628Y-195728628D01*
X202791485Y-195657200D01*
X203148628Y-195657200D01*
X203291485Y-195728628D01*
X203362914Y-195800057D01*
X203434342Y-195942914D01*
X203434342Y-196300057D01*
X203362914Y-196442914D01*
X203291485Y-196514342D01*
X203148628Y-196585771D01*
X202791485Y-196585771D01*
X202648628Y-196514342D01*
X202577200Y-196442914D01*
X204077200Y-196442914D02*
X204148628Y-196514342D01*
X204077200Y-196585771D01*
X204005771Y-196514342D01*
X204077200Y-196442914D01*
X204077200Y-196585771D01*
X205577200Y-196585771D02*
X204720057Y-196585771D01*
X205148628Y-196585771D02*
X205148628Y-195085771D01*
X205005771Y-195300057D01*
X204862914Y-195442914D01*
X204720057Y-195514342D01*
X206220057Y-196442914D02*
X206291485Y-196514342D01*
X206220057Y-196585771D01*
X206148628Y-196514342D01*
X206220057Y-196442914D01*
X206220057Y-196585771D01*
X207577200Y-195085771D02*
X207291485Y-195085771D01*
X207148628Y-195157200D01*
X207077200Y-195228628D01*
X206934342Y-195442914D01*
X206862914Y-195728628D01*
X206862914Y-196300057D01*
X206934342Y-196442914D01*
X207005771Y-196514342D01*
X207148628Y-196585771D01*
X207434342Y-196585771D01*
X207577200Y-196514342D01*
X207648628Y-196442914D01*
X207720057Y-196300057D01*
X207720057Y-195942914D01*
X207648628Y-195800057D01*
X207577200Y-195728628D01*
X207434342Y-195657200D01*
X207148628Y-195657200D01*
X207005771Y-195728628D01*
X206934342Y-195800057D01*
X206862914Y-195942914D01*
X208220057Y-197157200D02*
X208291485Y-197085771D01*
X208434342Y-196871485D01*
X208505771Y-196728628D01*
X208577200Y-196514342D01*
X208648628Y-196157200D01*
X208648628Y-195871485D01*
X208577200Y-195514342D01*
X208505771Y-195300057D01*
X208434342Y-195157200D01*
X208291485Y-194942914D01*
X208220057Y-194871485D01*
X209362914Y-196014342D02*
X210505771Y-196014342D01*
X212005771Y-196585771D02*
X211148628Y-196585771D01*
X211577200Y-196585771D02*
X211577200Y-195085771D01*
X211434342Y-195300057D01*
X211291485Y-195442914D01*
X211148628Y-195514342D01*
D10*
D11*
X177002200Y-191507200D02*
X285002200Y-191507200D01*
D10*
D12*
X264411485Y-193785771D02*
X263911485Y-193071485D01*
X263554342Y-193785771D02*
X263554342Y-192285771D01*
X264125771Y-192285771D01*
X264268628Y-192357200D01*
X264340057Y-192428628D01*
X264411485Y-192571485D01*
X264411485Y-192785771D01*
X264340057Y-192928628D01*
X264268628Y-193000057D01*
X264125771Y-193071485D01*
X263554342Y-193071485D01*
X265625771Y-193714342D02*
X265482914Y-193785771D01*
X265197200Y-193785771D01*
X265054342Y-193714342D01*
X264982914Y-193571485D01*
X264982914Y-193000057D01*
X265054342Y-192857200D01*
X265197200Y-192785771D01*
X265482914Y-192785771D01*
X265625771Y-192857200D01*
X265697200Y-193000057D01*
X265697200Y-193142914D01*
X264982914Y-193285771D01*
X266197200Y-192785771D02*
X266554342Y-193785771D01*
X266911485Y-192785771D01*
X267482914Y-193642914D02*
X267554342Y-193714342D01*
X267482914Y-193785771D01*
X267411485Y-193714342D01*
X267482914Y-193642914D01*
X267482914Y-193785771D01*
X267482914Y-192857200D02*
X267554342Y-192928628D01*
X267482914Y-193000057D01*
X267411485Y-192928628D01*
X267482914Y-192857200D01*
X267482914Y-193000057D01*
D10*
D11*
X178362914Y-193714342D02*
X178577200Y-193785771D01*
X178934342Y-193785771D01*
X179077200Y-193714342D01*
X179148628Y-193642914D01*
X179220057Y-193500057D01*
X179220057Y-193357200D01*
X179148628Y-193214342D01*
X179077200Y-193142914D01*
X178934342Y-193071485D01*
X178648628Y-193000057D01*
X178505771Y-192928628D01*
X178434342Y-192857200D01*
X178362914Y-192714342D01*
X178362914Y-192571485D01*
X178434342Y-192428628D01*
X178505771Y-192357200D01*
X178648628Y-192285771D01*
X179005771Y-192285771D01*
X179220057Y-192357200D01*
X179862914Y-193785771D02*
X179862914Y-192785771D01*
X179862914Y-192285771D02*
X179791485Y-192357200D01*
X179862914Y-192428628D01*
X179934342Y-192357200D01*
X179862914Y-192285771D01*
X179862914Y-192428628D01*
X180434342Y-192785771D02*
X181220057Y-192785771D01*
X180434342Y-193785771D01*
X181220057Y-193785771D01*
X182362914Y-193714342D02*
X182220057Y-193785771D01*
X181934342Y-193785771D01*
X181791485Y-193714342D01*
X181720057Y-193571485D01*
X181720057Y-193000057D01*
X181791485Y-192857200D01*
X181934342Y-192785771D01*
X182220057Y-192785771D01*
X182362914Y-192857200D01*
X182434342Y-193000057D01*
X182434342Y-193142914D01*
X181720057Y-193285771D01*
X183077200Y-193642914D02*
X183148628Y-193714342D01*
X183077200Y-193785771D01*
X183005771Y-193714342D01*
X183077200Y-193642914D01*
X183077200Y-193785771D01*
X183077200Y-192857200D02*
X183148628Y-192928628D01*
X183077200Y-193000057D01*
X183005771Y-192928628D01*
X183077200Y-192857200D01*
X183077200Y-193000057D01*
X184862914Y-193357200D02*
X185577200Y-193357200D01*
X184720057Y-193785771D02*
X185220057Y-192285771D01*
X185720057Y-193785771D01*
X186862914Y-192785771D02*
X186862914Y-193785771D01*
X186505771Y-192214342D02*
X186148628Y-193285771D01*
X187077200Y-193285771D01*
D10*
D11*
X263434342Y-196585771D02*
X263434342Y-195085771D01*
X264791485Y-196585771D02*
X264791485Y-195085771D01*
X264791485Y-196514342D02*
X264648628Y-196585771D01*
X264362914Y-196585771D01*
X264220057Y-196514342D01*
X264148628Y-196442914D01*
X264077200Y-196300057D01*
X264077200Y-195871485D01*
X264148628Y-195728628D01*
X264220057Y-195657200D01*
X264362914Y-195585771D01*
X264648628Y-195585771D01*
X264791485Y-195657200D01*
X265505771Y-196442914D02*
X265577200Y-196514342D01*
X265505771Y-196585771D01*
X265434342Y-196514342D01*
X265505771Y-196442914D01*
X265505771Y-196585771D01*
X265505771Y-195657200D02*
X265577200Y-195728628D01*
X265505771Y-195800057D01*
X265434342Y-195728628D01*
X265505771Y-195657200D01*
X265505771Y-195800057D01*
X268148628Y-196585771D02*
X267291485Y-196585771D01*
X267720057Y-196585771D02*
X267720057Y-195085771D01*
X267577200Y-195300057D01*
X267434342Y-195442914D01*
X267291485Y-195514342D01*
X269862914Y-195014342D02*
X268577200Y-196942914D01*
X271148628Y-196585771D02*
X270291485Y-196585771D01*
X270720057Y-196585771D02*
X270720057Y-195085771D01*
X270577200Y-195300057D01*
X270434342Y-195442914D01*
X270291485Y-195514342D01*
D10*
D11*
X177002200Y-187507200D02*
X285002200Y-187507200D01*
D10*
D13*
X178714580Y-188211961D02*
X179857438Y-188211961D01*
X179036009Y-190211961D02*
X179286009Y-188211961D01*
X180274104Y-190211961D02*
X180440771Y-188878628D01*
X180524104Y-188211961D02*
X180416961Y-188307200D01*
X180500295Y-188402438D01*
X180607438Y-188307200D01*
X180524104Y-188211961D01*
X180500295Y-188402438D01*
X181107438Y-188878628D02*
X181869342Y-188878628D01*
X181476485Y-188211961D02*
X181262200Y-189926247D01*
X181333628Y-190116723D01*
X181512200Y-190211961D01*
X181702676Y-190211961D01*
X182655057Y-190211961D02*
X182476485Y-190116723D01*
X182405057Y-189926247D01*
X182619342Y-188211961D01*
X184190771Y-190116723D02*
X183988390Y-190211961D01*
X183607438Y-190211961D01*
X183428866Y-190116723D01*
X183357438Y-189926247D01*
X183452676Y-189164342D01*
X183571723Y-188973866D01*
X183774104Y-188878628D01*
X184155057Y-188878628D01*
X184333628Y-188973866D01*
X184405057Y-189164342D01*
X184381247Y-189354819D01*
X183405057Y-189545295D01*
X185155057Y-190021485D02*
X185238390Y-190116723D01*
X185131247Y-190211961D01*
X185047914Y-190116723D01*
X185155057Y-190021485D01*
X185131247Y-190211961D01*
X185286009Y-188973866D02*
X185369342Y-189069104D01*
X185262200Y-189164342D01*
X185178866Y-189069104D01*
X185286009Y-188973866D01*
X185262200Y-189164342D01*
D10*
D11*
X178934342Y-185600057D02*
X178434342Y-185600057D01*
X178434342Y-186385771D02*
X178434342Y-184885771D01*
X179148628Y-184885771D01*
X179720057Y-186385771D02*
X179720057Y-185385771D01*
X179720057Y-184885771D02*
X179648628Y-184957200D01*
X179720057Y-185028628D01*
X179791485Y-184957200D01*
X179720057Y-184885771D01*
X179720057Y-185028628D01*
X180648628Y-186385771D02*
X180505771Y-186314342D01*
X180434342Y-186171485D01*
X180434342Y-184885771D01*
X181791485Y-186314342D02*
X181648628Y-186385771D01*
X181362914Y-186385771D01*
X181220057Y-186314342D01*
X181148628Y-186171485D01*
X181148628Y-185600057D01*
X181220057Y-185457200D01*
X181362914Y-185385771D01*
X181648628Y-185385771D01*
X181791485Y-185457200D01*
X181862914Y-185600057D01*
X181862914Y-185742914D01*
X181148628Y-185885771D01*
X182505771Y-186242914D02*
X182577200Y-186314342D01*
X182505771Y-186385771D01*
X182434342Y-186314342D01*
X182505771Y-186242914D01*
X182505771Y-186385771D01*
X182505771Y-185457200D02*
X182577200Y-185528628D01*
X182505771Y-185600057D01*
X182434342Y-185528628D01*
X182505771Y-185457200D01*
X182505771Y-185600057D01*
X184577200Y-186385771D02*
X184434342Y-186314342D01*
X184362914Y-186242914D01*
X184291485Y-186100057D01*
X184291485Y-185671485D01*
X184362914Y-185528628D01*
X184434342Y-185457200D01*
X184577200Y-185385771D01*
X184791485Y-185385771D01*
X184934342Y-185457200D01*
X185005771Y-185528628D01*
X185077200Y-185671485D01*
X185077200Y-186100057D01*
X185005771Y-186242914D01*
X184934342Y-186314342D01*
X184791485Y-186385771D01*
X184577200Y-186385771D01*
X186362914Y-186385771D02*
X186362914Y-185600057D01*
X186291485Y-185457200D01*
X186148628Y-185385771D01*
X185862914Y-185385771D01*
X185720057Y-185457200D01*
X186362914Y-186314342D02*
X186220057Y-186385771D01*
X185862914Y-186385771D01*
X185720057Y-186314342D01*
X185648628Y-186171485D01*
X185648628Y-186028628D01*
X185720057Y-185885771D01*
X185862914Y-185814342D01*
X186220057Y-185814342D01*
X186362914Y-185742914D01*
X187005771Y-186314342D02*
X187148628Y-186385771D01*
X187434342Y-186385771D01*
X187577200Y-186314342D01*
X187648628Y-186171485D01*
X187648628Y-186100057D01*
X187577200Y-185957200D01*
X187434342Y-185885771D01*
X187220057Y-185885771D01*
X187077200Y-185814342D01*
X187005771Y-185671485D01*
X187005771Y-185600057D01*
X187077200Y-185457200D01*
X187220057Y-185385771D01*
X187434342Y-185385771D01*
X187577200Y-185457200D01*
X188291485Y-186385771D02*
X188291485Y-185385771D01*
X188291485Y-184885771D02*
X188220057Y-184957200D01*
X188291485Y-185028628D01*
X188362914Y-184957200D01*
X188291485Y-184885771D01*
X188291485Y-185028628D01*
X188934342Y-186314342D02*
X189077200Y-186385771D01*
X189362914Y-186385771D01*
X189505771Y-186314342D01*
X189577200Y-186171485D01*
X189577200Y-186100057D01*
X189505771Y-185957200D01*
X189362914Y-185885771D01*
X189148628Y-185885771D01*
X189005771Y-185814342D01*
X188934342Y-185671485D01*
X188934342Y-185600057D01*
X189005771Y-185457200D01*
X189148628Y-185385771D01*
X189362914Y-185385771D01*
X189505771Y-185457200D01*
X189862914Y-186528628D02*
X191005771Y-186528628D01*
X191362914Y-186385771D02*
X191362914Y-185385771D01*
X191362914Y-184885771D02*
X191291485Y-184957200D01*
X191362914Y-185028628D01*
X191434342Y-184957200D01*
X191362914Y-184885771D01*
X191362914Y-185028628D01*
X192291485Y-186385771D02*
X192148628Y-186314342D01*
X192077200Y-186242914D01*
X192005771Y-186100057D01*
X192005771Y-185671485D01*
X192077200Y-185528628D01*
X192148628Y-185457200D01*
X192291485Y-185385771D01*
X192505771Y-185385771D01*
X192648628Y-185457200D01*
X192720057Y-185528628D01*
X192791485Y-185671485D01*
X192791485Y-186100057D01*
X192720057Y-186242914D01*
X192648628Y-186314342D01*
X192505771Y-186385771D01*
X192291485Y-186385771D01*
X193220057Y-185385771D02*
X193791485Y-185385771D01*
X193434342Y-184885771D02*
X193434342Y-186171485D01*
X193505771Y-186314342D01*
X193648628Y-186385771D01*
X193791485Y-186385771D01*
X194291485Y-186242914D02*
X194362914Y-186314342D01*
X194291485Y-186385771D01*
X194220057Y-186314342D01*
X194291485Y-186242914D01*
X194291485Y-186385771D01*
X195005771Y-186385771D02*
X195005771Y-184885771D01*
X195148628Y-185814342D02*
X195577200Y-186385771D01*
X195577200Y-185385771D02*
X195005771Y-185957200D01*
X196220057Y-186385771D02*
X196220057Y-185385771D01*
X196220057Y-184885771D02*
X196148628Y-184957200D01*
X196220057Y-185028628D01*
X196291485Y-184957200D01*
X196220057Y-184885771D01*
X196220057Y-185028628D01*
X197577200Y-186314342D02*
X197434342Y-186385771D01*
X197148628Y-186385771D01*
X197005771Y-186314342D01*
X196934342Y-186242914D01*
X196862914Y-186100057D01*
X196862914Y-185671485D01*
X196934342Y-185528628D01*
X197005771Y-185457200D01*
X197148628Y-185385771D01*
X197434342Y-185385771D01*
X197577200Y-185457200D01*
X198862914Y-186385771D02*
X198862914Y-185600057D01*
X198791485Y-185457200D01*
X198648628Y-185385771D01*
X198362914Y-185385771D01*
X198220057Y-185457200D01*
X198862914Y-186314342D02*
X198720057Y-186385771D01*
X198362914Y-186385771D01*
X198220057Y-186314342D01*
X198148628Y-186171485D01*
X198148628Y-186028628D01*
X198220057Y-185885771D01*
X198362914Y-185814342D01*
X198720057Y-185814342D01*
X198862914Y-185742914D01*
X200220057Y-186385771D02*
X200220057Y-184885771D01*
X200220057Y-186314342D02*
X200077200Y-186385771D01*
X199791485Y-186385771D01*
X199648628Y-186314342D01*
X199577200Y-186242914D01*
X199505771Y-186100057D01*
X199505771Y-185671485D01*
X199577200Y-185528628D01*
X199648628Y-185457200D01*
X199791485Y-185385771D01*
X200077200Y-185385771D01*
X200220057Y-185457200D01*
X200577200Y-186528628D02*
X201720057Y-186528628D01*
X202077200Y-185385771D02*
X202077200Y-186885771D01*
X202077200Y-185457200D02*
X202220057Y-185385771D01*
X202505771Y-185385771D01*
X202648628Y-185457200D01*
X202720057Y-185528628D01*
X202791485Y-185671485D01*
X202791485Y-186100057D01*
X202720057Y-186242914D01*
X202648628Y-186314342D01*
X202505771Y-186385771D01*
X202220057Y-186385771D01*
X202077200Y-186314342D01*
X204077200Y-186314342D02*
X203934342Y-186385771D01*
X203648628Y-186385771D01*
X203505771Y-186314342D01*
X203434342Y-186242914D01*
X203362914Y-186100057D01*
X203362914Y-185671485D01*
X203434342Y-185528628D01*
X203505771Y-185457200D01*
X203648628Y-185385771D01*
X203934342Y-185385771D01*
X204077200Y-185457200D01*
X204720057Y-186385771D02*
X204720057Y-184885771D01*
X204720057Y-185457200D02*
X204862914Y-185385771D01*
X205148628Y-185385771D01*
X205291485Y-185457200D01*
X205362914Y-185528628D01*
X205434342Y-185671485D01*
X205434342Y-186100057D01*
X205362914Y-186242914D01*
X205291485Y-186314342D01*
X205148628Y-186385771D01*
X204862914Y-186385771D01*
X204720057Y-186314342D01*
D10*
D11*
X177002200Y-181507200D02*
X285002200Y-181507200D01*
D10*
D11*
X178362914Y-183614342D02*
X178577200Y-183685771D01*
X178934342Y-183685771D01*
X179077200Y-183614342D01*
X179148628Y-183542914D01*
X179220057Y-183400057D01*
X179220057Y-183257200D01*
X179148628Y-183114342D01*
X179077200Y-183042914D01*
X178934342Y-182971485D01*
X178648628Y-182900057D01*
X178505771Y-182828628D01*
X178434342Y-182757200D01*
X178362914Y-182614342D01*
X178362914Y-182471485D01*
X178434342Y-182328628D01*
X178505771Y-182257200D01*
X178648628Y-182185771D01*
X179005771Y-182185771D01*
X179220057Y-182257200D01*
X179862914Y-183685771D02*
X179862914Y-182185771D01*
X180505771Y-183685771D02*
X180505771Y-182900057D01*
X180434342Y-182757200D01*
X180291485Y-182685771D01*
X180077200Y-182685771D01*
X179934342Y-182757200D01*
X179862914Y-182828628D01*
X181791485Y-183614342D02*
X181648628Y-183685771D01*
X181362914Y-183685771D01*
X181220057Y-183614342D01*
X181148628Y-183471485D01*
X181148628Y-182900057D01*
X181220057Y-182757200D01*
X181362914Y-182685771D01*
X181648628Y-182685771D01*
X181791485Y-182757200D01*
X181862914Y-182900057D01*
X181862914Y-183042914D01*
X181148628Y-183185771D01*
X183077200Y-183614342D02*
X182934342Y-183685771D01*
X182648628Y-183685771D01*
X182505771Y-183614342D01*
X182434342Y-183471485D01*
X182434342Y-182900057D01*
X182505771Y-182757200D01*
X182648628Y-182685771D01*
X182934342Y-182685771D01*
X183077200Y-182757200D01*
X183148628Y-182900057D01*
X183148628Y-183042914D01*
X182434342Y-183185771D01*
X183577200Y-182685771D02*
X184148628Y-182685771D01*
X183791485Y-182185771D02*
X183791485Y-183471485D01*
X183862914Y-183614342D01*
X184005771Y-183685771D01*
X184148628Y-183685771D01*
X184648628Y-183542914D02*
X184720057Y-183614342D01*
X184648628Y-183685771D01*
X184577200Y-183614342D01*
X184648628Y-183542914D01*
X184648628Y-183685771D01*
X184648628Y-182757200D02*
X184720057Y-182828628D01*
X184648628Y-182900057D01*
X184577200Y-182828628D01*
X184648628Y-182757200D01*
X184648628Y-182900057D01*
D10*
D11*
X197002200Y-191507200D02*
X197002200Y-194507200D01*
D10*
D11*
X261002200Y-191507200D02*
X261002200Y-198007200D01*
D14*
X52080000Y-86750000D03*
D15*
X80020000Y-86750000D03*
D14*
X77480000Y-86750000D03*
X74940000Y-86750000D03*
X72400000Y-86750000D03*
X54620000Y-86750000D03*
X57160000Y-86750000D03*
X59700000Y-86750000D03*
X62240000Y-86750000D03*
X64780000Y-86750000D03*
X67320000Y-86750000D03*
X69860000Y-86750000D03*
D16*
X93990000Y-85480000D03*
X93990000Y-67700000D03*
D14*
X90180000Y-66430000D03*
D15*
X52080000Y-66430000D03*
D14*
X57160000Y-66430000D03*
X54620000Y-66430000D03*
X59700000Y-66430000D03*
X87640000Y-66430000D03*
X85100000Y-66430000D03*
X82560000Y-66430000D03*
X64780000Y-66430000D03*
X62240000Y-66430000D03*
X67320000Y-66430000D03*
X80020000Y-66430000D03*
X77480000Y-66430000D03*
X74940000Y-66430000D03*
X69860000Y-66430000D03*
X72400000Y-66430000D03*
D17*
X62281781Y-70566240D03*
X53889194Y-70619194D03*
X61334360Y-69758350D03*
X56430000Y-69590010D03*
X54620000Y-70020000D03*
X61775148Y-70194852D03*
D18*
X51769200Y-75695300D03*
D17*
X56200000Y-83170000D03*
X58350000Y-83140000D03*
X87664000Y-72540000D03*
X89614000Y-72740000D03*
X68820000Y-83130000D03*
D18*
X58389200Y-81815300D03*
X67509200Y-79695300D03*
X67509200Y-77695300D03*
X67509200Y-75195300D03*
X67509200Y-73695300D03*
X67509200Y-71575300D03*
X64389200Y-71575300D03*
X62400000Y-71575300D03*
X59889200Y-71575300D03*
X57389200Y-71575300D03*
X55889200Y-71575300D03*
X54389200Y-71575300D03*
X52889200Y-71575300D03*
X51769200Y-71575300D03*
X51769200Y-73695300D03*
X51769200Y-76695300D03*
X51769200Y-77195300D03*
X51769200Y-78195300D03*
X51769200Y-78695300D03*
X51769200Y-81815300D03*
X52889200Y-81815300D03*
X53389200Y-81815300D03*
X53889200Y-81815300D03*
X54389200Y-81815300D03*
X54889200Y-81815300D03*
X55389200Y-81815300D03*
X55890000Y-81815300D03*
X56389200Y-81815300D03*
X56889200Y-81815300D03*
X60889200Y-81815300D03*
X62889200Y-81815300D03*
X64889200Y-81815300D03*
X67509200Y-81815300D03*
D17*
X66401200Y-73495300D03*
X66401200Y-75095300D03*
X66401200Y-76695300D03*
X66401200Y-78295300D03*
X66401200Y-79895300D03*
X64639200Y-73495300D03*
X64639200Y-75095300D03*
X64639200Y-79895300D03*
X64639200Y-78295300D03*
X64639200Y-76695300D03*
X62639200Y-73495300D03*
X62639200Y-75095300D03*
X62639200Y-79895300D03*
X62639200Y-78295300D03*
X62639200Y-76695300D03*
X60639200Y-73495300D03*
X60639200Y-75095300D03*
X60639200Y-79895300D03*
X60639200Y-78295300D03*
X60639200Y-76695300D03*
X58639200Y-73495300D03*
X58639200Y-75095300D03*
X58639200Y-79895300D03*
X58639200Y-78295300D03*
X58639200Y-76695300D03*
X56639200Y-73495300D03*
X56639200Y-75095300D03*
X56639200Y-79895300D03*
X56639200Y-78295300D03*
X56639200Y-76695300D03*
X54639200Y-73495300D03*
X54639200Y-75095300D03*
X54639200Y-79895300D03*
X54639200Y-78295300D03*
X54639200Y-76695300D03*
X52877200Y-73495300D03*
X52877200Y-75095300D03*
X52877200Y-79895300D03*
X52877200Y-78295300D03*
X52877200Y-76695300D03*
D18*
X61639200Y-76695300D03*
X61639200Y-75095300D03*
X61639200Y-79895300D03*
X61639200Y-73495300D03*
X61639200Y-78295300D03*
X63639200Y-76695300D03*
X63639200Y-78295300D03*
X63639200Y-75095300D03*
X63639200Y-73495300D03*
X63639200Y-79895300D03*
X65639200Y-79895300D03*
X65639200Y-76695300D03*
X65639200Y-78295300D03*
X65639200Y-75095300D03*
X65639200Y-73495300D03*
X59639200Y-76695300D03*
X59639200Y-78295300D03*
X59639200Y-75095300D03*
X59639200Y-73495300D03*
X59639200Y-79895300D03*
X57639200Y-79895300D03*
X57639200Y-73495300D03*
X57639200Y-75095300D03*
X57639200Y-78295300D03*
X57639200Y-76695300D03*
X55639200Y-79895300D03*
X55639200Y-73495300D03*
X55639200Y-75095300D03*
X55639200Y-78295300D03*
X55639200Y-76695300D03*
X53639200Y-79895300D03*
X53639200Y-78295300D03*
X53639200Y-76695300D03*
X53639200Y-75095300D03*
X53639200Y-73495300D03*
D17*
X68534700Y-81815300D03*
X69370000Y-81990000D03*
X57510000Y-82960000D03*
X56940000Y-82650000D03*
X80240000Y-68060000D03*
X83680000Y-68510000D03*
D18*
X53210000Y-85660000D03*
X51970000Y-85420000D03*
X50670000Y-85910000D03*
X73530000Y-85910000D03*
X70990000Y-85910000D03*
X72260000Y-84640000D03*
D17*
X81150000Y-84640000D03*
X78610000Y-84640000D03*
X79880000Y-83370000D03*
X77340000Y-83370000D03*
X82420000Y-83370000D03*
X81150000Y-82100000D03*
X78610000Y-82100000D03*
X76070000Y-82100000D03*
X82420000Y-80830000D03*
X79880000Y-80830000D03*
X77340000Y-80830000D03*
X74800000Y-80830000D03*
X76070000Y-79560000D03*
X78610000Y-79560000D03*
X81150000Y-79560000D03*
X82420000Y-78290000D03*
X79880000Y-78290000D03*
X77340000Y-78290000D03*
X74800000Y-78290000D03*
X72260000Y-78290000D03*
X73530000Y-79560000D03*
X73530000Y-77020000D03*
X76070000Y-77020000D03*
X78610000Y-77020000D03*
X81150000Y-77020000D03*
X82420000Y-75750000D03*
X79880000Y-75750000D03*
X77340000Y-75750000D03*
X74800000Y-75750000D03*
X72260000Y-75750000D03*
X73530000Y-74480000D03*
X76070000Y-74480000D03*
X74800000Y-73210000D03*
X72260000Y-73210000D03*
X73530000Y-70670000D03*
X84960000Y-75750000D03*
X87500000Y-75750000D03*
X90040000Y-75750000D03*
X92580000Y-75750000D03*
X95120000Y-75750000D03*
X93850000Y-77020000D03*
X92580000Y-78290000D03*
X95120000Y-78290000D03*
X92580000Y-80830000D03*
X95120000Y-80830000D03*
X88770000Y-77020000D03*
X86230000Y-77020000D03*
X84960000Y-78290000D03*
X87500000Y-78290000D03*
X90040000Y-78290000D03*
X88770000Y-79560000D03*
X86230000Y-79560000D03*
X84960000Y-80830000D03*
X87500000Y-80830000D03*
X83690000Y-84640000D03*
X82420000Y-85910000D03*
X86230000Y-84640000D03*
X88770000Y-84640000D03*
X91310000Y-84640000D03*
X90040000Y-85910000D03*
X87500000Y-85910000D03*
X88770000Y-87180000D03*
X91310000Y-87180000D03*
X86230000Y-87180000D03*
X83690000Y-87180000D03*
X84960000Y-85910000D03*
X95120000Y-70670000D03*
X92580000Y-70670000D03*
X89450000Y-69060000D03*
X91100000Y-70220000D03*
X49400000Y-87180000D03*
X48670000Y-82700000D03*
X46150000Y-82630000D03*
X46230000Y-77370000D03*
X48130000Y-77350000D03*
X48130000Y-75750000D03*
X46310000Y-75770000D03*
X51290000Y-70100000D03*
X54480000Y-68130000D03*
X51240000Y-68640000D03*
X49300000Y-70020000D03*
X48250000Y-69400000D03*
X46330000Y-69400000D03*
X50035000Y-69400000D03*
X50035000Y-70670000D03*
X53290000Y-87460000D03*
X55920000Y-87450000D03*
X58490000Y-87450000D03*
X60950000Y-87400000D03*
X63470000Y-87480000D03*
X66140000Y-87410000D03*
X68650000Y-87460000D03*
X71180000Y-87440000D03*
X73750000Y-87410000D03*
X76190000Y-87440000D03*
X78660000Y-87390000D03*
X49780000Y-65910000D03*
X53410000Y-65840000D03*
X55840000Y-65780000D03*
X58470000Y-65900000D03*
X61020000Y-65840000D03*
X63470000Y-65840000D03*
X66070000Y-65850000D03*
X68690000Y-65780000D03*
X71110000Y-65760000D03*
X73720000Y-65790000D03*
X76200000Y-65810000D03*
X78710000Y-65780000D03*
X81300000Y-65840000D03*
X83810000Y-65840000D03*
X91970000Y-66020000D03*
X50450000Y-78310000D03*
X50490000Y-77290000D03*
X48990000Y-76550000D03*
X47400000Y-83390000D03*
X46220000Y-84240000D03*
X47180000Y-76560000D03*
X46320000Y-70650000D03*
X48250000Y-70640000D03*
X47230000Y-70000000D03*
X52590000Y-69420000D03*
X50420000Y-67350000D03*
X48250000Y-65720000D03*
X52750000Y-68040000D03*
X60890000Y-69310000D03*
X53188233Y-70661924D03*
X55950000Y-83740000D03*
X60962384Y-83679509D03*
X88740000Y-70350000D03*
X62890000Y-70820000D03*
X63345364Y-70619615D03*
X64040000Y-70630000D03*
X64658561Y-70638560D03*
X65389998Y-70620010D03*
X66090002Y-70620010D03*
X66834693Y-70559841D03*
X62760000Y-84300000D03*
X71110000Y-71990000D03*
X70470000Y-71990000D03*
X70249990Y-76679990D03*
X70320000Y-82420000D03*
X70150000Y-82970000D03*
X54030000Y-84130000D03*
X80540000Y-71610000D03*
X81250000Y-71450000D03*
D19*
X62031782Y-70816239D02*
X54086239Y-70816239D01*
X54086239Y-70816239D02*
X53889194Y-70619194D01*
X62281781Y-70566240D02*
X62031782Y-70816239D01*
X61252701Y-69840009D02*
X56679999Y-69840009D01*
X56679999Y-69840009D02*
X56430000Y-69590010D01*
X61334360Y-69758350D02*
X61252701Y-69840009D01*
X54870000Y-70270000D02*
X61700000Y-70270000D01*
X54620000Y-70020000D02*
X54870000Y-70270000D01*
X61700000Y-70270000D02*
X61775148Y-70194852D01*
X54406604Y-69090000D02*
X53188233Y-70308371D01*
X60670000Y-69090000D02*
X54406604Y-69090000D01*
X53188233Y-70308371D02*
X53188233Y-70661924D01*
X60890000Y-69310000D02*
X60670000Y-69090000D01*
X60901893Y-83740000D02*
X60962384Y-83679509D01*
X55950000Y-83740000D02*
X60901893Y-83740000D01*
X88740000Y-67870000D02*
X90180000Y-66430000D01*
X88740000Y-70350000D02*
X88740000Y-67870000D01*
X64780000Y-66430000D02*
X62840183Y-68369817D01*
D20*
X62890000Y-70690000D02*
X62840183Y-70640183D01*
X62840183Y-70640183D02*
X62840183Y-68369817D01*
X62890000Y-70820000D02*
X62890000Y-70690000D01*
D19*
X67152799Y-66430000D02*
X67320000Y-66430000D01*
X63345364Y-70304636D02*
X63345364Y-70619615D01*
X67320000Y-66430000D02*
X67220000Y-66430000D01*
X67220000Y-66430000D02*
X63345364Y-70304636D01*
X64040000Y-70550000D02*
X64040000Y-70630000D01*
X67050000Y-67540000D02*
X64040000Y-70550000D01*
X68750000Y-67540000D02*
X67050000Y-67540000D01*
X69860000Y-66430000D02*
X68750000Y-67540000D01*
X67337121Y-67960000D02*
X64658561Y-70638560D01*
X72400000Y-66430000D02*
X70870000Y-67960000D01*
X70870000Y-67960000D02*
X67337121Y-67960000D01*
X65389998Y-70610000D02*
X65389998Y-70620010D01*
X72930000Y-68440000D02*
X67559998Y-68440000D01*
X67559998Y-68440000D02*
X65389998Y-70610000D01*
X74940000Y-66430000D02*
X72930000Y-68440000D01*
X75000022Y-68909978D02*
X67765121Y-68909978D01*
X66090002Y-70585097D02*
X66090002Y-70620010D01*
X67765121Y-68909978D02*
X66090002Y-70585097D01*
X77480000Y-66430000D02*
X75000022Y-68909978D01*
X76200011Y-69309989D02*
X68084545Y-69309989D01*
X68084545Y-69309989D02*
X66834693Y-70559841D01*
X80020000Y-66430000D02*
X79080000Y-66430000D01*
X79080000Y-66430000D02*
X76200011Y-69309989D01*
D21*
X87620000Y-66430000D02*
X87620000Y-66430000D01*
D22*
X69570000Y-84450000D02*
X70740000Y-83280000D01*
X70740000Y-83280000D02*
X70740000Y-81440000D01*
X69570000Y-84450000D02*
X66670000Y-84450000D01*
X87640000Y-70660000D02*
X87640000Y-66430000D01*
X70730000Y-72410000D02*
X71150000Y-71990000D01*
X70730000Y-82010000D02*
X70730000Y-72410000D01*
X85070000Y-73230000D02*
X87640000Y-70660000D01*
X71150000Y-71990000D02*
X81560000Y-71990000D01*
X81560000Y-71990000D02*
X82800000Y-73230000D01*
X82800000Y-73230000D02*
X85070000Y-73230000D01*
D23*
X66670000Y-84450000D02*
X66429999Y-84690001D01*
X66429999Y-84690001D02*
X54220001Y-84690001D01*
X54220001Y-84690001D02*
X53990000Y-84460000D01*
D19*
G36*
X96709615Y-88189766D02*
G01*
X45610064Y-88110233D01*
X45611257Y-85320444D01*
X46650000Y-85320444D01*
X46650000Y-85639556D01*
X46712256Y-85952536D01*
X46834375Y-86247358D01*
X47011664Y-86512689D01*
X47237311Y-86738336D01*
X47502642Y-86915625D01*
X47797464Y-87037744D01*
X48110444Y-87100000D01*
X48429556Y-87100000D01*
X48742536Y-87037744D01*
X49037358Y-86915625D01*
X49302689Y-86738336D01*
X49408052Y-86632973D01*
X50891800Y-86632973D01*
X50891800Y-86867027D01*
X50937462Y-87096585D01*
X51027031Y-87312824D01*
X51157065Y-87507433D01*
X51322567Y-87672935D01*
X51517176Y-87802969D01*
X51733415Y-87892538D01*
X51962973Y-87938200D01*
X52197027Y-87938200D01*
X52426585Y-87892538D01*
X52642824Y-87802969D01*
X52837433Y-87672935D01*
X53002935Y-87507433D01*
X53132969Y-87312824D01*
X53222538Y-87096585D01*
X53268200Y-86867027D01*
X53268200Y-86632973D01*
X53431800Y-86632973D01*
X53431800Y-86867027D01*
X53477462Y-87096585D01*
X53567031Y-87312824D01*
X53697065Y-87507433D01*
X53862567Y-87672935D01*
X54057176Y-87802969D01*
X54273415Y-87892538D01*
X54502973Y-87938200D01*
X54737027Y-87938200D01*
X54966585Y-87892538D01*
X55182824Y-87802969D01*
X55377433Y-87672935D01*
X55542935Y-87507433D01*
X55672969Y-87312824D01*
X55762538Y-87096585D01*
X55808200Y-86867027D01*
X55808200Y-86632973D01*
X55971800Y-86632973D01*
X55971800Y-86867027D01*
X56017462Y-87096585D01*
X56107031Y-87312824D01*
X56237065Y-87507433D01*
X56402567Y-87672935D01*
X56597176Y-87802969D01*
X56813415Y-87892538D01*
X57042973Y-87938200D01*
X57277027Y-87938200D01*
X57506585Y-87892538D01*
X57722824Y-87802969D01*
X57917433Y-87672935D01*
X58082935Y-87507433D01*
X58212969Y-87312824D01*
X58302538Y-87096585D01*
X58348200Y-86867027D01*
X58348200Y-86632973D01*
X58511800Y-86632973D01*
X58511800Y-86867027D01*
X58557462Y-87096585D01*
X58647031Y-87312824D01*
X58777065Y-87507433D01*
X58942567Y-87672935D01*
X59137176Y-87802969D01*
X59353415Y-87892538D01*
X59582973Y-87938200D01*
X59817027Y-87938200D01*
X60046585Y-87892538D01*
X60262824Y-87802969D01*
X60457433Y-87672935D01*
X60622935Y-87507433D01*
X60752969Y-87312824D01*
X60842538Y-87096585D01*
X60888200Y-86867027D01*
X60888200Y-86632973D01*
X61051800Y-86632973D01*
X61051800Y-86867027D01*
X61097462Y-87096585D01*
X61187031Y-87312824D01*
X61317065Y-87507433D01*
X61482567Y-87672935D01*
X61677176Y-87802969D01*
X61893415Y-87892538D01*
X62122973Y-87938200D01*
X62357027Y-87938200D01*
X62586585Y-87892538D01*
X62802824Y-87802969D01*
X62997433Y-87672935D01*
X63162935Y-87507433D01*
X63292969Y-87312824D01*
X63382538Y-87096585D01*
X63428200Y-86867027D01*
X63428200Y-86632973D01*
X63591800Y-86632973D01*
X63591800Y-86867027D01*
X63637462Y-87096585D01*
X63727031Y-87312824D01*
X63857065Y-87507433D01*
X64022567Y-87672935D01*
X64217176Y-87802969D01*
X64433415Y-87892538D01*
X64662973Y-87938200D01*
X64897027Y-87938200D01*
X65126585Y-87892538D01*
X65342824Y-87802969D01*
X65537433Y-87672935D01*
X65702935Y-87507433D01*
X65832969Y-87312824D01*
X65922538Y-87096585D01*
X65968200Y-86867027D01*
X65968200Y-86632973D01*
X66131800Y-86632973D01*
X66131800Y-86867027D01*
X66177462Y-87096585D01*
X66267031Y-87312824D01*
X66397065Y-87507433D01*
X66562567Y-87672935D01*
X66757176Y-87802969D01*
X66973415Y-87892538D01*
X67202973Y-87938200D01*
X67437027Y-87938200D01*
X67666585Y-87892538D01*
X67882824Y-87802969D01*
X68077433Y-87672935D01*
X68242935Y-87507433D01*
X68372969Y-87312824D01*
X68462538Y-87096585D01*
X68508200Y-86867027D01*
X68508200Y-86632973D01*
X68671800Y-86632973D01*
X68671800Y-86867027D01*
X68717462Y-87096585D01*
X68807031Y-87312824D01*
X68937065Y-87507433D01*
X69102567Y-87672935D01*
X69297176Y-87802969D01*
X69513415Y-87892538D01*
X69742973Y-87938200D01*
X69977027Y-87938200D01*
X70206585Y-87892538D01*
X70422824Y-87802969D01*
X70617433Y-87672935D01*
X70782935Y-87507433D01*
X70912969Y-87312824D01*
X71002538Y-87096585D01*
X71048200Y-86867027D01*
X71048200Y-86632973D01*
X71211800Y-86632973D01*
X71211800Y-86867027D01*
X71257462Y-87096585D01*
X71347031Y-87312824D01*
X71477065Y-87507433D01*
X71642567Y-87672935D01*
X71837176Y-87802969D01*
X72053415Y-87892538D01*
X72282973Y-87938200D01*
X72517027Y-87938200D01*
X72746585Y-87892538D01*
X72962824Y-87802969D01*
X73157433Y-87672935D01*
X73322935Y-87507433D01*
X73452969Y-87312824D01*
X73542538Y-87096585D01*
X73588200Y-86867027D01*
X73588200Y-86632973D01*
X73751800Y-86632973D01*
X73751800Y-86867027D01*
X73797462Y-87096585D01*
X73887031Y-87312824D01*
X74017065Y-87507433D01*
X74182567Y-87672935D01*
X74377176Y-87802969D01*
X74593415Y-87892538D01*
X74822973Y-87938200D01*
X75057027Y-87938200D01*
X75286585Y-87892538D01*
X75502824Y-87802969D01*
X75697433Y-87672935D01*
X75862935Y-87507433D01*
X75992969Y-87312824D01*
X76082538Y-87096585D01*
X76128200Y-86867027D01*
X76128200Y-86632973D01*
X76291800Y-86632973D01*
X76291800Y-86867027D01*
X76337462Y-87096585D01*
X76427031Y-87312824D01*
X76557065Y-87507433D01*
X76722567Y-87672935D01*
X76917176Y-87802969D01*
X77133415Y-87892538D01*
X77362973Y-87938200D01*
X77597027Y-87938200D01*
X77826585Y-87892538D01*
X78042824Y-87802969D01*
X78237433Y-87672935D01*
X78402935Y-87507433D01*
X78532969Y-87312824D01*
X78622538Y-87096585D01*
X78668200Y-86867027D01*
X78668200Y-86632973D01*
X78622538Y-86403415D01*
X78532969Y-86187176D01*
X78402935Y-85992567D01*
X78322168Y-85911800D01*
X78830107Y-85911800D01*
X78830107Y-87588200D01*
X78836865Y-87656812D01*
X78856878Y-87722787D01*
X78889378Y-87783590D01*
X78933115Y-87836885D01*
X78986410Y-87880622D01*
X79047213Y-87913122D01*
X79113188Y-87933135D01*
X79181800Y-87939893D01*
X80858200Y-87939893D01*
X80926812Y-87933135D01*
X80992787Y-87913122D01*
X81053590Y-87880622D01*
X81106885Y-87836885D01*
X81150622Y-87783590D01*
X81183122Y-87722787D01*
X81203135Y-87656812D01*
X81209893Y-87588200D01*
X81209893Y-85911800D01*
X81203135Y-85843188D01*
X81183122Y-85777213D01*
X81150622Y-85716410D01*
X81106885Y-85663115D01*
X81053590Y-85619378D01*
X80992787Y-85586878D01*
X80926812Y-85566865D01*
X80858200Y-85560107D01*
X79181800Y-85560107D01*
X79113188Y-85566865D01*
X79047213Y-85586878D01*
X78986410Y-85619378D01*
X78933115Y-85663115D01*
X78889378Y-85716410D01*
X78856878Y-85777213D01*
X78836865Y-85843188D01*
X78830107Y-85911800D01*
X78322168Y-85911800D01*
X78237433Y-85827065D01*
X78042824Y-85697031D01*
X77826585Y-85607462D01*
X77597027Y-85561800D01*
X77362973Y-85561800D01*
X77133415Y-85607462D01*
X76917176Y-85697031D01*
X76722567Y-85827065D01*
X76557065Y-85992567D01*
X76427031Y-86187176D01*
X76337462Y-86403415D01*
X76291800Y-86632973D01*
X76128200Y-86632973D01*
X76082538Y-86403415D01*
X75992969Y-86187176D01*
X75862935Y-85992567D01*
X75697433Y-85827065D01*
X75502824Y-85697031D01*
X75286585Y-85607462D01*
X75057027Y-85561800D01*
X74822973Y-85561800D01*
X74593415Y-85607462D01*
X74377176Y-85697031D01*
X74182567Y-85827065D01*
X74017065Y-85992567D01*
X73887031Y-86187176D01*
X73797462Y-86403415D01*
X73751800Y-86632973D01*
X73588200Y-86632973D01*
X73542538Y-86403415D01*
X73452969Y-86187176D01*
X73322935Y-85992567D01*
X73157433Y-85827065D01*
X72962824Y-85697031D01*
X72746585Y-85607462D01*
X72517027Y-85561800D01*
X72282973Y-85561800D01*
X72053415Y-85607462D01*
X71837176Y-85697031D01*
X71642567Y-85827065D01*
X71477065Y-85992567D01*
X71347031Y-86187176D01*
X71257462Y-86403415D01*
X71211800Y-86632973D01*
X71048200Y-86632973D01*
X71002538Y-86403415D01*
X70912969Y-86187176D01*
X70782935Y-85992567D01*
X70617433Y-85827065D01*
X70422824Y-85697031D01*
X70206585Y-85607462D01*
X69977027Y-85561800D01*
X69742973Y-85561800D01*
X69513415Y-85607462D01*
X69297176Y-85697031D01*
X69102567Y-85827065D01*
X68937065Y-85992567D01*
X68807031Y-86187176D01*
X68717462Y-86403415D01*
X68671800Y-86632973D01*
X68508200Y-86632973D01*
X68462538Y-86403415D01*
X68372969Y-86187176D01*
X68242935Y-85992567D01*
X68077433Y-85827065D01*
X67882824Y-85697031D01*
X67666585Y-85607462D01*
X67437027Y-85561800D01*
X67202973Y-85561800D01*
X66973415Y-85607462D01*
X66757176Y-85697031D01*
X66562567Y-85827065D01*
X66397065Y-85992567D01*
X66267031Y-86187176D01*
X66177462Y-86403415D01*
X66131800Y-86632973D01*
X65968200Y-86632973D01*
X65922538Y-86403415D01*
X65832969Y-86187176D01*
X65702935Y-85992567D01*
X65537433Y-85827065D01*
X65342824Y-85697031D01*
X65126585Y-85607462D01*
X64897027Y-85561800D01*
X64662973Y-85561800D01*
X64433415Y-85607462D01*
X64217176Y-85697031D01*
X64022567Y-85827065D01*
X63857065Y-85992567D01*
X63727031Y-86187176D01*
X63637462Y-86403415D01*
X63591800Y-86632973D01*
X63428200Y-86632973D01*
X63382538Y-86403415D01*
X63292969Y-86187176D01*
X63162935Y-85992567D01*
X62997433Y-85827065D01*
X62802824Y-85697031D01*
X62586585Y-85607462D01*
X62357027Y-85561800D01*
X62122973Y-85561800D01*
X61893415Y-85607462D01*
X61677176Y-85697031D01*
X61482567Y-85827065D01*
X61317065Y-85992567D01*
X61187031Y-86187176D01*
X61097462Y-86403415D01*
X61051800Y-86632973D01*
X60888200Y-86632973D01*
X60842538Y-86403415D01*
X60752969Y-86187176D01*
X60622935Y-85992567D01*
X60457433Y-85827065D01*
X60262824Y-85697031D01*
X60046585Y-85607462D01*
X59817027Y-85561800D01*
X59582973Y-85561800D01*
X59353415Y-85607462D01*
X59137176Y-85697031D01*
X58942567Y-85827065D01*
X58777065Y-85992567D01*
X58647031Y-86187176D01*
X58557462Y-86403415D01*
X58511800Y-86632973D01*
X58348200Y-86632973D01*
X58302538Y-86403415D01*
X58212969Y-86187176D01*
X58082935Y-85992567D01*
X57917433Y-85827065D01*
X57722824Y-85697031D01*
X57506585Y-85607462D01*
X57277027Y-85561800D01*
X57042973Y-85561800D01*
X56813415Y-85607462D01*
X56597176Y-85697031D01*
X56402567Y-85827065D01*
X56237065Y-85992567D01*
X56107031Y-86187176D01*
X56017462Y-86403415D01*
X55971800Y-86632973D01*
X55808200Y-86632973D01*
X55762538Y-86403415D01*
X55672969Y-86187176D01*
X55542935Y-85992567D01*
X55377433Y-85827065D01*
X55182824Y-85697031D01*
X54966585Y-85607462D01*
X54737027Y-85561800D01*
X54502973Y-85561800D01*
X54273415Y-85607462D01*
X54057176Y-85697031D01*
X53862567Y-85827065D01*
X53697065Y-85992567D01*
X53567031Y-86187176D01*
X53477462Y-86403415D01*
X53431800Y-86632973D01*
X53268200Y-86632973D01*
X53222538Y-86403415D01*
X53132969Y-86187176D01*
X53002935Y-85992567D01*
X52837433Y-85827065D01*
X52642824Y-85697031D01*
X52426585Y-85607462D01*
X52197027Y-85561800D01*
X51962973Y-85561800D01*
X51733415Y-85607462D01*
X51517176Y-85697031D01*
X51322567Y-85827065D01*
X51157065Y-85992567D01*
X51027031Y-86187176D01*
X50937462Y-86403415D01*
X50891800Y-86632973D01*
X49408052Y-86632973D01*
X49528336Y-86512689D01*
X49705625Y-86247358D01*
X49827744Y-85952536D01*
X49890000Y-85639556D01*
X49890000Y-85320444D01*
X49827744Y-85007464D01*
X49705625Y-84712642D01*
X49528336Y-84447311D01*
X49302689Y-84221664D01*
X49037358Y-84044375D01*
X48742536Y-83922256D01*
X48429556Y-83860000D01*
X48110444Y-83860000D01*
X47797464Y-83922256D01*
X47502642Y-84044375D01*
X47237311Y-84221664D01*
X47011664Y-84447311D01*
X46834375Y-84712642D01*
X46712256Y-85007464D01*
X46650000Y-85320444D01*
X45611257Y-85320444D01*
X45617552Y-70602829D01*
X52588233Y-70602829D01*
X52588233Y-70721019D01*
X52611291Y-70836938D01*
X52656520Y-70946131D01*
X52722183Y-71044402D01*
X52805755Y-71127974D01*
X52904026Y-71193637D01*
X53013219Y-71238866D01*
X53129138Y-71261924D01*
X53247328Y-71261924D01*
X53363247Y-71238866D01*
X53472440Y-71193637D01*
X53570688Y-71127989D01*
X53604987Y-71150907D01*
X53714180Y-71196136D01*
X53775966Y-71208426D01*
X53807110Y-71233985D01*
X53893972Y-71280414D01*
X53973961Y-71304678D01*
X53988222Y-71309004D01*
X54086239Y-71318658D01*
X54110799Y-71316239D01*
X62007222Y-71316239D01*
X62031782Y-71318658D01*
X62056342Y-71316239D01*
X62129799Y-71309004D01*
X62224049Y-71280414D01*
X62310911Y-71233985D01*
X62387046Y-71171503D01*
X62395979Y-71160617D01*
X62423950Y-71202478D01*
X62507522Y-71286050D01*
X62605793Y-71351713D01*
X62714986Y-71396942D01*
X62830905Y-71420000D01*
X62949095Y-71420000D01*
X63065014Y-71396942D01*
X63174207Y-71351713D01*
X63272478Y-71286050D01*
X63338913Y-71219615D01*
X63404459Y-71219615D01*
X63520378Y-71196557D01*
X63629571Y-71151328D01*
X63684911Y-71114351D01*
X63755793Y-71161713D01*
X63864986Y-71206942D01*
X63980905Y-71230000D01*
X64099095Y-71230000D01*
X64215014Y-71206942D01*
X64324207Y-71161713D01*
X64342875Y-71149239D01*
X64374354Y-71170273D01*
X64483547Y-71215502D01*
X64599466Y-71238560D01*
X64717656Y-71238560D01*
X64833575Y-71215502D01*
X64942768Y-71170273D01*
X65038160Y-71106533D01*
X65105791Y-71151723D01*
X65214984Y-71196952D01*
X65330903Y-71220010D01*
X65449093Y-71220010D01*
X65565012Y-71196952D01*
X65674205Y-71151723D01*
X65740000Y-71107760D01*
X65805795Y-71151723D01*
X65914988Y-71196952D01*
X66030907Y-71220010D01*
X66149097Y-71220010D01*
X66265016Y-71196952D01*
X66374209Y-71151723D01*
X66472480Y-71086060D01*
X66500432Y-71058108D01*
X66550486Y-71091554D01*
X66659679Y-71136783D01*
X66775598Y-71159841D01*
X66893788Y-71159841D01*
X67009707Y-71136783D01*
X67118900Y-71091554D01*
X67217171Y-71025891D01*
X67300743Y-70942319D01*
X67366406Y-70844048D01*
X67411635Y-70734855D01*
X67422772Y-70678868D01*
X68291652Y-69809989D01*
X76175451Y-69809989D01*
X76200011Y-69812408D01*
X76217088Y-69810726D01*
X79524500Y-69810726D01*
X79524500Y-69977274D01*
X79556992Y-70140623D01*
X79620728Y-70294494D01*
X79713257Y-70432975D01*
X79831025Y-70550743D01*
X79969506Y-70643272D01*
X80123377Y-70707008D01*
X80286726Y-70739500D01*
X80453274Y-70739500D01*
X80616623Y-70707008D01*
X80770494Y-70643272D01*
X80908975Y-70550743D01*
X81026743Y-70432975D01*
X81119272Y-70294494D01*
X81183008Y-70140623D01*
X81215500Y-69977274D01*
X81215500Y-69810726D01*
X81183008Y-69647377D01*
X81119272Y-69493506D01*
X81026743Y-69355025D01*
X80908975Y-69237257D01*
X80770494Y-69144728D01*
X80616623Y-69080992D01*
X80453274Y-69048500D01*
X80286726Y-69048500D01*
X80123377Y-69080992D01*
X79969506Y-69144728D01*
X79831025Y-69237257D01*
X79713257Y-69355025D01*
X79620728Y-69493506D01*
X79556992Y-69647377D01*
X79524500Y-69810726D01*
X76217088Y-69810726D01*
X76224571Y-69809989D01*
X76298028Y-69802754D01*
X76392278Y-69774164D01*
X76479140Y-69727735D01*
X76555275Y-69665253D01*
X76570940Y-69646165D01*
X77422379Y-68794726D01*
X84604500Y-68794726D01*
X84604500Y-68961274D01*
X84636992Y-69124623D01*
X84700728Y-69278494D01*
X84793257Y-69416975D01*
X84911025Y-69534743D01*
X85049506Y-69627272D01*
X85203377Y-69691008D01*
X85366726Y-69723500D01*
X85533274Y-69723500D01*
X85696623Y-69691008D01*
X85850494Y-69627272D01*
X85988975Y-69534743D01*
X86106743Y-69416975D01*
X86199272Y-69278494D01*
X86263008Y-69124623D01*
X86295500Y-68961274D01*
X86295500Y-68794726D01*
X86263008Y-68631377D01*
X86199272Y-68477506D01*
X86106743Y-68339025D01*
X85988975Y-68221257D01*
X85850494Y-68128728D01*
X85696623Y-68064992D01*
X85533274Y-68032500D01*
X85366726Y-68032500D01*
X85203377Y-68064992D01*
X85049506Y-68128728D01*
X84911025Y-68221257D01*
X84793257Y-68339025D01*
X84700728Y-68477506D01*
X84636992Y-68631377D01*
X84604500Y-68794726D01*
X77422379Y-68794726D01*
X79070072Y-67147035D01*
X79097065Y-67187433D01*
X79262567Y-67352935D01*
X79457176Y-67482969D01*
X79673415Y-67572538D01*
X79902973Y-67618200D01*
X80137027Y-67618200D01*
X80366585Y-67572538D01*
X80582824Y-67482969D01*
X80777433Y-67352935D01*
X80942935Y-67187433D01*
X81072969Y-66992824D01*
X81162538Y-66776585D01*
X81208200Y-66547027D01*
X81208200Y-66312973D01*
X81162538Y-66083415D01*
X81072969Y-65867176D01*
X80942935Y-65672567D01*
X80777433Y-65507065D01*
X80582824Y-65377031D01*
X80366585Y-65287462D01*
X80137027Y-65241800D01*
X79902973Y-65241800D01*
X79673415Y-65287462D01*
X79457176Y-65377031D01*
X79262567Y-65507065D01*
X79097065Y-65672567D01*
X78967031Y-65867176D01*
X78931693Y-65952490D01*
X78887733Y-65965825D01*
X78800871Y-66012254D01*
X78724736Y-66074736D01*
X78709080Y-66093813D01*
X78638621Y-66164272D01*
X78622538Y-66083415D01*
X78532969Y-65867176D01*
X78402935Y-65672567D01*
X78237433Y-65507065D01*
X78042824Y-65377031D01*
X77826585Y-65287462D01*
X77597027Y-65241800D01*
X77362973Y-65241800D01*
X77133415Y-65287462D01*
X76917176Y-65377031D01*
X76722567Y-65507065D01*
X76557065Y-65672567D01*
X76427031Y-65867176D01*
X76337462Y-66083415D01*
X76291800Y-66312973D01*
X76291800Y-66547027D01*
X76337462Y-66776585D01*
X76363485Y-66839409D01*
X74792917Y-68409978D01*
X73667127Y-68409978D01*
X74530591Y-67546515D01*
X74593415Y-67572538D01*
X74822973Y-67618200D01*
X75057027Y-67618200D01*
X75286585Y-67572538D01*
X75502824Y-67482969D01*
X75697433Y-67352935D01*
X75862935Y-67187433D01*
X75992969Y-66992824D01*
X76082538Y-66776585D01*
X76128200Y-66547027D01*
X76128200Y-66312973D01*
X76082538Y-66083415D01*
X75992969Y-65867176D01*
X75862935Y-65672567D01*
X75697433Y-65507065D01*
X75502824Y-65377031D01*
X75286585Y-65287462D01*
X75057027Y-65241800D01*
X74822973Y-65241800D01*
X74593415Y-65287462D01*
X74377176Y-65377031D01*
X74182567Y-65507065D01*
X74017065Y-65672567D01*
X73887031Y-65867176D01*
X73797462Y-66083415D01*
X73751800Y-66312973D01*
X73751800Y-66547027D01*
X73797462Y-66776585D01*
X73823485Y-66839409D01*
X72722895Y-67940000D01*
X71597105Y-67940000D01*
X71990591Y-67546515D01*
X72053415Y-67572538D01*
X72282973Y-67618200D01*
X72517027Y-67618200D01*
X72746585Y-67572538D01*
X72962824Y-67482969D01*
X73157433Y-67352935D01*
X73322935Y-67187433D01*
X73452969Y-66992824D01*
X73542538Y-66776585D01*
X73588200Y-66547027D01*
X73588200Y-66312973D01*
X73542538Y-66083415D01*
X73452969Y-65867176D01*
X73322935Y-65672567D01*
X73157433Y-65507065D01*
X72962824Y-65377031D01*
X72746585Y-65287462D01*
X72517027Y-65241800D01*
X72282973Y-65241800D01*
X72053415Y-65287462D01*
X71837176Y-65377031D01*
X71642567Y-65507065D01*
X71477065Y-65672567D01*
X71347031Y-65867176D01*
X71257462Y-66083415D01*
X71211800Y-66312973D01*
X71211800Y-66547027D01*
X71257462Y-66776585D01*
X71283485Y-66839409D01*
X70662895Y-67460000D01*
X70457199Y-67460000D01*
X70617433Y-67352935D01*
X70782935Y-67187433D01*
X70912969Y-66992824D01*
X71002538Y-66776585D01*
X71048200Y-66547027D01*
X71048200Y-66312973D01*
X71002538Y-66083415D01*
X70912969Y-65867176D01*
X70782935Y-65672567D01*
X70617433Y-65507065D01*
X70422824Y-65377031D01*
X70206585Y-65287462D01*
X69977027Y-65241800D01*
X69742973Y-65241800D01*
X69513415Y-65287462D01*
X69297176Y-65377031D01*
X69102567Y-65507065D01*
X68937065Y-65672567D01*
X68807031Y-65867176D01*
X68717462Y-66083415D01*
X68671800Y-66312973D01*
X68671800Y-66547027D01*
X68717462Y-66776585D01*
X68743485Y-66839410D01*
X68542895Y-67040000D01*
X68341447Y-67040000D01*
X68372969Y-66992824D01*
X68462538Y-66776585D01*
X68508200Y-66547027D01*
X68508200Y-66312973D01*
X68462538Y-66083415D01*
X68372969Y-65867176D01*
X68242935Y-65672567D01*
X68077433Y-65507065D01*
X67882824Y-65377031D01*
X67666585Y-65287462D01*
X67437027Y-65241800D01*
X67202973Y-65241800D01*
X66973415Y-65287462D01*
X66757176Y-65377031D01*
X66562567Y-65507065D01*
X66397065Y-65672567D01*
X66267031Y-65867176D01*
X66177462Y-66083415D01*
X66131800Y-66312973D01*
X66131800Y-66547027D01*
X66175611Y-66767282D01*
X63290183Y-69652712D01*
X63290183Y-68626922D01*
X64370591Y-67546515D01*
X64433415Y-67572538D01*
X64662973Y-67618200D01*
X64897027Y-67618200D01*
X65126585Y-67572538D01*
X65342824Y-67482969D01*
X65537433Y-67352935D01*
X65702935Y-67187433D01*
X65832969Y-66992824D01*
X65922538Y-66776585D01*
X65968200Y-66547027D01*
X65968200Y-66312973D01*
X65922538Y-66083415D01*
X65832969Y-65867176D01*
X65702935Y-65672567D01*
X65537433Y-65507065D01*
X65342824Y-65377031D01*
X65126585Y-65287462D01*
X64897027Y-65241800D01*
X64662973Y-65241800D01*
X64433415Y-65287462D01*
X64217176Y-65377031D01*
X64022567Y-65507065D01*
X63857065Y-65672567D01*
X63727031Y-65867176D01*
X63637462Y-66083415D01*
X63591800Y-66312973D01*
X63591800Y-66547027D01*
X63637462Y-66776585D01*
X63663485Y-66839409D01*
X62469264Y-68033631D01*
X62422438Y-68090689D01*
X62376009Y-68177550D01*
X62347418Y-68271800D01*
X62337764Y-68369817D01*
X62347418Y-68467834D01*
X62376009Y-68562084D01*
X62390184Y-68588603D01*
X62390183Y-69976048D01*
X62340876Y-69966240D01*
X62329889Y-69966240D01*
X62306861Y-69910645D01*
X62241198Y-69812374D01*
X62157626Y-69728802D01*
X62059355Y-69663139D01*
X61950162Y-69617910D01*
X61916862Y-69611286D01*
X61911302Y-69583336D01*
X61866073Y-69474143D01*
X61800410Y-69375872D01*
X61716838Y-69292300D01*
X61618567Y-69226637D01*
X61509374Y-69181408D01*
X61474808Y-69174532D01*
X61466942Y-69134986D01*
X61421713Y-69025793D01*
X61356050Y-68927522D01*
X61272478Y-68843950D01*
X61174207Y-68778287D01*
X61065014Y-68733058D01*
X61009848Y-68722085D01*
X60949129Y-68672254D01*
X60862267Y-68625825D01*
X60768017Y-68597235D01*
X60694560Y-68590000D01*
X60670000Y-68587581D01*
X60645440Y-68590000D01*
X54431164Y-68590000D01*
X54406604Y-68587581D01*
X54382044Y-68590000D01*
X54308587Y-68597235D01*
X54214337Y-68625825D01*
X54127475Y-68672254D01*
X54051340Y-68734736D01*
X54035684Y-68753813D01*
X52852057Y-69937442D01*
X52832969Y-69953107D01*
X52770487Y-70029242D01*
X52724058Y-70116105D01*
X52710522Y-70160728D01*
X52695468Y-70210354D01*
X52685814Y-70308371D01*
X52688003Y-70330599D01*
X52656520Y-70377717D01*
X52611291Y-70486910D01*
X52588233Y-70602829D01*
X45617552Y-70602829D01*
X45618862Y-67540444D01*
X46650000Y-67540444D01*
X46650000Y-67859556D01*
X46712256Y-68172536D01*
X46834375Y-68467358D01*
X47011664Y-68732689D01*
X47237311Y-68958336D01*
X47502642Y-69135625D01*
X47797464Y-69257744D01*
X48110444Y-69320000D01*
X48429556Y-69320000D01*
X48742536Y-69257744D01*
X49037358Y-69135625D01*
X49302689Y-68958336D01*
X49528336Y-68732689D01*
X49705625Y-68467358D01*
X49827744Y-68172536D01*
X49890000Y-67859556D01*
X49890000Y-67540444D01*
X49827744Y-67227464D01*
X49705625Y-66932642D01*
X49528336Y-66667311D01*
X49302689Y-66441664D01*
X49037358Y-66264375D01*
X48742536Y-66142256D01*
X48429556Y-66080000D01*
X48110444Y-66080000D01*
X47797464Y-66142256D01*
X47502642Y-66264375D01*
X47237311Y-66441664D01*
X47011664Y-66667311D01*
X46834375Y-66932642D01*
X46712256Y-67227464D01*
X46650000Y-67540444D01*
X45618862Y-67540444D01*
X45619695Y-65591800D01*
X50890107Y-65591800D01*
X50890107Y-67268200D01*
X50896865Y-67336812D01*
X50916878Y-67402787D01*
X50949378Y-67463590D01*
X50993115Y-67516885D01*
X51046410Y-67560622D01*
X51107213Y-67593122D01*
X51173188Y-67613135D01*
X51241800Y-67619893D01*
X52918200Y-67619893D01*
X52986812Y-67613135D01*
X53052787Y-67593122D01*
X53113590Y-67560622D01*
X53166885Y-67516885D01*
X53210622Y-67463590D01*
X53243122Y-67402787D01*
X53263135Y-67336812D01*
X53269893Y-67268200D01*
X53269893Y-66312973D01*
X53431800Y-66312973D01*
X53431800Y-66547027D01*
X53477462Y-66776585D01*
X53567031Y-66992824D01*
X53697065Y-67187433D01*
X53862567Y-67352935D01*
X54057176Y-67482969D01*
X54273415Y-67572538D01*
X54502973Y-67618200D01*
X54737027Y-67618200D01*
X54966585Y-67572538D01*
X55182824Y-67482969D01*
X55377433Y-67352935D01*
X55542935Y-67187433D01*
X55672969Y-66992824D01*
X55762538Y-66776585D01*
X55808200Y-66547027D01*
X55808200Y-66312973D01*
X55971800Y-66312973D01*
X55971800Y-66547027D01*
X56017462Y-66776585D01*
X56107031Y-66992824D01*
X56237065Y-67187433D01*
X56402567Y-67352935D01*
X56597176Y-67482969D01*
X56813415Y-67572538D01*
X57042973Y-67618200D01*
X57277027Y-67618200D01*
X57506585Y-67572538D01*
X57722824Y-67482969D01*
X57917433Y-67352935D01*
X58082935Y-67187433D01*
X58212969Y-66992824D01*
X58302538Y-66776585D01*
X58348200Y-66547027D01*
X58348200Y-66312973D01*
X58511800Y-66312973D01*
X58511800Y-66547027D01*
X58557462Y-66776585D01*
X58647031Y-66992824D01*
X58777065Y-67187433D01*
X58942567Y-67352935D01*
X59137176Y-67482969D01*
X59353415Y-67572538D01*
X59582973Y-67618200D01*
X59817027Y-67618200D01*
X60046585Y-67572538D01*
X60262824Y-67482969D01*
X60457433Y-67352935D01*
X60622935Y-67187433D01*
X60752969Y-66992824D01*
X60842538Y-66776585D01*
X60888200Y-66547027D01*
X60888200Y-66312973D01*
X61051800Y-66312973D01*
X61051800Y-66547027D01*
X61097462Y-66776585D01*
X61187031Y-66992824D01*
X61317065Y-67187433D01*
X61482567Y-67352935D01*
X61677176Y-67482969D01*
X61893415Y-67572538D01*
X62122973Y-67618200D01*
X62357027Y-67618200D01*
X62586585Y-67572538D01*
X62802824Y-67482969D01*
X62997433Y-67352935D01*
X63162935Y-67187433D01*
X63292969Y-66992824D01*
X63382538Y-66776585D01*
X63428200Y-66547027D01*
X63428200Y-66312973D01*
X63382538Y-66083415D01*
X63292969Y-65867176D01*
X63162935Y-65672567D01*
X62997433Y-65507065D01*
X62802824Y-65377031D01*
X62586585Y-65287462D01*
X62357027Y-65241800D01*
X62122973Y-65241800D01*
X61893415Y-65287462D01*
X61677176Y-65377031D01*
X61482567Y-65507065D01*
X61317065Y-65672567D01*
X61187031Y-65867176D01*
X61097462Y-66083415D01*
X61051800Y-66312973D01*
X60888200Y-66312973D01*
X60842538Y-66083415D01*
X60752969Y-65867176D01*
X60622935Y-65672567D01*
X60457433Y-65507065D01*
X60262824Y-65377031D01*
X60046585Y-65287462D01*
X59817027Y-65241800D01*
X59582973Y-65241800D01*
X59353415Y-65287462D01*
X59137176Y-65377031D01*
X58942567Y-65507065D01*
X58777065Y-65672567D01*
X58647031Y-65867176D01*
X58557462Y-66083415D01*
X58511800Y-66312973D01*
X58348200Y-66312973D01*
X58302538Y-66083415D01*
X58212969Y-65867176D01*
X58082935Y-65672567D01*
X57917433Y-65507065D01*
X57722824Y-65377031D01*
X57506585Y-65287462D01*
X57277027Y-65241800D01*
X57042973Y-65241800D01*
X56813415Y-65287462D01*
X56597176Y-65377031D01*
X56402567Y-65507065D01*
X56237065Y-65672567D01*
X56107031Y-65867176D01*
X56017462Y-66083415D01*
X55971800Y-66312973D01*
X55808200Y-66312973D01*
X55762538Y-66083415D01*
X55672969Y-65867176D01*
X55542935Y-65672567D01*
X55377433Y-65507065D01*
X55182824Y-65377031D01*
X54966585Y-65287462D01*
X54737027Y-65241800D01*
X54502973Y-65241800D01*
X54273415Y-65287462D01*
X54057176Y-65377031D01*
X53862567Y-65507065D01*
X53697065Y-65672567D01*
X53567031Y-65867176D01*
X53477462Y-66083415D01*
X53431800Y-66312973D01*
X53269893Y-66312973D01*
X53269893Y-65591800D01*
X53263135Y-65523188D01*
X53243122Y-65457213D01*
X53210622Y-65396410D01*
X53166885Y-65343115D01*
X53113590Y-65299378D01*
X53052787Y-65266878D01*
X52986812Y-65246865D01*
X52918200Y-65240107D01*
X51241800Y-65240107D01*
X51173188Y-65246865D01*
X51107213Y-65266878D01*
X51046410Y-65299378D01*
X50993115Y-65343115D01*
X50949378Y-65396410D01*
X50916878Y-65457213D01*
X50896865Y-65523188D01*
X50890107Y-65591800D01*
X45619695Y-65591800D01*
X45619936Y-65029971D01*
X86419454Y-65022022D01*
X86305523Y-65115523D01*
X86074339Y-65397222D01*
X85960523Y-65610155D01*
X85857433Y-65507065D01*
X85662824Y-65377031D01*
X85446585Y-65287462D01*
X85217027Y-65241800D01*
X84982973Y-65241800D01*
X84753415Y-65287462D01*
X84537176Y-65377031D01*
X84342567Y-65507065D01*
X84177065Y-65672567D01*
X84047031Y-65867176D01*
X83957462Y-66083415D01*
X83911800Y-66312973D01*
X83911800Y-66547027D01*
X83957462Y-66776585D01*
X84047031Y-66992824D01*
X84177065Y-67187433D01*
X84342567Y-67352935D01*
X84537176Y-67482969D01*
X84753415Y-67572538D01*
X84982973Y-67618200D01*
X85217027Y-67618200D01*
X85446585Y-67572538D01*
X85662824Y-67482969D01*
X85857433Y-67352935D01*
X85960523Y-67249845D01*
X86074339Y-67462778D01*
X86305523Y-67744477D01*
X86540001Y-67936907D01*
X86540000Y-70204365D01*
X86209695Y-70534670D01*
X86199272Y-70509506D01*
X86106743Y-70371025D01*
X85988975Y-70253257D01*
X85850494Y-70160728D01*
X85696623Y-70096992D01*
X85533274Y-70064500D01*
X85366726Y-70064500D01*
X85203377Y-70096992D01*
X85049506Y-70160728D01*
X84911025Y-70253257D01*
X84793257Y-70371025D01*
X84700728Y-70509506D01*
X84636992Y-70663377D01*
X84604500Y-70826726D01*
X84604500Y-70993274D01*
X84636992Y-71156623D01*
X84700728Y-71310494D01*
X84793257Y-71448975D01*
X84911025Y-71566743D01*
X85049506Y-71659272D01*
X85074670Y-71669695D01*
X84614366Y-72130000D01*
X83255635Y-72130000D01*
X82376033Y-71250399D01*
X82341581Y-71208419D01*
X82174084Y-71070958D01*
X81982988Y-70968816D01*
X81775638Y-70905916D01*
X81614036Y-70890000D01*
X81614034Y-70890000D01*
X81560000Y-70884678D01*
X81505966Y-70890000D01*
X81465916Y-70890000D01*
X81425014Y-70873058D01*
X81309095Y-70850000D01*
X81190905Y-70850000D01*
X81074986Y-70873058D01*
X81034084Y-70890000D01*
X71204036Y-70890000D01*
X71150000Y-70884678D01*
X71081759Y-70891399D01*
X70934362Y-70905916D01*
X70727012Y-70968816D01*
X70535916Y-71070958D01*
X70368419Y-71208419D01*
X70333967Y-71250399D01*
X69990395Y-71593971D01*
X69948420Y-71628419D01*
X69913974Y-71670392D01*
X69810958Y-71795916D01*
X69711649Y-71981713D01*
X69708817Y-71987012D01*
X69665442Y-72130000D01*
X69645917Y-72194363D01*
X69624678Y-72410000D01*
X69630001Y-72464044D01*
X69630000Y-82064035D01*
X69640000Y-82165569D01*
X69640000Y-82653297D01*
X69618287Y-82685793D01*
X69573058Y-82794986D01*
X69550000Y-82910905D01*
X69550000Y-82914365D01*
X69114366Y-83350000D01*
X66615964Y-83350000D01*
X66454362Y-83365916D01*
X66247012Y-83428816D01*
X66055916Y-83530958D01*
X65888419Y-83668419D01*
X65750958Y-83835916D01*
X65748775Y-83840001D01*
X63148529Y-83840001D01*
X63142478Y-83833950D01*
X63044207Y-83768287D01*
X62935014Y-83723058D01*
X62819095Y-83700000D01*
X62700905Y-83700000D01*
X62584986Y-83723058D01*
X62475793Y-83768287D01*
X62377522Y-83833950D01*
X62371471Y-83840001D01*
X61542215Y-83840001D01*
X61562384Y-83738604D01*
X61562384Y-83620414D01*
X61539326Y-83504495D01*
X61494097Y-83395302D01*
X61428434Y-83297031D01*
X61344862Y-83213459D01*
X61246591Y-83147796D01*
X61137398Y-83102567D01*
X61021479Y-83079509D01*
X60903289Y-83079509D01*
X60787370Y-83102567D01*
X60678177Y-83147796D01*
X60579906Y-83213459D01*
X60553365Y-83240000D01*
X56281669Y-83240000D01*
X56234207Y-83208287D01*
X56125014Y-83163058D01*
X56009095Y-83140000D01*
X55890905Y-83140000D01*
X55774986Y-83163058D01*
X55665793Y-83208287D01*
X55567522Y-83273950D01*
X55483950Y-83357522D01*
X55418287Y-83455793D01*
X55373058Y-83564986D01*
X55350000Y-83680905D01*
X55350000Y-83799095D01*
X55358137Y-83840001D01*
X54572081Y-83840001D01*
X54561519Y-83829439D01*
X54537754Y-83809935D01*
X54496050Y-83747522D01*
X54412478Y-83663950D01*
X54314207Y-83598287D01*
X54205014Y-83553058D01*
X54089095Y-83530000D01*
X53970905Y-83530000D01*
X53854986Y-83553058D01*
X53745793Y-83598287D01*
X53647522Y-83663950D01*
X53614643Y-83696829D01*
X53515482Y-83749833D01*
X53386052Y-83856052D01*
X53279833Y-83985482D01*
X53200903Y-84133146D01*
X53152300Y-84293371D01*
X53135889Y-84460000D01*
X53152300Y-84626629D01*
X53200903Y-84786854D01*
X53279833Y-84934518D01*
X53359439Y-85031519D01*
X53589439Y-85261520D01*
X53616053Y-85293949D01*
X53745482Y-85400169D01*
X53893146Y-85479098D01*
X54053372Y-85527701D01*
X54178252Y-85540001D01*
X54178260Y-85540001D01*
X54220001Y-85544112D01*
X54261742Y-85540001D01*
X66388258Y-85540001D01*
X66429999Y-85544112D01*
X66471740Y-85540001D01*
X66471748Y-85540001D01*
X66493093Y-85537899D01*
X66615964Y-85550000D01*
X69515966Y-85550000D01*
X69570000Y-85555322D01*
X69624034Y-85550000D01*
X69624036Y-85550000D01*
X69785638Y-85534084D01*
X69992988Y-85471184D01*
X70184084Y-85369042D01*
X70282904Y-85287942D01*
X92040000Y-85287942D01*
X92040000Y-85672058D01*
X92114938Y-86048794D01*
X92261933Y-86403671D01*
X92475336Y-86723052D01*
X92746948Y-86994664D01*
X93066329Y-87208067D01*
X93421206Y-87355062D01*
X93797942Y-87430000D01*
X94182058Y-87430000D01*
X94558794Y-87355062D01*
X94913671Y-87208067D01*
X95233052Y-86994664D01*
X95504664Y-86723052D01*
X95718067Y-86403671D01*
X95865062Y-86048794D01*
X95940000Y-85672058D01*
X95940000Y-85287942D01*
X95865062Y-84911206D01*
X95718067Y-84556329D01*
X95504664Y-84236948D01*
X95233052Y-83965336D01*
X94913671Y-83751933D01*
X94558794Y-83604938D01*
X94182058Y-83530000D01*
X93797942Y-83530000D01*
X93421206Y-83604938D01*
X93066329Y-83751933D01*
X92746948Y-83965336D01*
X92475336Y-84236948D01*
X92261933Y-84556329D01*
X92114938Y-84911206D01*
X92040000Y-85287942D01*
X70282904Y-85287942D01*
X70351581Y-85231581D01*
X70386033Y-85189601D01*
X71479606Y-84096029D01*
X71521581Y-84061581D01*
X71659042Y-83894084D01*
X71761184Y-83702988D01*
X71824084Y-83495638D01*
X71840000Y-83334036D01*
X71840000Y-83334034D01*
X71845322Y-83280000D01*
X71840000Y-83225966D01*
X71840000Y-81385964D01*
X71830000Y-81284430D01*
X71830000Y-73090000D01*
X81104366Y-73090000D01*
X81983971Y-73969606D01*
X82018419Y-74011581D01*
X82185916Y-74149042D01*
X82377012Y-74251184D01*
X82584362Y-74314084D01*
X82745964Y-74330000D01*
X82745966Y-74330000D01*
X82800000Y-74335322D01*
X82854034Y-74330000D01*
X85015966Y-74330000D01*
X85070000Y-74335322D01*
X85124034Y-74330000D01*
X85124036Y-74330000D01*
X85285638Y-74314084D01*
X85492988Y-74251184D01*
X85684084Y-74149042D01*
X85851581Y-74011581D01*
X85886033Y-73969601D01*
X88379606Y-71476029D01*
X88421581Y-71441581D01*
X88559042Y-71274084D01*
X88661184Y-71082988D01*
X88701526Y-70950000D01*
X88799095Y-70950000D01*
X88915014Y-70926942D01*
X89024207Y-70881713D01*
X89122478Y-70816050D01*
X89206050Y-70732478D01*
X89271713Y-70634207D01*
X89316942Y-70525014D01*
X89340000Y-70409095D01*
X89340000Y-70290905D01*
X89316942Y-70174986D01*
X89271713Y-70065793D01*
X89240000Y-70018331D01*
X89240000Y-68077105D01*
X89770591Y-67546515D01*
X89833415Y-67572538D01*
X90062973Y-67618200D01*
X90297027Y-67618200D01*
X90526585Y-67572538D01*
X90682533Y-67507942D01*
X92040000Y-67507942D01*
X92040000Y-67892058D01*
X92114938Y-68268794D01*
X92261933Y-68623671D01*
X92475336Y-68943052D01*
X92746948Y-69214664D01*
X93066329Y-69428067D01*
X93421206Y-69575062D01*
X93797942Y-69650000D01*
X94182058Y-69650000D01*
X94558794Y-69575062D01*
X94913671Y-69428067D01*
X95233052Y-69214664D01*
X95504664Y-68943052D01*
X95718067Y-68623671D01*
X95865062Y-68268794D01*
X95940000Y-67892058D01*
X95940000Y-67507942D01*
X95865062Y-67131206D01*
X95718067Y-66776329D01*
X95504664Y-66456948D01*
X95233052Y-66185336D01*
X94913671Y-65971933D01*
X94558794Y-65824938D01*
X94182058Y-65750000D01*
X93797942Y-65750000D01*
X93421206Y-65824938D01*
X93066329Y-65971933D01*
X92746948Y-66185336D01*
X92475336Y-66456948D01*
X92261933Y-66776329D01*
X92114938Y-67131206D01*
X92040000Y-67507942D01*
X90682533Y-67507942D01*
X90742824Y-67482969D01*
X90937433Y-67352935D01*
X91102935Y-67187433D01*
X91232969Y-66992824D01*
X91322538Y-66776585D01*
X91368200Y-66547027D01*
X91368200Y-66312973D01*
X91322538Y-66083415D01*
X91232969Y-65867176D01*
X91102935Y-65672567D01*
X90937433Y-65507065D01*
X90742824Y-65377031D01*
X90526585Y-65287462D01*
X90297027Y-65241800D01*
X90062973Y-65241800D01*
X89833415Y-65287462D01*
X89617176Y-65377031D01*
X89422567Y-65507065D01*
X89293410Y-65636222D01*
X89165661Y-65397222D01*
X88934477Y-65115523D01*
X88819976Y-65021555D01*
X96650383Y-65020029D01*
X96709615Y-88189766D01*
G37*
X96709615Y-88189766D02*
X45610064Y-88110233D01*
X45611257Y-85320444D01*
X46650000Y-85320444D01*
X46650000Y-85639556D01*
X46712256Y-85952536D01*
X46834375Y-86247358D01*
X47011664Y-86512689D01*
X47237311Y-86738336D01*
X47502642Y-86915625D01*
X47797464Y-87037744D01*
X48110444Y-87100000D01*
X48429556Y-87100000D01*
X48742536Y-87037744D01*
X49037358Y-86915625D01*
X49302689Y-86738336D01*
X49408052Y-86632973D01*
X50891800Y-86632973D01*
X50891800Y-86867027D01*
X50937462Y-87096585D01*
X51027031Y-87312824D01*
X51157065Y-87507433D01*
X51322567Y-87672935D01*
X51517176Y-87802969D01*
X51733415Y-87892538D01*
X51962973Y-87938200D01*
X52197027Y-87938200D01*
X52426585Y-87892538D01*
X52642824Y-87802969D01*
X52837433Y-87672935D01*
X53002935Y-87507433D01*
X53132969Y-87312824D01*
X53222538Y-87096585D01*
X53268200Y-86867027D01*
X53268200Y-86632973D01*
X53431800Y-86632973D01*
X53431800Y-86867027D01*
X53477462Y-87096585D01*
X53567031Y-87312824D01*
X53697065Y-87507433D01*
X53862567Y-87672935D01*
X54057176Y-87802969D01*
X54273415Y-87892538D01*
X54502973Y-87938200D01*
X54737027Y-87938200D01*
X54966585Y-87892538D01*
X55182824Y-87802969D01*
X55377433Y-87672935D01*
X55542935Y-87507433D01*
X55672969Y-87312824D01*
X55762538Y-87096585D01*
X55808200Y-86867027D01*
X55808200Y-86632973D01*
X55971800Y-86632973D01*
X55971800Y-86867027D01*
X56017462Y-87096585D01*
X56107031Y-87312824D01*
X56237065Y-87507433D01*
X56402567Y-87672935D01*
X56597176Y-87802969D01*
X56813415Y-87892538D01*
X57042973Y-87938200D01*
X57277027Y-87938200D01*
X57506585Y-87892538D01*
X57722824Y-87802969D01*
X57917433Y-87672935D01*
X58082935Y-87507433D01*
X58212969Y-87312824D01*
X58302538Y-87096585D01*
X58348200Y-86867027D01*
X58348200Y-86632973D01*
X58511800Y-86632973D01*
X58511800Y-86867027D01*
X58557462Y-87096585D01*
X58647031Y-87312824D01*
X58777065Y-87507433D01*
X58942567Y-87672935D01*
X59137176Y-87802969D01*
X59353415Y-87892538D01*
X59582973Y-87938200D01*
X59817027Y-87938200D01*
X60046585Y-87892538D01*
X60262824Y-87802969D01*
X60457433Y-87672935D01*
X60622935Y-87507433D01*
X60752969Y-87312824D01*
X60842538Y-87096585D01*
X60888200Y-86867027D01*
X60888200Y-86632973D01*
X61051800Y-86632973D01*
X61051800Y-86867027D01*
X61097462Y-87096585D01*
X61187031Y-87312824D01*
X61317065Y-87507433D01*
X61482567Y-87672935D01*
X61677176Y-87802969D01*
X61893415Y-87892538D01*
X62122973Y-87938200D01*
X62357027Y-87938200D01*
X62586585Y-87892538D01*
X62802824Y-87802969D01*
X62997433Y-87672935D01*
X63162935Y-87507433D01*
X63292969Y-87312824D01*
X63382538Y-87096585D01*
X63428200Y-86867027D01*
X63428200Y-86632973D01*
X63591800Y-86632973D01*
X63591800Y-86867027D01*
X63637462Y-87096585D01*
X63727031Y-87312824D01*
X63857065Y-87507433D01*
X64022567Y-87672935D01*
X64217176Y-87802969D01*
X64433415Y-87892538D01*
X64662973Y-87938200D01*
X64897027Y-87938200D01*
X65126585Y-87892538D01*
X65342824Y-87802969D01*
X65537433Y-87672935D01*
X65702935Y-87507433D01*
X65832969Y-87312824D01*
X65922538Y-87096585D01*
X65968200Y-86867027D01*
X65968200Y-86632973D01*
X66131800Y-86632973D01*
X66131800Y-86867027D01*
X66177462Y-87096585D01*
X66267031Y-87312824D01*
X66397065Y-87507433D01*
X66562567Y-87672935D01*
X66757176Y-87802969D01*
X66973415Y-87892538D01*
X67202973Y-87938200D01*
X67437027Y-87938200D01*
X67666585Y-87892538D01*
X67882824Y-87802969D01*
X68077433Y-87672935D01*
X68242935Y-87507433D01*
X68372969Y-87312824D01*
X68462538Y-87096585D01*
X68508200Y-86867027D01*
X68508200Y-86632973D01*
X68671800Y-86632973D01*
X68671800Y-86867027D01*
X68717462Y-87096585D01*
X68807031Y-87312824D01*
X68937065Y-87507433D01*
X69102567Y-87672935D01*
X69297176Y-87802969D01*
X69513415Y-87892538D01*
X69742973Y-87938200D01*
X69977027Y-87938200D01*
X70206585Y-87892538D01*
X70422824Y-87802969D01*
X70617433Y-87672935D01*
X70782935Y-87507433D01*
X70912969Y-87312824D01*
X71002538Y-87096585D01*
X71048200Y-86867027D01*
X71048200Y-86632973D01*
X71211800Y-86632973D01*
X71211800Y-86867027D01*
X71257462Y-87096585D01*
X71347031Y-87312824D01*
X71477065Y-87507433D01*
X71642567Y-87672935D01*
X71837176Y-87802969D01*
X72053415Y-87892538D01*
X72282973Y-87938200D01*
X72517027Y-87938200D01*
X72746585Y-87892538D01*
X72962824Y-87802969D01*
X73157433Y-87672935D01*
X73322935Y-87507433D01*
X73452969Y-87312824D01*
X73542538Y-87096585D01*
X73588200Y-86867027D01*
X73588200Y-86632973D01*
X73751800Y-86632973D01*
X73751800Y-86867027D01*
X73797462Y-87096585D01*
X73887031Y-87312824D01*
X74017065Y-87507433D01*
X74182567Y-87672935D01*
X74377176Y-87802969D01*
X74593415Y-87892538D01*
X74822973Y-87938200D01*
X75057027Y-87938200D01*
X75286585Y-87892538D01*
X75502824Y-87802969D01*
X75697433Y-87672935D01*
X75862935Y-87507433D01*
X75992969Y-87312824D01*
X76082538Y-87096585D01*
X76128200Y-86867027D01*
X76128200Y-86632973D01*
X76291800Y-86632973D01*
X76291800Y-86867027D01*
X76337462Y-87096585D01*
X76427031Y-87312824D01*
X76557065Y-87507433D01*
X76722567Y-87672935D01*
X76917176Y-87802969D01*
X77133415Y-87892538D01*
X77362973Y-87938200D01*
X77597027Y-87938200D01*
X77826585Y-87892538D01*
X78042824Y-87802969D01*
X78237433Y-87672935D01*
X78402935Y-87507433D01*
X78532969Y-87312824D01*
X78622538Y-87096585D01*
X78668200Y-86867027D01*
X78668200Y-86632973D01*
X78622538Y-86403415D01*
X78532969Y-86187176D01*
X78402935Y-85992567D01*
X78322168Y-85911800D01*
X78830107Y-85911800D01*
X78830107Y-87588200D01*
X78836865Y-87656812D01*
X78856878Y-87722787D01*
X78889378Y-87783590D01*
X78933115Y-87836885D01*
X78986410Y-87880622D01*
X79047213Y-87913122D01*
X79113188Y-87933135D01*
X79181800Y-87939893D01*
X80858200Y-87939893D01*
X80926812Y-87933135D01*
X80992787Y-87913122D01*
X81053590Y-87880622D01*
X81106885Y-87836885D01*
X81150622Y-87783590D01*
X81183122Y-87722787D01*
X81203135Y-87656812D01*
X81209893Y-87588200D01*
X81209893Y-85911800D01*
X81203135Y-85843188D01*
X81183122Y-85777213D01*
X81150622Y-85716410D01*
X81106885Y-85663115D01*
X81053590Y-85619378D01*
X80992787Y-85586878D01*
X80926812Y-85566865D01*
X80858200Y-85560107D01*
X79181800Y-85560107D01*
X79113188Y-85566865D01*
X79047213Y-85586878D01*
X78986410Y-85619378D01*
X78933115Y-85663115D01*
X78889378Y-85716410D01*
X78856878Y-85777213D01*
X78836865Y-85843188D01*
X78830107Y-85911800D01*
X78322168Y-85911800D01*
X78237433Y-85827065D01*
X78042824Y-85697031D01*
X77826585Y-85607462D01*
X77597027Y-85561800D01*
X77362973Y-85561800D01*
X77133415Y-85607462D01*
X76917176Y-85697031D01*
X76722567Y-85827065D01*
X76557065Y-85992567D01*
X76427031Y-86187176D01*
X76337462Y-86403415D01*
X76291800Y-86632973D01*
X76128200Y-86632973D01*
X76082538Y-86403415D01*
X75992969Y-86187176D01*
X75862935Y-85992567D01*
X75697433Y-85827065D01*
X75502824Y-85697031D01*
X75286585Y-85607462D01*
X75057027Y-85561800D01*
X74822973Y-85561800D01*
X74593415Y-85607462D01*
X74377176Y-85697031D01*
X74182567Y-85827065D01*
X74017065Y-85992567D01*
X73887031Y-86187176D01*
X73797462Y-86403415D01*
X73751800Y-86632973D01*
X73588200Y-86632973D01*
X73542538Y-86403415D01*
X73452969Y-86187176D01*
X73322935Y-85992567D01*
X73157433Y-85827065D01*
X72962824Y-85697031D01*
X72746585Y-85607462D01*
X72517027Y-85561800D01*
X72282973Y-85561800D01*
X72053415Y-85607462D01*
X71837176Y-85697031D01*
X71642567Y-85827065D01*
X71477065Y-85992567D01*
X71347031Y-86187176D01*
X71257462Y-86403415D01*
X71211800Y-86632973D01*
X71048200Y-86632973D01*
X71002538Y-86403415D01*
X70912969Y-86187176D01*
X70782935Y-85992567D01*
X70617433Y-85827065D01*
X70422824Y-85697031D01*
X70206585Y-85607462D01*
X69977027Y-85561800D01*
X69742973Y-85561800D01*
X69513415Y-85607462D01*
X69297176Y-85697031D01*
X69102567Y-85827065D01*
X68937065Y-85992567D01*
X68807031Y-86187176D01*
X68717462Y-86403415D01*
X68671800Y-86632973D01*
X68508200Y-86632973D01*
X68462538Y-86403415D01*
X68372969Y-86187176D01*
X68242935Y-85992567D01*
X68077433Y-85827065D01*
X67882824Y-85697031D01*
X67666585Y-85607462D01*
X67437027Y-85561800D01*
X67202973Y-85561800D01*
X66973415Y-85607462D01*
X66757176Y-85697031D01*
X66562567Y-85827065D01*
X66397065Y-85992567D01*
X66267031Y-86187176D01*
X66177462Y-86403415D01*
X66131800Y-86632973D01*
X65968200Y-86632973D01*
X65922538Y-86403415D01*
X65832969Y-86187176D01*
X65702935Y-85992567D01*
X65537433Y-85827065D01*
X65342824Y-85697031D01*
X65126585Y-85607462D01*
X64897027Y-85561800D01*
X64662973Y-85561800D01*
X64433415Y-85607462D01*
X64217176Y-85697031D01*
X64022567Y-85827065D01*
X63857065Y-85992567D01*
X63727031Y-86187176D01*
X63637462Y-86403415D01*
X63591800Y-86632973D01*
X63428200Y-86632973D01*
X63382538Y-86403415D01*
X63292969Y-86187176D01*
X63162935Y-85992567D01*
X62997433Y-85827065D01*
X62802824Y-85697031D01*
X62586585Y-85607462D01*
X62357027Y-85561800D01*
X62122973Y-85561800D01*
X61893415Y-85607462D01*
X61677176Y-85697031D01*
X61482567Y-85827065D01*
X61317065Y-85992567D01*
X61187031Y-86187176D01*
X61097462Y-86403415D01*
X61051800Y-86632973D01*
X60888200Y-86632973D01*
X60842538Y-86403415D01*
X60752969Y-86187176D01*
X60622935Y-85992567D01*
X60457433Y-85827065D01*
X60262824Y-85697031D01*
X60046585Y-85607462D01*
X59817027Y-85561800D01*
X59582973Y-85561800D01*
X59353415Y-85607462D01*
X59137176Y-85697031D01*
X58942567Y-85827065D01*
X58777065Y-85992567D01*
X58647031Y-86187176D01*
X58557462Y-86403415D01*
X58511800Y-86632973D01*
X58348200Y-86632973D01*
X58302538Y-86403415D01*
X58212969Y-86187176D01*
X58082935Y-85992567D01*
X57917433Y-85827065D01*
X57722824Y-85697031D01*
X57506585Y-85607462D01*
X57277027Y-85561800D01*
X57042973Y-85561800D01*
X56813415Y-85607462D01*
X56597176Y-85697031D01*
X56402567Y-85827065D01*
X56237065Y-85992567D01*
X56107031Y-86187176D01*
X56017462Y-86403415D01*
X55971800Y-86632973D01*
X55808200Y-86632973D01*
X55762538Y-86403415D01*
X55672969Y-86187176D01*
X55542935Y-85992567D01*
X55377433Y-85827065D01*
X55182824Y-85697031D01*
X54966585Y-85607462D01*
X54737027Y-85561800D01*
X54502973Y-85561800D01*
X54273415Y-85607462D01*
X54057176Y-85697031D01*
X53862567Y-85827065D01*
X53697065Y-85992567D01*
X53567031Y-86187176D01*
X53477462Y-86403415D01*
X53431800Y-86632973D01*
X53268200Y-86632973D01*
X53222538Y-86403415D01*
X53132969Y-86187176D01*
X53002935Y-85992567D01*
X52837433Y-85827065D01*
X52642824Y-85697031D01*
X52426585Y-85607462D01*
X52197027Y-85561800D01*
X51962973Y-85561800D01*
X51733415Y-85607462D01*
X51517176Y-85697031D01*
X51322567Y-85827065D01*
X51157065Y-85992567D01*
X51027031Y-86187176D01*
X50937462Y-86403415D01*
X50891800Y-86632973D01*
X49408052Y-86632973D01*
X49528336Y-86512689D01*
X49705625Y-86247358D01*
X49827744Y-85952536D01*
X49890000Y-85639556D01*
X49890000Y-85320444D01*
X49827744Y-85007464D01*
X49705625Y-84712642D01*
X49528336Y-84447311D01*
X49302689Y-84221664D01*
X49037358Y-84044375D01*
X48742536Y-83922256D01*
X48429556Y-83860000D01*
X48110444Y-83860000D01*
X47797464Y-83922256D01*
X47502642Y-84044375D01*
X47237311Y-84221664D01*
X47011664Y-84447311D01*
X46834375Y-84712642D01*
X46712256Y-85007464D01*
X46650000Y-85320444D01*
X45611257Y-85320444D01*
X45617552Y-70602829D01*
X52588233Y-70602829D01*
X52588233Y-70721019D01*
X52611291Y-70836938D01*
X52656520Y-70946131D01*
X52722183Y-71044402D01*
X52805755Y-71127974D01*
X52904026Y-71193637D01*
X53013219Y-71238866D01*
X53129138Y-71261924D01*
X53247328Y-71261924D01*
X53363247Y-71238866D01*
X53472440Y-71193637D01*
X53570688Y-71127989D01*
X53604987Y-71150907D01*
X53714180Y-71196136D01*
X53775966Y-71208426D01*
X53807110Y-71233985D01*
X53893972Y-71280414D01*
X53973961Y-71304678D01*
X53988222Y-71309004D01*
X54086239Y-71318658D01*
X54110799Y-71316239D01*
X62007222Y-71316239D01*
X62031782Y-71318658D01*
X62056342Y-71316239D01*
X62129799Y-71309004D01*
X62224049Y-71280414D01*
X62310911Y-71233985D01*
X62387046Y-71171503D01*
X62395979Y-71160617D01*
X62423950Y-71202478D01*
X62507522Y-71286050D01*
X62605793Y-71351713D01*
X62714986Y-71396942D01*
X62830905Y-71420000D01*
X62949095Y-71420000D01*
X63065014Y-71396942D01*
X63174207Y-71351713D01*
X63272478Y-71286050D01*
X63338913Y-71219615D01*
X63404459Y-71219615D01*
X63520378Y-71196557D01*
X63629571Y-71151328D01*
X63684911Y-71114351D01*
X63755793Y-71161713D01*
X63864986Y-71206942D01*
X63980905Y-71230000D01*
X64099095Y-71230000D01*
X64215014Y-71206942D01*
X64324207Y-71161713D01*
X64342875Y-71149239D01*
X64374354Y-71170273D01*
X64483547Y-71215502D01*
X64599466Y-71238560D01*
X64717656Y-71238560D01*
X64833575Y-71215502D01*
X64942768Y-71170273D01*
X65038160Y-71106533D01*
X65105791Y-71151723D01*
X65214984Y-71196952D01*
X65330903Y-71220010D01*
X65449093Y-71220010D01*
X65565012Y-71196952D01*
X65674205Y-71151723D01*
X65740000Y-71107760D01*
X65805795Y-71151723D01*
X65914988Y-71196952D01*
X66030907Y-71220010D01*
X66149097Y-71220010D01*
X66265016Y-71196952D01*
X66374209Y-71151723D01*
X66472480Y-71086060D01*
X66500432Y-71058108D01*
X66550486Y-71091554D01*
X66659679Y-71136783D01*
X66775598Y-71159841D01*
X66893788Y-71159841D01*
X67009707Y-71136783D01*
X67118900Y-71091554D01*
X67217171Y-71025891D01*
X67300743Y-70942319D01*
X67366406Y-70844048D01*
X67411635Y-70734855D01*
X67422772Y-70678868D01*
X68291652Y-69809989D01*
X76175451Y-69809989D01*
X76200011Y-69812408D01*
X76217088Y-69810726D01*
X79524500Y-69810726D01*
X79524500Y-69977274D01*
X79556992Y-70140623D01*
X79620728Y-70294494D01*
X79713257Y-70432975D01*
X79831025Y-70550743D01*
X79969506Y-70643272D01*
X80123377Y-70707008D01*
X80286726Y-70739500D01*
X80453274Y-70739500D01*
X80616623Y-70707008D01*
X80770494Y-70643272D01*
X80908975Y-70550743D01*
X81026743Y-70432975D01*
X81119272Y-70294494D01*
X81183008Y-70140623D01*
X81215500Y-69977274D01*
X81215500Y-69810726D01*
X81183008Y-69647377D01*
X81119272Y-69493506D01*
X81026743Y-69355025D01*
X80908975Y-69237257D01*
X80770494Y-69144728D01*
X80616623Y-69080992D01*
X80453274Y-69048500D01*
X80286726Y-69048500D01*
X80123377Y-69080992D01*
X79969506Y-69144728D01*
X79831025Y-69237257D01*
X79713257Y-69355025D01*
X79620728Y-69493506D01*
X79556992Y-69647377D01*
X79524500Y-69810726D01*
X76217088Y-69810726D01*
X76224571Y-69809989D01*
X76298028Y-69802754D01*
X76392278Y-69774164D01*
X76479140Y-69727735D01*
X76555275Y-69665253D01*
X76570940Y-69646165D01*
X77422379Y-68794726D01*
X84604500Y-68794726D01*
X84604500Y-68961274D01*
X84636992Y-69124623D01*
X84700728Y-69278494D01*
X84793257Y-69416975D01*
X84911025Y-69534743D01*
X85049506Y-69627272D01*
X85203377Y-69691008D01*
X85366726Y-69723500D01*
X85533274Y-69723500D01*
X85696623Y-69691008D01*
X85850494Y-69627272D01*
X85988975Y-69534743D01*
X86106743Y-69416975D01*
X86199272Y-69278494D01*
X86263008Y-69124623D01*
X86295500Y-68961274D01*
X86295500Y-68794726D01*
X86263008Y-68631377D01*
X86199272Y-68477506D01*
X86106743Y-68339025D01*
X85988975Y-68221257D01*
X85850494Y-68128728D01*
X85696623Y-68064992D01*
X85533274Y-68032500D01*
X85366726Y-68032500D01*
X85203377Y-68064992D01*
X85049506Y-68128728D01*
X84911025Y-68221257D01*
X84793257Y-68339025D01*
X84700728Y-68477506D01*
X84636992Y-68631377D01*
X84604500Y-68794726D01*
X77422379Y-68794726D01*
X79070072Y-67147035D01*
X79097065Y-67187433D01*
X79262567Y-67352935D01*
X79457176Y-67482969D01*
X79673415Y-67572538D01*
X79902973Y-67618200D01*
X80137027Y-67618200D01*
X80366585Y-67572538D01*
X80582824Y-67482969D01*
X80777433Y-67352935D01*
X80942935Y-67187433D01*
X81072969Y-66992824D01*
X81162538Y-66776585D01*
X81208200Y-66547027D01*
X81208200Y-66312973D01*
X81162538Y-66083415D01*
X81072969Y-65867176D01*
X80942935Y-65672567D01*
X80777433Y-65507065D01*
X80582824Y-65377031D01*
X80366585Y-65287462D01*
X80137027Y-65241800D01*
X79902973Y-65241800D01*
X79673415Y-65287462D01*
X79457176Y-65377031D01*
X79262567Y-65507065D01*
X79097065Y-65672567D01*
X78967031Y-65867176D01*
X78931693Y-65952490D01*
X78887733Y-65965825D01*
X78800871Y-66012254D01*
X78724736Y-66074736D01*
X78709080Y-66093813D01*
X78638621Y-66164272D01*
X78622538Y-66083415D01*
X78532969Y-65867176D01*
X78402935Y-65672567D01*
X78237433Y-65507065D01*
X78042824Y-65377031D01*
X77826585Y-65287462D01*
X77597027Y-65241800D01*
X77362973Y-65241800D01*
X77133415Y-65287462D01*
X76917176Y-65377031D01*
X76722567Y-65507065D01*
X76557065Y-65672567D01*
X76427031Y-65867176D01*
X76337462Y-66083415D01*
X76291800Y-66312973D01*
X76291800Y-66547027D01*
X76337462Y-66776585D01*
X76363485Y-66839409D01*
X74792917Y-68409978D01*
X73667127Y-68409978D01*
X74530591Y-67546515D01*
X74593415Y-67572538D01*
X74822973Y-67618200D01*
X75057027Y-67618200D01*
X75286585Y-67572538D01*
X75502824Y-67482969D01*
X75697433Y-67352935D01*
X75862935Y-67187433D01*
X75992969Y-66992824D01*
X76082538Y-66776585D01*
X76128200Y-66547027D01*
X76128200Y-66312973D01*
X76082538Y-66083415D01*
X75992969Y-65867176D01*
X75862935Y-65672567D01*
X75697433Y-65507065D01*
X75502824Y-65377031D01*
X75286585Y-65287462D01*
X75057027Y-65241800D01*
X74822973Y-65241800D01*
X74593415Y-65287462D01*
X74377176Y-65377031D01*
X74182567Y-65507065D01*
X74017065Y-65672567D01*
X73887031Y-65867176D01*
X73797462Y-66083415D01*
X73751800Y-66312973D01*
X73751800Y-66547027D01*
X73797462Y-66776585D01*
X73823485Y-66839409D01*
X72722895Y-67940000D01*
X71597105Y-67940000D01*
X71990591Y-67546515D01*
X72053415Y-67572538D01*
X72282973Y-67618200D01*
X72517027Y-67618200D01*
X72746585Y-67572538D01*
X72962824Y-67482969D01*
X73157433Y-67352935D01*
X73322935Y-67187433D01*
X73452969Y-66992824D01*
X73542538Y-66776585D01*
X73588200Y-66547027D01*
X73588200Y-66312973D01*
X73542538Y-66083415D01*
X73452969Y-65867176D01*
X73322935Y-65672567D01*
X73157433Y-65507065D01*
X72962824Y-65377031D01*
X72746585Y-65287462D01*
X72517027Y-65241800D01*
X72282973Y-65241800D01*
X72053415Y-65287462D01*
X71837176Y-65377031D01*
X71642567Y-65507065D01*
X71477065Y-65672567D01*
X71347031Y-65867176D01*
X71257462Y-66083415D01*
X71211800Y-66312973D01*
X71211800Y-66547027D01*
X71257462Y-66776585D01*
X71283485Y-66839409D01*
X70662895Y-67460000D01*
X70457199Y-67460000D01*
X70617433Y-67352935D01*
X70782935Y-67187433D01*
X70912969Y-66992824D01*
X71002538Y-66776585D01*
X71048200Y-66547027D01*
X71048200Y-66312973D01*
X71002538Y-66083415D01*
X70912969Y-65867176D01*
X70782935Y-65672567D01*
X70617433Y-65507065D01*
X70422824Y-65377031D01*
X70206585Y-65287462D01*
X69977027Y-65241800D01*
X69742973Y-65241800D01*
X69513415Y-65287462D01*
X69297176Y-65377031D01*
X69102567Y-65507065D01*
X68937065Y-65672567D01*
X68807031Y-65867176D01*
X68717462Y-66083415D01*
X68671800Y-66312973D01*
X68671800Y-66547027D01*
X68717462Y-66776585D01*
X68743485Y-66839410D01*
X68542895Y-67040000D01*
X68341447Y-67040000D01*
X68372969Y-66992824D01*
X68462538Y-66776585D01*
X68508200Y-66547027D01*
X68508200Y-66312973D01*
X68462538Y-66083415D01*
X68372969Y-65867176D01*
X68242935Y-65672567D01*
X68077433Y-65507065D01*
X67882824Y-65377031D01*
X67666585Y-65287462D01*
X67437027Y-65241800D01*
X67202973Y-65241800D01*
X66973415Y-65287462D01*
X66757176Y-65377031D01*
X66562567Y-65507065D01*
X66397065Y-65672567D01*
X66267031Y-65867176D01*
X66177462Y-66083415D01*
X66131800Y-66312973D01*
X66131800Y-66547027D01*
X66175611Y-66767282D01*
X63290183Y-69652712D01*
X63290183Y-68626922D01*
X64370591Y-67546515D01*
X64433415Y-67572538D01*
X64662973Y-67618200D01*
X64897027Y-67618200D01*
X65126585Y-67572538D01*
X65342824Y-67482969D01*
X65537433Y-67352935D01*
X65702935Y-67187433D01*
X65832969Y-66992824D01*
X65922538Y-66776585D01*
X65968200Y-66547027D01*
X65968200Y-66312973D01*
X65922538Y-66083415D01*
X65832969Y-65867176D01*
X65702935Y-65672567D01*
X65537433Y-65507065D01*
X65342824Y-65377031D01*
X65126585Y-65287462D01*
X64897027Y-65241800D01*
X64662973Y-65241800D01*
X64433415Y-65287462D01*
X64217176Y-65377031D01*
X64022567Y-65507065D01*
X63857065Y-65672567D01*
X63727031Y-65867176D01*
X63637462Y-66083415D01*
X63591800Y-66312973D01*
X63591800Y-66547027D01*
X63637462Y-66776585D01*
X63663485Y-66839409D01*
X62469264Y-68033631D01*
X62422438Y-68090689D01*
X62376009Y-68177550D01*
X62347418Y-68271800D01*
X62337764Y-68369817D01*
X62347418Y-68467834D01*
X62376009Y-68562084D01*
X62390184Y-68588603D01*
X62390183Y-69976048D01*
X62340876Y-69966240D01*
X62329889Y-69966240D01*
X62306861Y-69910645D01*
X62241198Y-69812374D01*
X62157626Y-69728802D01*
X62059355Y-69663139D01*
X61950162Y-69617910D01*
X61916862Y-69611286D01*
X61911302Y-69583336D01*
X61866073Y-69474143D01*
X61800410Y-69375872D01*
X61716838Y-69292300D01*
X61618567Y-69226637D01*
X61509374Y-69181408D01*
X61474808Y-69174532D01*
X61466942Y-69134986D01*
X61421713Y-69025793D01*
X61356050Y-68927522D01*
X61272478Y-68843950D01*
X61174207Y-68778287D01*
X61065014Y-68733058D01*
X61009848Y-68722085D01*
X60949129Y-68672254D01*
X60862267Y-68625825D01*
X60768017Y-68597235D01*
X60694560Y-68590000D01*
X60670000Y-68587581D01*
X60645440Y-68590000D01*
X54431164Y-68590000D01*
X54406604Y-68587581D01*
X54382044Y-68590000D01*
X54308587Y-68597235D01*
X54214337Y-68625825D01*
X54127475Y-68672254D01*
X54051340Y-68734736D01*
X54035684Y-68753813D01*
X52852057Y-69937442D01*
X52832969Y-69953107D01*
X52770487Y-70029242D01*
X52724058Y-70116105D01*
X52710522Y-70160728D01*
X52695468Y-70210354D01*
X52685814Y-70308371D01*
X52688003Y-70330599D01*
X52656520Y-70377717D01*
X52611291Y-70486910D01*
X52588233Y-70602829D01*
X45617552Y-70602829D01*
X45618862Y-67540444D01*
X46650000Y-67540444D01*
X46650000Y-67859556D01*
X46712256Y-68172536D01*
X46834375Y-68467358D01*
X47011664Y-68732689D01*
X47237311Y-68958336D01*
X47502642Y-69135625D01*
X47797464Y-69257744D01*
X48110444Y-69320000D01*
X48429556Y-69320000D01*
X48742536Y-69257744D01*
X49037358Y-69135625D01*
X49302689Y-68958336D01*
X49528336Y-68732689D01*
X49705625Y-68467358D01*
X49827744Y-68172536D01*
X49890000Y-67859556D01*
X49890000Y-67540444D01*
X49827744Y-67227464D01*
X49705625Y-66932642D01*
X49528336Y-66667311D01*
X49302689Y-66441664D01*
X49037358Y-66264375D01*
X48742536Y-66142256D01*
X48429556Y-66080000D01*
X48110444Y-66080000D01*
X47797464Y-66142256D01*
X47502642Y-66264375D01*
X47237311Y-66441664D01*
X47011664Y-66667311D01*
X46834375Y-66932642D01*
X46712256Y-67227464D01*
X46650000Y-67540444D01*
X45618862Y-67540444D01*
X45619695Y-65591800D01*
X50890107Y-65591800D01*
X50890107Y-67268200D01*
X50896865Y-67336812D01*
X50916878Y-67402787D01*
X50949378Y-67463590D01*
X50993115Y-67516885D01*
X51046410Y-67560622D01*
X51107213Y-67593122D01*
X51173188Y-67613135D01*
X51241800Y-67619893D01*
X52918200Y-67619893D01*
X52986812Y-67613135D01*
X53052787Y-67593122D01*
X53113590Y-67560622D01*
X53166885Y-67516885D01*
X53210622Y-67463590D01*
X53243122Y-67402787D01*
X53263135Y-67336812D01*
X53269893Y-67268200D01*
X53269893Y-66312973D01*
X53431800Y-66312973D01*
X53431800Y-66547027D01*
X53477462Y-66776585D01*
X53567031Y-66992824D01*
X53697065Y-67187433D01*
X53862567Y-67352935D01*
X54057176Y-67482969D01*
X54273415Y-67572538D01*
X54502973Y-67618200D01*
X54737027Y-67618200D01*
X54966585Y-67572538D01*
X55182824Y-67482969D01*
X55377433Y-67352935D01*
X55542935Y-67187433D01*
X55672969Y-66992824D01*
X55762538Y-66776585D01*
X55808200Y-66547027D01*
X55808200Y-66312973D01*
X55971800Y-66312973D01*
X55971800Y-66547027D01*
X56017462Y-66776585D01*
X56107031Y-66992824D01*
X56237065Y-67187433D01*
X56402567Y-67352935D01*
X56597176Y-67482969D01*
X56813415Y-67572538D01*
X57042973Y-67618200D01*
X57277027Y-67618200D01*
X57506585Y-67572538D01*
X57722824Y-67482969D01*
X57917433Y-67352935D01*
X58082935Y-67187433D01*
X58212969Y-66992824D01*
X58302538Y-66776585D01*
X58348200Y-66547027D01*
X58348200Y-66312973D01*
X58511800Y-66312973D01*
X58511800Y-66547027D01*
X58557462Y-66776585D01*
X58647031Y-66992824D01*
X58777065Y-67187433D01*
X58942567Y-67352935D01*
X59137176Y-67482969D01*
X59353415Y-67572538D01*
X59582973Y-67618200D01*
X59817027Y-67618200D01*
X60046585Y-67572538D01*
X60262824Y-67482969D01*
X60457433Y-67352935D01*
X60622935Y-67187433D01*
X60752969Y-66992824D01*
X60842538Y-66776585D01*
X60888200Y-66547027D01*
X60888200Y-66312973D01*
X61051800Y-66312973D01*
X61051800Y-66547027D01*
X61097462Y-66776585D01*
X61187031Y-66992824D01*
X61317065Y-67187433D01*
X61482567Y-67352935D01*
X61677176Y-67482969D01*
X61893415Y-67572538D01*
X62122973Y-67618200D01*
X62357027Y-67618200D01*
X62586585Y-67572538D01*
X62802824Y-67482969D01*
X62997433Y-67352935D01*
X63162935Y-67187433D01*
X63292969Y-66992824D01*
X63382538Y-66776585D01*
X63428200Y-66547027D01*
X63428200Y-66312973D01*
X63382538Y-66083415D01*
X63292969Y-65867176D01*
X63162935Y-65672567D01*
X62997433Y-65507065D01*
X62802824Y-65377031D01*
X62586585Y-65287462D01*
X62357027Y-65241800D01*
X62122973Y-65241800D01*
X61893415Y-65287462D01*
X61677176Y-65377031D01*
X61482567Y-65507065D01*
X61317065Y-65672567D01*
X61187031Y-65867176D01*
X61097462Y-66083415D01*
X61051800Y-66312973D01*
X60888200Y-66312973D01*
X60842538Y-66083415D01*
X60752969Y-65867176D01*
X60622935Y-65672567D01*
X60457433Y-65507065D01*
X60262824Y-65377031D01*
X60046585Y-65287462D01*
X59817027Y-65241800D01*
X59582973Y-65241800D01*
X59353415Y-65287462D01*
X59137176Y-65377031D01*
X58942567Y-65507065D01*
X58777065Y-65672567D01*
X58647031Y-65867176D01*
X58557462Y-66083415D01*
X58511800Y-66312973D01*
X58348200Y-66312973D01*
X58302538Y-66083415D01*
X58212969Y-65867176D01*
X58082935Y-65672567D01*
X57917433Y-65507065D01*
X57722824Y-65377031D01*
X57506585Y-65287462D01*
X57277027Y-65241800D01*
X57042973Y-65241800D01*
X56813415Y-65287462D01*
X56597176Y-65377031D01*
X56402567Y-65507065D01*
X56237065Y-65672567D01*
X56107031Y-65867176D01*
X56017462Y-66083415D01*
X55971800Y-66312973D01*
X55808200Y-66312973D01*
X55762538Y-66083415D01*
X55672969Y-65867176D01*
X55542935Y-65672567D01*
X55377433Y-65507065D01*
X55182824Y-65377031D01*
X54966585Y-65287462D01*
X54737027Y-65241800D01*
X54502973Y-65241800D01*
X54273415Y-65287462D01*
X54057176Y-65377031D01*
X53862567Y-65507065D01*
X53697065Y-65672567D01*
X53567031Y-65867176D01*
X53477462Y-66083415D01*
X53431800Y-66312973D01*
X53269893Y-66312973D01*
X53269893Y-65591800D01*
X53263135Y-65523188D01*
X53243122Y-65457213D01*
X53210622Y-65396410D01*
X53166885Y-65343115D01*
X53113590Y-65299378D01*
X53052787Y-65266878D01*
X52986812Y-65246865D01*
X52918200Y-65240107D01*
X51241800Y-65240107D01*
X51173188Y-65246865D01*
X51107213Y-65266878D01*
X51046410Y-65299378D01*
X50993115Y-65343115D01*
X50949378Y-65396410D01*
X50916878Y-65457213D01*
X50896865Y-65523188D01*
X50890107Y-65591800D01*
X45619695Y-65591800D01*
X45619936Y-65029971D01*
X86419454Y-65022022D01*
X86305523Y-65115523D01*
X86074339Y-65397222D01*
X85960523Y-65610155D01*
X85857433Y-65507065D01*
X85662824Y-65377031D01*
X85446585Y-65287462D01*
X85217027Y-65241800D01*
X84982973Y-65241800D01*
X84753415Y-65287462D01*
X84537176Y-65377031D01*
X84342567Y-65507065D01*
X84177065Y-65672567D01*
X84047031Y-65867176D01*
X83957462Y-66083415D01*
X83911800Y-66312973D01*
X83911800Y-66547027D01*
X83957462Y-66776585D01*
X84047031Y-66992824D01*
X84177065Y-67187433D01*
X84342567Y-67352935D01*
X84537176Y-67482969D01*
X84753415Y-67572538D01*
X84982973Y-67618200D01*
X85217027Y-67618200D01*
X85446585Y-67572538D01*
X85662824Y-67482969D01*
X85857433Y-67352935D01*
X85960523Y-67249845D01*
X86074339Y-67462778D01*
X86305523Y-67744477D01*
X86540001Y-67936907D01*
X86540000Y-70204365D01*
X86209695Y-70534670D01*
X86199272Y-70509506D01*
X86106743Y-70371025D01*
X85988975Y-70253257D01*
X85850494Y-70160728D01*
X85696623Y-70096992D01*
X85533274Y-70064500D01*
X85366726Y-70064500D01*
X85203377Y-70096992D01*
X85049506Y-70160728D01*
X84911025Y-70253257D01*
X84793257Y-70371025D01*
X84700728Y-70509506D01*
X84636992Y-70663377D01*
X84604500Y-70826726D01*
X84604500Y-70993274D01*
X84636992Y-71156623D01*
X84700728Y-71310494D01*
X84793257Y-71448975D01*
X84911025Y-71566743D01*
X85049506Y-71659272D01*
X85074670Y-71669695D01*
X84614366Y-72130000D01*
X83255635Y-72130000D01*
X82376033Y-71250399D01*
X82341581Y-71208419D01*
X82174084Y-71070958D01*
X81982988Y-70968816D01*
X81775638Y-70905916D01*
X81614036Y-70890000D01*
X81614034Y-70890000D01*
X81560000Y-70884678D01*
X81505966Y-70890000D01*
X81465916Y-70890000D01*
X81425014Y-70873058D01*
X81309095Y-70850000D01*
X81190905Y-70850000D01*
X81074986Y-70873058D01*
X81034084Y-70890000D01*
X71204036Y-70890000D01*
X71150000Y-70884678D01*
X71081759Y-70891399D01*
X70934362Y-70905916D01*
X70727012Y-70968816D01*
X70535916Y-71070958D01*
X70368419Y-71208419D01*
X70333967Y-71250399D01*
X69990395Y-71593971D01*
X69948420Y-71628419D01*
X69913974Y-71670392D01*
X69810958Y-71795916D01*
X69711649Y-71981713D01*
X69708817Y-71987012D01*
X69665442Y-72130000D01*
X69645917Y-72194363D01*
X69624678Y-72410000D01*
X69630001Y-72464044D01*
X69630000Y-82064035D01*
X69640000Y-82165569D01*
X69640000Y-82653297D01*
X69618287Y-82685793D01*
X69573058Y-82794986D01*
X69550000Y-82910905D01*
X69550000Y-82914365D01*
X69114366Y-83350000D01*
X66615964Y-83350000D01*
X66454362Y-83365916D01*
X66247012Y-83428816D01*
X66055916Y-83530958D01*
X65888419Y-83668419D01*
X65750958Y-83835916D01*
X65748775Y-83840001D01*
X63148529Y-83840001D01*
X63142478Y-83833950D01*
X63044207Y-83768287D01*
X62935014Y-83723058D01*
X62819095Y-83700000D01*
X62700905Y-83700000D01*
X62584986Y-83723058D01*
X62475793Y-83768287D01*
X62377522Y-83833950D01*
X62371471Y-83840001D01*
X61542215Y-83840001D01*
X61562384Y-83738604D01*
X61562384Y-83620414D01*
X61539326Y-83504495D01*
X61494097Y-83395302D01*
X61428434Y-83297031D01*
X61344862Y-83213459D01*
X61246591Y-83147796D01*
X61137398Y-83102567D01*
X61021479Y-83079509D01*
X60903289Y-83079509D01*
X60787370Y-83102567D01*
X60678177Y-83147796D01*
X60579906Y-83213459D01*
X60553365Y-83240000D01*
X56281669Y-83240000D01*
X56234207Y-83208287D01*
X56125014Y-83163058D01*
X56009095Y-83140000D01*
X55890905Y-83140000D01*
X55774986Y-83163058D01*
X55665793Y-83208287D01*
X55567522Y-83273950D01*
X55483950Y-83357522D01*
X55418287Y-83455793D01*
X55373058Y-83564986D01*
X55350000Y-83680905D01*
X55350000Y-83799095D01*
X55358137Y-83840001D01*
X54572081Y-83840001D01*
X54561519Y-83829439D01*
X54537754Y-83809935D01*
X54496050Y-83747522D01*
X54412478Y-83663950D01*
X54314207Y-83598287D01*
X54205014Y-83553058D01*
X54089095Y-83530000D01*
X53970905Y-83530000D01*
X53854986Y-83553058D01*
X53745793Y-83598287D01*
X53647522Y-83663950D01*
X53614643Y-83696829D01*
X53515482Y-83749833D01*
X53386052Y-83856052D01*
X53279833Y-83985482D01*
X53200903Y-84133146D01*
X53152300Y-84293371D01*
X53135889Y-84460000D01*
X53152300Y-84626629D01*
X53200903Y-84786854D01*
X53279833Y-84934518D01*
X53359439Y-85031519D01*
X53589439Y-85261520D01*
X53616053Y-85293949D01*
X53745482Y-85400169D01*
X53893146Y-85479098D01*
X54053372Y-85527701D01*
X54178252Y-85540001D01*
X54178260Y-85540001D01*
X54220001Y-85544112D01*
X54261742Y-85540001D01*
X66388258Y-85540001D01*
X66429999Y-85544112D01*
X66471740Y-85540001D01*
X66471748Y-85540001D01*
X66493093Y-85537899D01*
X66615964Y-85550000D01*
X69515966Y-85550000D01*
X69570000Y-85555322D01*
X69624034Y-85550000D01*
X69624036Y-85550000D01*
X69785638Y-85534084D01*
X69992988Y-85471184D01*
X70184084Y-85369042D01*
X70282904Y-85287942D01*
X92040000Y-85287942D01*
X92040000Y-85672058D01*
X92114938Y-86048794D01*
X92261933Y-86403671D01*
X92475336Y-86723052D01*
X92746948Y-86994664D01*
X93066329Y-87208067D01*
X93421206Y-87355062D01*
X93797942Y-87430000D01*
X94182058Y-87430000D01*
X94558794Y-87355062D01*
X94913671Y-87208067D01*
X95233052Y-86994664D01*
X95504664Y-86723052D01*
X95718067Y-86403671D01*
X95865062Y-86048794D01*
X95940000Y-85672058D01*
X95940000Y-85287942D01*
X95865062Y-84911206D01*
X95718067Y-84556329D01*
X95504664Y-84236948D01*
X95233052Y-83965336D01*
X94913671Y-83751933D01*
X94558794Y-83604938D01*
X94182058Y-83530000D01*
X93797942Y-83530000D01*
X93421206Y-83604938D01*
X93066329Y-83751933D01*
X92746948Y-83965336D01*
X92475336Y-84236948D01*
X92261933Y-84556329D01*
X92114938Y-84911206D01*
X92040000Y-85287942D01*
X70282904Y-85287942D01*
X70351581Y-85231581D01*
X70386033Y-85189601D01*
X71479606Y-84096029D01*
X71521581Y-84061581D01*
X71659042Y-83894084D01*
X71761184Y-83702988D01*
X71824084Y-83495638D01*
X71840000Y-83334036D01*
X71840000Y-83334034D01*
X71845322Y-83280000D01*
X71840000Y-83225966D01*
X71840000Y-81385964D01*
X71830000Y-81284430D01*
X71830000Y-73090000D01*
X81104366Y-73090000D01*
X81983971Y-73969606D01*
X82018419Y-74011581D01*
X82185916Y-74149042D01*
X82377012Y-74251184D01*
X82584362Y-74314084D01*
X82745964Y-74330000D01*
X82745966Y-74330000D01*
X82800000Y-74335322D01*
X82854034Y-74330000D01*
X85015966Y-74330000D01*
X85070000Y-74335322D01*
X85124034Y-74330000D01*
X85124036Y-74330000D01*
X85285638Y-74314084D01*
X85492988Y-74251184D01*
X85684084Y-74149042D01*
X85851581Y-74011581D01*
X85886033Y-73969601D01*
X88379606Y-71476029D01*
X88421581Y-71441581D01*
X88559042Y-71274084D01*
X88661184Y-71082988D01*
X88701526Y-70950000D01*
X88799095Y-70950000D01*
X88915014Y-70926942D01*
X89024207Y-70881713D01*
X89122478Y-70816050D01*
X89206050Y-70732478D01*
X89271713Y-70634207D01*
X89316942Y-70525014D01*
X89340000Y-70409095D01*
X89340000Y-70290905D01*
X89316942Y-70174986D01*
X89271713Y-70065793D01*
X89240000Y-70018331D01*
X89240000Y-68077105D01*
X89770591Y-67546515D01*
X89833415Y-67572538D01*
X90062973Y-67618200D01*
X90297027Y-67618200D01*
X90526585Y-67572538D01*
X90682533Y-67507942D01*
X92040000Y-67507942D01*
X92040000Y-67892058D01*
X92114938Y-68268794D01*
X92261933Y-68623671D01*
X92475336Y-68943052D01*
X92746948Y-69214664D01*
X93066329Y-69428067D01*
X93421206Y-69575062D01*
X93797942Y-69650000D01*
X94182058Y-69650000D01*
X94558794Y-69575062D01*
X94913671Y-69428067D01*
X95233052Y-69214664D01*
X95504664Y-68943052D01*
X95718067Y-68623671D01*
X95865062Y-68268794D01*
X95940000Y-67892058D01*
X95940000Y-67507942D01*
X95865062Y-67131206D01*
X95718067Y-66776329D01*
X95504664Y-66456948D01*
X95233052Y-66185336D01*
X94913671Y-65971933D01*
X94558794Y-65824938D01*
X94182058Y-65750000D01*
X93797942Y-65750000D01*
X93421206Y-65824938D01*
X93066329Y-65971933D01*
X92746948Y-66185336D01*
X92475336Y-66456948D01*
X92261933Y-66776329D01*
X92114938Y-67131206D01*
X92040000Y-67507942D01*
X90682533Y-67507942D01*
X90742824Y-67482969D01*
X90937433Y-67352935D01*
X91102935Y-67187433D01*
X91232969Y-66992824D01*
X91322538Y-66776585D01*
X91368200Y-66547027D01*
X91368200Y-66312973D01*
X91322538Y-66083415D01*
X91232969Y-65867176D01*
X91102935Y-65672567D01*
X90937433Y-65507065D01*
X90742824Y-65377031D01*
X90526585Y-65287462D01*
X90297027Y-65241800D01*
X90062973Y-65241800D01*
X89833415Y-65287462D01*
X89617176Y-65377031D01*
X89422567Y-65507065D01*
X89293410Y-65636222D01*
X89165661Y-65397222D01*
X88934477Y-65115523D01*
X88819976Y-65021555D01*
X96650383Y-65020029D01*
X96709615Y-88189766D01*
M02*
