G04 #@! TF.GenerationSoftware,KiCad,Pcbnew,(5.1.6)-1*
G04 #@! TF.CreationDate,2021-06-30T18:45:26-06:00*
G04 #@! TF.ProjectId,oasis_iot,6f617369-735f-4696-9f74-2e6b69636164,rev?*
G04 #@! TF.SameCoordinates,Original*
G04 #@! TF.FileFunction,Copper,L1,Top*
G04 #@! TF.FilePolarity,Positive*
%FSLAX46Y46*%
G04 Gerber Fmt 4.6, Leading zero omitted, Abs format (unit mm)*
G04 Created by KiCad (PCBNEW (5.1.6)-1) date 2021-06-30 18:45:26*
%MOMM*%
%LPD*%
G01*
G04 APERTURE LIST*
%ADD10C,0.100000*%
%ADD11C,0.150000*%
%ADD12C,0.300000*%
%ADD13C,0.400000*%
G04 #@! TA.AperFunction,ComponentPad*
%ADD14C,1.676400*%
G04 #@! TD*
G04 #@! TA.AperFunction,ComponentPad*
%ADD15R,1.676400X1.676400*%
G04 #@! TD*
G04 #@! TA.AperFunction,ComponentPad*
%ADD16C,3.200000*%
G04 #@! TD*
G04 #@! TA.AperFunction,SMDPad,CuDef*
%ADD17R,0.900000X0.700000*%
G04 #@! TD*
G04 #@! TA.AperFunction,SMDPad,CuDef*
%ADD18R,1.000000X1.100000*%
G04 #@! TD*
G04 #@! TA.AperFunction,SMDPad,CuDef*
%ADD19R,0.800000X1.000000*%
G04 #@! TD*
G04 #@! TA.AperFunction,SMDPad,CuDef*
%ADD20R,2.300000X1.000000*%
G04 #@! TD*
G04 #@! TA.AperFunction,SMDPad,CuDef*
%ADD21R,0.800000X0.800000*%
G04 #@! TD*
G04 #@! TA.AperFunction,SMDPad,CuDef*
%ADD22R,0.300000X0.300000*%
G04 #@! TD*
G04 #@! TA.AperFunction,SMDPad,CuDef*
%ADD23R,0.300000X0.540000*%
G04 #@! TD*
G04 #@! TA.AperFunction,SMDPad,CuDef*
%ADD24R,0.540000X0.540000*%
G04 #@! TD*
G04 #@! TA.AperFunction,SMDPad,CuDef*
%ADD25R,0.540000X0.300000*%
G04 #@! TD*
G04 #@! TA.AperFunction,SMDPad,CuDef*
%ADD26R,1.050000X1.000000*%
G04 #@! TD*
G04 #@! TA.AperFunction,SMDPad,CuDef*
%ADD27R,2.200000X1.050000*%
G04 #@! TD*
G04 #@! TA.AperFunction,SMDPad,CuDef*
%ADD28R,0.600000X0.540000*%
G04 #@! TD*
G04 #@! TA.AperFunction,SMDPad,CuDef*
%ADD29R,0.970000X0.390000*%
G04 #@! TD*
G04 #@! TA.AperFunction,SMDPad,CuDef*
%ADD30R,1.143000X0.406400*%
G04 #@! TD*
G04 #@! TA.AperFunction,SMDPad,CuDef*
%ADD31R,0.630000X0.510000*%
G04 #@! TD*
G04 #@! TA.AperFunction,SMDPad,CuDef*
%ADD32C,0.787000*%
G04 #@! TD*
G04 #@! TA.AperFunction,SMDPad,CuDef*
%ADD33R,0.540000X0.600000*%
G04 #@! TD*
G04 #@! TA.AperFunction,ViaPad*
%ADD34C,0.500000*%
G04 #@! TD*
G04 #@! TA.AperFunction,ViaPad*
%ADD35C,0.350000*%
G04 #@! TD*
G04 #@! TA.AperFunction,Conductor*
%ADD36C,0.300000*%
G04 #@! TD*
G04 #@! TA.AperFunction,Conductor*
%ADD37C,0.600000*%
G04 #@! TD*
G04 #@! TA.AperFunction,Conductor*
%ADD38C,0.500000*%
G04 #@! TD*
G04 #@! TA.AperFunction,Conductor*
%ADD39C,0.254000*%
G04 #@! TD*
G04 #@! TA.AperFunction,Conductor*
%ADD40C,0.540000*%
G04 #@! TD*
G04 #@! TA.AperFunction,Conductor*
%ADD41C,0.200000*%
G04 #@! TD*
G04 #@! TA.AperFunction,Conductor*
%ADD42C,0.700000*%
G04 #@! TD*
G04 #@! TA.AperFunction,Conductor*
%ADD43C,1.000000*%
G04 #@! TD*
G04 #@! TA.AperFunction,Conductor*
%ADD44C,0.800000*%
G04 #@! TD*
G04 APERTURE END LIST*
D10*
D11*
X177002200Y-166007200D02*
X177002200Y-198007200D01*
X285002200Y-198007200D01*
X285002200Y-166007200D01*
X177002200Y-166007200D01*
D10*
D11*
X10000000Y-10000000D02*
X10000000Y-200007200D01*
X287002200Y-200007200D01*
X287002200Y-10000000D01*
X10000000Y-10000000D01*
D10*
D11*
X12000000Y-12000000D02*
X12000000Y-198007200D01*
X285002200Y-198007200D01*
X285002200Y-12000000D01*
X12000000Y-12000000D01*
D10*
D11*
X60000000Y-12000000D02*
X60000000Y-10000000D01*
D10*
D11*
X110000000Y-12000000D02*
X110000000Y-10000000D01*
D10*
D11*
X160000000Y-12000000D02*
X160000000Y-10000000D01*
D10*
D11*
X210000000Y-12000000D02*
X210000000Y-10000000D01*
D10*
D11*
X260000000Y-12000000D02*
X260000000Y-10000000D01*
D10*
D11*
X36065476Y-11588095D02*
X35322619Y-11588095D01*
X35694047Y-11588095D02*
X35694047Y-10288095D01*
X35570238Y-10473809D01*
X35446428Y-10597619D01*
X35322619Y-10659523D01*
D10*
D11*
X85322619Y-10411904D02*
X85384523Y-10350000D01*
X85508333Y-10288095D01*
X85817857Y-10288095D01*
X85941666Y-10350000D01*
X86003571Y-10411904D01*
X86065476Y-10535714D01*
X86065476Y-10659523D01*
X86003571Y-10845238D01*
X85260714Y-11588095D01*
X86065476Y-11588095D01*
D10*
D11*
X135260714Y-10288095D02*
X136065476Y-10288095D01*
X135632142Y-10783333D01*
X135817857Y-10783333D01*
X135941666Y-10845238D01*
X136003571Y-10907142D01*
X136065476Y-11030952D01*
X136065476Y-11340476D01*
X136003571Y-11464285D01*
X135941666Y-11526190D01*
X135817857Y-11588095D01*
X135446428Y-11588095D01*
X135322619Y-11526190D01*
X135260714Y-11464285D01*
D10*
D11*
X185941666Y-10721428D02*
X185941666Y-11588095D01*
X185632142Y-10226190D02*
X185322619Y-11154761D01*
X186127380Y-11154761D01*
D10*
D11*
X236003571Y-10288095D02*
X235384523Y-10288095D01*
X235322619Y-10907142D01*
X235384523Y-10845238D01*
X235508333Y-10783333D01*
X235817857Y-10783333D01*
X235941666Y-10845238D01*
X236003571Y-10907142D01*
X236065476Y-11030952D01*
X236065476Y-11340476D01*
X236003571Y-11464285D01*
X235941666Y-11526190D01*
X235817857Y-11588095D01*
X235508333Y-11588095D01*
X235384523Y-11526190D01*
X235322619Y-11464285D01*
D10*
D11*
X285941666Y-10288095D02*
X285694047Y-10288095D01*
X285570238Y-10350000D01*
X285508333Y-10411904D01*
X285384523Y-10597619D01*
X285322619Y-10845238D01*
X285322619Y-11340476D01*
X285384523Y-11464285D01*
X285446428Y-11526190D01*
X285570238Y-11588095D01*
X285817857Y-11588095D01*
X285941666Y-11526190D01*
X286003571Y-11464285D01*
X286065476Y-11340476D01*
X286065476Y-11030952D01*
X286003571Y-10907142D01*
X285941666Y-10845238D01*
X285817857Y-10783333D01*
X285570238Y-10783333D01*
X285446428Y-10845238D01*
X285384523Y-10907142D01*
X285322619Y-11030952D01*
D10*
D11*
X60000000Y-198007200D02*
X60000000Y-200007200D01*
D10*
D11*
X110000000Y-198007200D02*
X110000000Y-200007200D01*
D10*
D11*
X160000000Y-198007200D02*
X160000000Y-200007200D01*
D10*
D11*
X210000000Y-198007200D02*
X210000000Y-200007200D01*
D10*
D11*
X260000000Y-198007200D02*
X260000000Y-200007200D01*
D10*
D11*
X36065476Y-199595295D02*
X35322619Y-199595295D01*
X35694047Y-199595295D02*
X35694047Y-198295295D01*
X35570238Y-198481009D01*
X35446428Y-198604819D01*
X35322619Y-198666723D01*
D10*
D11*
X85322619Y-198419104D02*
X85384523Y-198357200D01*
X85508333Y-198295295D01*
X85817857Y-198295295D01*
X85941666Y-198357200D01*
X86003571Y-198419104D01*
X86065476Y-198542914D01*
X86065476Y-198666723D01*
X86003571Y-198852438D01*
X85260714Y-199595295D01*
X86065476Y-199595295D01*
D10*
D11*
X135260714Y-198295295D02*
X136065476Y-198295295D01*
X135632142Y-198790533D01*
X135817857Y-198790533D01*
X135941666Y-198852438D01*
X136003571Y-198914342D01*
X136065476Y-199038152D01*
X136065476Y-199347676D01*
X136003571Y-199471485D01*
X135941666Y-199533390D01*
X135817857Y-199595295D01*
X135446428Y-199595295D01*
X135322619Y-199533390D01*
X135260714Y-199471485D01*
D10*
D11*
X185941666Y-198728628D02*
X185941666Y-199595295D01*
X185632142Y-198233390D02*
X185322619Y-199161961D01*
X186127380Y-199161961D01*
D10*
D11*
X236003571Y-198295295D02*
X235384523Y-198295295D01*
X235322619Y-198914342D01*
X235384523Y-198852438D01*
X235508333Y-198790533D01*
X235817857Y-198790533D01*
X235941666Y-198852438D01*
X236003571Y-198914342D01*
X236065476Y-199038152D01*
X236065476Y-199347676D01*
X236003571Y-199471485D01*
X235941666Y-199533390D01*
X235817857Y-199595295D01*
X235508333Y-199595295D01*
X235384523Y-199533390D01*
X235322619Y-199471485D01*
D10*
D11*
X285941666Y-198295295D02*
X285694047Y-198295295D01*
X285570238Y-198357200D01*
X285508333Y-198419104D01*
X285384523Y-198604819D01*
X285322619Y-198852438D01*
X285322619Y-199347676D01*
X285384523Y-199471485D01*
X285446428Y-199533390D01*
X285570238Y-199595295D01*
X285817857Y-199595295D01*
X285941666Y-199533390D01*
X286003571Y-199471485D01*
X286065476Y-199347676D01*
X286065476Y-199038152D01*
X286003571Y-198914342D01*
X285941666Y-198852438D01*
X285817857Y-198790533D01*
X285570238Y-198790533D01*
X285446428Y-198852438D01*
X285384523Y-198914342D01*
X285322619Y-199038152D01*
D10*
D11*
X10000000Y-60000000D02*
X12000000Y-60000000D01*
D10*
D11*
X10000000Y-110000000D02*
X12000000Y-110000000D01*
D10*
D11*
X10000000Y-160000000D02*
X12000000Y-160000000D01*
D10*
D11*
X10690476Y-35216666D02*
X11309523Y-35216666D01*
X10566666Y-35588095D02*
X11000000Y-34288095D01*
X11433333Y-35588095D01*
D10*
D11*
X11092857Y-84907142D02*
X11278571Y-84969047D01*
X11340476Y-85030952D01*
X11402380Y-85154761D01*
X11402380Y-85340476D01*
X11340476Y-85464285D01*
X11278571Y-85526190D01*
X11154761Y-85588095D01*
X10659523Y-85588095D01*
X10659523Y-84288095D01*
X11092857Y-84288095D01*
X11216666Y-84350000D01*
X11278571Y-84411904D01*
X11340476Y-84535714D01*
X11340476Y-84659523D01*
X11278571Y-84783333D01*
X11216666Y-84845238D01*
X11092857Y-84907142D01*
X10659523Y-84907142D01*
D10*
D11*
X11402380Y-135464285D02*
X11340476Y-135526190D01*
X11154761Y-135588095D01*
X11030952Y-135588095D01*
X10845238Y-135526190D01*
X10721428Y-135402380D01*
X10659523Y-135278571D01*
X10597619Y-135030952D01*
X10597619Y-134845238D01*
X10659523Y-134597619D01*
X10721428Y-134473809D01*
X10845238Y-134350000D01*
X11030952Y-134288095D01*
X11154761Y-134288095D01*
X11340476Y-134350000D01*
X11402380Y-134411904D01*
D10*
D11*
X10659523Y-185588095D02*
X10659523Y-184288095D01*
X10969047Y-184288095D01*
X11154761Y-184350000D01*
X11278571Y-184473809D01*
X11340476Y-184597619D01*
X11402380Y-184845238D01*
X11402380Y-185030952D01*
X11340476Y-185278571D01*
X11278571Y-185402380D01*
X11154761Y-185526190D01*
X10969047Y-185588095D01*
X10659523Y-185588095D01*
D10*
D11*
X287002200Y-60000000D02*
X285002200Y-60000000D01*
D10*
D11*
X287002200Y-110000000D02*
X285002200Y-110000000D01*
D10*
D11*
X287002200Y-160000000D02*
X285002200Y-160000000D01*
D10*
D11*
X285692676Y-35216666D02*
X286311723Y-35216666D01*
X285568866Y-35588095D02*
X286002200Y-34288095D01*
X286435533Y-35588095D01*
D10*
D11*
X286095057Y-84907142D02*
X286280771Y-84969047D01*
X286342676Y-85030952D01*
X286404580Y-85154761D01*
X286404580Y-85340476D01*
X286342676Y-85464285D01*
X286280771Y-85526190D01*
X286156961Y-85588095D01*
X285661723Y-85588095D01*
X285661723Y-84288095D01*
X286095057Y-84288095D01*
X286218866Y-84350000D01*
X286280771Y-84411904D01*
X286342676Y-84535714D01*
X286342676Y-84659523D01*
X286280771Y-84783333D01*
X286218866Y-84845238D01*
X286095057Y-84907142D01*
X285661723Y-84907142D01*
D10*
D11*
X286404580Y-135464285D02*
X286342676Y-135526190D01*
X286156961Y-135588095D01*
X286033152Y-135588095D01*
X285847438Y-135526190D01*
X285723628Y-135402380D01*
X285661723Y-135278571D01*
X285599819Y-135030952D01*
X285599819Y-134845238D01*
X285661723Y-134597619D01*
X285723628Y-134473809D01*
X285847438Y-134350000D01*
X286033152Y-134288095D01*
X286156961Y-134288095D01*
X286342676Y-134350000D01*
X286404580Y-134411904D01*
D10*
D11*
X285661723Y-185588095D02*
X285661723Y-184288095D01*
X285971247Y-184288095D01*
X286156961Y-184350000D01*
X286280771Y-184473809D01*
X286342676Y-184597619D01*
X286404580Y-184845238D01*
X286404580Y-185030952D01*
X286342676Y-185278571D01*
X286280771Y-185402380D01*
X286156961Y-185526190D01*
X285971247Y-185588095D01*
X285661723Y-185588095D01*
D10*
D11*
X200434342Y-193785771D02*
X200434342Y-192285771D01*
X200791485Y-192285771D01*
X201005771Y-192357200D01*
X201148628Y-192500057D01*
X201220057Y-192642914D01*
X201291485Y-192928628D01*
X201291485Y-193142914D01*
X201220057Y-193428628D01*
X201148628Y-193571485D01*
X201005771Y-193714342D01*
X200791485Y-193785771D01*
X200434342Y-193785771D01*
X202577200Y-193785771D02*
X202577200Y-193000057D01*
X202505771Y-192857200D01*
X202362914Y-192785771D01*
X202077200Y-192785771D01*
X201934342Y-192857200D01*
X202577200Y-193714342D02*
X202434342Y-193785771D01*
X202077200Y-193785771D01*
X201934342Y-193714342D01*
X201862914Y-193571485D01*
X201862914Y-193428628D01*
X201934342Y-193285771D01*
X202077200Y-193214342D01*
X202434342Y-193214342D01*
X202577200Y-193142914D01*
X203077200Y-192785771D02*
X203648628Y-192785771D01*
X203291485Y-192285771D02*
X203291485Y-193571485D01*
X203362914Y-193714342D01*
X203505771Y-193785771D01*
X203648628Y-193785771D01*
X204720057Y-193714342D02*
X204577200Y-193785771D01*
X204291485Y-193785771D01*
X204148628Y-193714342D01*
X204077200Y-193571485D01*
X204077200Y-193000057D01*
X204148628Y-192857200D01*
X204291485Y-192785771D01*
X204577200Y-192785771D01*
X204720057Y-192857200D01*
X204791485Y-193000057D01*
X204791485Y-193142914D01*
X204077200Y-193285771D01*
X205434342Y-193642914D02*
X205505771Y-193714342D01*
X205434342Y-193785771D01*
X205362914Y-193714342D01*
X205434342Y-193642914D01*
X205434342Y-193785771D01*
X205434342Y-192857200D02*
X205505771Y-192928628D01*
X205434342Y-193000057D01*
X205362914Y-192928628D01*
X205434342Y-192857200D01*
X205434342Y-193000057D01*
D10*
D11*
X177002200Y-194507200D02*
X285002200Y-194507200D01*
D10*
D11*
X178434342Y-196585771D02*
X178434342Y-195085771D01*
X179291485Y-196585771D02*
X178648628Y-195728628D01*
X179291485Y-195085771D02*
X178434342Y-195942914D01*
X179934342Y-196585771D02*
X179934342Y-195585771D01*
X179934342Y-195085771D02*
X179862914Y-195157200D01*
X179934342Y-195228628D01*
X180005771Y-195157200D01*
X179934342Y-195085771D01*
X179934342Y-195228628D01*
X181505771Y-196442914D02*
X181434342Y-196514342D01*
X181220057Y-196585771D01*
X181077200Y-196585771D01*
X180862914Y-196514342D01*
X180720057Y-196371485D01*
X180648628Y-196228628D01*
X180577200Y-195942914D01*
X180577200Y-195728628D01*
X180648628Y-195442914D01*
X180720057Y-195300057D01*
X180862914Y-195157200D01*
X181077200Y-195085771D01*
X181220057Y-195085771D01*
X181434342Y-195157200D01*
X181505771Y-195228628D01*
X182791485Y-196585771D02*
X182791485Y-195800057D01*
X182720057Y-195657200D01*
X182577200Y-195585771D01*
X182291485Y-195585771D01*
X182148628Y-195657200D01*
X182791485Y-196514342D02*
X182648628Y-196585771D01*
X182291485Y-196585771D01*
X182148628Y-196514342D01*
X182077200Y-196371485D01*
X182077200Y-196228628D01*
X182148628Y-196085771D01*
X182291485Y-196014342D01*
X182648628Y-196014342D01*
X182791485Y-195942914D01*
X184148628Y-196585771D02*
X184148628Y-195085771D01*
X184148628Y-196514342D02*
X184005771Y-196585771D01*
X183720057Y-196585771D01*
X183577200Y-196514342D01*
X183505771Y-196442914D01*
X183434342Y-196300057D01*
X183434342Y-195871485D01*
X183505771Y-195728628D01*
X183577200Y-195657200D01*
X183720057Y-195585771D01*
X184005771Y-195585771D01*
X184148628Y-195657200D01*
X186005771Y-195800057D02*
X186505771Y-195800057D01*
X186720057Y-196585771D02*
X186005771Y-196585771D01*
X186005771Y-195085771D01*
X186720057Y-195085771D01*
X187362914Y-196442914D02*
X187434342Y-196514342D01*
X187362914Y-196585771D01*
X187291485Y-196514342D01*
X187362914Y-196442914D01*
X187362914Y-196585771D01*
X188077200Y-196585771D02*
X188077200Y-195085771D01*
X188434342Y-195085771D01*
X188648628Y-195157200D01*
X188791485Y-195300057D01*
X188862914Y-195442914D01*
X188934342Y-195728628D01*
X188934342Y-195942914D01*
X188862914Y-196228628D01*
X188791485Y-196371485D01*
X188648628Y-196514342D01*
X188434342Y-196585771D01*
X188077200Y-196585771D01*
X189577200Y-196442914D02*
X189648628Y-196514342D01*
X189577200Y-196585771D01*
X189505771Y-196514342D01*
X189577200Y-196442914D01*
X189577200Y-196585771D01*
X190220057Y-196157200D02*
X190934342Y-196157200D01*
X190077200Y-196585771D02*
X190577200Y-195085771D01*
X191077200Y-196585771D01*
X191577200Y-196442914D02*
X191648628Y-196514342D01*
X191577200Y-196585771D01*
X191505771Y-196514342D01*
X191577200Y-196442914D01*
X191577200Y-196585771D01*
X194577200Y-196585771D02*
X194577200Y-195085771D01*
X194720057Y-196014342D02*
X195148628Y-196585771D01*
X195148628Y-195585771D02*
X194577200Y-196157200D01*
X195791485Y-196585771D02*
X195791485Y-195585771D01*
X195791485Y-195085771D02*
X195720057Y-195157200D01*
X195791485Y-195228628D01*
X195862914Y-195157200D01*
X195791485Y-195085771D01*
X195791485Y-195228628D01*
X197148628Y-196514342D02*
X197005771Y-196585771D01*
X196720057Y-196585771D01*
X196577200Y-196514342D01*
X196505771Y-196442914D01*
X196434342Y-196300057D01*
X196434342Y-195871485D01*
X196505771Y-195728628D01*
X196577200Y-195657200D01*
X196720057Y-195585771D01*
X197005771Y-195585771D01*
X197148628Y-195657200D01*
X198434342Y-196585771D02*
X198434342Y-195800057D01*
X198362914Y-195657200D01*
X198220057Y-195585771D01*
X197934342Y-195585771D01*
X197791485Y-195657200D01*
X198434342Y-196514342D02*
X198291485Y-196585771D01*
X197934342Y-196585771D01*
X197791485Y-196514342D01*
X197720057Y-196371485D01*
X197720057Y-196228628D01*
X197791485Y-196085771D01*
X197934342Y-196014342D01*
X198291485Y-196014342D01*
X198434342Y-195942914D01*
X199791485Y-196585771D02*
X199791485Y-195085771D01*
X199791485Y-196514342D02*
X199648628Y-196585771D01*
X199362914Y-196585771D01*
X199220057Y-196514342D01*
X199148628Y-196442914D01*
X199077200Y-196300057D01*
X199077200Y-195871485D01*
X199148628Y-195728628D01*
X199220057Y-195657200D01*
X199362914Y-195585771D01*
X199648628Y-195585771D01*
X199791485Y-195657200D01*
X202077200Y-197157200D02*
X202005771Y-197085771D01*
X201862914Y-196871485D01*
X201791485Y-196728628D01*
X201720057Y-196514342D01*
X201648628Y-196157200D01*
X201648628Y-195871485D01*
X201720057Y-195514342D01*
X201791485Y-195300057D01*
X201862914Y-195157200D01*
X202005771Y-194942914D01*
X202077200Y-194871485D01*
X203362914Y-195085771D02*
X202648628Y-195085771D01*
X202577200Y-195800057D01*
X202648628Y-195728628D01*
X202791485Y-195657200D01*
X203148628Y-195657200D01*
X203291485Y-195728628D01*
X203362914Y-195800057D01*
X203434342Y-195942914D01*
X203434342Y-196300057D01*
X203362914Y-196442914D01*
X203291485Y-196514342D01*
X203148628Y-196585771D01*
X202791485Y-196585771D01*
X202648628Y-196514342D01*
X202577200Y-196442914D01*
X204077200Y-196442914D02*
X204148628Y-196514342D01*
X204077200Y-196585771D01*
X204005771Y-196514342D01*
X204077200Y-196442914D01*
X204077200Y-196585771D01*
X205577200Y-196585771D02*
X204720057Y-196585771D01*
X205148628Y-196585771D02*
X205148628Y-195085771D01*
X205005771Y-195300057D01*
X204862914Y-195442914D01*
X204720057Y-195514342D01*
X206220057Y-196442914D02*
X206291485Y-196514342D01*
X206220057Y-196585771D01*
X206148628Y-196514342D01*
X206220057Y-196442914D01*
X206220057Y-196585771D01*
X207577200Y-195085771D02*
X207291485Y-195085771D01*
X207148628Y-195157200D01*
X207077200Y-195228628D01*
X206934342Y-195442914D01*
X206862914Y-195728628D01*
X206862914Y-196300057D01*
X206934342Y-196442914D01*
X207005771Y-196514342D01*
X207148628Y-196585771D01*
X207434342Y-196585771D01*
X207577200Y-196514342D01*
X207648628Y-196442914D01*
X207720057Y-196300057D01*
X207720057Y-195942914D01*
X207648628Y-195800057D01*
X207577200Y-195728628D01*
X207434342Y-195657200D01*
X207148628Y-195657200D01*
X207005771Y-195728628D01*
X206934342Y-195800057D01*
X206862914Y-195942914D01*
X208220057Y-197157200D02*
X208291485Y-197085771D01*
X208434342Y-196871485D01*
X208505771Y-196728628D01*
X208577200Y-196514342D01*
X208648628Y-196157200D01*
X208648628Y-195871485D01*
X208577200Y-195514342D01*
X208505771Y-195300057D01*
X208434342Y-195157200D01*
X208291485Y-194942914D01*
X208220057Y-194871485D01*
X209362914Y-196014342D02*
X210505771Y-196014342D01*
X212005771Y-196585771D02*
X211148628Y-196585771D01*
X211577200Y-196585771D02*
X211577200Y-195085771D01*
X211434342Y-195300057D01*
X211291485Y-195442914D01*
X211148628Y-195514342D01*
D10*
D11*
X177002200Y-191507200D02*
X285002200Y-191507200D01*
D10*
D12*
X264411485Y-193785771D02*
X263911485Y-193071485D01*
X263554342Y-193785771D02*
X263554342Y-192285771D01*
X264125771Y-192285771D01*
X264268628Y-192357200D01*
X264340057Y-192428628D01*
X264411485Y-192571485D01*
X264411485Y-192785771D01*
X264340057Y-192928628D01*
X264268628Y-193000057D01*
X264125771Y-193071485D01*
X263554342Y-193071485D01*
X265625771Y-193714342D02*
X265482914Y-193785771D01*
X265197200Y-193785771D01*
X265054342Y-193714342D01*
X264982914Y-193571485D01*
X264982914Y-193000057D01*
X265054342Y-192857200D01*
X265197200Y-192785771D01*
X265482914Y-192785771D01*
X265625771Y-192857200D01*
X265697200Y-193000057D01*
X265697200Y-193142914D01*
X264982914Y-193285771D01*
X266197200Y-192785771D02*
X266554342Y-193785771D01*
X266911485Y-192785771D01*
X267482914Y-193642914D02*
X267554342Y-193714342D01*
X267482914Y-193785771D01*
X267411485Y-193714342D01*
X267482914Y-193642914D01*
X267482914Y-193785771D01*
X267482914Y-192857200D02*
X267554342Y-192928628D01*
X267482914Y-193000057D01*
X267411485Y-192928628D01*
X267482914Y-192857200D01*
X267482914Y-193000057D01*
D10*
D11*
X178362914Y-193714342D02*
X178577200Y-193785771D01*
X178934342Y-193785771D01*
X179077200Y-193714342D01*
X179148628Y-193642914D01*
X179220057Y-193500057D01*
X179220057Y-193357200D01*
X179148628Y-193214342D01*
X179077200Y-193142914D01*
X178934342Y-193071485D01*
X178648628Y-193000057D01*
X178505771Y-192928628D01*
X178434342Y-192857200D01*
X178362914Y-192714342D01*
X178362914Y-192571485D01*
X178434342Y-192428628D01*
X178505771Y-192357200D01*
X178648628Y-192285771D01*
X179005771Y-192285771D01*
X179220057Y-192357200D01*
X179862914Y-193785771D02*
X179862914Y-192785771D01*
X179862914Y-192285771D02*
X179791485Y-192357200D01*
X179862914Y-192428628D01*
X179934342Y-192357200D01*
X179862914Y-192285771D01*
X179862914Y-192428628D01*
X180434342Y-192785771D02*
X181220057Y-192785771D01*
X180434342Y-193785771D01*
X181220057Y-193785771D01*
X182362914Y-193714342D02*
X182220057Y-193785771D01*
X181934342Y-193785771D01*
X181791485Y-193714342D01*
X181720057Y-193571485D01*
X181720057Y-193000057D01*
X181791485Y-192857200D01*
X181934342Y-192785771D01*
X182220057Y-192785771D01*
X182362914Y-192857200D01*
X182434342Y-193000057D01*
X182434342Y-193142914D01*
X181720057Y-193285771D01*
X183077200Y-193642914D02*
X183148628Y-193714342D01*
X183077200Y-193785771D01*
X183005771Y-193714342D01*
X183077200Y-193642914D01*
X183077200Y-193785771D01*
X183077200Y-192857200D02*
X183148628Y-192928628D01*
X183077200Y-193000057D01*
X183005771Y-192928628D01*
X183077200Y-192857200D01*
X183077200Y-193000057D01*
X184862914Y-193357200D02*
X185577200Y-193357200D01*
X184720057Y-193785771D02*
X185220057Y-192285771D01*
X185720057Y-193785771D01*
X186862914Y-192785771D02*
X186862914Y-193785771D01*
X186505771Y-192214342D02*
X186148628Y-193285771D01*
X187077200Y-193285771D01*
D10*
D11*
X263434342Y-196585771D02*
X263434342Y-195085771D01*
X264791485Y-196585771D02*
X264791485Y-195085771D01*
X264791485Y-196514342D02*
X264648628Y-196585771D01*
X264362914Y-196585771D01*
X264220057Y-196514342D01*
X264148628Y-196442914D01*
X264077200Y-196300057D01*
X264077200Y-195871485D01*
X264148628Y-195728628D01*
X264220057Y-195657200D01*
X264362914Y-195585771D01*
X264648628Y-195585771D01*
X264791485Y-195657200D01*
X265505771Y-196442914D02*
X265577200Y-196514342D01*
X265505771Y-196585771D01*
X265434342Y-196514342D01*
X265505771Y-196442914D01*
X265505771Y-196585771D01*
X265505771Y-195657200D02*
X265577200Y-195728628D01*
X265505771Y-195800057D01*
X265434342Y-195728628D01*
X265505771Y-195657200D01*
X265505771Y-195800057D01*
X268148628Y-196585771D02*
X267291485Y-196585771D01*
X267720057Y-196585771D02*
X267720057Y-195085771D01*
X267577200Y-195300057D01*
X267434342Y-195442914D01*
X267291485Y-195514342D01*
X269862914Y-195014342D02*
X268577200Y-196942914D01*
X271148628Y-196585771D02*
X270291485Y-196585771D01*
X270720057Y-196585771D02*
X270720057Y-195085771D01*
X270577200Y-195300057D01*
X270434342Y-195442914D01*
X270291485Y-195514342D01*
D10*
D11*
X177002200Y-187507200D02*
X285002200Y-187507200D01*
D10*
D13*
X178714580Y-188211961D02*
X179857438Y-188211961D01*
X179036009Y-190211961D02*
X179286009Y-188211961D01*
X180274104Y-190211961D02*
X180440771Y-188878628D01*
X180524104Y-188211961D02*
X180416961Y-188307200D01*
X180500295Y-188402438D01*
X180607438Y-188307200D01*
X180524104Y-188211961D01*
X180500295Y-188402438D01*
X181107438Y-188878628D02*
X181869342Y-188878628D01*
X181476485Y-188211961D02*
X181262200Y-189926247D01*
X181333628Y-190116723D01*
X181512200Y-190211961D01*
X181702676Y-190211961D01*
X182655057Y-190211961D02*
X182476485Y-190116723D01*
X182405057Y-189926247D01*
X182619342Y-188211961D01*
X184190771Y-190116723D02*
X183988390Y-190211961D01*
X183607438Y-190211961D01*
X183428866Y-190116723D01*
X183357438Y-189926247D01*
X183452676Y-189164342D01*
X183571723Y-188973866D01*
X183774104Y-188878628D01*
X184155057Y-188878628D01*
X184333628Y-188973866D01*
X184405057Y-189164342D01*
X184381247Y-189354819D01*
X183405057Y-189545295D01*
X185155057Y-190021485D02*
X185238390Y-190116723D01*
X185131247Y-190211961D01*
X185047914Y-190116723D01*
X185155057Y-190021485D01*
X185131247Y-190211961D01*
X185286009Y-188973866D02*
X185369342Y-189069104D01*
X185262200Y-189164342D01*
X185178866Y-189069104D01*
X185286009Y-188973866D01*
X185262200Y-189164342D01*
D10*
D11*
X178934342Y-185600057D02*
X178434342Y-185600057D01*
X178434342Y-186385771D02*
X178434342Y-184885771D01*
X179148628Y-184885771D01*
X179720057Y-186385771D02*
X179720057Y-185385771D01*
X179720057Y-184885771D02*
X179648628Y-184957200D01*
X179720057Y-185028628D01*
X179791485Y-184957200D01*
X179720057Y-184885771D01*
X179720057Y-185028628D01*
X180648628Y-186385771D02*
X180505771Y-186314342D01*
X180434342Y-186171485D01*
X180434342Y-184885771D01*
X181791485Y-186314342D02*
X181648628Y-186385771D01*
X181362914Y-186385771D01*
X181220057Y-186314342D01*
X181148628Y-186171485D01*
X181148628Y-185600057D01*
X181220057Y-185457200D01*
X181362914Y-185385771D01*
X181648628Y-185385771D01*
X181791485Y-185457200D01*
X181862914Y-185600057D01*
X181862914Y-185742914D01*
X181148628Y-185885771D01*
X182505771Y-186242914D02*
X182577200Y-186314342D01*
X182505771Y-186385771D01*
X182434342Y-186314342D01*
X182505771Y-186242914D01*
X182505771Y-186385771D01*
X182505771Y-185457200D02*
X182577200Y-185528628D01*
X182505771Y-185600057D01*
X182434342Y-185528628D01*
X182505771Y-185457200D01*
X182505771Y-185600057D01*
X184577200Y-186385771D02*
X184434342Y-186314342D01*
X184362914Y-186242914D01*
X184291485Y-186100057D01*
X184291485Y-185671485D01*
X184362914Y-185528628D01*
X184434342Y-185457200D01*
X184577200Y-185385771D01*
X184791485Y-185385771D01*
X184934342Y-185457200D01*
X185005771Y-185528628D01*
X185077200Y-185671485D01*
X185077200Y-186100057D01*
X185005771Y-186242914D01*
X184934342Y-186314342D01*
X184791485Y-186385771D01*
X184577200Y-186385771D01*
X186362914Y-186385771D02*
X186362914Y-185600057D01*
X186291485Y-185457200D01*
X186148628Y-185385771D01*
X185862914Y-185385771D01*
X185720057Y-185457200D01*
X186362914Y-186314342D02*
X186220057Y-186385771D01*
X185862914Y-186385771D01*
X185720057Y-186314342D01*
X185648628Y-186171485D01*
X185648628Y-186028628D01*
X185720057Y-185885771D01*
X185862914Y-185814342D01*
X186220057Y-185814342D01*
X186362914Y-185742914D01*
X187005771Y-186314342D02*
X187148628Y-186385771D01*
X187434342Y-186385771D01*
X187577200Y-186314342D01*
X187648628Y-186171485D01*
X187648628Y-186100057D01*
X187577200Y-185957200D01*
X187434342Y-185885771D01*
X187220057Y-185885771D01*
X187077200Y-185814342D01*
X187005771Y-185671485D01*
X187005771Y-185600057D01*
X187077200Y-185457200D01*
X187220057Y-185385771D01*
X187434342Y-185385771D01*
X187577200Y-185457200D01*
X188291485Y-186385771D02*
X188291485Y-185385771D01*
X188291485Y-184885771D02*
X188220057Y-184957200D01*
X188291485Y-185028628D01*
X188362914Y-184957200D01*
X188291485Y-184885771D01*
X188291485Y-185028628D01*
X188934342Y-186314342D02*
X189077200Y-186385771D01*
X189362914Y-186385771D01*
X189505771Y-186314342D01*
X189577200Y-186171485D01*
X189577200Y-186100057D01*
X189505771Y-185957200D01*
X189362914Y-185885771D01*
X189148628Y-185885771D01*
X189005771Y-185814342D01*
X188934342Y-185671485D01*
X188934342Y-185600057D01*
X189005771Y-185457200D01*
X189148628Y-185385771D01*
X189362914Y-185385771D01*
X189505771Y-185457200D01*
X189862914Y-186528628D02*
X191005771Y-186528628D01*
X191362914Y-186385771D02*
X191362914Y-185385771D01*
X191362914Y-184885771D02*
X191291485Y-184957200D01*
X191362914Y-185028628D01*
X191434342Y-184957200D01*
X191362914Y-184885771D01*
X191362914Y-185028628D01*
X192291485Y-186385771D02*
X192148628Y-186314342D01*
X192077200Y-186242914D01*
X192005771Y-186100057D01*
X192005771Y-185671485D01*
X192077200Y-185528628D01*
X192148628Y-185457200D01*
X192291485Y-185385771D01*
X192505771Y-185385771D01*
X192648628Y-185457200D01*
X192720057Y-185528628D01*
X192791485Y-185671485D01*
X192791485Y-186100057D01*
X192720057Y-186242914D01*
X192648628Y-186314342D01*
X192505771Y-186385771D01*
X192291485Y-186385771D01*
X193220057Y-185385771D02*
X193791485Y-185385771D01*
X193434342Y-184885771D02*
X193434342Y-186171485D01*
X193505771Y-186314342D01*
X193648628Y-186385771D01*
X193791485Y-186385771D01*
X194291485Y-186242914D02*
X194362914Y-186314342D01*
X194291485Y-186385771D01*
X194220057Y-186314342D01*
X194291485Y-186242914D01*
X194291485Y-186385771D01*
X195005771Y-186385771D02*
X195005771Y-184885771D01*
X195148628Y-185814342D02*
X195577200Y-186385771D01*
X195577200Y-185385771D02*
X195005771Y-185957200D01*
X196220057Y-186385771D02*
X196220057Y-185385771D01*
X196220057Y-184885771D02*
X196148628Y-184957200D01*
X196220057Y-185028628D01*
X196291485Y-184957200D01*
X196220057Y-184885771D01*
X196220057Y-185028628D01*
X197577200Y-186314342D02*
X197434342Y-186385771D01*
X197148628Y-186385771D01*
X197005771Y-186314342D01*
X196934342Y-186242914D01*
X196862914Y-186100057D01*
X196862914Y-185671485D01*
X196934342Y-185528628D01*
X197005771Y-185457200D01*
X197148628Y-185385771D01*
X197434342Y-185385771D01*
X197577200Y-185457200D01*
X198862914Y-186385771D02*
X198862914Y-185600057D01*
X198791485Y-185457200D01*
X198648628Y-185385771D01*
X198362914Y-185385771D01*
X198220057Y-185457200D01*
X198862914Y-186314342D02*
X198720057Y-186385771D01*
X198362914Y-186385771D01*
X198220057Y-186314342D01*
X198148628Y-186171485D01*
X198148628Y-186028628D01*
X198220057Y-185885771D01*
X198362914Y-185814342D01*
X198720057Y-185814342D01*
X198862914Y-185742914D01*
X200220057Y-186385771D02*
X200220057Y-184885771D01*
X200220057Y-186314342D02*
X200077200Y-186385771D01*
X199791485Y-186385771D01*
X199648628Y-186314342D01*
X199577200Y-186242914D01*
X199505771Y-186100057D01*
X199505771Y-185671485D01*
X199577200Y-185528628D01*
X199648628Y-185457200D01*
X199791485Y-185385771D01*
X200077200Y-185385771D01*
X200220057Y-185457200D01*
X200577200Y-186528628D02*
X201720057Y-186528628D01*
X202077200Y-185385771D02*
X202077200Y-186885771D01*
X202077200Y-185457200D02*
X202220057Y-185385771D01*
X202505771Y-185385771D01*
X202648628Y-185457200D01*
X202720057Y-185528628D01*
X202791485Y-185671485D01*
X202791485Y-186100057D01*
X202720057Y-186242914D01*
X202648628Y-186314342D01*
X202505771Y-186385771D01*
X202220057Y-186385771D01*
X202077200Y-186314342D01*
X204077200Y-186314342D02*
X203934342Y-186385771D01*
X203648628Y-186385771D01*
X203505771Y-186314342D01*
X203434342Y-186242914D01*
X203362914Y-186100057D01*
X203362914Y-185671485D01*
X203434342Y-185528628D01*
X203505771Y-185457200D01*
X203648628Y-185385771D01*
X203934342Y-185385771D01*
X204077200Y-185457200D01*
X204720057Y-186385771D02*
X204720057Y-184885771D01*
X204720057Y-185457200D02*
X204862914Y-185385771D01*
X205148628Y-185385771D01*
X205291485Y-185457200D01*
X205362914Y-185528628D01*
X205434342Y-185671485D01*
X205434342Y-186100057D01*
X205362914Y-186242914D01*
X205291485Y-186314342D01*
X205148628Y-186385771D01*
X204862914Y-186385771D01*
X204720057Y-186314342D01*
D10*
D11*
X177002200Y-181507200D02*
X285002200Y-181507200D01*
D10*
D11*
X178362914Y-183614342D02*
X178577200Y-183685771D01*
X178934342Y-183685771D01*
X179077200Y-183614342D01*
X179148628Y-183542914D01*
X179220057Y-183400057D01*
X179220057Y-183257200D01*
X179148628Y-183114342D01*
X179077200Y-183042914D01*
X178934342Y-182971485D01*
X178648628Y-182900057D01*
X178505771Y-182828628D01*
X178434342Y-182757200D01*
X178362914Y-182614342D01*
X178362914Y-182471485D01*
X178434342Y-182328628D01*
X178505771Y-182257200D01*
X178648628Y-182185771D01*
X179005771Y-182185771D01*
X179220057Y-182257200D01*
X179862914Y-183685771D02*
X179862914Y-182185771D01*
X180505771Y-183685771D02*
X180505771Y-182900057D01*
X180434342Y-182757200D01*
X180291485Y-182685771D01*
X180077200Y-182685771D01*
X179934342Y-182757200D01*
X179862914Y-182828628D01*
X181791485Y-183614342D02*
X181648628Y-183685771D01*
X181362914Y-183685771D01*
X181220057Y-183614342D01*
X181148628Y-183471485D01*
X181148628Y-182900057D01*
X181220057Y-182757200D01*
X181362914Y-182685771D01*
X181648628Y-182685771D01*
X181791485Y-182757200D01*
X181862914Y-182900057D01*
X181862914Y-183042914D01*
X181148628Y-183185771D01*
X183077200Y-183614342D02*
X182934342Y-183685771D01*
X182648628Y-183685771D01*
X182505771Y-183614342D01*
X182434342Y-183471485D01*
X182434342Y-182900057D01*
X182505771Y-182757200D01*
X182648628Y-182685771D01*
X182934342Y-182685771D01*
X183077200Y-182757200D01*
X183148628Y-182900057D01*
X183148628Y-183042914D01*
X182434342Y-183185771D01*
X183577200Y-182685771D02*
X184148628Y-182685771D01*
X183791485Y-182185771D02*
X183791485Y-183471485D01*
X183862914Y-183614342D01*
X184005771Y-183685771D01*
X184148628Y-183685771D01*
X184648628Y-183542914D02*
X184720057Y-183614342D01*
X184648628Y-183685771D01*
X184577200Y-183614342D01*
X184648628Y-183542914D01*
X184648628Y-183685771D01*
X184648628Y-182757200D02*
X184720057Y-182828628D01*
X184648628Y-182900057D01*
X184577200Y-182828628D01*
X184648628Y-182757200D01*
X184648628Y-182900057D01*
D10*
D11*
X197002200Y-191507200D02*
X197002200Y-194507200D01*
D10*
D11*
X261002200Y-191507200D02*
X261002200Y-198007200D01*
D14*
X52080000Y-86750000D03*
D15*
X80020000Y-86750000D03*
D14*
X77480000Y-86750000D03*
X74940000Y-86750000D03*
X72400000Y-86750000D03*
X54620000Y-86750000D03*
X57160000Y-86750000D03*
X59700000Y-86750000D03*
X62240000Y-86750000D03*
X64780000Y-86750000D03*
X67320000Y-86750000D03*
X69860000Y-86750000D03*
D16*
X93990000Y-85480000D03*
X93990000Y-67700000D03*
D14*
X90180000Y-66430000D03*
D15*
X52080000Y-66430000D03*
D14*
X57160000Y-66430000D03*
X54620000Y-66430000D03*
X59700000Y-66430000D03*
X87640000Y-66430000D03*
X85100000Y-66430000D03*
X82560000Y-66430000D03*
X64780000Y-66430000D03*
X62240000Y-66430000D03*
X67320000Y-66430000D03*
X80020000Y-66430000D03*
X77480000Y-66430000D03*
X74940000Y-66430000D03*
X69860000Y-66430000D03*
X72400000Y-66430000D03*
D17*
X54990000Y-84650000D03*
X54990000Y-83350000D03*
D18*
X83739000Y-75820000D03*
X83739000Y-79460000D03*
D19*
X89614000Y-82540000D03*
X90814000Y-82540000D03*
X89614000Y-72740000D03*
X90814000Y-72740000D03*
X92014000Y-72740000D03*
X92014000Y-82540000D03*
D20*
X94864000Y-72540000D03*
X87664000Y-72540000D03*
X87664000Y-82740000D03*
X94864000Y-82740000D03*
G04 #@! TA.AperFunction,SMDPad,CuDef*
G36*
G01*
X66010000Y-82730000D02*
X66010000Y-82930000D01*
G75*
G02*
X65910000Y-83030000I-100000J0D01*
G01*
X65650000Y-83030000D01*
G75*
G02*
X65550000Y-82930000I0J100000D01*
G01*
X65550000Y-82730000D01*
G75*
G02*
X65650000Y-82630000I100000J0D01*
G01*
X65910000Y-82630000D01*
G75*
G02*
X66010000Y-82730000I0J-100000D01*
G01*
G37*
G04 #@! TD.AperFunction*
G04 #@! TA.AperFunction,SMDPad,CuDef*
G36*
G01*
X66650000Y-82730000D02*
X66650000Y-82930000D01*
G75*
G02*
X66550000Y-83030000I-100000J0D01*
G01*
X66290000Y-83030000D01*
G75*
G02*
X66190000Y-82930000I0J100000D01*
G01*
X66190000Y-82730000D01*
G75*
G02*
X66290000Y-82630000I100000J0D01*
G01*
X66550000Y-82630000D01*
G75*
G02*
X66650000Y-82730000I0J-100000D01*
G01*
G37*
G04 #@! TD.AperFunction*
G04 #@! TA.AperFunction,SMDPad,CuDef*
G36*
G01*
X67502500Y-83130000D02*
X67157500Y-83130000D01*
G75*
G02*
X67010000Y-82982500I0J147500D01*
G01*
X67010000Y-82687500D01*
G75*
G02*
X67157500Y-82540000I147500J0D01*
G01*
X67502500Y-82540000D01*
G75*
G02*
X67650000Y-82687500I0J-147500D01*
G01*
X67650000Y-82982500D01*
G75*
G02*
X67502500Y-83130000I-147500J0D01*
G01*
G37*
G04 #@! TD.AperFunction*
G04 #@! TA.AperFunction,SMDPad,CuDef*
G36*
G01*
X67502500Y-84100000D02*
X67157500Y-84100000D01*
G75*
G02*
X67010000Y-83952500I0J147500D01*
G01*
X67010000Y-83657500D01*
G75*
G02*
X67157500Y-83510000I147500J0D01*
G01*
X67502500Y-83510000D01*
G75*
G02*
X67650000Y-83657500I0J-147500D01*
G01*
X67650000Y-83952500D01*
G75*
G02*
X67502500Y-84100000I-147500J0D01*
G01*
G37*
G04 #@! TD.AperFunction*
G04 #@! TA.AperFunction,SMDPad,CuDef*
G36*
G01*
X68260000Y-75882500D02*
X68260000Y-75537500D01*
G75*
G02*
X68407500Y-75390000I147500J0D01*
G01*
X68702500Y-75390000D01*
G75*
G02*
X68850000Y-75537500I0J-147500D01*
G01*
X68850000Y-75882500D01*
G75*
G02*
X68702500Y-76030000I-147500J0D01*
G01*
X68407500Y-76030000D01*
G75*
G02*
X68260000Y-75882500I0J147500D01*
G01*
G37*
G04 #@! TD.AperFunction*
G04 #@! TA.AperFunction,SMDPad,CuDef*
G36*
G01*
X69230000Y-75882500D02*
X69230000Y-75537500D01*
G75*
G02*
X69377500Y-75390000I147500J0D01*
G01*
X69672500Y-75390000D01*
G75*
G02*
X69820000Y-75537500I0J-147500D01*
G01*
X69820000Y-75882500D01*
G75*
G02*
X69672500Y-76030000I-147500J0D01*
G01*
X69377500Y-76030000D01*
G75*
G02*
X69230000Y-75882500I0J147500D01*
G01*
G37*
G04 #@! TD.AperFunction*
G04 #@! TA.AperFunction,SMDPad,CuDef*
G36*
G01*
X70810000Y-84500000D02*
X70810000Y-84300000D01*
G75*
G02*
X70910000Y-84200000I100000J0D01*
G01*
X71170000Y-84200000D01*
G75*
G02*
X71270000Y-84300000I0J-100000D01*
G01*
X71270000Y-84500000D01*
G75*
G02*
X71170000Y-84600000I-100000J0D01*
G01*
X70910000Y-84600000D01*
G75*
G02*
X70810000Y-84500000I0J100000D01*
G01*
G37*
G04 #@! TD.AperFunction*
G04 #@! TA.AperFunction,SMDPad,CuDef*
G36*
G01*
X70170000Y-84500000D02*
X70170000Y-84300000D01*
G75*
G02*
X70270000Y-84200000I100000J0D01*
G01*
X70530000Y-84200000D01*
G75*
G02*
X70630000Y-84300000I0J-100000D01*
G01*
X70630000Y-84500000D01*
G75*
G02*
X70530000Y-84600000I-100000J0D01*
G01*
X70270000Y-84600000D01*
G75*
G02*
X70170000Y-84500000I0J100000D01*
G01*
G37*
G04 #@! TD.AperFunction*
G04 #@! TA.AperFunction,SMDPad,CuDef*
G36*
G01*
X69390000Y-77080000D02*
X69590000Y-77080000D01*
G75*
G02*
X69690000Y-77180000I0J-100000D01*
G01*
X69690000Y-77440000D01*
G75*
G02*
X69590000Y-77540000I-100000J0D01*
G01*
X69390000Y-77540000D01*
G75*
G02*
X69290000Y-77440000I0J100000D01*
G01*
X69290000Y-77180000D01*
G75*
G02*
X69390000Y-77080000I100000J0D01*
G01*
G37*
G04 #@! TD.AperFunction*
G04 #@! TA.AperFunction,SMDPad,CuDef*
G36*
G01*
X69390000Y-76440000D02*
X69590000Y-76440000D01*
G75*
G02*
X69690000Y-76540000I0J-100000D01*
G01*
X69690000Y-76800000D01*
G75*
G02*
X69590000Y-76900000I-100000J0D01*
G01*
X69390000Y-76900000D01*
G75*
G02*
X69290000Y-76800000I0J100000D01*
G01*
X69290000Y-76540000D01*
G75*
G02*
X69390000Y-76440000I100000J0D01*
G01*
G37*
G04 #@! TD.AperFunction*
G04 #@! TA.AperFunction,SMDPad,CuDef*
G36*
G01*
X70160000Y-83720000D02*
X70160000Y-83520000D01*
G75*
G02*
X70260000Y-83420000I100000J0D01*
G01*
X70520000Y-83420000D01*
G75*
G02*
X70620000Y-83520000I0J-100000D01*
G01*
X70620000Y-83720000D01*
G75*
G02*
X70520000Y-83820000I-100000J0D01*
G01*
X70260000Y-83820000D01*
G75*
G02*
X70160000Y-83720000I0J100000D01*
G01*
G37*
G04 #@! TD.AperFunction*
G04 #@! TA.AperFunction,SMDPad,CuDef*
G36*
G01*
X70800000Y-83720000D02*
X70800000Y-83520000D01*
G75*
G02*
X70900000Y-83420000I100000J0D01*
G01*
X71160000Y-83420000D01*
G75*
G02*
X71260000Y-83520000I0J-100000D01*
G01*
X71260000Y-83720000D01*
G75*
G02*
X71160000Y-83820000I-100000J0D01*
G01*
X70900000Y-83820000D01*
G75*
G02*
X70800000Y-83720000I0J100000D01*
G01*
G37*
G04 #@! TD.AperFunction*
G04 #@! TA.AperFunction,SMDPad,CuDef*
G36*
G01*
X68417500Y-76430000D02*
X68762500Y-76430000D01*
G75*
G02*
X68910000Y-76577500I0J-147500D01*
G01*
X68910000Y-76872500D01*
G75*
G02*
X68762500Y-77020000I-147500J0D01*
G01*
X68417500Y-77020000D01*
G75*
G02*
X68270000Y-76872500I0J147500D01*
G01*
X68270000Y-76577500D01*
G75*
G02*
X68417500Y-76430000I147500J0D01*
G01*
G37*
G04 #@! TD.AperFunction*
G04 #@! TA.AperFunction,SMDPad,CuDef*
G36*
G01*
X68417500Y-77400000D02*
X68762500Y-77400000D01*
G75*
G02*
X68910000Y-77547500I0J-147500D01*
G01*
X68910000Y-77842500D01*
G75*
G02*
X68762500Y-77990000I-147500J0D01*
G01*
X68417500Y-77990000D01*
G75*
G02*
X68270000Y-77842500I0J147500D01*
G01*
X68270000Y-77547500D01*
G75*
G02*
X68417500Y-77400000I147500J0D01*
G01*
G37*
G04 #@! TD.AperFunction*
G04 #@! TA.AperFunction,SMDPad,CuDef*
G36*
G01*
X69276250Y-83617500D02*
X68363750Y-83617500D01*
G75*
G02*
X68120000Y-83373750I0J243750D01*
G01*
X68120000Y-82886250D01*
G75*
G02*
X68363750Y-82642500I243750J0D01*
G01*
X69276250Y-82642500D01*
G75*
G02*
X69520000Y-82886250I0J-243750D01*
G01*
X69520000Y-83373750D01*
G75*
G02*
X69276250Y-83617500I-243750J0D01*
G01*
G37*
G04 #@! TD.AperFunction*
G04 #@! TA.AperFunction,SMDPad,CuDef*
G36*
G01*
X69276250Y-85492500D02*
X68363750Y-85492500D01*
G75*
G02*
X68120000Y-85248750I0J243750D01*
G01*
X68120000Y-84761250D01*
G75*
G02*
X68363750Y-84517500I243750J0D01*
G01*
X69276250Y-84517500D01*
G75*
G02*
X69520000Y-84761250I0J-243750D01*
G01*
X69520000Y-85248750D01*
G75*
G02*
X69276250Y-85492500I-243750J0D01*
G01*
G37*
G04 #@! TD.AperFunction*
G04 #@! TA.AperFunction,SMDPad,CuDef*
G36*
G01*
X68633750Y-70842500D02*
X69546250Y-70842500D01*
G75*
G02*
X69790000Y-71086250I0J-243750D01*
G01*
X69790000Y-71573750D01*
G75*
G02*
X69546250Y-71817500I-243750J0D01*
G01*
X68633750Y-71817500D01*
G75*
G02*
X68390000Y-71573750I0J243750D01*
G01*
X68390000Y-71086250D01*
G75*
G02*
X68633750Y-70842500I243750J0D01*
G01*
G37*
G04 #@! TD.AperFunction*
G04 #@! TA.AperFunction,SMDPad,CuDef*
G36*
G01*
X68633750Y-72717500D02*
X69546250Y-72717500D01*
G75*
G02*
X69790000Y-72961250I0J-243750D01*
G01*
X69790000Y-73448750D01*
G75*
G02*
X69546250Y-73692500I-243750J0D01*
G01*
X68633750Y-73692500D01*
G75*
G02*
X68390000Y-73448750I0J243750D01*
G01*
X68390000Y-72961250D01*
G75*
G02*
X68633750Y-72717500I243750J0D01*
G01*
G37*
G04 #@! TD.AperFunction*
G04 #@! TA.AperFunction,SMDPad,CuDef*
G36*
G01*
X71270000Y-71550000D02*
X71070000Y-71550000D01*
G75*
G02*
X70970000Y-71450000I0J100000D01*
G01*
X70970000Y-71190000D01*
G75*
G02*
X71070000Y-71090000I100000J0D01*
G01*
X71270000Y-71090000D01*
G75*
G02*
X71370000Y-71190000I0J-100000D01*
G01*
X71370000Y-71450000D01*
G75*
G02*
X71270000Y-71550000I-100000J0D01*
G01*
G37*
G04 #@! TD.AperFunction*
G04 #@! TA.AperFunction,SMDPad,CuDef*
G36*
G01*
X71270000Y-70910000D02*
X71070000Y-70910000D01*
G75*
G02*
X70970000Y-70810000I0J100000D01*
G01*
X70970000Y-70550000D01*
G75*
G02*
X71070000Y-70450000I100000J0D01*
G01*
X71270000Y-70450000D01*
G75*
G02*
X71370000Y-70550000I0J-100000D01*
G01*
X71370000Y-70810000D01*
G75*
G02*
X71270000Y-70910000I-100000J0D01*
G01*
G37*
G04 #@! TD.AperFunction*
G04 #@! TA.AperFunction,SMDPad,CuDef*
G36*
G01*
X70490000Y-70910000D02*
X70290000Y-70910000D01*
G75*
G02*
X70190000Y-70810000I0J100000D01*
G01*
X70190000Y-70550000D01*
G75*
G02*
X70290000Y-70450000I100000J0D01*
G01*
X70490000Y-70450000D01*
G75*
G02*
X70590000Y-70550000I0J-100000D01*
G01*
X70590000Y-70810000D01*
G75*
G02*
X70490000Y-70910000I-100000J0D01*
G01*
G37*
G04 #@! TD.AperFunction*
G04 #@! TA.AperFunction,SMDPad,CuDef*
G36*
G01*
X70490000Y-71550000D02*
X70290000Y-71550000D01*
G75*
G02*
X70190000Y-71450000I0J100000D01*
G01*
X70190000Y-71190000D01*
G75*
G02*
X70290000Y-71090000I100000J0D01*
G01*
X70490000Y-71090000D01*
G75*
G02*
X70590000Y-71190000I0J-100000D01*
G01*
X70590000Y-71450000D01*
G75*
G02*
X70490000Y-71550000I-100000J0D01*
G01*
G37*
G04 #@! TD.AperFunction*
D21*
X53639200Y-79895300D03*
X53639200Y-78295300D03*
X53639200Y-76695300D03*
X53639200Y-75095300D03*
X53639200Y-73495300D03*
X55639200Y-79895300D03*
X55639200Y-78295300D03*
X55639200Y-76695300D03*
X55639200Y-75095300D03*
X55639200Y-73495300D03*
X57639200Y-79895300D03*
X57639200Y-78295300D03*
X57639200Y-76695300D03*
X57639200Y-75095300D03*
X57639200Y-73495300D03*
X59639200Y-79895300D03*
X59639200Y-78295300D03*
X59639200Y-76695300D03*
X59639200Y-75095300D03*
X59639200Y-73495300D03*
X61639200Y-79895300D03*
X61639200Y-78295300D03*
X61639200Y-76695300D03*
X61639200Y-75095300D03*
X61639200Y-73495300D03*
X63639200Y-79895300D03*
X63639200Y-78295300D03*
X63639200Y-76695300D03*
X63639200Y-75095300D03*
X63639200Y-73495300D03*
X65639200Y-79895300D03*
X65639200Y-78295300D03*
X65639200Y-76695300D03*
X65639200Y-75095300D03*
D22*
X65389200Y-81045300D03*
X64889200Y-81045300D03*
X64389200Y-81045300D03*
X63889200Y-81045300D03*
X61389200Y-81045300D03*
X60889200Y-81045300D03*
X60389200Y-81045300D03*
X59889200Y-81045300D03*
X56389200Y-81045300D03*
X55889200Y-81045300D03*
X55389200Y-81045300D03*
X54889200Y-81045300D03*
X54889200Y-72345300D03*
X55389200Y-72345300D03*
X55889200Y-72345300D03*
X56389200Y-72345300D03*
X59889200Y-72345300D03*
X60389200Y-72345300D03*
X60889200Y-72345300D03*
X61389200Y-72345300D03*
X63889200Y-72345300D03*
X64389200Y-72345300D03*
X64889200Y-72345300D03*
X65389200Y-72345300D03*
D21*
X65639200Y-73495300D03*
D23*
X66889200Y-81815300D03*
X66389200Y-81815300D03*
X65889200Y-81815300D03*
X65389200Y-81815300D03*
X64889200Y-81815300D03*
X64389200Y-81815300D03*
X63889200Y-81815300D03*
X63389200Y-81815300D03*
X62889200Y-81815300D03*
X62389200Y-81815300D03*
X61889200Y-81815300D03*
X61389200Y-81815300D03*
X60889200Y-81815300D03*
X60389200Y-81815300D03*
X59889200Y-81815300D03*
X59389200Y-81815300D03*
X58889200Y-81815300D03*
X58389200Y-81815300D03*
X57889200Y-81815300D03*
X57389200Y-81815300D03*
X56889200Y-81815300D03*
X56389200Y-81815300D03*
X55889200Y-81815300D03*
X55389200Y-81815300D03*
X54889200Y-81815300D03*
X54389200Y-81815300D03*
X53889200Y-81815300D03*
X53389200Y-81815300D03*
X52889200Y-81815300D03*
X52389200Y-81815300D03*
D24*
X51769200Y-81815300D03*
D25*
X51769200Y-81195300D03*
X51769200Y-80695300D03*
X51769200Y-80195300D03*
X51769200Y-79695300D03*
X51769200Y-79195300D03*
X51769200Y-78695300D03*
X51769200Y-78195300D03*
X51769200Y-77695300D03*
X51769200Y-77195300D03*
X51769200Y-76695300D03*
X51769200Y-76195300D03*
X51769200Y-75695300D03*
X51769200Y-75195300D03*
X51769200Y-74695300D03*
X51769200Y-74195300D03*
X51769200Y-73695300D03*
X51769200Y-73195300D03*
X51769200Y-72695300D03*
X51769200Y-72195300D03*
D24*
X51769200Y-71575300D03*
D23*
X52389200Y-71575300D03*
X52889200Y-71575300D03*
X53389200Y-71575300D03*
X53889200Y-71575300D03*
X54389200Y-71575300D03*
X54889200Y-71575300D03*
X55389200Y-71575300D03*
X55889200Y-71575300D03*
X56389200Y-71575300D03*
X56889200Y-71575300D03*
X57389200Y-71575300D03*
X57889200Y-71575300D03*
X58389200Y-71575300D03*
X58889200Y-71575300D03*
X59389200Y-71575300D03*
X59889200Y-71575300D03*
X60389200Y-71575300D03*
X60889200Y-71575300D03*
X61389200Y-71575300D03*
X61889200Y-71575300D03*
X62389200Y-71575300D03*
X62889200Y-71575300D03*
X63389200Y-71575300D03*
X63889200Y-71575300D03*
X64389200Y-71575300D03*
X64889200Y-71575300D03*
X65389200Y-71575300D03*
X65889200Y-71575300D03*
X66389200Y-71575300D03*
X66889200Y-71575300D03*
D24*
X67509200Y-71575300D03*
D25*
X67509200Y-72195300D03*
X67509200Y-72695300D03*
X67509200Y-73195300D03*
X67509200Y-73695300D03*
X67509200Y-74195300D03*
X67509200Y-74695300D03*
X67509200Y-75195300D03*
X67509200Y-75695300D03*
X67509200Y-76195300D03*
X67509200Y-76695300D03*
X67509200Y-77195300D03*
X67509200Y-77695300D03*
X67509200Y-78195300D03*
X67509200Y-78695300D03*
X67509200Y-79195300D03*
X67509200Y-79695300D03*
X67509200Y-80195300D03*
X67509200Y-80695300D03*
X67509200Y-81195300D03*
D24*
X67509200Y-81815300D03*
D26*
X49185000Y-73220000D03*
D27*
X47660000Y-71745000D03*
X47660000Y-74695000D03*
D28*
X50610000Y-72380000D03*
X50610000Y-73244000D03*
X50540000Y-81832000D03*
X50540000Y-80968000D03*
D29*
X51070000Y-83150000D03*
X51070000Y-84450000D03*
X51070000Y-83800000D03*
X53030000Y-84450000D03*
X53030000Y-83150000D03*
X53030000Y-83800000D03*
D28*
X63590000Y-84632000D03*
X63590000Y-83768000D03*
D30*
X87685000Y-68800000D03*
X91035000Y-68800000D03*
X87685000Y-70900000D03*
X91035000Y-70900000D03*
D31*
X64780000Y-83720000D03*
X64780000Y-84640000D03*
D32*
X84180000Y-69259000D03*
X84180000Y-70529000D03*
X82910000Y-69259000D03*
X82910000Y-70529000D03*
X81640000Y-69259000D03*
X81640000Y-70529000D03*
D28*
X50550000Y-79090000D03*
X50550000Y-79950000D03*
D33*
X50750000Y-76240000D03*
X49890000Y-76240000D03*
D28*
X50630000Y-74310000D03*
X50630000Y-75170000D03*
X49730000Y-82870000D03*
X49730000Y-83730000D03*
D27*
X47610000Y-81445000D03*
X47610000Y-78495000D03*
D26*
X49135000Y-79970000D03*
D34*
X62281781Y-70566240D03*
X53889194Y-70619194D03*
X61334360Y-69758350D03*
X56430000Y-69590010D03*
X54620000Y-70020000D03*
X61775148Y-70194852D03*
D35*
X51769200Y-75695300D03*
D34*
X56200000Y-83170000D03*
X58350000Y-83140000D03*
X87664000Y-72540000D03*
X89614000Y-72740000D03*
X68820000Y-83130000D03*
D35*
X58389200Y-81815300D03*
X67509200Y-79695300D03*
X67509200Y-77695300D03*
X67509200Y-75195300D03*
X67509200Y-73695300D03*
X67509200Y-71575300D03*
X64389200Y-71575300D03*
X62400000Y-71575300D03*
X59889200Y-71575300D03*
X57389200Y-71575300D03*
X55889200Y-71575300D03*
X54389200Y-71575300D03*
X52889200Y-71575300D03*
X51769200Y-71575300D03*
X51769200Y-73695300D03*
X51769200Y-76695300D03*
X51769200Y-77195300D03*
X51769200Y-78195300D03*
X51769200Y-78695300D03*
X51769200Y-81815300D03*
X52889200Y-81815300D03*
X53389200Y-81815300D03*
X53889200Y-81815300D03*
X54389200Y-81815300D03*
X54889200Y-81815300D03*
X55389200Y-81815300D03*
X55890000Y-81815300D03*
X56389200Y-81815300D03*
X56889200Y-81815300D03*
X60889200Y-81815300D03*
X62889200Y-81815300D03*
X64889200Y-81815300D03*
X67509200Y-81815300D03*
D34*
X66401200Y-73495300D03*
X66401200Y-75095300D03*
X66401200Y-76695300D03*
X66401200Y-78295300D03*
X66401200Y-79895300D03*
X64639200Y-73495300D03*
X64639200Y-75095300D03*
X64639200Y-79895300D03*
X64639200Y-78295300D03*
X64639200Y-76695300D03*
X62639200Y-73495300D03*
X62639200Y-75095300D03*
X62639200Y-79895300D03*
X62639200Y-78295300D03*
X62639200Y-76695300D03*
X60639200Y-73495300D03*
X60639200Y-75095300D03*
X60639200Y-79895300D03*
X60639200Y-78295300D03*
X60639200Y-76695300D03*
X58639200Y-73495300D03*
X58639200Y-75095300D03*
X58639200Y-79895300D03*
X58639200Y-78295300D03*
X58639200Y-76695300D03*
X56639200Y-73495300D03*
X56639200Y-75095300D03*
X56639200Y-79895300D03*
X56639200Y-78295300D03*
X56639200Y-76695300D03*
X54639200Y-73495300D03*
X54639200Y-75095300D03*
X54639200Y-79895300D03*
X54639200Y-78295300D03*
X54639200Y-76695300D03*
X52877200Y-73495300D03*
X52877200Y-75095300D03*
X52877200Y-79895300D03*
X52877200Y-78295300D03*
X52877200Y-76695300D03*
D35*
X61639200Y-76695300D03*
X61639200Y-75095300D03*
X61639200Y-79895300D03*
X61639200Y-73495300D03*
X61639200Y-78295300D03*
X63639200Y-76695300D03*
X63639200Y-78295300D03*
X63639200Y-75095300D03*
X63639200Y-73495300D03*
X63639200Y-79895300D03*
X65639200Y-79895300D03*
X65639200Y-76695300D03*
X65639200Y-78295300D03*
X65639200Y-75095300D03*
X65639200Y-73495300D03*
X59639200Y-76695300D03*
X59639200Y-78295300D03*
X59639200Y-75095300D03*
X59639200Y-73495300D03*
X59639200Y-79895300D03*
X57639200Y-79895300D03*
X57639200Y-73495300D03*
X57639200Y-75095300D03*
X57639200Y-78295300D03*
X57639200Y-76695300D03*
X55639200Y-79895300D03*
X55639200Y-73495300D03*
X55639200Y-75095300D03*
X55639200Y-78295300D03*
X55639200Y-76695300D03*
X53639200Y-79895300D03*
X53639200Y-78295300D03*
X53639200Y-76695300D03*
X53639200Y-75095300D03*
X53639200Y-73495300D03*
D34*
X68534700Y-81815300D03*
X69370000Y-81990000D03*
X57510000Y-82960000D03*
X56940000Y-82650000D03*
X80240000Y-68060000D03*
X83680000Y-68510000D03*
D35*
X53210000Y-85660000D03*
X51970000Y-85420000D03*
X50670000Y-85910000D03*
X73530000Y-85910000D03*
X70990000Y-85910000D03*
X72260000Y-84640000D03*
D34*
X81150000Y-84640000D03*
X78610000Y-84640000D03*
X79880000Y-83370000D03*
X77340000Y-83370000D03*
X82420000Y-83370000D03*
X81150000Y-82100000D03*
X78610000Y-82100000D03*
X76070000Y-82100000D03*
X82420000Y-80830000D03*
X79880000Y-80830000D03*
X77340000Y-80830000D03*
X74800000Y-80830000D03*
X76070000Y-79560000D03*
X78610000Y-79560000D03*
X81150000Y-79560000D03*
X82420000Y-78290000D03*
X79880000Y-78290000D03*
X77340000Y-78290000D03*
X74800000Y-78290000D03*
X72260000Y-78290000D03*
X73530000Y-79560000D03*
X73530000Y-77020000D03*
X76070000Y-77020000D03*
X78610000Y-77020000D03*
X81150000Y-77020000D03*
X82420000Y-75750000D03*
X79880000Y-75750000D03*
X77340000Y-75750000D03*
X74800000Y-75750000D03*
X72260000Y-75750000D03*
X73530000Y-74480000D03*
X76070000Y-74480000D03*
X74800000Y-73210000D03*
X72260000Y-73210000D03*
X73530000Y-70670000D03*
X84960000Y-75750000D03*
X87500000Y-75750000D03*
X90040000Y-75750000D03*
X92580000Y-75750000D03*
X95120000Y-75750000D03*
X93850000Y-77020000D03*
X92580000Y-78290000D03*
X95120000Y-78290000D03*
X92580000Y-80830000D03*
X95120000Y-80830000D03*
X88770000Y-77020000D03*
X86230000Y-77020000D03*
X84960000Y-78290000D03*
X87500000Y-78290000D03*
X90040000Y-78290000D03*
X88770000Y-79560000D03*
X86230000Y-79560000D03*
X84960000Y-80830000D03*
X87500000Y-80830000D03*
X83690000Y-84640000D03*
X82420000Y-85910000D03*
X86230000Y-84640000D03*
X88770000Y-84640000D03*
X91310000Y-84640000D03*
X90040000Y-85910000D03*
X87500000Y-85910000D03*
X88770000Y-87180000D03*
X91310000Y-87180000D03*
X86230000Y-87180000D03*
X83690000Y-87180000D03*
X84960000Y-85910000D03*
X95120000Y-70670000D03*
X92580000Y-70670000D03*
X89450000Y-69060000D03*
X91100000Y-70220000D03*
X49400000Y-87180000D03*
X48670000Y-82700000D03*
X46150000Y-82630000D03*
X46230000Y-77370000D03*
X48130000Y-77350000D03*
X48130000Y-75750000D03*
X46310000Y-75770000D03*
X51290000Y-70100000D03*
X54480000Y-68130000D03*
X51240000Y-68640000D03*
X49300000Y-70020000D03*
X48250000Y-69400000D03*
X46330000Y-69400000D03*
X50035000Y-69400000D03*
X50035000Y-70670000D03*
X53290000Y-87460000D03*
X55920000Y-87450000D03*
X58490000Y-87450000D03*
X60950000Y-87400000D03*
X63470000Y-87480000D03*
X66140000Y-87410000D03*
X68650000Y-87460000D03*
X71180000Y-87440000D03*
X73750000Y-87410000D03*
X76190000Y-87440000D03*
X78660000Y-87390000D03*
X49780000Y-65910000D03*
X53410000Y-65840000D03*
X55840000Y-65780000D03*
X58470000Y-65900000D03*
X61020000Y-65840000D03*
X63470000Y-65840000D03*
X66070000Y-65850000D03*
X68690000Y-65780000D03*
X71110000Y-65760000D03*
X73720000Y-65790000D03*
X76200000Y-65810000D03*
X78710000Y-65780000D03*
X81300000Y-65840000D03*
X83810000Y-65840000D03*
X91970000Y-66020000D03*
X50450000Y-78310000D03*
X50490000Y-77290000D03*
X48990000Y-76550000D03*
X47400000Y-83390000D03*
X46220000Y-84240000D03*
X47180000Y-76560000D03*
X46320000Y-70650000D03*
X48250000Y-70640000D03*
X47230000Y-70000000D03*
X52590000Y-69420000D03*
X50420000Y-67350000D03*
X48250000Y-65720000D03*
X52750000Y-68040000D03*
X60890000Y-69310000D03*
X53188233Y-70661924D03*
X55950000Y-83740000D03*
X60962384Y-83679509D03*
X88740000Y-70350000D03*
X62890000Y-70820000D03*
X63345364Y-70619615D03*
X64040000Y-70630000D03*
X64658561Y-70638560D03*
X65389998Y-70620010D03*
X66090002Y-70620010D03*
X66834693Y-70559841D03*
X62760000Y-84300000D03*
X71110000Y-71990000D03*
X70470000Y-71990000D03*
X70249990Y-76679990D03*
X70320000Y-82420000D03*
X70150000Y-82970000D03*
X54030000Y-84130000D03*
X80540000Y-71610000D03*
X81250000Y-71450000D03*
D36*
X53889200Y-70619200D02*
X53889194Y-70619194D01*
X53889200Y-71575300D02*
X53889200Y-70619200D01*
X62788181Y-70059840D02*
X62531780Y-70316241D01*
X62531780Y-70316241D02*
X62281781Y-70566240D01*
X73619840Y-70059840D02*
X73499840Y-70059840D01*
X73499840Y-70059840D02*
X62788181Y-70059840D01*
X89860000Y-82294000D02*
X89614000Y-82540000D01*
X89860000Y-81610000D02*
X89860000Y-82294000D01*
X74809840Y-70059840D02*
X79220000Y-74470000D01*
X90590000Y-80880000D02*
X89860000Y-81610000D01*
X79220000Y-74470000D02*
X89830000Y-74470000D01*
X73499840Y-70059840D02*
X74809840Y-70059840D01*
X90590000Y-75230000D02*
X90590000Y-80880000D01*
X89830000Y-74470000D02*
X90590000Y-75230000D01*
X90814000Y-72740000D02*
X90814000Y-72756000D01*
X56389200Y-69630810D02*
X56430000Y-69590010D01*
X56389200Y-71575300D02*
X56389200Y-69630810D01*
X61584359Y-69508351D02*
X61334360Y-69758350D01*
X90814000Y-72890002D02*
X90094002Y-73610000D01*
X90814000Y-72740000D02*
X90814000Y-72890002D01*
X90094002Y-73610000D02*
X80000000Y-73610000D01*
X61832892Y-69259818D02*
X61584359Y-69508351D01*
X80000000Y-73610000D02*
X75649818Y-69259818D01*
X75649818Y-69259818D02*
X61832892Y-69259818D01*
X92014000Y-82540000D02*
X92014000Y-82389998D01*
X54889200Y-70289200D02*
X54620000Y-70020000D01*
X54889200Y-71575300D02*
X54889200Y-70289200D01*
X62310171Y-69659829D02*
X61775148Y-70194852D01*
X79610010Y-74010010D02*
X75259829Y-69659829D01*
X90070010Y-74010010D02*
X79610010Y-74010010D01*
X91050000Y-74990000D02*
X90070010Y-74010010D01*
X91780000Y-82306000D02*
X91780000Y-81600000D01*
X92014000Y-82540000D02*
X91780000Y-82306000D01*
X75259829Y-69659829D02*
X62310171Y-69659829D01*
X91780000Y-81600000D02*
X91040000Y-80860000D01*
X91050000Y-80850000D02*
X91050000Y-74990000D01*
X91040000Y-80860000D02*
X91050000Y-80850000D01*
D37*
X66401200Y-79895300D02*
X52877200Y-79895300D01*
X52877200Y-78295300D02*
X66401200Y-78295300D01*
X66401200Y-76695300D02*
X52877200Y-76695300D01*
X52877200Y-75095300D02*
X66401200Y-75095300D01*
X66401200Y-73495300D02*
X52877200Y-73495300D01*
X65639200Y-73495300D02*
X65639200Y-79895300D01*
X63639200Y-73495300D02*
X63639200Y-79895300D01*
X61639200Y-73495300D02*
X61639200Y-79895300D01*
X59639200Y-73495300D02*
X59639200Y-79895300D01*
X57639200Y-73495300D02*
X57639200Y-79895300D01*
X55639200Y-73495300D02*
X55639200Y-79895300D01*
X53639200Y-73495300D02*
X53639200Y-79895300D01*
D36*
X52889200Y-81815300D02*
X52889200Y-82490800D01*
X53389200Y-81815300D02*
X53389200Y-82440800D01*
X53889200Y-81815300D02*
X53889200Y-82369200D01*
X54389200Y-81815300D02*
X54389200Y-82390800D01*
X54889200Y-81815300D02*
X54889200Y-82360800D01*
X55389200Y-81815300D02*
X55389200Y-82420800D01*
X55889200Y-81815300D02*
X55889200Y-82420800D01*
X56389200Y-81815300D02*
X56389200Y-82449200D01*
X56889200Y-81815300D02*
X56889200Y-82450800D01*
X51769200Y-78695300D02*
X51395300Y-78695300D01*
X51395300Y-78695300D02*
X50960000Y-78260000D01*
X51024700Y-78195300D02*
X50960000Y-78260000D01*
X51769200Y-78195300D02*
X51024700Y-78195300D01*
X51769200Y-77195300D02*
X51155300Y-77195300D01*
X51769200Y-76695300D02*
X51414700Y-76695300D01*
X51414700Y-76695300D02*
X50920000Y-77190000D01*
D38*
X51769200Y-71575300D02*
X51695300Y-71575300D01*
X51695300Y-71575300D02*
X51260000Y-71140000D01*
D36*
X55889200Y-71575300D02*
X55889200Y-70550800D01*
X67509200Y-73695300D02*
X68294700Y-73695300D01*
X67879202Y-75195300D02*
X68370000Y-74704502D01*
X67509200Y-75195300D02*
X67879202Y-75195300D01*
X68589700Y-77695300D02*
X68590000Y-77695000D01*
X67509200Y-77695300D02*
X68589700Y-77695300D01*
X69490000Y-77310000D02*
X69490000Y-77660000D01*
D37*
X67509200Y-81815300D02*
X68534700Y-81815300D01*
X67509200Y-81819200D02*
X68820000Y-83130000D01*
X67509200Y-81815300D02*
X67509200Y-81819200D01*
X51769200Y-82070800D02*
X51769200Y-81815300D01*
X51769200Y-81815300D02*
X51769200Y-82380800D01*
X51769200Y-71575300D02*
X51769200Y-70690800D01*
X51769200Y-71575300D02*
X50855300Y-71575300D01*
X56854699Y-82485301D02*
X56889200Y-82450800D01*
X51873701Y-82485301D02*
X56604699Y-82485301D01*
X51769200Y-82380800D02*
X51873701Y-82485301D01*
X56854699Y-82485301D02*
X56875301Y-82485301D01*
X56875301Y-82485301D02*
X57340000Y-82950000D01*
X68534700Y-81815300D02*
X69385300Y-81815300D01*
X69385300Y-81815300D02*
X69385300Y-81815300D01*
X57340000Y-82950000D02*
X57840000Y-83450000D01*
X56604699Y-82485301D02*
X56854699Y-82485301D01*
D36*
X92014000Y-72740000D02*
X92014000Y-72740000D01*
X53389200Y-71575300D02*
X53389200Y-70862891D01*
X53389200Y-70862891D02*
X53188233Y-70661924D01*
X92014000Y-72740000D02*
X92014000Y-72840000D01*
X61139999Y-69060001D02*
X60890000Y-69310000D01*
X61420000Y-68780000D02*
X61139999Y-69060001D01*
X80250000Y-72850000D02*
X76180000Y-68780000D01*
X92014000Y-71940000D02*
X91863999Y-71789999D01*
X76180000Y-68780000D02*
X61420000Y-68780000D01*
X92014000Y-72740000D02*
X92014000Y-71940000D01*
X86335701Y-71789999D02*
X85275700Y-72850000D01*
X91863999Y-71789999D02*
X86335701Y-71789999D01*
X85275700Y-72850000D02*
X80250000Y-72850000D01*
X54790000Y-83150000D02*
X54990000Y-83350000D01*
X53030000Y-83150000D02*
X54790000Y-83150000D01*
X55560000Y-83350000D02*
X55950000Y-83740000D01*
X54990000Y-83350000D02*
X55560000Y-83350000D01*
X60962384Y-83654762D02*
X60962384Y-83679509D01*
X62389200Y-81815300D02*
X62389200Y-82227946D01*
X62389200Y-82227946D02*
X60962384Y-83654762D01*
X50655300Y-79195300D02*
X50550000Y-79090000D01*
X51769200Y-79195300D02*
X50655300Y-79195300D01*
X50750000Y-75290000D02*
X50630000Y-75170000D01*
X50750000Y-76240000D02*
X50750000Y-75290000D01*
X50794700Y-76195300D02*
X50750000Y-76240000D01*
X51769200Y-76195300D02*
X50794700Y-76195300D01*
X87685000Y-70900000D02*
X91035000Y-70900000D01*
X61889200Y-71199200D02*
X61889200Y-71575300D01*
X60389998Y-68917534D02*
X60389998Y-69699998D01*
X60947532Y-68360000D02*
X60389998Y-68917534D01*
X87685000Y-70900000D02*
X86660000Y-70900000D01*
X60389998Y-69699998D02*
X61889200Y-71199200D01*
X85240000Y-72320000D02*
X80459996Y-72320000D01*
X80459996Y-72320000D02*
X76499996Y-68360000D01*
X86660000Y-70900000D02*
X85240000Y-72320000D01*
X76499996Y-68360000D02*
X60947532Y-68360000D01*
X87685000Y-70900000D02*
X88190000Y-70900000D01*
X88190000Y-70900000D02*
X88740000Y-70350000D01*
X51070000Y-83150000D02*
X51070000Y-82880000D01*
X50540000Y-82350000D02*
X50540000Y-81832000D01*
X51070000Y-82880000D02*
X50540000Y-82350000D01*
X50010000Y-83150000D02*
X51070000Y-83150000D01*
X49730000Y-82870000D02*
X50010000Y-83150000D01*
D39*
X61389200Y-71279200D02*
X61389200Y-71575300D01*
X81019499Y-69474197D02*
X80716801Y-69171499D01*
X81342159Y-69879501D02*
X81019499Y-69556841D01*
X78539354Y-67940000D02*
X60834358Y-67940000D01*
X59940000Y-69830000D02*
X61389200Y-71279200D01*
X81019499Y-69556841D02*
X81019499Y-69474197D01*
X82289499Y-69879501D02*
X81342159Y-69879501D01*
X79770853Y-69171499D02*
X78539354Y-67940000D01*
X59940000Y-68834358D02*
X59940000Y-69830000D01*
X82910000Y-69259000D02*
X82289499Y-69879501D01*
X80716801Y-69171499D02*
X79770853Y-69171499D01*
X60834358Y-67940000D02*
X59940000Y-68834358D01*
X81304949Y-69259000D02*
X81640000Y-69259000D01*
X80863437Y-68817488D02*
X81304949Y-69259000D01*
X78685990Y-67585989D02*
X79917488Y-68817488D01*
X60687722Y-67585989D02*
X78685990Y-67585989D01*
X59585989Y-68687722D02*
X60687722Y-67585989D01*
X79917488Y-68817488D02*
X80863437Y-68817488D01*
X60889200Y-71279846D02*
X59585989Y-69976636D01*
X60889200Y-71575300D02*
X60889200Y-71279846D01*
X59585989Y-69976636D02*
X59585989Y-68687722D01*
X64810000Y-82780000D02*
X64810000Y-83680000D01*
X65389200Y-81815300D02*
X65389200Y-82200800D01*
X65389200Y-82200800D02*
X64810000Y-82780000D01*
D36*
X66000000Y-83680000D02*
X64810000Y-83680000D01*
X69860000Y-86750000D02*
X69070000Y-86750000D01*
X69070000Y-86750000D02*
X66000000Y-83680000D01*
D40*
X63592000Y-84600000D02*
X63590000Y-84602000D01*
X64772000Y-84632000D02*
X64780000Y-84640000D01*
X63590000Y-84632000D02*
X64772000Y-84632000D01*
D36*
X56990000Y-68800000D02*
X54620000Y-66430000D01*
X57889200Y-71575300D02*
X57889200Y-71019200D01*
X56990000Y-70120000D02*
X56990000Y-68800000D01*
X57889200Y-71019200D02*
X56990000Y-70120000D01*
X58389200Y-70953500D02*
X58389200Y-71575300D01*
X57730000Y-70294300D02*
X58389200Y-70953500D01*
X57730000Y-68420000D02*
X57730000Y-70294300D01*
X57160000Y-66430000D02*
X57160000Y-67850000D01*
X57160000Y-67850000D02*
X57730000Y-68420000D01*
X58889235Y-70839235D02*
X58889235Y-71575265D01*
X58889235Y-71575265D02*
X58889200Y-71575300D01*
X59700000Y-66430000D02*
X58320000Y-67810000D01*
X58320000Y-70270000D02*
X58889235Y-70839235D01*
X58320000Y-67810000D02*
X58320000Y-70270000D01*
X58850000Y-68830737D02*
X61250737Y-66430000D01*
X61250737Y-66430000D02*
X62240000Y-66430000D01*
X58850000Y-70230000D02*
X58850000Y-68830737D01*
X59389200Y-71575300D02*
X59389200Y-70769200D01*
X59389200Y-70769200D02*
X58850000Y-70230000D01*
D41*
X62889200Y-70820800D02*
X62890000Y-70820000D01*
X62889200Y-71575300D02*
X62889200Y-70820800D01*
D36*
X63389200Y-71575300D02*
X63389200Y-70663451D01*
X63389200Y-70663451D02*
X63345364Y-70619615D01*
X63889200Y-70780800D02*
X64040000Y-70630000D01*
X63889200Y-71575300D02*
X63889200Y-70780800D01*
X64889200Y-71575300D02*
X64889200Y-70869199D01*
X64889200Y-70869199D02*
X64658561Y-70638560D01*
X65389200Y-71575300D02*
X65389200Y-70620808D01*
X65389200Y-70620808D02*
X65389998Y-70620010D01*
X65889200Y-71575300D02*
X65889200Y-71005300D01*
X65889200Y-71005300D02*
X66090002Y-70804498D01*
X66090002Y-70804498D02*
X66090002Y-70620010D01*
X66834693Y-70649005D02*
X66834693Y-70559841D01*
X66389200Y-71575300D02*
X66389200Y-71094498D01*
X66389200Y-71094498D02*
X66834693Y-70649005D01*
D41*
X54138201Y-85711799D02*
X53100000Y-86750000D01*
X56092673Y-85711799D02*
X54138201Y-85711799D01*
X56492684Y-85311788D02*
X56092673Y-85711799D01*
X58468212Y-85311788D02*
X56492684Y-85311788D01*
X59080000Y-83150000D02*
X59080000Y-84700000D01*
X58439999Y-82509999D02*
X59080000Y-83150000D01*
X57389200Y-81815300D02*
X57430000Y-81856100D01*
X57430000Y-81856100D02*
X57430000Y-82280000D01*
X57430000Y-82280000D02*
X57659999Y-82509999D01*
X59080000Y-84700000D02*
X58468212Y-85311788D01*
X53100000Y-86750000D02*
X52080000Y-86750000D01*
X57659999Y-82509999D02*
X58439999Y-82509999D01*
D36*
X58613191Y-85661799D02*
X59430011Y-84844979D01*
X59430011Y-84844979D02*
X59430011Y-83005021D01*
X58889200Y-82464210D02*
X58889200Y-81815300D01*
X54620000Y-86750000D02*
X55549462Y-86750000D01*
X59430011Y-83005021D02*
X58889200Y-82464210D01*
X56637663Y-85661799D02*
X58613191Y-85661799D01*
X55549462Y-86750000D02*
X56637663Y-85661799D01*
X58090690Y-86750000D02*
X59830022Y-85010668D01*
X57160000Y-86750000D02*
X58090690Y-86750000D01*
X59830022Y-82839332D02*
X59389200Y-82398510D01*
X59389200Y-82398510D02*
X59389200Y-81815300D01*
X59830022Y-85010668D02*
X59830022Y-82839332D01*
X59700000Y-86750000D02*
X60459957Y-85990043D01*
X60459957Y-85990043D02*
X60459957Y-82903567D01*
X59889200Y-82332810D02*
X59889200Y-81815300D01*
X60459957Y-82903567D02*
X59889200Y-82332810D01*
X61459977Y-83728621D02*
X62740630Y-82447968D01*
X62740630Y-82447968D02*
X63126534Y-82447968D01*
X62240000Y-86750000D02*
X61459977Y-85969977D01*
X63389200Y-82185302D02*
X63389200Y-81815300D01*
X63126534Y-82447968D02*
X63389200Y-82185302D01*
X61459977Y-85969977D02*
X61459977Y-83728621D01*
X63889200Y-81815300D02*
X63889200Y-82251002D01*
X61859988Y-83894310D02*
X61859988Y-84705690D01*
X61859988Y-84705690D02*
X63904298Y-86750000D01*
X62906319Y-82847979D02*
X61859988Y-83894310D01*
X63904298Y-86750000D02*
X64780000Y-86750000D01*
X63292223Y-82847979D02*
X62906319Y-82847979D01*
X63889200Y-82251002D02*
X63292223Y-82847979D01*
X65759989Y-85189989D02*
X67320000Y-86750000D01*
X62259999Y-84540001D02*
X62909987Y-85189989D01*
X62909987Y-85189989D02*
X65759989Y-85189989D01*
X63072008Y-83247990D02*
X62259999Y-84059999D01*
X63526510Y-83247990D02*
X63072008Y-83247990D01*
X64389200Y-82385300D02*
X63526510Y-83247990D01*
X64389200Y-81815300D02*
X64389200Y-82385300D01*
X62259999Y-84059999D02*
X62259999Y-84540001D01*
X80020000Y-86280000D02*
X80020000Y-86750000D01*
X79250000Y-85510000D02*
X80020000Y-86280000D01*
X76380000Y-85510000D02*
X79250000Y-85510000D01*
X67509200Y-80195300D02*
X71065300Y-80195300D01*
X71065300Y-80195300D02*
X76380000Y-85510000D01*
X76700000Y-85970000D02*
X77480000Y-86750000D01*
X75900000Y-85970000D02*
X76700000Y-85970000D01*
X67509200Y-80695300D02*
X70625300Y-80695300D01*
X70625300Y-80695300D02*
X75900000Y-85970000D01*
X74940000Y-86180000D02*
X74940000Y-86750000D01*
X67509200Y-81195300D02*
X69955300Y-81195300D01*
X69955300Y-81195300D02*
X74940000Y-86180000D01*
D39*
X49209000Y-73244000D02*
X49185000Y-73220000D01*
D36*
X50630000Y-73264000D02*
X50610000Y-73244000D01*
X50630000Y-74310000D02*
X50630000Y-73264000D01*
X50586000Y-73220000D02*
X50610000Y-73244000D01*
X49185000Y-73220000D02*
X50586000Y-73220000D01*
X65780000Y-82745008D02*
X65780000Y-82830000D01*
X66389200Y-82135808D02*
X65780000Y-82745008D01*
X66389200Y-81815300D02*
X66389200Y-82135808D01*
X50540000Y-79960000D02*
X50550000Y-79950000D01*
X50540000Y-80968000D02*
X50540000Y-79960000D01*
X50530000Y-79970000D02*
X50550000Y-79950000D01*
X49135000Y-79970000D02*
X50530000Y-79970000D01*
X66920000Y-82830000D02*
X67325000Y-82830000D01*
X66889200Y-81815300D02*
X66889200Y-82600800D01*
X66660000Y-82830000D02*
X66889200Y-82600800D01*
X66420000Y-82830000D02*
X66660000Y-82830000D01*
X66889200Y-82600800D02*
X66889200Y-82799200D01*
X67325000Y-82830000D02*
X67330000Y-82835000D01*
X66420000Y-82830000D02*
X67325000Y-82830000D01*
X68060300Y-76195300D02*
X68590000Y-76725000D01*
X67509200Y-76195300D02*
X68060300Y-76195300D01*
D37*
X68635010Y-76679990D02*
X70249990Y-76679990D01*
X68590000Y-76725000D02*
X68635010Y-76679990D01*
X70249990Y-76679990D02*
X70249990Y-76679990D01*
X67330000Y-83805000D02*
X67620000Y-83805000D01*
X67620000Y-83805000D02*
X68820000Y-85005000D01*
X81640000Y-70529000D02*
X81621000Y-70529000D01*
X81640000Y-70529000D02*
X81611000Y-70529000D01*
D40*
X63292000Y-83768000D02*
X62792702Y-84267298D01*
X63590000Y-83768000D02*
X63292000Y-83768000D01*
D36*
X53680148Y-84450000D02*
X54060000Y-84070148D01*
X53030000Y-84450000D02*
X53680148Y-84450000D01*
X67134498Y-70960000D02*
X68667500Y-70960000D01*
X66889200Y-71205298D02*
X67134498Y-70960000D01*
X66889200Y-71575300D02*
X66889200Y-71205298D01*
X69037500Y-71330000D02*
X68667500Y-70960000D01*
X69090000Y-71330000D02*
X69037500Y-71330000D01*
D42*
X80990008Y-71559992D02*
X80600000Y-71559992D01*
X81640000Y-70529000D02*
X81640000Y-70910000D01*
X81640000Y-70910000D02*
X80990008Y-71559992D01*
D43*
X69650000Y-71890000D02*
X71380000Y-71890000D01*
D36*
X71170000Y-71930000D02*
X71110000Y-71990000D01*
X71170000Y-71320000D02*
X71170000Y-71930000D01*
X70390000Y-71910000D02*
X70470000Y-71990000D01*
X70390000Y-71320000D02*
X70390000Y-71910000D01*
D43*
X69090000Y-71330000D02*
X69650000Y-71890000D01*
D44*
X69775000Y-85005000D02*
X68820000Y-85005000D01*
X70280000Y-82580000D02*
X70280000Y-84500000D01*
X70280000Y-84500000D02*
X69775000Y-85005000D01*
D39*
X68540300Y-75695300D02*
X68555000Y-75710000D01*
X67509200Y-75695300D02*
X68540300Y-75695300D01*
D36*
G36*
X96699615Y-88179824D02*
G01*
X45605433Y-88120175D01*
X45607187Y-85320444D01*
X46650000Y-85320444D01*
X46650000Y-85639556D01*
X46712256Y-85952536D01*
X46834375Y-86247358D01*
X47011664Y-86512689D01*
X47237311Y-86738336D01*
X47502642Y-86915625D01*
X47797464Y-87037744D01*
X48110444Y-87100000D01*
X48429556Y-87100000D01*
X48742536Y-87037744D01*
X49037358Y-86915625D01*
X49302689Y-86738336D01*
X49528336Y-86512689D01*
X49705625Y-86247358D01*
X49827744Y-85952536D01*
X49890000Y-85639556D01*
X49890000Y-85320444D01*
X49827744Y-85007464D01*
X49705625Y-84712642D01*
X49528336Y-84447311D01*
X49302689Y-84221664D01*
X49037358Y-84044375D01*
X48742536Y-83922256D01*
X48429556Y-83860000D01*
X48110444Y-83860000D01*
X47797464Y-83922256D01*
X47502642Y-84044375D01*
X47237311Y-84221664D01*
X47011664Y-84447311D01*
X46834375Y-84712642D01*
X46712256Y-85007464D01*
X46650000Y-85320444D01*
X45607187Y-85320444D01*
X45610854Y-79470000D01*
X48258307Y-79470000D01*
X48258307Y-80470000D01*
X48265065Y-80538612D01*
X48285078Y-80604587D01*
X48317578Y-80665390D01*
X48361315Y-80718685D01*
X48414610Y-80762422D01*
X48475413Y-80794922D01*
X48541388Y-80814935D01*
X48610000Y-80821693D01*
X49660000Y-80821693D01*
X49728612Y-80814935D01*
X49794587Y-80794922D01*
X49855390Y-80762422D01*
X49888307Y-80735408D01*
X49888307Y-81238000D01*
X49895065Y-81306612D01*
X49915078Y-81372587D01*
X49929731Y-81400000D01*
X49915078Y-81427413D01*
X49895065Y-81493388D01*
X49888307Y-81562000D01*
X49888307Y-82102000D01*
X49895065Y-82170612D01*
X49915078Y-82236587D01*
X49921342Y-82248307D01*
X49430000Y-82248307D01*
X49361388Y-82255065D01*
X49295413Y-82275078D01*
X49234610Y-82307578D01*
X49181315Y-82351315D01*
X49137578Y-82404610D01*
X49105078Y-82465413D01*
X49085065Y-82531388D01*
X49078307Y-82600000D01*
X49078307Y-83140000D01*
X49085065Y-83208612D01*
X49105078Y-83274587D01*
X49137578Y-83335390D01*
X49181315Y-83388685D01*
X49234610Y-83432422D01*
X49295413Y-83464922D01*
X49361388Y-83484935D01*
X49430000Y-83491693D01*
X49643599Y-83491693D01*
X49654736Y-83505264D01*
X49730871Y-83567746D01*
X49817733Y-83614175D01*
X49909402Y-83641982D01*
X49911983Y-83642765D01*
X50010000Y-83652419D01*
X50034560Y-83650000D01*
X50413142Y-83650000D01*
X50450413Y-83669922D01*
X50516388Y-83689935D01*
X50585000Y-83696693D01*
X51555000Y-83696693D01*
X51623612Y-83689935D01*
X51689587Y-83669922D01*
X51690897Y-83669222D01*
X52394477Y-83661404D01*
X52410413Y-83669922D01*
X52476388Y-83689935D01*
X52545000Y-83696693D01*
X53515000Y-83696693D01*
X53583612Y-83689935D01*
X53638050Y-83673422D01*
X53563950Y-83747522D01*
X53498287Y-83845793D01*
X53474464Y-83903307D01*
X52545000Y-83903307D01*
X52476388Y-83910065D01*
X52443636Y-83920000D01*
X51656364Y-83920000D01*
X51623612Y-83910065D01*
X51555000Y-83903307D01*
X50585000Y-83903307D01*
X50516388Y-83910065D01*
X50450413Y-83930078D01*
X50389610Y-83962578D01*
X50336315Y-84006315D01*
X50292578Y-84059610D01*
X50260078Y-84120413D01*
X50240065Y-84186388D01*
X50233307Y-84255000D01*
X50233307Y-84645000D01*
X50240065Y-84713612D01*
X50260078Y-84779587D01*
X50292578Y-84840390D01*
X50336315Y-84893685D01*
X50389610Y-84937422D01*
X50450413Y-84969922D01*
X50516388Y-84989935D01*
X50585000Y-84996693D01*
X51555000Y-84996693D01*
X51623612Y-84989935D01*
X51689587Y-84969922D01*
X51750390Y-84937422D01*
X51803685Y-84893685D01*
X51821279Y-84872246D01*
X52282930Y-84877375D01*
X52296315Y-84893685D01*
X52349610Y-84937422D01*
X52410413Y-84969922D01*
X52476388Y-84989935D01*
X52545000Y-84996693D01*
X53515000Y-84996693D01*
X53583612Y-84989935D01*
X53649587Y-84969922D01*
X53682826Y-84952155D01*
X53704708Y-84950000D01*
X53778165Y-84942765D01*
X53872415Y-84914175D01*
X53959277Y-84867746D01*
X54035412Y-84805264D01*
X54051076Y-84786177D01*
X54111762Y-84725491D01*
X54205014Y-84706942D01*
X54314207Y-84661713D01*
X54412478Y-84596050D01*
X54496050Y-84512478D01*
X54561713Y-84414207D01*
X54606942Y-84305014D01*
X54630000Y-84189095D01*
X54630000Y-84070905D01*
X54626178Y-84051693D01*
X55436653Y-84051693D01*
X55483950Y-84122478D01*
X55567522Y-84206050D01*
X55665793Y-84271713D01*
X55774986Y-84316942D01*
X55890905Y-84340000D01*
X56009095Y-84340000D01*
X56125014Y-84316942D01*
X56234207Y-84271713D01*
X56332478Y-84206050D01*
X56416050Y-84122478D01*
X56481713Y-84024207D01*
X56526942Y-83915014D01*
X56550000Y-83799095D01*
X56550000Y-83680905D01*
X56526942Y-83564986D01*
X56481713Y-83455793D01*
X56416050Y-83357522D01*
X56332478Y-83273950D01*
X56234207Y-83208287D01*
X56125014Y-83163058D01*
X56069027Y-83151921D01*
X55930928Y-83013823D01*
X55915264Y-82994736D01*
X55839129Y-82932254D01*
X55774761Y-82897848D01*
X55764922Y-82865413D01*
X55732422Y-82804610D01*
X55688685Y-82751315D01*
X55635390Y-82707578D01*
X55574587Y-82675078D01*
X55508612Y-82655065D01*
X55440000Y-82648307D01*
X54797371Y-82648307D01*
X54790000Y-82647581D01*
X54782629Y-82648307D01*
X54540000Y-82648307D01*
X54522811Y-82650000D01*
X53686858Y-82650000D01*
X53649587Y-82630078D01*
X53583612Y-82610065D01*
X53515000Y-82603307D01*
X52551176Y-82603307D01*
X52550878Y-82603213D01*
X52521648Y-82600009D01*
X51611648Y-82590009D01*
X51578853Y-82593269D01*
X51550826Y-82602165D01*
X51548754Y-82603307D01*
X51489048Y-82603307D01*
X51487746Y-82600871D01*
X51425264Y-82524736D01*
X51406181Y-82509075D01*
X51317106Y-82420000D01*
X52136847Y-82420000D01*
X52170588Y-82430235D01*
X52239200Y-82436993D01*
X52539200Y-82436993D01*
X52607812Y-82430235D01*
X52641553Y-82420000D01*
X57002221Y-82420000D01*
X57012243Y-82453040D01*
X57054029Y-82531216D01*
X57096172Y-82582567D01*
X57096177Y-82582572D01*
X57110264Y-82599737D01*
X57127429Y-82613824D01*
X57326170Y-82812565D01*
X57340262Y-82829736D01*
X57408783Y-82885970D01*
X57486958Y-82927756D01*
X57571784Y-82953488D01*
X57637894Y-82959999D01*
X57637905Y-82959999D01*
X57659999Y-82962175D01*
X57682093Y-82959999D01*
X58253604Y-82959999D01*
X58630000Y-83336396D01*
X58630001Y-84513603D01*
X58281817Y-84861788D01*
X56514778Y-84861788D01*
X56492684Y-84859612D01*
X56470589Y-84861788D01*
X56470579Y-84861788D01*
X56404469Y-84868299D01*
X56320784Y-84893685D01*
X56319643Y-84894031D01*
X56241467Y-84935817D01*
X56190116Y-84977960D01*
X56190112Y-84977964D01*
X56172947Y-84992051D01*
X56158860Y-85009217D01*
X55906278Y-85261799D01*
X54160295Y-85261799D01*
X54138201Y-85259623D01*
X54116106Y-85261799D01*
X54116096Y-85261799D01*
X54049986Y-85268310D01*
X53985269Y-85287942D01*
X53965160Y-85294042D01*
X53886984Y-85335828D01*
X53835633Y-85377971D01*
X53835629Y-85377975D01*
X53818464Y-85392062D01*
X53804377Y-85409227D01*
X53090295Y-86123310D01*
X53002935Y-85992567D01*
X52837433Y-85827065D01*
X52642824Y-85697031D01*
X52426585Y-85607462D01*
X52197027Y-85561800D01*
X51962973Y-85561800D01*
X51733415Y-85607462D01*
X51517176Y-85697031D01*
X51322567Y-85827065D01*
X51157065Y-85992567D01*
X51027031Y-86187176D01*
X50937462Y-86403415D01*
X50891800Y-86632973D01*
X50891800Y-86867027D01*
X50937462Y-87096585D01*
X51027031Y-87312824D01*
X51157065Y-87507433D01*
X51322567Y-87672935D01*
X51517176Y-87802969D01*
X51733415Y-87892538D01*
X51962973Y-87938200D01*
X52197027Y-87938200D01*
X52426585Y-87892538D01*
X52642824Y-87802969D01*
X52837433Y-87672935D01*
X53002935Y-87507433D01*
X53132969Y-87312824D01*
X53182152Y-87194086D01*
X53188215Y-87193489D01*
X53273041Y-87167757D01*
X53351216Y-87125971D01*
X53419737Y-87069737D01*
X53433829Y-87052566D01*
X53462920Y-87023475D01*
X53477462Y-87096585D01*
X53567031Y-87312824D01*
X53697065Y-87507433D01*
X53862567Y-87672935D01*
X54057176Y-87802969D01*
X54273415Y-87892538D01*
X54502973Y-87938200D01*
X54737027Y-87938200D01*
X54966585Y-87892538D01*
X55182824Y-87802969D01*
X55377433Y-87672935D01*
X55542935Y-87507433D01*
X55672969Y-87312824D01*
X55709822Y-87223854D01*
X55741729Y-87214175D01*
X55828591Y-87167746D01*
X55904726Y-87105264D01*
X55920391Y-87086176D01*
X55999630Y-87006937D01*
X56017462Y-87096585D01*
X56107031Y-87312824D01*
X56237065Y-87507433D01*
X56402567Y-87672935D01*
X56597176Y-87802969D01*
X56813415Y-87892538D01*
X57042973Y-87938200D01*
X57277027Y-87938200D01*
X57506585Y-87892538D01*
X57722824Y-87802969D01*
X57917433Y-87672935D01*
X58082935Y-87507433D01*
X58212969Y-87312824D01*
X58249645Y-87224280D01*
X58282957Y-87214175D01*
X58369819Y-87167746D01*
X58445954Y-87105264D01*
X58461619Y-87086176D01*
X58539834Y-87007961D01*
X58557462Y-87096585D01*
X58647031Y-87312824D01*
X58777065Y-87507433D01*
X58942567Y-87672935D01*
X59137176Y-87802969D01*
X59353415Y-87892538D01*
X59582973Y-87938200D01*
X59817027Y-87938200D01*
X60046585Y-87892538D01*
X60262824Y-87802969D01*
X60457433Y-87672935D01*
X60622935Y-87507433D01*
X60752969Y-87312824D01*
X60842538Y-87096585D01*
X60888200Y-86867027D01*
X60888200Y-86632973D01*
X60842538Y-86403415D01*
X60817379Y-86342677D01*
X60877703Y-86269172D01*
X60924132Y-86182310D01*
X60952722Y-86088060D01*
X60959957Y-86014603D01*
X60959957Y-86014594D01*
X60960955Y-86004463D01*
X60967212Y-86067993D01*
X60995802Y-86162243D01*
X61042231Y-86249106D01*
X61104713Y-86325241D01*
X61123467Y-86340632D01*
X61097462Y-86403415D01*
X61051800Y-86632973D01*
X61051800Y-86867027D01*
X61097462Y-87096585D01*
X61187031Y-87312824D01*
X61317065Y-87507433D01*
X61482567Y-87672935D01*
X61677176Y-87802969D01*
X61893415Y-87892538D01*
X62122973Y-87938200D01*
X62357027Y-87938200D01*
X62586585Y-87892538D01*
X62802824Y-87802969D01*
X62997433Y-87672935D01*
X63162935Y-87507433D01*
X63292969Y-87312824D01*
X63382538Y-87096585D01*
X63409289Y-86962097D01*
X63533373Y-87086181D01*
X63549034Y-87105264D01*
X63625169Y-87167746D01*
X63678815Y-87196421D01*
X63727031Y-87312824D01*
X63857065Y-87507433D01*
X64022567Y-87672935D01*
X64217176Y-87802969D01*
X64433415Y-87892538D01*
X64662973Y-87938200D01*
X64897027Y-87938200D01*
X65126585Y-87892538D01*
X65342824Y-87802969D01*
X65537433Y-87672935D01*
X65702935Y-87507433D01*
X65832969Y-87312824D01*
X65922538Y-87096585D01*
X65968200Y-86867027D01*
X65968200Y-86632973D01*
X65922538Y-86403415D01*
X65832969Y-86187176D01*
X65702935Y-85992567D01*
X65537433Y-85827065D01*
X65342824Y-85697031D01*
X65325823Y-85689989D01*
X65552884Y-85689989D01*
X66203485Y-86340591D01*
X66177462Y-86403415D01*
X66131800Y-86632973D01*
X66131800Y-86867027D01*
X66177462Y-87096585D01*
X66267031Y-87312824D01*
X66397065Y-87507433D01*
X66562567Y-87672935D01*
X66757176Y-87802969D01*
X66973415Y-87892538D01*
X67202973Y-87938200D01*
X67437027Y-87938200D01*
X67666585Y-87892538D01*
X67882824Y-87802969D01*
X68077433Y-87672935D01*
X68242935Y-87507433D01*
X68372969Y-87312824D01*
X68462538Y-87096585D01*
X68503508Y-86890615D01*
X68699080Y-87086187D01*
X68714736Y-87105264D01*
X68724312Y-87113123D01*
X68807031Y-87312824D01*
X68937065Y-87507433D01*
X69102567Y-87672935D01*
X69297176Y-87802969D01*
X69513415Y-87892538D01*
X69742973Y-87938200D01*
X69977027Y-87938200D01*
X70206585Y-87892538D01*
X70422824Y-87802969D01*
X70617433Y-87672935D01*
X70782935Y-87507433D01*
X70912969Y-87312824D01*
X71002538Y-87096585D01*
X71048200Y-86867027D01*
X71048200Y-86632973D01*
X71211800Y-86632973D01*
X71211800Y-86867027D01*
X71257462Y-87096585D01*
X71347031Y-87312824D01*
X71477065Y-87507433D01*
X71642567Y-87672935D01*
X71837176Y-87802969D01*
X72053415Y-87892538D01*
X72282973Y-87938200D01*
X72517027Y-87938200D01*
X72746585Y-87892538D01*
X72962824Y-87802969D01*
X73157433Y-87672935D01*
X73322935Y-87507433D01*
X73452969Y-87312824D01*
X73542538Y-87096585D01*
X73588200Y-86867027D01*
X73588200Y-86632973D01*
X73542538Y-86403415D01*
X73452969Y-86187176D01*
X73322935Y-85992567D01*
X73157433Y-85827065D01*
X72962824Y-85697031D01*
X72746585Y-85607462D01*
X72517027Y-85561800D01*
X72282973Y-85561800D01*
X72053415Y-85607462D01*
X71837176Y-85697031D01*
X71642567Y-85827065D01*
X71477065Y-85992567D01*
X71347031Y-86187176D01*
X71257462Y-86403415D01*
X71211800Y-86632973D01*
X71048200Y-86632973D01*
X71002538Y-86403415D01*
X70912969Y-86187176D01*
X70782935Y-85992567D01*
X70617433Y-85827065D01*
X70422824Y-85697031D01*
X70217579Y-85612016D01*
X70307895Y-85537895D01*
X70331378Y-85509281D01*
X70784285Y-85056374D01*
X70812895Y-85032895D01*
X70836465Y-85004176D01*
X70906619Y-84918693D01*
X70976261Y-84788401D01*
X71019147Y-84647026D01*
X71023023Y-84607673D01*
X71030000Y-84536835D01*
X71030000Y-84536828D01*
X71033627Y-84500000D01*
X71030000Y-84463173D01*
X71030000Y-82977106D01*
X74031263Y-85978369D01*
X74017065Y-85992567D01*
X73887031Y-86187176D01*
X73797462Y-86403415D01*
X73751800Y-86632973D01*
X73751800Y-86867027D01*
X73797462Y-87096585D01*
X73887031Y-87312824D01*
X74017065Y-87507433D01*
X74182567Y-87672935D01*
X74377176Y-87802969D01*
X74593415Y-87892538D01*
X74822973Y-87938200D01*
X75057027Y-87938200D01*
X75286585Y-87892538D01*
X75502824Y-87802969D01*
X75697433Y-87672935D01*
X75862935Y-87507433D01*
X75992969Y-87312824D01*
X76082538Y-87096585D01*
X76128200Y-86867027D01*
X76128200Y-86632973D01*
X76095783Y-86470000D01*
X76324217Y-86470000D01*
X76291800Y-86632973D01*
X76291800Y-86867027D01*
X76337462Y-87096585D01*
X76427031Y-87312824D01*
X76557065Y-87507433D01*
X76722567Y-87672935D01*
X76917176Y-87802969D01*
X77133415Y-87892538D01*
X77362973Y-87938200D01*
X77597027Y-87938200D01*
X77826585Y-87892538D01*
X78042824Y-87802969D01*
X78237433Y-87672935D01*
X78402935Y-87507433D01*
X78532969Y-87312824D01*
X78622538Y-87096585D01*
X78668200Y-86867027D01*
X78668200Y-86632973D01*
X78622538Y-86403415D01*
X78532969Y-86187176D01*
X78414583Y-86010000D01*
X78830107Y-86010000D01*
X78830107Y-87588200D01*
X78836865Y-87656812D01*
X78856878Y-87722787D01*
X78889378Y-87783590D01*
X78933115Y-87836885D01*
X78986410Y-87880622D01*
X79047213Y-87913122D01*
X79113188Y-87933135D01*
X79181800Y-87939893D01*
X80858200Y-87939893D01*
X80926812Y-87933135D01*
X80992787Y-87913122D01*
X81053590Y-87880622D01*
X81106885Y-87836885D01*
X81150622Y-87783590D01*
X81183122Y-87722787D01*
X81203135Y-87656812D01*
X81209893Y-87588200D01*
X81209893Y-85911800D01*
X81203135Y-85843188D01*
X81183122Y-85777213D01*
X81150622Y-85716410D01*
X81106885Y-85663115D01*
X81053590Y-85619378D01*
X80992787Y-85586878D01*
X80926812Y-85566865D01*
X80858200Y-85560107D01*
X80007213Y-85560107D01*
X79735048Y-85287942D01*
X92040000Y-85287942D01*
X92040000Y-85672058D01*
X92114938Y-86048794D01*
X92261933Y-86403671D01*
X92475336Y-86723052D01*
X92746948Y-86994664D01*
X93066329Y-87208067D01*
X93421206Y-87355062D01*
X93797942Y-87430000D01*
X94182058Y-87430000D01*
X94558794Y-87355062D01*
X94913671Y-87208067D01*
X95233052Y-86994664D01*
X95504664Y-86723052D01*
X95718067Y-86403671D01*
X95865062Y-86048794D01*
X95940000Y-85672058D01*
X95940000Y-85287942D01*
X95865062Y-84911206D01*
X95718067Y-84556329D01*
X95504664Y-84236948D01*
X95233052Y-83965336D01*
X94913671Y-83751933D01*
X94558794Y-83604938D01*
X94182058Y-83530000D01*
X93797942Y-83530000D01*
X93421206Y-83604938D01*
X93066329Y-83751933D01*
X92746948Y-83965336D01*
X92475336Y-84236948D01*
X92261933Y-84556329D01*
X92114938Y-84911206D01*
X92040000Y-85287942D01*
X79735048Y-85287942D01*
X79620929Y-85173824D01*
X79605264Y-85154736D01*
X79529129Y-85092254D01*
X79442267Y-85045825D01*
X79348017Y-85017235D01*
X79274560Y-85010000D01*
X79250000Y-85007581D01*
X79225440Y-85010000D01*
X76587107Y-85010000D01*
X71436229Y-79859124D01*
X71420564Y-79840036D01*
X71344429Y-79777554D01*
X71257567Y-79731125D01*
X71163317Y-79702535D01*
X71089860Y-79695300D01*
X71065300Y-79692881D01*
X71040740Y-79695300D01*
X68120000Y-79695300D01*
X68120000Y-79427543D01*
X68124135Y-79413912D01*
X68130893Y-79345300D01*
X68130893Y-79045300D01*
X68124135Y-78976688D01*
X68120000Y-78963057D01*
X68120000Y-78927543D01*
X68124135Y-78913912D01*
X68124520Y-78910000D01*
X82887307Y-78910000D01*
X82887307Y-80010000D01*
X82894065Y-80078612D01*
X82914078Y-80144587D01*
X82946578Y-80205390D01*
X82990315Y-80258685D01*
X83043610Y-80302422D01*
X83104413Y-80334922D01*
X83170388Y-80354935D01*
X83239000Y-80361693D01*
X84239000Y-80361693D01*
X84307612Y-80354935D01*
X84373587Y-80334922D01*
X84434390Y-80302422D01*
X84487685Y-80258685D01*
X84531422Y-80205390D01*
X84563922Y-80144587D01*
X84583935Y-80078612D01*
X84590693Y-80010000D01*
X84590693Y-78910000D01*
X84583935Y-78841388D01*
X84563922Y-78775413D01*
X84531422Y-78714610D01*
X84487685Y-78661315D01*
X84434390Y-78617578D01*
X84373587Y-78585078D01*
X84307612Y-78565065D01*
X84239000Y-78558307D01*
X83239000Y-78558307D01*
X83170388Y-78565065D01*
X83104413Y-78585078D01*
X83043610Y-78617578D01*
X82990315Y-78661315D01*
X82946578Y-78714610D01*
X82914078Y-78775413D01*
X82894065Y-78841388D01*
X82887307Y-78910000D01*
X68124520Y-78910000D01*
X68130893Y-78845300D01*
X68130893Y-78545300D01*
X68124135Y-78476688D01*
X68120000Y-78463057D01*
X68120000Y-78427543D01*
X68124135Y-78413912D01*
X68130893Y-78345300D01*
X68130893Y-78045300D01*
X68124135Y-77976688D01*
X68120000Y-77963057D01*
X68120000Y-77427543D01*
X68124135Y-77413912D01*
X68130893Y-77345300D01*
X68130893Y-77279956D01*
X68140163Y-77287564D01*
X68226467Y-77333694D01*
X68320112Y-77362101D01*
X68417500Y-77371693D01*
X68524502Y-77371693D01*
X68590000Y-77378144D01*
X68655498Y-77371693D01*
X68762500Y-77371693D01*
X68859888Y-77362101D01*
X68953533Y-77333694D01*
X68960463Y-77329990D01*
X70281922Y-77329990D01*
X70377412Y-77320585D01*
X70499938Y-77283417D01*
X70612858Y-77223060D01*
X70711833Y-77141833D01*
X70793060Y-77042858D01*
X70853417Y-76929938D01*
X70890585Y-76807412D01*
X70903135Y-76679990D01*
X70890585Y-76552568D01*
X70853417Y-76430042D01*
X70793060Y-76317122D01*
X70711833Y-76218147D01*
X70612858Y-76136920D01*
X70499938Y-76076563D01*
X70377412Y-76039395D01*
X70281922Y-76029990D01*
X69176903Y-76029990D01*
X69192101Y-75979888D01*
X69201693Y-75882500D01*
X69201693Y-75537500D01*
X69192101Y-75440112D01*
X69163694Y-75346467D01*
X69117564Y-75260163D01*
X69055483Y-75184517D01*
X68979837Y-75122436D01*
X68893533Y-75076306D01*
X68799888Y-75047899D01*
X68702500Y-75038307D01*
X68407500Y-75038307D01*
X68310112Y-75047899D01*
X68216467Y-75076306D01*
X68130163Y-75122436D01*
X68120000Y-75130777D01*
X68120000Y-74927543D01*
X68124135Y-74913912D01*
X68130893Y-74845300D01*
X68130893Y-74545300D01*
X68124135Y-74476688D01*
X68120000Y-74463057D01*
X68120000Y-74427543D01*
X68124135Y-74413912D01*
X68130893Y-74345300D01*
X68130893Y-74045300D01*
X68124135Y-73976688D01*
X68120000Y-73963057D01*
X68120000Y-73427543D01*
X68124135Y-73413912D01*
X68130893Y-73345300D01*
X68130893Y-73045300D01*
X68124135Y-72976688D01*
X68120000Y-72963057D01*
X68120000Y-72927543D01*
X68124135Y-72913912D01*
X68130893Y-72845300D01*
X68130893Y-72545300D01*
X68124135Y-72476688D01*
X68120000Y-72463057D01*
X68120000Y-72427543D01*
X68124135Y-72413912D01*
X68130893Y-72345300D01*
X68130893Y-72045300D01*
X68124135Y-71976688D01*
X68120000Y-71963057D01*
X68120000Y-71869655D01*
X68138657Y-71904560D01*
X68212708Y-71994792D01*
X68302940Y-72068843D01*
X68405884Y-72123868D01*
X68517585Y-72157752D01*
X68633750Y-72169193D01*
X68727113Y-72169193D01*
X69019438Y-72461519D01*
X69046052Y-72493948D01*
X69078480Y-72520561D01*
X69078481Y-72520562D01*
X69095756Y-72534739D01*
X69175481Y-72600168D01*
X69323145Y-72679097D01*
X69483371Y-72727700D01*
X69608251Y-72740000D01*
X69608259Y-72740000D01*
X69650000Y-72744111D01*
X69691741Y-72740000D01*
X71421749Y-72740000D01*
X71546629Y-72727700D01*
X71706855Y-72679097D01*
X71854519Y-72600168D01*
X71983948Y-72493948D01*
X72090168Y-72364519D01*
X72169097Y-72216855D01*
X72217700Y-72056629D01*
X72234112Y-71890000D01*
X72217700Y-71723371D01*
X72169097Y-71563145D01*
X72090168Y-71415481D01*
X71983948Y-71286052D01*
X71854519Y-71179832D01*
X71713255Y-71104324D01*
X71713014Y-71101879D01*
X71687310Y-71017145D01*
X71645569Y-70939053D01*
X71589395Y-70870605D01*
X71520947Y-70814431D01*
X71442855Y-70772690D01*
X71358121Y-70746986D01*
X71270000Y-70738307D01*
X71070000Y-70738307D01*
X70981879Y-70746986D01*
X70897145Y-70772690D01*
X70819053Y-70814431D01*
X70780000Y-70846481D01*
X70740947Y-70814431D01*
X70662855Y-70772690D01*
X70578121Y-70746986D01*
X70490000Y-70738307D01*
X70290000Y-70738307D01*
X70201879Y-70746986D01*
X70117145Y-70772690D01*
X70065359Y-70800370D01*
X70041343Y-70755440D01*
X69967292Y-70665208D01*
X69877060Y-70591157D01*
X69818470Y-70559840D01*
X74602735Y-70559840D01*
X78849075Y-74806181D01*
X78864736Y-74825264D01*
X78940871Y-74887746D01*
X79016513Y-74928178D01*
X79023090Y-74931693D01*
X79027733Y-74934175D01*
X79121983Y-74962765D01*
X79195440Y-74970000D01*
X79195441Y-74970000D01*
X79219999Y-74972419D01*
X79244557Y-74970000D01*
X83057787Y-74970000D01*
X83043610Y-74977578D01*
X82990315Y-75021315D01*
X82946578Y-75074610D01*
X82914078Y-75135413D01*
X82894065Y-75201388D01*
X82887307Y-75270000D01*
X82887307Y-76370000D01*
X82894065Y-76438612D01*
X82914078Y-76504587D01*
X82946578Y-76565390D01*
X82990315Y-76618685D01*
X83043610Y-76662422D01*
X83104413Y-76694922D01*
X83170388Y-76714935D01*
X83239000Y-76721693D01*
X84239000Y-76721693D01*
X84307612Y-76714935D01*
X84373587Y-76694922D01*
X84434390Y-76662422D01*
X84487685Y-76618685D01*
X84531422Y-76565390D01*
X84563922Y-76504587D01*
X84583935Y-76438612D01*
X84590693Y-76370000D01*
X84590693Y-75270000D01*
X84583935Y-75201388D01*
X84563922Y-75135413D01*
X84531422Y-75074610D01*
X84487685Y-75021315D01*
X84434390Y-74977578D01*
X84420213Y-74970000D01*
X89622895Y-74970000D01*
X90090000Y-75437107D01*
X90090001Y-80672892D01*
X89523824Y-81239071D01*
X89504736Y-81254736D01*
X89442254Y-81330871D01*
X89395825Y-81417734D01*
X89377942Y-81476688D01*
X89367235Y-81511983D01*
X89357581Y-81610000D01*
X89360000Y-81634561D01*
X89360000Y-81688307D01*
X89214000Y-81688307D01*
X89145388Y-81695065D01*
X89079413Y-81715078D01*
X89018610Y-81747578D01*
X88965315Y-81791315D01*
X88921578Y-81844610D01*
X88889078Y-81905413D01*
X88869065Y-81971388D01*
X88862307Y-82040000D01*
X88862307Y-83040000D01*
X88869065Y-83108612D01*
X88889078Y-83174587D01*
X88921578Y-83235390D01*
X88965315Y-83288685D01*
X89018610Y-83332422D01*
X89079413Y-83364922D01*
X89145388Y-83384935D01*
X89214000Y-83391693D01*
X90014000Y-83391693D01*
X90082612Y-83384935D01*
X90148587Y-83364922D01*
X90209390Y-83332422D01*
X90214000Y-83328639D01*
X90218610Y-83332422D01*
X90279413Y-83364922D01*
X90345388Y-83384935D01*
X90414000Y-83391693D01*
X91214000Y-83391693D01*
X91282612Y-83384935D01*
X91348587Y-83364922D01*
X91409390Y-83332422D01*
X91414000Y-83328639D01*
X91418610Y-83332422D01*
X91479413Y-83364922D01*
X91545388Y-83384935D01*
X91614000Y-83391693D01*
X92414000Y-83391693D01*
X92482612Y-83384935D01*
X92548587Y-83364922D01*
X92609390Y-83332422D01*
X92662685Y-83288685D01*
X92706422Y-83235390D01*
X92738922Y-83174587D01*
X92758935Y-83108612D01*
X92765693Y-83040000D01*
X92765693Y-82040000D01*
X92758935Y-81971388D01*
X92738922Y-81905413D01*
X92706422Y-81844610D01*
X92662685Y-81791315D01*
X92609390Y-81747578D01*
X92548587Y-81715078D01*
X92482612Y-81695065D01*
X92414000Y-81688307D01*
X92280000Y-81688307D01*
X92280000Y-81624559D01*
X92282419Y-81599999D01*
X92272765Y-81501982D01*
X92250145Y-81427413D01*
X92244175Y-81407733D01*
X92242139Y-81403923D01*
X92224975Y-81371812D01*
X92197746Y-81320871D01*
X92135264Y-81244736D01*
X92116181Y-81229075D01*
X91550000Y-80662895D01*
X91550000Y-75014557D01*
X91552419Y-74989999D01*
X91550000Y-74965440D01*
X91542765Y-74891983D01*
X91514175Y-74797733D01*
X91467746Y-74710871D01*
X91405264Y-74634736D01*
X91386181Y-74619075D01*
X90589106Y-73822001D01*
X90819415Y-73591693D01*
X91214000Y-73591693D01*
X91282612Y-73584935D01*
X91348587Y-73564922D01*
X91409390Y-73532422D01*
X91414000Y-73528639D01*
X91418610Y-73532422D01*
X91479413Y-73564922D01*
X91545388Y-73584935D01*
X91614000Y-73591693D01*
X92414000Y-73591693D01*
X92482612Y-73584935D01*
X92548587Y-73564922D01*
X92609390Y-73532422D01*
X92662685Y-73488685D01*
X92706422Y-73435390D01*
X92738922Y-73374587D01*
X92758935Y-73308612D01*
X92765693Y-73240000D01*
X92765693Y-72240000D01*
X92758935Y-72171388D01*
X92738922Y-72105413D01*
X92706422Y-72044610D01*
X92662685Y-71991315D01*
X92609390Y-71947578D01*
X92548587Y-71915078D01*
X92512898Y-71904252D01*
X92506765Y-71841983D01*
X92478175Y-71747733D01*
X92431746Y-71660871D01*
X92369264Y-71584736D01*
X92350180Y-71569075D01*
X92234927Y-71453822D01*
X92219263Y-71434735D01*
X92143128Y-71372253D01*
X92056266Y-71325824D01*
X91962016Y-71297234D01*
X91902766Y-71291398D01*
X91931422Y-71237787D01*
X91951435Y-71171812D01*
X91958193Y-71103200D01*
X91958193Y-70696800D01*
X91951435Y-70628188D01*
X91931422Y-70562213D01*
X91898922Y-70501410D01*
X91855185Y-70448115D01*
X91801890Y-70404378D01*
X91741087Y-70371878D01*
X91675112Y-70351865D01*
X91606500Y-70345107D01*
X90463500Y-70345107D01*
X90394888Y-70351865D01*
X90328913Y-70371878D01*
X90276301Y-70400000D01*
X89340000Y-70400000D01*
X89340000Y-70290905D01*
X89316942Y-70174986D01*
X89271713Y-70065793D01*
X89206050Y-69967522D01*
X89122478Y-69883950D01*
X89024207Y-69818287D01*
X88915014Y-69773058D01*
X88799095Y-69750000D01*
X88680905Y-69750000D01*
X88564986Y-69773058D01*
X88455793Y-69818287D01*
X88357522Y-69883950D01*
X88273950Y-69967522D01*
X88208287Y-70065793D01*
X88163058Y-70174986D01*
X88151921Y-70230972D01*
X88037787Y-70345107D01*
X87113500Y-70345107D01*
X87044888Y-70351865D01*
X86978913Y-70371878D01*
X86926301Y-70400000D01*
X86684549Y-70400000D01*
X86659999Y-70397582D01*
X86635449Y-70400000D01*
X86635440Y-70400000D01*
X86561983Y-70407235D01*
X86467733Y-70435825D01*
X86380871Y-70482254D01*
X86304736Y-70544736D01*
X86289080Y-70563813D01*
X86241483Y-70611411D01*
X86199272Y-70509506D01*
X86106743Y-70371025D01*
X85988975Y-70253257D01*
X85850494Y-70160728D01*
X85696623Y-70096992D01*
X85533274Y-70064500D01*
X85366726Y-70064500D01*
X85203377Y-70096992D01*
X85049506Y-70160728D01*
X84911025Y-70253257D01*
X84793257Y-70371025D01*
X84700728Y-70509506D01*
X84636992Y-70663377D01*
X84604500Y-70826726D01*
X84604500Y-70993274D01*
X84636992Y-71156623D01*
X84700728Y-71310494D01*
X84793257Y-71448975D01*
X84911025Y-71566743D01*
X85049506Y-71659272D01*
X85151412Y-71701483D01*
X85032895Y-71820000D01*
X81724388Y-71820000D01*
X81733326Y-71806623D01*
X82110653Y-71429296D01*
X82137370Y-71407370D01*
X82224845Y-71300781D01*
X82289845Y-71179175D01*
X82313503Y-71101184D01*
X82329872Y-71047224D01*
X82334076Y-71004543D01*
X82436047Y-71106514D01*
X82557821Y-71187881D01*
X82693129Y-71243927D01*
X82836772Y-71272500D01*
X82983228Y-71272500D01*
X83126871Y-71243927D01*
X83262179Y-71187881D01*
X83383953Y-71106514D01*
X83487514Y-71002953D01*
X83568881Y-70881179D01*
X83624927Y-70745871D01*
X83653500Y-70602228D01*
X83653500Y-70455772D01*
X83624927Y-70312129D01*
X83568881Y-70176821D01*
X83487514Y-70055047D01*
X83383953Y-69951486D01*
X83297919Y-69894000D01*
X83383953Y-69836514D01*
X83487514Y-69732953D01*
X83545000Y-69646919D01*
X83602486Y-69732953D01*
X83706047Y-69836514D01*
X83827821Y-69917881D01*
X83963129Y-69973927D01*
X84106772Y-70002500D01*
X84253228Y-70002500D01*
X84396871Y-69973927D01*
X84532179Y-69917881D01*
X84653953Y-69836514D01*
X84757514Y-69732953D01*
X84838881Y-69611179D01*
X84882399Y-69506117D01*
X84911025Y-69534743D01*
X85049506Y-69627272D01*
X85203377Y-69691008D01*
X85366726Y-69723500D01*
X85533274Y-69723500D01*
X85696623Y-69691008D01*
X85850494Y-69627272D01*
X85988975Y-69534743D01*
X86106743Y-69416975D01*
X86199272Y-69278494D01*
X86263008Y-69124623D01*
X86295500Y-68961274D01*
X86295500Y-68794726D01*
X86263008Y-68631377D01*
X86199272Y-68477506D01*
X86106743Y-68339025D01*
X85988975Y-68221257D01*
X85850494Y-68128728D01*
X85696623Y-68064992D01*
X85533274Y-68032500D01*
X85366726Y-68032500D01*
X85203377Y-68064992D01*
X85049506Y-68128728D01*
X84911025Y-68221257D01*
X84793257Y-68339025D01*
X84700728Y-68477506D01*
X84636992Y-68631377D01*
X84630184Y-68665604D01*
X84532179Y-68600119D01*
X84396871Y-68544073D01*
X84253228Y-68515500D01*
X84106772Y-68515500D01*
X83963129Y-68544073D01*
X83827821Y-68600119D01*
X83706047Y-68681486D01*
X83602486Y-68785047D01*
X83545000Y-68871081D01*
X83487514Y-68785047D01*
X83383953Y-68681486D01*
X83262179Y-68600119D01*
X83126871Y-68544073D01*
X82983228Y-68515500D01*
X82836772Y-68515500D01*
X82693129Y-68544073D01*
X82557821Y-68600119D01*
X82436047Y-68681486D01*
X82332486Y-68785047D01*
X82275000Y-68871081D01*
X82217514Y-68785047D01*
X82113953Y-68681486D01*
X81992179Y-68600119D01*
X81856871Y-68544073D01*
X81713228Y-68515500D01*
X81566772Y-68515500D01*
X81423129Y-68544073D01*
X81311033Y-68590504D01*
X81217292Y-68496764D01*
X81202358Y-68478567D01*
X81129726Y-68418959D01*
X81046860Y-68374666D01*
X80956945Y-68347391D01*
X80886860Y-68340488D01*
X80886852Y-68340488D01*
X80863437Y-68338182D01*
X80840022Y-68340488D01*
X80115068Y-68340488D01*
X79039845Y-67265265D01*
X79024911Y-67247068D01*
X78952279Y-67187460D01*
X78869413Y-67143167D01*
X78779498Y-67115892D01*
X78709413Y-67108989D01*
X78709405Y-67108989D01*
X78685990Y-67106683D01*
X78662575Y-67108989D01*
X78455350Y-67108989D01*
X78532969Y-66992824D01*
X78622538Y-66776585D01*
X78668200Y-66547027D01*
X78668200Y-66312973D01*
X78831800Y-66312973D01*
X78831800Y-66547027D01*
X78877462Y-66776585D01*
X78967031Y-66992824D01*
X79097065Y-67187433D01*
X79262567Y-67352935D01*
X79457176Y-67482969D01*
X79673415Y-67572538D01*
X79902973Y-67618200D01*
X80137027Y-67618200D01*
X80366585Y-67572538D01*
X80582824Y-67482969D01*
X80777433Y-67352935D01*
X80942935Y-67187433D01*
X81072969Y-66992824D01*
X81162538Y-66776585D01*
X81208200Y-66547027D01*
X81208200Y-66312973D01*
X83911800Y-66312973D01*
X83911800Y-66547027D01*
X83957462Y-66776585D01*
X84047031Y-66992824D01*
X84177065Y-67187433D01*
X84342567Y-67352935D01*
X84537176Y-67482969D01*
X84753415Y-67572538D01*
X84982973Y-67618200D01*
X85217027Y-67618200D01*
X85446585Y-67572538D01*
X85662824Y-67482969D01*
X85857433Y-67352935D01*
X86022935Y-67187433D01*
X86152969Y-66992824D01*
X86242538Y-66776585D01*
X86288200Y-66547027D01*
X86288200Y-66312973D01*
X86451800Y-66312973D01*
X86451800Y-66547027D01*
X86497462Y-66776585D01*
X86587031Y-66992824D01*
X86717065Y-67187433D01*
X86882567Y-67352935D01*
X87077176Y-67482969D01*
X87293415Y-67572538D01*
X87522973Y-67618200D01*
X87757027Y-67618200D01*
X87986585Y-67572538D01*
X88202824Y-67482969D01*
X88397433Y-67352935D01*
X88562935Y-67187433D01*
X88692969Y-66992824D01*
X88782538Y-66776585D01*
X88828200Y-66547027D01*
X88828200Y-66312973D01*
X88991800Y-66312973D01*
X88991800Y-66547027D01*
X89037462Y-66776585D01*
X89127031Y-66992824D01*
X89257065Y-67187433D01*
X89422567Y-67352935D01*
X89617176Y-67482969D01*
X89833415Y-67572538D01*
X90062973Y-67618200D01*
X90297027Y-67618200D01*
X90526585Y-67572538D01*
X90682533Y-67507942D01*
X92040000Y-67507942D01*
X92040000Y-67892058D01*
X92114938Y-68268794D01*
X92261933Y-68623671D01*
X92475336Y-68943052D01*
X92746948Y-69214664D01*
X93066329Y-69428067D01*
X93421206Y-69575062D01*
X93797942Y-69650000D01*
X94182058Y-69650000D01*
X94558794Y-69575062D01*
X94913671Y-69428067D01*
X95233052Y-69214664D01*
X95504664Y-68943052D01*
X95718067Y-68623671D01*
X95865062Y-68268794D01*
X95940000Y-67892058D01*
X95940000Y-67507942D01*
X95865062Y-67131206D01*
X95718067Y-66776329D01*
X95504664Y-66456948D01*
X95233052Y-66185336D01*
X94913671Y-65971933D01*
X94558794Y-65824938D01*
X94182058Y-65750000D01*
X93797942Y-65750000D01*
X93421206Y-65824938D01*
X93066329Y-65971933D01*
X92746948Y-66185336D01*
X92475336Y-66456948D01*
X92261933Y-66776329D01*
X92114938Y-67131206D01*
X92040000Y-67507942D01*
X90682533Y-67507942D01*
X90742824Y-67482969D01*
X90937433Y-67352935D01*
X91102935Y-67187433D01*
X91232969Y-66992824D01*
X91322538Y-66776585D01*
X91368200Y-66547027D01*
X91368200Y-66312973D01*
X91322538Y-66083415D01*
X91232969Y-65867176D01*
X91102935Y-65672567D01*
X90937433Y-65507065D01*
X90742824Y-65377031D01*
X90526585Y-65287462D01*
X90297027Y-65241800D01*
X90062973Y-65241800D01*
X89833415Y-65287462D01*
X89617176Y-65377031D01*
X89422567Y-65507065D01*
X89257065Y-65672567D01*
X89127031Y-65867176D01*
X89037462Y-66083415D01*
X88991800Y-66312973D01*
X88828200Y-66312973D01*
X88782538Y-66083415D01*
X88692969Y-65867176D01*
X88562935Y-65672567D01*
X88397433Y-65507065D01*
X88202824Y-65377031D01*
X87986585Y-65287462D01*
X87757027Y-65241800D01*
X87522973Y-65241800D01*
X87293415Y-65287462D01*
X87077176Y-65377031D01*
X86882567Y-65507065D01*
X86717065Y-65672567D01*
X86587031Y-65867176D01*
X86497462Y-66083415D01*
X86451800Y-66312973D01*
X86288200Y-66312973D01*
X86242538Y-66083415D01*
X86152969Y-65867176D01*
X86022935Y-65672567D01*
X85857433Y-65507065D01*
X85662824Y-65377031D01*
X85446585Y-65287462D01*
X85217027Y-65241800D01*
X84982973Y-65241800D01*
X84753415Y-65287462D01*
X84537176Y-65377031D01*
X84342567Y-65507065D01*
X84177065Y-65672567D01*
X84047031Y-65867176D01*
X83957462Y-66083415D01*
X83911800Y-66312973D01*
X81208200Y-66312973D01*
X81162538Y-66083415D01*
X81072969Y-65867176D01*
X80942935Y-65672567D01*
X80777433Y-65507065D01*
X80582824Y-65377031D01*
X80366585Y-65287462D01*
X80137027Y-65241800D01*
X79902973Y-65241800D01*
X79673415Y-65287462D01*
X79457176Y-65377031D01*
X79262567Y-65507065D01*
X79097065Y-65672567D01*
X78967031Y-65867176D01*
X78877462Y-66083415D01*
X78831800Y-66312973D01*
X78668200Y-66312973D01*
X78622538Y-66083415D01*
X78532969Y-65867176D01*
X78402935Y-65672567D01*
X78237433Y-65507065D01*
X78042824Y-65377031D01*
X77826585Y-65287462D01*
X77597027Y-65241800D01*
X77362973Y-65241800D01*
X77133415Y-65287462D01*
X76917176Y-65377031D01*
X76722567Y-65507065D01*
X76557065Y-65672567D01*
X76427031Y-65867176D01*
X76337462Y-66083415D01*
X76291800Y-66312973D01*
X76291800Y-66547027D01*
X76337462Y-66776585D01*
X76427031Y-66992824D01*
X76504650Y-67108989D01*
X75915350Y-67108989D01*
X75992969Y-66992824D01*
X76082538Y-66776585D01*
X76128200Y-66547027D01*
X76128200Y-66312973D01*
X76082538Y-66083415D01*
X75992969Y-65867176D01*
X75862935Y-65672567D01*
X75697433Y-65507065D01*
X75502824Y-65377031D01*
X75286585Y-65287462D01*
X75057027Y-65241800D01*
X74822973Y-65241800D01*
X74593415Y-65287462D01*
X74377176Y-65377031D01*
X74182567Y-65507065D01*
X74017065Y-65672567D01*
X73887031Y-65867176D01*
X73797462Y-66083415D01*
X73751800Y-66312973D01*
X73751800Y-66547027D01*
X73797462Y-66776585D01*
X73887031Y-66992824D01*
X73964650Y-67108989D01*
X73375350Y-67108989D01*
X73452969Y-66992824D01*
X73542538Y-66776585D01*
X73588200Y-66547027D01*
X73588200Y-66312973D01*
X73542538Y-66083415D01*
X73452969Y-65867176D01*
X73322935Y-65672567D01*
X73157433Y-65507065D01*
X72962824Y-65377031D01*
X72746585Y-65287462D01*
X72517027Y-65241800D01*
X72282973Y-65241800D01*
X72053415Y-65287462D01*
X71837176Y-65377031D01*
X71642567Y-65507065D01*
X71477065Y-65672567D01*
X71347031Y-65867176D01*
X71257462Y-66083415D01*
X71211800Y-66312973D01*
X71211800Y-66547027D01*
X71257462Y-66776585D01*
X71347031Y-66992824D01*
X71424650Y-67108989D01*
X70835350Y-67108989D01*
X70912969Y-66992824D01*
X71002538Y-66776585D01*
X71048200Y-66547027D01*
X71048200Y-66312973D01*
X71002538Y-66083415D01*
X70912969Y-65867176D01*
X70782935Y-65672567D01*
X70617433Y-65507065D01*
X70422824Y-65377031D01*
X70206585Y-65287462D01*
X69977027Y-65241800D01*
X69742973Y-65241800D01*
X69513415Y-65287462D01*
X69297176Y-65377031D01*
X69102567Y-65507065D01*
X68937065Y-65672567D01*
X68807031Y-65867176D01*
X68717462Y-66083415D01*
X68671800Y-66312973D01*
X68671800Y-66547027D01*
X68717462Y-66776585D01*
X68807031Y-66992824D01*
X68884650Y-67108989D01*
X68295350Y-67108989D01*
X68372969Y-66992824D01*
X68462538Y-66776585D01*
X68508200Y-66547027D01*
X68508200Y-66312973D01*
X68462538Y-66083415D01*
X68372969Y-65867176D01*
X68242935Y-65672567D01*
X68077433Y-65507065D01*
X67882824Y-65377031D01*
X67666585Y-65287462D01*
X67437027Y-65241800D01*
X67202973Y-65241800D01*
X66973415Y-65287462D01*
X66757176Y-65377031D01*
X66562567Y-65507065D01*
X66397065Y-65672567D01*
X66267031Y-65867176D01*
X66177462Y-66083415D01*
X66131800Y-66312973D01*
X66131800Y-66547027D01*
X66177462Y-66776585D01*
X66267031Y-66992824D01*
X66344650Y-67108989D01*
X65755350Y-67108989D01*
X65832969Y-66992824D01*
X65922538Y-66776585D01*
X65968200Y-66547027D01*
X65968200Y-66312973D01*
X65922538Y-66083415D01*
X65832969Y-65867176D01*
X65702935Y-65672567D01*
X65537433Y-65507065D01*
X65342824Y-65377031D01*
X65126585Y-65287462D01*
X64897027Y-65241800D01*
X64662973Y-65241800D01*
X64433415Y-65287462D01*
X64217176Y-65377031D01*
X64022567Y-65507065D01*
X63857065Y-65672567D01*
X63727031Y-65867176D01*
X63637462Y-66083415D01*
X63591800Y-66312973D01*
X63591800Y-66547027D01*
X63637462Y-66776585D01*
X63727031Y-66992824D01*
X63804650Y-67108989D01*
X63215350Y-67108989D01*
X63292969Y-66992824D01*
X63382538Y-66776585D01*
X63428200Y-66547027D01*
X63428200Y-66312973D01*
X63382538Y-66083415D01*
X63292969Y-65867176D01*
X63162935Y-65672567D01*
X62997433Y-65507065D01*
X62802824Y-65377031D01*
X62586585Y-65287462D01*
X62357027Y-65241800D01*
X62122973Y-65241800D01*
X61893415Y-65287462D01*
X61677176Y-65377031D01*
X61482567Y-65507065D01*
X61317065Y-65672567D01*
X61187031Y-65867176D01*
X61158237Y-65936692D01*
X61152720Y-65937235D01*
X61058470Y-65965825D01*
X60971608Y-66012254D01*
X60895473Y-66074736D01*
X60879817Y-66093813D01*
X60850448Y-66123182D01*
X60842538Y-66083415D01*
X60752969Y-65867176D01*
X60622935Y-65672567D01*
X60457433Y-65507065D01*
X60262824Y-65377031D01*
X60046585Y-65287462D01*
X59817027Y-65241800D01*
X59582973Y-65241800D01*
X59353415Y-65287462D01*
X59137176Y-65377031D01*
X58942567Y-65507065D01*
X58777065Y-65672567D01*
X58647031Y-65867176D01*
X58557462Y-66083415D01*
X58511800Y-66312973D01*
X58511800Y-66547027D01*
X58557462Y-66776585D01*
X58583485Y-66839409D01*
X57983824Y-67439071D01*
X57964736Y-67454736D01*
X57902254Y-67530871D01*
X57855825Y-67617734D01*
X57843692Y-67657733D01*
X57827235Y-67711983D01*
X57818435Y-67801329D01*
X57660000Y-67642894D01*
X57660000Y-67508992D01*
X57722824Y-67482969D01*
X57917433Y-67352935D01*
X58082935Y-67187433D01*
X58212969Y-66992824D01*
X58302538Y-66776585D01*
X58348200Y-66547027D01*
X58348200Y-66312973D01*
X58302538Y-66083415D01*
X58212969Y-65867176D01*
X58082935Y-65672567D01*
X57917433Y-65507065D01*
X57722824Y-65377031D01*
X57506585Y-65287462D01*
X57277027Y-65241800D01*
X57042973Y-65241800D01*
X56813415Y-65287462D01*
X56597176Y-65377031D01*
X56402567Y-65507065D01*
X56237065Y-65672567D01*
X56107031Y-65867176D01*
X56017462Y-66083415D01*
X55971800Y-66312973D01*
X55971800Y-66547027D01*
X56017462Y-66776585D01*
X56107031Y-66992824D01*
X56237065Y-67187433D01*
X56402567Y-67352935D01*
X56597176Y-67482969D01*
X56660001Y-67508992D01*
X56660001Y-67762895D01*
X55736515Y-66839410D01*
X55762538Y-66776585D01*
X55808200Y-66547027D01*
X55808200Y-66312973D01*
X55762538Y-66083415D01*
X55672969Y-65867176D01*
X55542935Y-65672567D01*
X55377433Y-65507065D01*
X55182824Y-65377031D01*
X54966585Y-65287462D01*
X54737027Y-65241800D01*
X54502973Y-65241800D01*
X54273415Y-65287462D01*
X54057176Y-65377031D01*
X53862567Y-65507065D01*
X53697065Y-65672567D01*
X53567031Y-65867176D01*
X53477462Y-66083415D01*
X53431800Y-66312973D01*
X53431800Y-66547027D01*
X53477462Y-66776585D01*
X53567031Y-66992824D01*
X53697065Y-67187433D01*
X53862567Y-67352935D01*
X54057176Y-67482969D01*
X54273415Y-67572538D01*
X54502973Y-67618200D01*
X54737027Y-67618200D01*
X54966585Y-67572538D01*
X55029410Y-67546515D01*
X56472904Y-68990010D01*
X56370905Y-68990010D01*
X56254986Y-69013068D01*
X56145793Y-69058297D01*
X56047522Y-69123960D01*
X55963950Y-69207532D01*
X55898287Y-69305803D01*
X55853058Y-69414996D01*
X55830000Y-69530915D01*
X55830000Y-69649105D01*
X55853058Y-69765024D01*
X55889201Y-69852281D01*
X55889200Y-70967251D01*
X55631024Y-70967406D01*
X55607812Y-70960365D01*
X55539200Y-70953607D01*
X55389200Y-70953607D01*
X55389200Y-70313749D01*
X55391618Y-70289199D01*
X55389200Y-70264649D01*
X55389200Y-70264640D01*
X55381965Y-70191183D01*
X55353375Y-70096933D01*
X55306946Y-70010071D01*
X55244464Y-69933936D01*
X55225381Y-69918275D01*
X55208079Y-69900973D01*
X55196942Y-69844986D01*
X55151713Y-69735793D01*
X55086050Y-69637522D01*
X55002478Y-69553950D01*
X54904207Y-69488287D01*
X54795014Y-69443058D01*
X54679095Y-69420000D01*
X54560905Y-69420000D01*
X54444986Y-69443058D01*
X54335793Y-69488287D01*
X54237522Y-69553950D01*
X54153950Y-69637522D01*
X54088287Y-69735793D01*
X54043058Y-69844986D01*
X54020000Y-69960905D01*
X54020000Y-70033458D01*
X53948289Y-70019194D01*
X53830099Y-70019194D01*
X53714180Y-70042252D01*
X53604987Y-70087481D01*
X53506739Y-70153129D01*
X53472440Y-70130211D01*
X53363247Y-70084982D01*
X53247328Y-70061924D01*
X53129138Y-70061924D01*
X53013219Y-70084982D01*
X52904026Y-70130211D01*
X52805755Y-70195874D01*
X52722183Y-70279446D01*
X52656520Y-70377717D01*
X52611291Y-70486910D01*
X52588233Y-70602829D01*
X52588233Y-70721019D01*
X52611291Y-70836938D01*
X52656520Y-70946131D01*
X52671923Y-70969182D01*
X52636949Y-70969203D01*
X52607812Y-70960365D01*
X52539200Y-70953607D01*
X52239200Y-70953607D01*
X52170588Y-70960365D01*
X52140469Y-70969501D01*
X51309910Y-70970000D01*
X51280736Y-70972882D01*
X51252597Y-70981418D01*
X51226664Y-70995280D01*
X51203934Y-71013934D01*
X51185280Y-71036664D01*
X51171418Y-71062597D01*
X51162882Y-71090736D01*
X51160000Y-71120000D01*
X51160000Y-71957782D01*
X51154265Y-71976688D01*
X51147507Y-72045300D01*
X51147507Y-72345300D01*
X51154265Y-72413912D01*
X51160000Y-72432818D01*
X51160000Y-72457782D01*
X51154265Y-72476688D01*
X51147507Y-72545300D01*
X51147507Y-72716142D01*
X51105390Y-72681578D01*
X51044587Y-72649078D01*
X50978612Y-72629065D01*
X50910000Y-72622307D01*
X50310000Y-72622307D01*
X50241388Y-72629065D01*
X50175413Y-72649078D01*
X50114610Y-72681578D01*
X50067792Y-72720000D01*
X50061693Y-72720000D01*
X50054935Y-72651388D01*
X50034922Y-72585413D01*
X50002422Y-72524610D01*
X49958685Y-72471315D01*
X49905390Y-72427578D01*
X49844587Y-72395078D01*
X49778612Y-72375065D01*
X49710000Y-72368307D01*
X48660000Y-72368307D01*
X48591388Y-72375065D01*
X48525413Y-72395078D01*
X48464610Y-72427578D01*
X48411315Y-72471315D01*
X48367578Y-72524610D01*
X48335078Y-72585413D01*
X48315065Y-72651388D01*
X48308307Y-72720000D01*
X48308307Y-73720000D01*
X48315065Y-73788612D01*
X48335078Y-73854587D01*
X48367578Y-73915390D01*
X48411315Y-73968685D01*
X48464610Y-74012422D01*
X48525413Y-74044922D01*
X48591388Y-74064935D01*
X48660000Y-74071693D01*
X49710000Y-74071693D01*
X49778612Y-74064935D01*
X49844587Y-74044922D01*
X49905390Y-74012422D01*
X49958685Y-73968685D01*
X50001834Y-73916106D01*
X49985065Y-73971388D01*
X49978307Y-74040000D01*
X49978307Y-74580000D01*
X49985065Y-74648612D01*
X50005078Y-74714587D01*
X50018662Y-74740000D01*
X50005078Y-74765413D01*
X49985065Y-74831388D01*
X49978307Y-74900000D01*
X49978307Y-75440000D01*
X49985065Y-75508612D01*
X50005078Y-75574587D01*
X50037578Y-75635390D01*
X50081315Y-75688685D01*
X50134610Y-75732422D01*
X50180875Y-75757151D01*
X50155078Y-75805413D01*
X50135065Y-75871388D01*
X50128307Y-75940000D01*
X50128307Y-76540000D01*
X50135065Y-76608612D01*
X50155078Y-76674587D01*
X50187578Y-76735390D01*
X50231315Y-76788685D01*
X50284610Y-76832422D01*
X50345413Y-76864922D01*
X50411388Y-76884935D01*
X50480000Y-76891693D01*
X51020000Y-76891693D01*
X51088612Y-76884935D01*
X51154587Y-76864922D01*
X51160000Y-76862029D01*
X51160000Y-77457782D01*
X51154265Y-77476688D01*
X51147507Y-77545300D01*
X51147507Y-77845300D01*
X51154265Y-77913912D01*
X51160000Y-77932818D01*
X51160000Y-78657496D01*
X51142422Y-78624610D01*
X51098685Y-78571315D01*
X51045390Y-78527578D01*
X50984587Y-78495078D01*
X50918612Y-78475065D01*
X50850000Y-78468307D01*
X50250000Y-78468307D01*
X50181388Y-78475065D01*
X50115413Y-78495078D01*
X50054610Y-78527578D01*
X50001315Y-78571315D01*
X49957578Y-78624610D01*
X49925078Y-78685413D01*
X49905065Y-78751388D01*
X49898307Y-78820000D01*
X49898307Y-79212798D01*
X49855390Y-79177578D01*
X49794587Y-79145078D01*
X49728612Y-79125065D01*
X49660000Y-79118307D01*
X48610000Y-79118307D01*
X48541388Y-79125065D01*
X48475413Y-79145078D01*
X48414610Y-79177578D01*
X48361315Y-79221315D01*
X48317578Y-79274610D01*
X48285078Y-79335413D01*
X48265065Y-79401388D01*
X48258307Y-79470000D01*
X45610854Y-79470000D01*
X45618332Y-67540444D01*
X46650000Y-67540444D01*
X46650000Y-67859556D01*
X46712256Y-68172536D01*
X46834375Y-68467358D01*
X47011664Y-68732689D01*
X47237311Y-68958336D01*
X47502642Y-69135625D01*
X47797464Y-69257744D01*
X48110444Y-69320000D01*
X48429556Y-69320000D01*
X48742536Y-69257744D01*
X49037358Y-69135625D01*
X49302689Y-68958336D01*
X49528336Y-68732689D01*
X49705625Y-68467358D01*
X49827744Y-68172536D01*
X49890000Y-67859556D01*
X49890000Y-67540444D01*
X49827744Y-67227464D01*
X49705625Y-66932642D01*
X49528336Y-66667311D01*
X49302689Y-66441664D01*
X49037358Y-66264375D01*
X48742536Y-66142256D01*
X48429556Y-66080000D01*
X48110444Y-66080000D01*
X47797464Y-66142256D01*
X47502642Y-66264375D01*
X47237311Y-66441664D01*
X47011664Y-66667311D01*
X46834375Y-66932642D01*
X46712256Y-67227464D01*
X46650000Y-67540444D01*
X45618332Y-67540444D01*
X45619553Y-65591800D01*
X50890107Y-65591800D01*
X50890107Y-67268200D01*
X50896865Y-67336812D01*
X50916878Y-67402787D01*
X50949378Y-67463590D01*
X50993115Y-67516885D01*
X51046410Y-67560622D01*
X51107213Y-67593122D01*
X51173188Y-67613135D01*
X51241800Y-67619893D01*
X52918200Y-67619893D01*
X52986812Y-67613135D01*
X53052787Y-67593122D01*
X53113590Y-67560622D01*
X53166885Y-67516885D01*
X53210622Y-67463590D01*
X53243122Y-67402787D01*
X53263135Y-67336812D01*
X53269893Y-67268200D01*
X53269893Y-65591800D01*
X53263135Y-65523188D01*
X53243122Y-65457213D01*
X53210622Y-65396410D01*
X53166885Y-65343115D01*
X53113590Y-65299378D01*
X53052787Y-65266878D01*
X52986812Y-65246865D01*
X52918200Y-65240107D01*
X51241800Y-65240107D01*
X51173188Y-65246865D01*
X51107213Y-65266878D01*
X51046410Y-65299378D01*
X50993115Y-65343115D01*
X50949378Y-65396410D01*
X50916878Y-65457213D01*
X50896865Y-65523188D01*
X50890107Y-65591800D01*
X45619553Y-65591800D01*
X45619906Y-65029971D01*
X96640383Y-65020029D01*
X96699615Y-88179824D01*
G37*
X96699615Y-88179824D02*
X45605433Y-88120175D01*
X45607187Y-85320444D01*
X46650000Y-85320444D01*
X46650000Y-85639556D01*
X46712256Y-85952536D01*
X46834375Y-86247358D01*
X47011664Y-86512689D01*
X47237311Y-86738336D01*
X47502642Y-86915625D01*
X47797464Y-87037744D01*
X48110444Y-87100000D01*
X48429556Y-87100000D01*
X48742536Y-87037744D01*
X49037358Y-86915625D01*
X49302689Y-86738336D01*
X49528336Y-86512689D01*
X49705625Y-86247358D01*
X49827744Y-85952536D01*
X49890000Y-85639556D01*
X49890000Y-85320444D01*
X49827744Y-85007464D01*
X49705625Y-84712642D01*
X49528336Y-84447311D01*
X49302689Y-84221664D01*
X49037358Y-84044375D01*
X48742536Y-83922256D01*
X48429556Y-83860000D01*
X48110444Y-83860000D01*
X47797464Y-83922256D01*
X47502642Y-84044375D01*
X47237311Y-84221664D01*
X47011664Y-84447311D01*
X46834375Y-84712642D01*
X46712256Y-85007464D01*
X46650000Y-85320444D01*
X45607187Y-85320444D01*
X45610854Y-79470000D01*
X48258307Y-79470000D01*
X48258307Y-80470000D01*
X48265065Y-80538612D01*
X48285078Y-80604587D01*
X48317578Y-80665390D01*
X48361315Y-80718685D01*
X48414610Y-80762422D01*
X48475413Y-80794922D01*
X48541388Y-80814935D01*
X48610000Y-80821693D01*
X49660000Y-80821693D01*
X49728612Y-80814935D01*
X49794587Y-80794922D01*
X49855390Y-80762422D01*
X49888307Y-80735408D01*
X49888307Y-81238000D01*
X49895065Y-81306612D01*
X49915078Y-81372587D01*
X49929731Y-81400000D01*
X49915078Y-81427413D01*
X49895065Y-81493388D01*
X49888307Y-81562000D01*
X49888307Y-82102000D01*
X49895065Y-82170612D01*
X49915078Y-82236587D01*
X49921342Y-82248307D01*
X49430000Y-82248307D01*
X49361388Y-82255065D01*
X49295413Y-82275078D01*
X49234610Y-82307578D01*
X49181315Y-82351315D01*
X49137578Y-82404610D01*
X49105078Y-82465413D01*
X49085065Y-82531388D01*
X49078307Y-82600000D01*
X49078307Y-83140000D01*
X49085065Y-83208612D01*
X49105078Y-83274587D01*
X49137578Y-83335390D01*
X49181315Y-83388685D01*
X49234610Y-83432422D01*
X49295413Y-83464922D01*
X49361388Y-83484935D01*
X49430000Y-83491693D01*
X49643599Y-83491693D01*
X49654736Y-83505264D01*
X49730871Y-83567746D01*
X49817733Y-83614175D01*
X49909402Y-83641982D01*
X49911983Y-83642765D01*
X50010000Y-83652419D01*
X50034560Y-83650000D01*
X50413142Y-83650000D01*
X50450413Y-83669922D01*
X50516388Y-83689935D01*
X50585000Y-83696693D01*
X51555000Y-83696693D01*
X51623612Y-83689935D01*
X51689587Y-83669922D01*
X51690897Y-83669222D01*
X52394477Y-83661404D01*
X52410413Y-83669922D01*
X52476388Y-83689935D01*
X52545000Y-83696693D01*
X53515000Y-83696693D01*
X53583612Y-83689935D01*
X53638050Y-83673422D01*
X53563950Y-83747522D01*
X53498287Y-83845793D01*
X53474464Y-83903307D01*
X52545000Y-83903307D01*
X52476388Y-83910065D01*
X52443636Y-83920000D01*
X51656364Y-83920000D01*
X51623612Y-83910065D01*
X51555000Y-83903307D01*
X50585000Y-83903307D01*
X50516388Y-83910065D01*
X50450413Y-83930078D01*
X50389610Y-83962578D01*
X50336315Y-84006315D01*
X50292578Y-84059610D01*
X50260078Y-84120413D01*
X50240065Y-84186388D01*
X50233307Y-84255000D01*
X50233307Y-84645000D01*
X50240065Y-84713612D01*
X50260078Y-84779587D01*
X50292578Y-84840390D01*
X50336315Y-84893685D01*
X50389610Y-84937422D01*
X50450413Y-84969922D01*
X50516388Y-84989935D01*
X50585000Y-84996693D01*
X51555000Y-84996693D01*
X51623612Y-84989935D01*
X51689587Y-84969922D01*
X51750390Y-84937422D01*
X51803685Y-84893685D01*
X51821279Y-84872246D01*
X52282930Y-84877375D01*
X52296315Y-84893685D01*
X52349610Y-84937422D01*
X52410413Y-84969922D01*
X52476388Y-84989935D01*
X52545000Y-84996693D01*
X53515000Y-84996693D01*
X53583612Y-84989935D01*
X53649587Y-84969922D01*
X53682826Y-84952155D01*
X53704708Y-84950000D01*
X53778165Y-84942765D01*
X53872415Y-84914175D01*
X53959277Y-84867746D01*
X54035412Y-84805264D01*
X54051076Y-84786177D01*
X54111762Y-84725491D01*
X54205014Y-84706942D01*
X54314207Y-84661713D01*
X54412478Y-84596050D01*
X54496050Y-84512478D01*
X54561713Y-84414207D01*
X54606942Y-84305014D01*
X54630000Y-84189095D01*
X54630000Y-84070905D01*
X54626178Y-84051693D01*
X55436653Y-84051693D01*
X55483950Y-84122478D01*
X55567522Y-84206050D01*
X55665793Y-84271713D01*
X55774986Y-84316942D01*
X55890905Y-84340000D01*
X56009095Y-84340000D01*
X56125014Y-84316942D01*
X56234207Y-84271713D01*
X56332478Y-84206050D01*
X56416050Y-84122478D01*
X56481713Y-84024207D01*
X56526942Y-83915014D01*
X56550000Y-83799095D01*
X56550000Y-83680905D01*
X56526942Y-83564986D01*
X56481713Y-83455793D01*
X56416050Y-83357522D01*
X56332478Y-83273950D01*
X56234207Y-83208287D01*
X56125014Y-83163058D01*
X56069027Y-83151921D01*
X55930928Y-83013823D01*
X55915264Y-82994736D01*
X55839129Y-82932254D01*
X55774761Y-82897848D01*
X55764922Y-82865413D01*
X55732422Y-82804610D01*
X55688685Y-82751315D01*
X55635390Y-82707578D01*
X55574587Y-82675078D01*
X55508612Y-82655065D01*
X55440000Y-82648307D01*
X54797371Y-82648307D01*
X54790000Y-82647581D01*
X54782629Y-82648307D01*
X54540000Y-82648307D01*
X54522811Y-82650000D01*
X53686858Y-82650000D01*
X53649587Y-82630078D01*
X53583612Y-82610065D01*
X53515000Y-82603307D01*
X52551176Y-82603307D01*
X52550878Y-82603213D01*
X52521648Y-82600009D01*
X51611648Y-82590009D01*
X51578853Y-82593269D01*
X51550826Y-82602165D01*
X51548754Y-82603307D01*
X51489048Y-82603307D01*
X51487746Y-82600871D01*
X51425264Y-82524736D01*
X51406181Y-82509075D01*
X51317106Y-82420000D01*
X52136847Y-82420000D01*
X52170588Y-82430235D01*
X52239200Y-82436993D01*
X52539200Y-82436993D01*
X52607812Y-82430235D01*
X52641553Y-82420000D01*
X57002221Y-82420000D01*
X57012243Y-82453040D01*
X57054029Y-82531216D01*
X57096172Y-82582567D01*
X57096177Y-82582572D01*
X57110264Y-82599737D01*
X57127429Y-82613824D01*
X57326170Y-82812565D01*
X57340262Y-82829736D01*
X57408783Y-82885970D01*
X57486958Y-82927756D01*
X57571784Y-82953488D01*
X57637894Y-82959999D01*
X57637905Y-82959999D01*
X57659999Y-82962175D01*
X57682093Y-82959999D01*
X58253604Y-82959999D01*
X58630000Y-83336396D01*
X58630001Y-84513603D01*
X58281817Y-84861788D01*
X56514778Y-84861788D01*
X56492684Y-84859612D01*
X56470589Y-84861788D01*
X56470579Y-84861788D01*
X56404469Y-84868299D01*
X56320784Y-84893685D01*
X56319643Y-84894031D01*
X56241467Y-84935817D01*
X56190116Y-84977960D01*
X56190112Y-84977964D01*
X56172947Y-84992051D01*
X56158860Y-85009217D01*
X55906278Y-85261799D01*
X54160295Y-85261799D01*
X54138201Y-85259623D01*
X54116106Y-85261799D01*
X54116096Y-85261799D01*
X54049986Y-85268310D01*
X53985269Y-85287942D01*
X53965160Y-85294042D01*
X53886984Y-85335828D01*
X53835633Y-85377971D01*
X53835629Y-85377975D01*
X53818464Y-85392062D01*
X53804377Y-85409227D01*
X53090295Y-86123310D01*
X53002935Y-85992567D01*
X52837433Y-85827065D01*
X52642824Y-85697031D01*
X52426585Y-85607462D01*
X52197027Y-85561800D01*
X51962973Y-85561800D01*
X51733415Y-85607462D01*
X51517176Y-85697031D01*
X51322567Y-85827065D01*
X51157065Y-85992567D01*
X51027031Y-86187176D01*
X50937462Y-86403415D01*
X50891800Y-86632973D01*
X50891800Y-86867027D01*
X50937462Y-87096585D01*
X51027031Y-87312824D01*
X51157065Y-87507433D01*
X51322567Y-87672935D01*
X51517176Y-87802969D01*
X51733415Y-87892538D01*
X51962973Y-87938200D01*
X52197027Y-87938200D01*
X52426585Y-87892538D01*
X52642824Y-87802969D01*
X52837433Y-87672935D01*
X53002935Y-87507433D01*
X53132969Y-87312824D01*
X53182152Y-87194086D01*
X53188215Y-87193489D01*
X53273041Y-87167757D01*
X53351216Y-87125971D01*
X53419737Y-87069737D01*
X53433829Y-87052566D01*
X53462920Y-87023475D01*
X53477462Y-87096585D01*
X53567031Y-87312824D01*
X53697065Y-87507433D01*
X53862567Y-87672935D01*
X54057176Y-87802969D01*
X54273415Y-87892538D01*
X54502973Y-87938200D01*
X54737027Y-87938200D01*
X54966585Y-87892538D01*
X55182824Y-87802969D01*
X55377433Y-87672935D01*
X55542935Y-87507433D01*
X55672969Y-87312824D01*
X55709822Y-87223854D01*
X55741729Y-87214175D01*
X55828591Y-87167746D01*
X55904726Y-87105264D01*
X55920391Y-87086176D01*
X55999630Y-87006937D01*
X56017462Y-87096585D01*
X56107031Y-87312824D01*
X56237065Y-87507433D01*
X56402567Y-87672935D01*
X56597176Y-87802969D01*
X56813415Y-87892538D01*
X57042973Y-87938200D01*
X57277027Y-87938200D01*
X57506585Y-87892538D01*
X57722824Y-87802969D01*
X57917433Y-87672935D01*
X58082935Y-87507433D01*
X58212969Y-87312824D01*
X58249645Y-87224280D01*
X58282957Y-87214175D01*
X58369819Y-87167746D01*
X58445954Y-87105264D01*
X58461619Y-87086176D01*
X58539834Y-87007961D01*
X58557462Y-87096585D01*
X58647031Y-87312824D01*
X58777065Y-87507433D01*
X58942567Y-87672935D01*
X59137176Y-87802969D01*
X59353415Y-87892538D01*
X59582973Y-87938200D01*
X59817027Y-87938200D01*
X60046585Y-87892538D01*
X60262824Y-87802969D01*
X60457433Y-87672935D01*
X60622935Y-87507433D01*
X60752969Y-87312824D01*
X60842538Y-87096585D01*
X60888200Y-86867027D01*
X60888200Y-86632973D01*
X60842538Y-86403415D01*
X60817379Y-86342677D01*
X60877703Y-86269172D01*
X60924132Y-86182310D01*
X60952722Y-86088060D01*
X60959957Y-86014603D01*
X60959957Y-86014594D01*
X60960955Y-86004463D01*
X60967212Y-86067993D01*
X60995802Y-86162243D01*
X61042231Y-86249106D01*
X61104713Y-86325241D01*
X61123467Y-86340632D01*
X61097462Y-86403415D01*
X61051800Y-86632973D01*
X61051800Y-86867027D01*
X61097462Y-87096585D01*
X61187031Y-87312824D01*
X61317065Y-87507433D01*
X61482567Y-87672935D01*
X61677176Y-87802969D01*
X61893415Y-87892538D01*
X62122973Y-87938200D01*
X62357027Y-87938200D01*
X62586585Y-87892538D01*
X62802824Y-87802969D01*
X62997433Y-87672935D01*
X63162935Y-87507433D01*
X63292969Y-87312824D01*
X63382538Y-87096585D01*
X63409289Y-86962097D01*
X63533373Y-87086181D01*
X63549034Y-87105264D01*
X63625169Y-87167746D01*
X63678815Y-87196421D01*
X63727031Y-87312824D01*
X63857065Y-87507433D01*
X64022567Y-87672935D01*
X64217176Y-87802969D01*
X64433415Y-87892538D01*
X64662973Y-87938200D01*
X64897027Y-87938200D01*
X65126585Y-87892538D01*
X65342824Y-87802969D01*
X65537433Y-87672935D01*
X65702935Y-87507433D01*
X65832969Y-87312824D01*
X65922538Y-87096585D01*
X65968200Y-86867027D01*
X65968200Y-86632973D01*
X65922538Y-86403415D01*
X65832969Y-86187176D01*
X65702935Y-85992567D01*
X65537433Y-85827065D01*
X65342824Y-85697031D01*
X65325823Y-85689989D01*
X65552884Y-85689989D01*
X66203485Y-86340591D01*
X66177462Y-86403415D01*
X66131800Y-86632973D01*
X66131800Y-86867027D01*
X66177462Y-87096585D01*
X66267031Y-87312824D01*
X66397065Y-87507433D01*
X66562567Y-87672935D01*
X66757176Y-87802969D01*
X66973415Y-87892538D01*
X67202973Y-87938200D01*
X67437027Y-87938200D01*
X67666585Y-87892538D01*
X67882824Y-87802969D01*
X68077433Y-87672935D01*
X68242935Y-87507433D01*
X68372969Y-87312824D01*
X68462538Y-87096585D01*
X68503508Y-86890615D01*
X68699080Y-87086187D01*
X68714736Y-87105264D01*
X68724312Y-87113123D01*
X68807031Y-87312824D01*
X68937065Y-87507433D01*
X69102567Y-87672935D01*
X69297176Y-87802969D01*
X69513415Y-87892538D01*
X69742973Y-87938200D01*
X69977027Y-87938200D01*
X70206585Y-87892538D01*
X70422824Y-87802969D01*
X70617433Y-87672935D01*
X70782935Y-87507433D01*
X70912969Y-87312824D01*
X71002538Y-87096585D01*
X71048200Y-86867027D01*
X71048200Y-86632973D01*
X71211800Y-86632973D01*
X71211800Y-86867027D01*
X71257462Y-87096585D01*
X71347031Y-87312824D01*
X71477065Y-87507433D01*
X71642567Y-87672935D01*
X71837176Y-87802969D01*
X72053415Y-87892538D01*
X72282973Y-87938200D01*
X72517027Y-87938200D01*
X72746585Y-87892538D01*
X72962824Y-87802969D01*
X73157433Y-87672935D01*
X73322935Y-87507433D01*
X73452969Y-87312824D01*
X73542538Y-87096585D01*
X73588200Y-86867027D01*
X73588200Y-86632973D01*
X73542538Y-86403415D01*
X73452969Y-86187176D01*
X73322935Y-85992567D01*
X73157433Y-85827065D01*
X72962824Y-85697031D01*
X72746585Y-85607462D01*
X72517027Y-85561800D01*
X72282973Y-85561800D01*
X72053415Y-85607462D01*
X71837176Y-85697031D01*
X71642567Y-85827065D01*
X71477065Y-85992567D01*
X71347031Y-86187176D01*
X71257462Y-86403415D01*
X71211800Y-86632973D01*
X71048200Y-86632973D01*
X71002538Y-86403415D01*
X70912969Y-86187176D01*
X70782935Y-85992567D01*
X70617433Y-85827065D01*
X70422824Y-85697031D01*
X70217579Y-85612016D01*
X70307895Y-85537895D01*
X70331378Y-85509281D01*
X70784285Y-85056374D01*
X70812895Y-85032895D01*
X70836465Y-85004176D01*
X70906619Y-84918693D01*
X70976261Y-84788401D01*
X71019147Y-84647026D01*
X71023023Y-84607673D01*
X71030000Y-84536835D01*
X71030000Y-84536828D01*
X71033627Y-84500000D01*
X71030000Y-84463173D01*
X71030000Y-82977106D01*
X74031263Y-85978369D01*
X74017065Y-85992567D01*
X73887031Y-86187176D01*
X73797462Y-86403415D01*
X73751800Y-86632973D01*
X73751800Y-86867027D01*
X73797462Y-87096585D01*
X73887031Y-87312824D01*
X74017065Y-87507433D01*
X74182567Y-87672935D01*
X74377176Y-87802969D01*
X74593415Y-87892538D01*
X74822973Y-87938200D01*
X75057027Y-87938200D01*
X75286585Y-87892538D01*
X75502824Y-87802969D01*
X75697433Y-87672935D01*
X75862935Y-87507433D01*
X75992969Y-87312824D01*
X76082538Y-87096585D01*
X76128200Y-86867027D01*
X76128200Y-86632973D01*
X76095783Y-86470000D01*
X76324217Y-86470000D01*
X76291800Y-86632973D01*
X76291800Y-86867027D01*
X76337462Y-87096585D01*
X76427031Y-87312824D01*
X76557065Y-87507433D01*
X76722567Y-87672935D01*
X76917176Y-87802969D01*
X77133415Y-87892538D01*
X77362973Y-87938200D01*
X77597027Y-87938200D01*
X77826585Y-87892538D01*
X78042824Y-87802969D01*
X78237433Y-87672935D01*
X78402935Y-87507433D01*
X78532969Y-87312824D01*
X78622538Y-87096585D01*
X78668200Y-86867027D01*
X78668200Y-86632973D01*
X78622538Y-86403415D01*
X78532969Y-86187176D01*
X78414583Y-86010000D01*
X78830107Y-86010000D01*
X78830107Y-87588200D01*
X78836865Y-87656812D01*
X78856878Y-87722787D01*
X78889378Y-87783590D01*
X78933115Y-87836885D01*
X78986410Y-87880622D01*
X79047213Y-87913122D01*
X79113188Y-87933135D01*
X79181800Y-87939893D01*
X80858200Y-87939893D01*
X80926812Y-87933135D01*
X80992787Y-87913122D01*
X81053590Y-87880622D01*
X81106885Y-87836885D01*
X81150622Y-87783590D01*
X81183122Y-87722787D01*
X81203135Y-87656812D01*
X81209893Y-87588200D01*
X81209893Y-85911800D01*
X81203135Y-85843188D01*
X81183122Y-85777213D01*
X81150622Y-85716410D01*
X81106885Y-85663115D01*
X81053590Y-85619378D01*
X80992787Y-85586878D01*
X80926812Y-85566865D01*
X80858200Y-85560107D01*
X80007213Y-85560107D01*
X79735048Y-85287942D01*
X92040000Y-85287942D01*
X92040000Y-85672058D01*
X92114938Y-86048794D01*
X92261933Y-86403671D01*
X92475336Y-86723052D01*
X92746948Y-86994664D01*
X93066329Y-87208067D01*
X93421206Y-87355062D01*
X93797942Y-87430000D01*
X94182058Y-87430000D01*
X94558794Y-87355062D01*
X94913671Y-87208067D01*
X95233052Y-86994664D01*
X95504664Y-86723052D01*
X95718067Y-86403671D01*
X95865062Y-86048794D01*
X95940000Y-85672058D01*
X95940000Y-85287942D01*
X95865062Y-84911206D01*
X95718067Y-84556329D01*
X95504664Y-84236948D01*
X95233052Y-83965336D01*
X94913671Y-83751933D01*
X94558794Y-83604938D01*
X94182058Y-83530000D01*
X93797942Y-83530000D01*
X93421206Y-83604938D01*
X93066329Y-83751933D01*
X92746948Y-83965336D01*
X92475336Y-84236948D01*
X92261933Y-84556329D01*
X92114938Y-84911206D01*
X92040000Y-85287942D01*
X79735048Y-85287942D01*
X79620929Y-85173824D01*
X79605264Y-85154736D01*
X79529129Y-85092254D01*
X79442267Y-85045825D01*
X79348017Y-85017235D01*
X79274560Y-85010000D01*
X79250000Y-85007581D01*
X79225440Y-85010000D01*
X76587107Y-85010000D01*
X71436229Y-79859124D01*
X71420564Y-79840036D01*
X71344429Y-79777554D01*
X71257567Y-79731125D01*
X71163317Y-79702535D01*
X71089860Y-79695300D01*
X71065300Y-79692881D01*
X71040740Y-79695300D01*
X68120000Y-79695300D01*
X68120000Y-79427543D01*
X68124135Y-79413912D01*
X68130893Y-79345300D01*
X68130893Y-79045300D01*
X68124135Y-78976688D01*
X68120000Y-78963057D01*
X68120000Y-78927543D01*
X68124135Y-78913912D01*
X68124520Y-78910000D01*
X82887307Y-78910000D01*
X82887307Y-80010000D01*
X82894065Y-80078612D01*
X82914078Y-80144587D01*
X82946578Y-80205390D01*
X82990315Y-80258685D01*
X83043610Y-80302422D01*
X83104413Y-80334922D01*
X83170388Y-80354935D01*
X83239000Y-80361693D01*
X84239000Y-80361693D01*
X84307612Y-80354935D01*
X84373587Y-80334922D01*
X84434390Y-80302422D01*
X84487685Y-80258685D01*
X84531422Y-80205390D01*
X84563922Y-80144587D01*
X84583935Y-80078612D01*
X84590693Y-80010000D01*
X84590693Y-78910000D01*
X84583935Y-78841388D01*
X84563922Y-78775413D01*
X84531422Y-78714610D01*
X84487685Y-78661315D01*
X84434390Y-78617578D01*
X84373587Y-78585078D01*
X84307612Y-78565065D01*
X84239000Y-78558307D01*
X83239000Y-78558307D01*
X83170388Y-78565065D01*
X83104413Y-78585078D01*
X83043610Y-78617578D01*
X82990315Y-78661315D01*
X82946578Y-78714610D01*
X82914078Y-78775413D01*
X82894065Y-78841388D01*
X82887307Y-78910000D01*
X68124520Y-78910000D01*
X68130893Y-78845300D01*
X68130893Y-78545300D01*
X68124135Y-78476688D01*
X68120000Y-78463057D01*
X68120000Y-78427543D01*
X68124135Y-78413912D01*
X68130893Y-78345300D01*
X68130893Y-78045300D01*
X68124135Y-77976688D01*
X68120000Y-77963057D01*
X68120000Y-77427543D01*
X68124135Y-77413912D01*
X68130893Y-77345300D01*
X68130893Y-77279956D01*
X68140163Y-77287564D01*
X68226467Y-77333694D01*
X68320112Y-77362101D01*
X68417500Y-77371693D01*
X68524502Y-77371693D01*
X68590000Y-77378144D01*
X68655498Y-77371693D01*
X68762500Y-77371693D01*
X68859888Y-77362101D01*
X68953533Y-77333694D01*
X68960463Y-77329990D01*
X70281922Y-77329990D01*
X70377412Y-77320585D01*
X70499938Y-77283417D01*
X70612858Y-77223060D01*
X70711833Y-77141833D01*
X70793060Y-77042858D01*
X70853417Y-76929938D01*
X70890585Y-76807412D01*
X70903135Y-76679990D01*
X70890585Y-76552568D01*
X70853417Y-76430042D01*
X70793060Y-76317122D01*
X70711833Y-76218147D01*
X70612858Y-76136920D01*
X70499938Y-76076563D01*
X70377412Y-76039395D01*
X70281922Y-76029990D01*
X69176903Y-76029990D01*
X69192101Y-75979888D01*
X69201693Y-75882500D01*
X69201693Y-75537500D01*
X69192101Y-75440112D01*
X69163694Y-75346467D01*
X69117564Y-75260163D01*
X69055483Y-75184517D01*
X68979837Y-75122436D01*
X68893533Y-75076306D01*
X68799888Y-75047899D01*
X68702500Y-75038307D01*
X68407500Y-75038307D01*
X68310112Y-75047899D01*
X68216467Y-75076306D01*
X68130163Y-75122436D01*
X68120000Y-75130777D01*
X68120000Y-74927543D01*
X68124135Y-74913912D01*
X68130893Y-74845300D01*
X68130893Y-74545300D01*
X68124135Y-74476688D01*
X68120000Y-74463057D01*
X68120000Y-74427543D01*
X68124135Y-74413912D01*
X68130893Y-74345300D01*
X68130893Y-74045300D01*
X68124135Y-73976688D01*
X68120000Y-73963057D01*
X68120000Y-73427543D01*
X68124135Y-73413912D01*
X68130893Y-73345300D01*
X68130893Y-73045300D01*
X68124135Y-72976688D01*
X68120000Y-72963057D01*
X68120000Y-72927543D01*
X68124135Y-72913912D01*
X68130893Y-72845300D01*
X68130893Y-72545300D01*
X68124135Y-72476688D01*
X68120000Y-72463057D01*
X68120000Y-72427543D01*
X68124135Y-72413912D01*
X68130893Y-72345300D01*
X68130893Y-72045300D01*
X68124135Y-71976688D01*
X68120000Y-71963057D01*
X68120000Y-71869655D01*
X68138657Y-71904560D01*
X68212708Y-71994792D01*
X68302940Y-72068843D01*
X68405884Y-72123868D01*
X68517585Y-72157752D01*
X68633750Y-72169193D01*
X68727113Y-72169193D01*
X69019438Y-72461519D01*
X69046052Y-72493948D01*
X69078480Y-72520561D01*
X69078481Y-72520562D01*
X69095756Y-72534739D01*
X69175481Y-72600168D01*
X69323145Y-72679097D01*
X69483371Y-72727700D01*
X69608251Y-72740000D01*
X69608259Y-72740000D01*
X69650000Y-72744111D01*
X69691741Y-72740000D01*
X71421749Y-72740000D01*
X71546629Y-72727700D01*
X71706855Y-72679097D01*
X71854519Y-72600168D01*
X71983948Y-72493948D01*
X72090168Y-72364519D01*
X72169097Y-72216855D01*
X72217700Y-72056629D01*
X72234112Y-71890000D01*
X72217700Y-71723371D01*
X72169097Y-71563145D01*
X72090168Y-71415481D01*
X71983948Y-71286052D01*
X71854519Y-71179832D01*
X71713255Y-71104324D01*
X71713014Y-71101879D01*
X71687310Y-71017145D01*
X71645569Y-70939053D01*
X71589395Y-70870605D01*
X71520947Y-70814431D01*
X71442855Y-70772690D01*
X71358121Y-70746986D01*
X71270000Y-70738307D01*
X71070000Y-70738307D01*
X70981879Y-70746986D01*
X70897145Y-70772690D01*
X70819053Y-70814431D01*
X70780000Y-70846481D01*
X70740947Y-70814431D01*
X70662855Y-70772690D01*
X70578121Y-70746986D01*
X70490000Y-70738307D01*
X70290000Y-70738307D01*
X70201879Y-70746986D01*
X70117145Y-70772690D01*
X70065359Y-70800370D01*
X70041343Y-70755440D01*
X69967292Y-70665208D01*
X69877060Y-70591157D01*
X69818470Y-70559840D01*
X74602735Y-70559840D01*
X78849075Y-74806181D01*
X78864736Y-74825264D01*
X78940871Y-74887746D01*
X79016513Y-74928178D01*
X79023090Y-74931693D01*
X79027733Y-74934175D01*
X79121983Y-74962765D01*
X79195440Y-74970000D01*
X79195441Y-74970000D01*
X79219999Y-74972419D01*
X79244557Y-74970000D01*
X83057787Y-74970000D01*
X83043610Y-74977578D01*
X82990315Y-75021315D01*
X82946578Y-75074610D01*
X82914078Y-75135413D01*
X82894065Y-75201388D01*
X82887307Y-75270000D01*
X82887307Y-76370000D01*
X82894065Y-76438612D01*
X82914078Y-76504587D01*
X82946578Y-76565390D01*
X82990315Y-76618685D01*
X83043610Y-76662422D01*
X83104413Y-76694922D01*
X83170388Y-76714935D01*
X83239000Y-76721693D01*
X84239000Y-76721693D01*
X84307612Y-76714935D01*
X84373587Y-76694922D01*
X84434390Y-76662422D01*
X84487685Y-76618685D01*
X84531422Y-76565390D01*
X84563922Y-76504587D01*
X84583935Y-76438612D01*
X84590693Y-76370000D01*
X84590693Y-75270000D01*
X84583935Y-75201388D01*
X84563922Y-75135413D01*
X84531422Y-75074610D01*
X84487685Y-75021315D01*
X84434390Y-74977578D01*
X84420213Y-74970000D01*
X89622895Y-74970000D01*
X90090000Y-75437107D01*
X90090001Y-80672892D01*
X89523824Y-81239071D01*
X89504736Y-81254736D01*
X89442254Y-81330871D01*
X89395825Y-81417734D01*
X89377942Y-81476688D01*
X89367235Y-81511983D01*
X89357581Y-81610000D01*
X89360000Y-81634561D01*
X89360000Y-81688307D01*
X89214000Y-81688307D01*
X89145388Y-81695065D01*
X89079413Y-81715078D01*
X89018610Y-81747578D01*
X88965315Y-81791315D01*
X88921578Y-81844610D01*
X88889078Y-81905413D01*
X88869065Y-81971388D01*
X88862307Y-82040000D01*
X88862307Y-83040000D01*
X88869065Y-83108612D01*
X88889078Y-83174587D01*
X88921578Y-83235390D01*
X88965315Y-83288685D01*
X89018610Y-83332422D01*
X89079413Y-83364922D01*
X89145388Y-83384935D01*
X89214000Y-83391693D01*
X90014000Y-83391693D01*
X90082612Y-83384935D01*
X90148587Y-83364922D01*
X90209390Y-83332422D01*
X90214000Y-83328639D01*
X90218610Y-83332422D01*
X90279413Y-83364922D01*
X90345388Y-83384935D01*
X90414000Y-83391693D01*
X91214000Y-83391693D01*
X91282612Y-83384935D01*
X91348587Y-83364922D01*
X91409390Y-83332422D01*
X91414000Y-83328639D01*
X91418610Y-83332422D01*
X91479413Y-83364922D01*
X91545388Y-83384935D01*
X91614000Y-83391693D01*
X92414000Y-83391693D01*
X92482612Y-83384935D01*
X92548587Y-83364922D01*
X92609390Y-83332422D01*
X92662685Y-83288685D01*
X92706422Y-83235390D01*
X92738922Y-83174587D01*
X92758935Y-83108612D01*
X92765693Y-83040000D01*
X92765693Y-82040000D01*
X92758935Y-81971388D01*
X92738922Y-81905413D01*
X92706422Y-81844610D01*
X92662685Y-81791315D01*
X92609390Y-81747578D01*
X92548587Y-81715078D01*
X92482612Y-81695065D01*
X92414000Y-81688307D01*
X92280000Y-81688307D01*
X92280000Y-81624559D01*
X92282419Y-81599999D01*
X92272765Y-81501982D01*
X92250145Y-81427413D01*
X92244175Y-81407733D01*
X92242139Y-81403923D01*
X92224975Y-81371812D01*
X92197746Y-81320871D01*
X92135264Y-81244736D01*
X92116181Y-81229075D01*
X91550000Y-80662895D01*
X91550000Y-75014557D01*
X91552419Y-74989999D01*
X91550000Y-74965440D01*
X91542765Y-74891983D01*
X91514175Y-74797733D01*
X91467746Y-74710871D01*
X91405264Y-74634736D01*
X91386181Y-74619075D01*
X90589106Y-73822001D01*
X90819415Y-73591693D01*
X91214000Y-73591693D01*
X91282612Y-73584935D01*
X91348587Y-73564922D01*
X91409390Y-73532422D01*
X91414000Y-73528639D01*
X91418610Y-73532422D01*
X91479413Y-73564922D01*
X91545388Y-73584935D01*
X91614000Y-73591693D01*
X92414000Y-73591693D01*
X92482612Y-73584935D01*
X92548587Y-73564922D01*
X92609390Y-73532422D01*
X92662685Y-73488685D01*
X92706422Y-73435390D01*
X92738922Y-73374587D01*
X92758935Y-73308612D01*
X92765693Y-73240000D01*
X92765693Y-72240000D01*
X92758935Y-72171388D01*
X92738922Y-72105413D01*
X92706422Y-72044610D01*
X92662685Y-71991315D01*
X92609390Y-71947578D01*
X92548587Y-71915078D01*
X92512898Y-71904252D01*
X92506765Y-71841983D01*
X92478175Y-71747733D01*
X92431746Y-71660871D01*
X92369264Y-71584736D01*
X92350180Y-71569075D01*
X92234927Y-71453822D01*
X92219263Y-71434735D01*
X92143128Y-71372253D01*
X92056266Y-71325824D01*
X91962016Y-71297234D01*
X91902766Y-71291398D01*
X91931422Y-71237787D01*
X91951435Y-71171812D01*
X91958193Y-71103200D01*
X91958193Y-70696800D01*
X91951435Y-70628188D01*
X91931422Y-70562213D01*
X91898922Y-70501410D01*
X91855185Y-70448115D01*
X91801890Y-70404378D01*
X91741087Y-70371878D01*
X91675112Y-70351865D01*
X91606500Y-70345107D01*
X90463500Y-70345107D01*
X90394888Y-70351865D01*
X90328913Y-70371878D01*
X90276301Y-70400000D01*
X89340000Y-70400000D01*
X89340000Y-70290905D01*
X89316942Y-70174986D01*
X89271713Y-70065793D01*
X89206050Y-69967522D01*
X89122478Y-69883950D01*
X89024207Y-69818287D01*
X88915014Y-69773058D01*
X88799095Y-69750000D01*
X88680905Y-69750000D01*
X88564986Y-69773058D01*
X88455793Y-69818287D01*
X88357522Y-69883950D01*
X88273950Y-69967522D01*
X88208287Y-70065793D01*
X88163058Y-70174986D01*
X88151921Y-70230972D01*
X88037787Y-70345107D01*
X87113500Y-70345107D01*
X87044888Y-70351865D01*
X86978913Y-70371878D01*
X86926301Y-70400000D01*
X86684549Y-70400000D01*
X86659999Y-70397582D01*
X86635449Y-70400000D01*
X86635440Y-70400000D01*
X86561983Y-70407235D01*
X86467733Y-70435825D01*
X86380871Y-70482254D01*
X86304736Y-70544736D01*
X86289080Y-70563813D01*
X86241483Y-70611411D01*
X86199272Y-70509506D01*
X86106743Y-70371025D01*
X85988975Y-70253257D01*
X85850494Y-70160728D01*
X85696623Y-70096992D01*
X85533274Y-70064500D01*
X85366726Y-70064500D01*
X85203377Y-70096992D01*
X85049506Y-70160728D01*
X84911025Y-70253257D01*
X84793257Y-70371025D01*
X84700728Y-70509506D01*
X84636992Y-70663377D01*
X84604500Y-70826726D01*
X84604500Y-70993274D01*
X84636992Y-71156623D01*
X84700728Y-71310494D01*
X84793257Y-71448975D01*
X84911025Y-71566743D01*
X85049506Y-71659272D01*
X85151412Y-71701483D01*
X85032895Y-71820000D01*
X81724388Y-71820000D01*
X81733326Y-71806623D01*
X82110653Y-71429296D01*
X82137370Y-71407370D01*
X82224845Y-71300781D01*
X82289845Y-71179175D01*
X82313503Y-71101184D01*
X82329872Y-71047224D01*
X82334076Y-71004543D01*
X82436047Y-71106514D01*
X82557821Y-71187881D01*
X82693129Y-71243927D01*
X82836772Y-71272500D01*
X82983228Y-71272500D01*
X83126871Y-71243927D01*
X83262179Y-71187881D01*
X83383953Y-71106514D01*
X83487514Y-71002953D01*
X83568881Y-70881179D01*
X83624927Y-70745871D01*
X83653500Y-70602228D01*
X83653500Y-70455772D01*
X83624927Y-70312129D01*
X83568881Y-70176821D01*
X83487514Y-70055047D01*
X83383953Y-69951486D01*
X83297919Y-69894000D01*
X83383953Y-69836514D01*
X83487514Y-69732953D01*
X83545000Y-69646919D01*
X83602486Y-69732953D01*
X83706047Y-69836514D01*
X83827821Y-69917881D01*
X83963129Y-69973927D01*
X84106772Y-70002500D01*
X84253228Y-70002500D01*
X84396871Y-69973927D01*
X84532179Y-69917881D01*
X84653953Y-69836514D01*
X84757514Y-69732953D01*
X84838881Y-69611179D01*
X84882399Y-69506117D01*
X84911025Y-69534743D01*
X85049506Y-69627272D01*
X85203377Y-69691008D01*
X85366726Y-69723500D01*
X85533274Y-69723500D01*
X85696623Y-69691008D01*
X85850494Y-69627272D01*
X85988975Y-69534743D01*
X86106743Y-69416975D01*
X86199272Y-69278494D01*
X86263008Y-69124623D01*
X86295500Y-68961274D01*
X86295500Y-68794726D01*
X86263008Y-68631377D01*
X86199272Y-68477506D01*
X86106743Y-68339025D01*
X85988975Y-68221257D01*
X85850494Y-68128728D01*
X85696623Y-68064992D01*
X85533274Y-68032500D01*
X85366726Y-68032500D01*
X85203377Y-68064992D01*
X85049506Y-68128728D01*
X84911025Y-68221257D01*
X84793257Y-68339025D01*
X84700728Y-68477506D01*
X84636992Y-68631377D01*
X84630184Y-68665604D01*
X84532179Y-68600119D01*
X84396871Y-68544073D01*
X84253228Y-68515500D01*
X84106772Y-68515500D01*
X83963129Y-68544073D01*
X83827821Y-68600119D01*
X83706047Y-68681486D01*
X83602486Y-68785047D01*
X83545000Y-68871081D01*
X83487514Y-68785047D01*
X83383953Y-68681486D01*
X83262179Y-68600119D01*
X83126871Y-68544073D01*
X82983228Y-68515500D01*
X82836772Y-68515500D01*
X82693129Y-68544073D01*
X82557821Y-68600119D01*
X82436047Y-68681486D01*
X82332486Y-68785047D01*
X82275000Y-68871081D01*
X82217514Y-68785047D01*
X82113953Y-68681486D01*
X81992179Y-68600119D01*
X81856871Y-68544073D01*
X81713228Y-68515500D01*
X81566772Y-68515500D01*
X81423129Y-68544073D01*
X81311033Y-68590504D01*
X81217292Y-68496764D01*
X81202358Y-68478567D01*
X81129726Y-68418959D01*
X81046860Y-68374666D01*
X80956945Y-68347391D01*
X80886860Y-68340488D01*
X80886852Y-68340488D01*
X80863437Y-68338182D01*
X80840022Y-68340488D01*
X80115068Y-68340488D01*
X79039845Y-67265265D01*
X79024911Y-67247068D01*
X78952279Y-67187460D01*
X78869413Y-67143167D01*
X78779498Y-67115892D01*
X78709413Y-67108989D01*
X78709405Y-67108989D01*
X78685990Y-67106683D01*
X78662575Y-67108989D01*
X78455350Y-67108989D01*
X78532969Y-66992824D01*
X78622538Y-66776585D01*
X78668200Y-66547027D01*
X78668200Y-66312973D01*
X78831800Y-66312973D01*
X78831800Y-66547027D01*
X78877462Y-66776585D01*
X78967031Y-66992824D01*
X79097065Y-67187433D01*
X79262567Y-67352935D01*
X79457176Y-67482969D01*
X79673415Y-67572538D01*
X79902973Y-67618200D01*
X80137027Y-67618200D01*
X80366585Y-67572538D01*
X80582824Y-67482969D01*
X80777433Y-67352935D01*
X80942935Y-67187433D01*
X81072969Y-66992824D01*
X81162538Y-66776585D01*
X81208200Y-66547027D01*
X81208200Y-66312973D01*
X83911800Y-66312973D01*
X83911800Y-66547027D01*
X83957462Y-66776585D01*
X84047031Y-66992824D01*
X84177065Y-67187433D01*
X84342567Y-67352935D01*
X84537176Y-67482969D01*
X84753415Y-67572538D01*
X84982973Y-67618200D01*
X85217027Y-67618200D01*
X85446585Y-67572538D01*
X85662824Y-67482969D01*
X85857433Y-67352935D01*
X86022935Y-67187433D01*
X86152969Y-66992824D01*
X86242538Y-66776585D01*
X86288200Y-66547027D01*
X86288200Y-66312973D01*
X86451800Y-66312973D01*
X86451800Y-66547027D01*
X86497462Y-66776585D01*
X86587031Y-66992824D01*
X86717065Y-67187433D01*
X86882567Y-67352935D01*
X87077176Y-67482969D01*
X87293415Y-67572538D01*
X87522973Y-67618200D01*
X87757027Y-67618200D01*
X87986585Y-67572538D01*
X88202824Y-67482969D01*
X88397433Y-67352935D01*
X88562935Y-67187433D01*
X88692969Y-66992824D01*
X88782538Y-66776585D01*
X88828200Y-66547027D01*
X88828200Y-66312973D01*
X88991800Y-66312973D01*
X88991800Y-66547027D01*
X89037462Y-66776585D01*
X89127031Y-66992824D01*
X89257065Y-67187433D01*
X89422567Y-67352935D01*
X89617176Y-67482969D01*
X89833415Y-67572538D01*
X90062973Y-67618200D01*
X90297027Y-67618200D01*
X90526585Y-67572538D01*
X90682533Y-67507942D01*
X92040000Y-67507942D01*
X92040000Y-67892058D01*
X92114938Y-68268794D01*
X92261933Y-68623671D01*
X92475336Y-68943052D01*
X92746948Y-69214664D01*
X93066329Y-69428067D01*
X93421206Y-69575062D01*
X93797942Y-69650000D01*
X94182058Y-69650000D01*
X94558794Y-69575062D01*
X94913671Y-69428067D01*
X95233052Y-69214664D01*
X95504664Y-68943052D01*
X95718067Y-68623671D01*
X95865062Y-68268794D01*
X95940000Y-67892058D01*
X95940000Y-67507942D01*
X95865062Y-67131206D01*
X95718067Y-66776329D01*
X95504664Y-66456948D01*
X95233052Y-66185336D01*
X94913671Y-65971933D01*
X94558794Y-65824938D01*
X94182058Y-65750000D01*
X93797942Y-65750000D01*
X93421206Y-65824938D01*
X93066329Y-65971933D01*
X92746948Y-66185336D01*
X92475336Y-66456948D01*
X92261933Y-66776329D01*
X92114938Y-67131206D01*
X92040000Y-67507942D01*
X90682533Y-67507942D01*
X90742824Y-67482969D01*
X90937433Y-67352935D01*
X91102935Y-67187433D01*
X91232969Y-66992824D01*
X91322538Y-66776585D01*
X91368200Y-66547027D01*
X91368200Y-66312973D01*
X91322538Y-66083415D01*
X91232969Y-65867176D01*
X91102935Y-65672567D01*
X90937433Y-65507065D01*
X90742824Y-65377031D01*
X90526585Y-65287462D01*
X90297027Y-65241800D01*
X90062973Y-65241800D01*
X89833415Y-65287462D01*
X89617176Y-65377031D01*
X89422567Y-65507065D01*
X89257065Y-65672567D01*
X89127031Y-65867176D01*
X89037462Y-66083415D01*
X88991800Y-66312973D01*
X88828200Y-66312973D01*
X88782538Y-66083415D01*
X88692969Y-65867176D01*
X88562935Y-65672567D01*
X88397433Y-65507065D01*
X88202824Y-65377031D01*
X87986585Y-65287462D01*
X87757027Y-65241800D01*
X87522973Y-65241800D01*
X87293415Y-65287462D01*
X87077176Y-65377031D01*
X86882567Y-65507065D01*
X86717065Y-65672567D01*
X86587031Y-65867176D01*
X86497462Y-66083415D01*
X86451800Y-66312973D01*
X86288200Y-66312973D01*
X86242538Y-66083415D01*
X86152969Y-65867176D01*
X86022935Y-65672567D01*
X85857433Y-65507065D01*
X85662824Y-65377031D01*
X85446585Y-65287462D01*
X85217027Y-65241800D01*
X84982973Y-65241800D01*
X84753415Y-65287462D01*
X84537176Y-65377031D01*
X84342567Y-65507065D01*
X84177065Y-65672567D01*
X84047031Y-65867176D01*
X83957462Y-66083415D01*
X83911800Y-66312973D01*
X81208200Y-66312973D01*
X81162538Y-66083415D01*
X81072969Y-65867176D01*
X80942935Y-65672567D01*
X80777433Y-65507065D01*
X80582824Y-65377031D01*
X80366585Y-65287462D01*
X80137027Y-65241800D01*
X79902973Y-65241800D01*
X79673415Y-65287462D01*
X79457176Y-65377031D01*
X79262567Y-65507065D01*
X79097065Y-65672567D01*
X78967031Y-65867176D01*
X78877462Y-66083415D01*
X78831800Y-66312973D01*
X78668200Y-66312973D01*
X78622538Y-66083415D01*
X78532969Y-65867176D01*
X78402935Y-65672567D01*
X78237433Y-65507065D01*
X78042824Y-65377031D01*
X77826585Y-65287462D01*
X77597027Y-65241800D01*
X77362973Y-65241800D01*
X77133415Y-65287462D01*
X76917176Y-65377031D01*
X76722567Y-65507065D01*
X76557065Y-65672567D01*
X76427031Y-65867176D01*
X76337462Y-66083415D01*
X76291800Y-66312973D01*
X76291800Y-66547027D01*
X76337462Y-66776585D01*
X76427031Y-66992824D01*
X76504650Y-67108989D01*
X75915350Y-67108989D01*
X75992969Y-66992824D01*
X76082538Y-66776585D01*
X76128200Y-66547027D01*
X76128200Y-66312973D01*
X76082538Y-66083415D01*
X75992969Y-65867176D01*
X75862935Y-65672567D01*
X75697433Y-65507065D01*
X75502824Y-65377031D01*
X75286585Y-65287462D01*
X75057027Y-65241800D01*
X74822973Y-65241800D01*
X74593415Y-65287462D01*
X74377176Y-65377031D01*
X74182567Y-65507065D01*
X74017065Y-65672567D01*
X73887031Y-65867176D01*
X73797462Y-66083415D01*
X73751800Y-66312973D01*
X73751800Y-66547027D01*
X73797462Y-66776585D01*
X73887031Y-66992824D01*
X73964650Y-67108989D01*
X73375350Y-67108989D01*
X73452969Y-66992824D01*
X73542538Y-66776585D01*
X73588200Y-66547027D01*
X73588200Y-66312973D01*
X73542538Y-66083415D01*
X73452969Y-65867176D01*
X73322935Y-65672567D01*
X73157433Y-65507065D01*
X72962824Y-65377031D01*
X72746585Y-65287462D01*
X72517027Y-65241800D01*
X72282973Y-65241800D01*
X72053415Y-65287462D01*
X71837176Y-65377031D01*
X71642567Y-65507065D01*
X71477065Y-65672567D01*
X71347031Y-65867176D01*
X71257462Y-66083415D01*
X71211800Y-66312973D01*
X71211800Y-66547027D01*
X71257462Y-66776585D01*
X71347031Y-66992824D01*
X71424650Y-67108989D01*
X70835350Y-67108989D01*
X70912969Y-66992824D01*
X71002538Y-66776585D01*
X71048200Y-66547027D01*
X71048200Y-66312973D01*
X71002538Y-66083415D01*
X70912969Y-65867176D01*
X70782935Y-65672567D01*
X70617433Y-65507065D01*
X70422824Y-65377031D01*
X70206585Y-65287462D01*
X69977027Y-65241800D01*
X69742973Y-65241800D01*
X69513415Y-65287462D01*
X69297176Y-65377031D01*
X69102567Y-65507065D01*
X68937065Y-65672567D01*
X68807031Y-65867176D01*
X68717462Y-66083415D01*
X68671800Y-66312973D01*
X68671800Y-66547027D01*
X68717462Y-66776585D01*
X68807031Y-66992824D01*
X68884650Y-67108989D01*
X68295350Y-67108989D01*
X68372969Y-66992824D01*
X68462538Y-66776585D01*
X68508200Y-66547027D01*
X68508200Y-66312973D01*
X68462538Y-66083415D01*
X68372969Y-65867176D01*
X68242935Y-65672567D01*
X68077433Y-65507065D01*
X67882824Y-65377031D01*
X67666585Y-65287462D01*
X67437027Y-65241800D01*
X67202973Y-65241800D01*
X66973415Y-65287462D01*
X66757176Y-65377031D01*
X66562567Y-65507065D01*
X66397065Y-65672567D01*
X66267031Y-65867176D01*
X66177462Y-66083415D01*
X66131800Y-66312973D01*
X66131800Y-66547027D01*
X66177462Y-66776585D01*
X66267031Y-66992824D01*
X66344650Y-67108989D01*
X65755350Y-67108989D01*
X65832969Y-66992824D01*
X65922538Y-66776585D01*
X65968200Y-66547027D01*
X65968200Y-66312973D01*
X65922538Y-66083415D01*
X65832969Y-65867176D01*
X65702935Y-65672567D01*
X65537433Y-65507065D01*
X65342824Y-65377031D01*
X65126585Y-65287462D01*
X64897027Y-65241800D01*
X64662973Y-65241800D01*
X64433415Y-65287462D01*
X64217176Y-65377031D01*
X64022567Y-65507065D01*
X63857065Y-65672567D01*
X63727031Y-65867176D01*
X63637462Y-66083415D01*
X63591800Y-66312973D01*
X63591800Y-66547027D01*
X63637462Y-66776585D01*
X63727031Y-66992824D01*
X63804650Y-67108989D01*
X63215350Y-67108989D01*
X63292969Y-66992824D01*
X63382538Y-66776585D01*
X63428200Y-66547027D01*
X63428200Y-66312973D01*
X63382538Y-66083415D01*
X63292969Y-65867176D01*
X63162935Y-65672567D01*
X62997433Y-65507065D01*
X62802824Y-65377031D01*
X62586585Y-65287462D01*
X62357027Y-65241800D01*
X62122973Y-65241800D01*
X61893415Y-65287462D01*
X61677176Y-65377031D01*
X61482567Y-65507065D01*
X61317065Y-65672567D01*
X61187031Y-65867176D01*
X61158237Y-65936692D01*
X61152720Y-65937235D01*
X61058470Y-65965825D01*
X60971608Y-66012254D01*
X60895473Y-66074736D01*
X60879817Y-66093813D01*
X60850448Y-66123182D01*
X60842538Y-66083415D01*
X60752969Y-65867176D01*
X60622935Y-65672567D01*
X60457433Y-65507065D01*
X60262824Y-65377031D01*
X60046585Y-65287462D01*
X59817027Y-65241800D01*
X59582973Y-65241800D01*
X59353415Y-65287462D01*
X59137176Y-65377031D01*
X58942567Y-65507065D01*
X58777065Y-65672567D01*
X58647031Y-65867176D01*
X58557462Y-66083415D01*
X58511800Y-66312973D01*
X58511800Y-66547027D01*
X58557462Y-66776585D01*
X58583485Y-66839409D01*
X57983824Y-67439071D01*
X57964736Y-67454736D01*
X57902254Y-67530871D01*
X57855825Y-67617734D01*
X57843692Y-67657733D01*
X57827235Y-67711983D01*
X57818435Y-67801329D01*
X57660000Y-67642894D01*
X57660000Y-67508992D01*
X57722824Y-67482969D01*
X57917433Y-67352935D01*
X58082935Y-67187433D01*
X58212969Y-66992824D01*
X58302538Y-66776585D01*
X58348200Y-66547027D01*
X58348200Y-66312973D01*
X58302538Y-66083415D01*
X58212969Y-65867176D01*
X58082935Y-65672567D01*
X57917433Y-65507065D01*
X57722824Y-65377031D01*
X57506585Y-65287462D01*
X57277027Y-65241800D01*
X57042973Y-65241800D01*
X56813415Y-65287462D01*
X56597176Y-65377031D01*
X56402567Y-65507065D01*
X56237065Y-65672567D01*
X56107031Y-65867176D01*
X56017462Y-66083415D01*
X55971800Y-66312973D01*
X55971800Y-66547027D01*
X56017462Y-66776585D01*
X56107031Y-66992824D01*
X56237065Y-67187433D01*
X56402567Y-67352935D01*
X56597176Y-67482969D01*
X56660001Y-67508992D01*
X56660001Y-67762895D01*
X55736515Y-66839410D01*
X55762538Y-66776585D01*
X55808200Y-66547027D01*
X55808200Y-66312973D01*
X55762538Y-66083415D01*
X55672969Y-65867176D01*
X55542935Y-65672567D01*
X55377433Y-65507065D01*
X55182824Y-65377031D01*
X54966585Y-65287462D01*
X54737027Y-65241800D01*
X54502973Y-65241800D01*
X54273415Y-65287462D01*
X54057176Y-65377031D01*
X53862567Y-65507065D01*
X53697065Y-65672567D01*
X53567031Y-65867176D01*
X53477462Y-66083415D01*
X53431800Y-66312973D01*
X53431800Y-66547027D01*
X53477462Y-66776585D01*
X53567031Y-66992824D01*
X53697065Y-67187433D01*
X53862567Y-67352935D01*
X54057176Y-67482969D01*
X54273415Y-67572538D01*
X54502973Y-67618200D01*
X54737027Y-67618200D01*
X54966585Y-67572538D01*
X55029410Y-67546515D01*
X56472904Y-68990010D01*
X56370905Y-68990010D01*
X56254986Y-69013068D01*
X56145793Y-69058297D01*
X56047522Y-69123960D01*
X55963950Y-69207532D01*
X55898287Y-69305803D01*
X55853058Y-69414996D01*
X55830000Y-69530915D01*
X55830000Y-69649105D01*
X55853058Y-69765024D01*
X55889201Y-69852281D01*
X55889200Y-70967251D01*
X55631024Y-70967406D01*
X55607812Y-70960365D01*
X55539200Y-70953607D01*
X55389200Y-70953607D01*
X55389200Y-70313749D01*
X55391618Y-70289199D01*
X55389200Y-70264649D01*
X55389200Y-70264640D01*
X55381965Y-70191183D01*
X55353375Y-70096933D01*
X55306946Y-70010071D01*
X55244464Y-69933936D01*
X55225381Y-69918275D01*
X55208079Y-69900973D01*
X55196942Y-69844986D01*
X55151713Y-69735793D01*
X55086050Y-69637522D01*
X55002478Y-69553950D01*
X54904207Y-69488287D01*
X54795014Y-69443058D01*
X54679095Y-69420000D01*
X54560905Y-69420000D01*
X54444986Y-69443058D01*
X54335793Y-69488287D01*
X54237522Y-69553950D01*
X54153950Y-69637522D01*
X54088287Y-69735793D01*
X54043058Y-69844986D01*
X54020000Y-69960905D01*
X54020000Y-70033458D01*
X53948289Y-70019194D01*
X53830099Y-70019194D01*
X53714180Y-70042252D01*
X53604987Y-70087481D01*
X53506739Y-70153129D01*
X53472440Y-70130211D01*
X53363247Y-70084982D01*
X53247328Y-70061924D01*
X53129138Y-70061924D01*
X53013219Y-70084982D01*
X52904026Y-70130211D01*
X52805755Y-70195874D01*
X52722183Y-70279446D01*
X52656520Y-70377717D01*
X52611291Y-70486910D01*
X52588233Y-70602829D01*
X52588233Y-70721019D01*
X52611291Y-70836938D01*
X52656520Y-70946131D01*
X52671923Y-70969182D01*
X52636949Y-70969203D01*
X52607812Y-70960365D01*
X52539200Y-70953607D01*
X52239200Y-70953607D01*
X52170588Y-70960365D01*
X52140469Y-70969501D01*
X51309910Y-70970000D01*
X51280736Y-70972882D01*
X51252597Y-70981418D01*
X51226664Y-70995280D01*
X51203934Y-71013934D01*
X51185280Y-71036664D01*
X51171418Y-71062597D01*
X51162882Y-71090736D01*
X51160000Y-71120000D01*
X51160000Y-71957782D01*
X51154265Y-71976688D01*
X51147507Y-72045300D01*
X51147507Y-72345300D01*
X51154265Y-72413912D01*
X51160000Y-72432818D01*
X51160000Y-72457782D01*
X51154265Y-72476688D01*
X51147507Y-72545300D01*
X51147507Y-72716142D01*
X51105390Y-72681578D01*
X51044587Y-72649078D01*
X50978612Y-72629065D01*
X50910000Y-72622307D01*
X50310000Y-72622307D01*
X50241388Y-72629065D01*
X50175413Y-72649078D01*
X50114610Y-72681578D01*
X50067792Y-72720000D01*
X50061693Y-72720000D01*
X50054935Y-72651388D01*
X50034922Y-72585413D01*
X50002422Y-72524610D01*
X49958685Y-72471315D01*
X49905390Y-72427578D01*
X49844587Y-72395078D01*
X49778612Y-72375065D01*
X49710000Y-72368307D01*
X48660000Y-72368307D01*
X48591388Y-72375065D01*
X48525413Y-72395078D01*
X48464610Y-72427578D01*
X48411315Y-72471315D01*
X48367578Y-72524610D01*
X48335078Y-72585413D01*
X48315065Y-72651388D01*
X48308307Y-72720000D01*
X48308307Y-73720000D01*
X48315065Y-73788612D01*
X48335078Y-73854587D01*
X48367578Y-73915390D01*
X48411315Y-73968685D01*
X48464610Y-74012422D01*
X48525413Y-74044922D01*
X48591388Y-74064935D01*
X48660000Y-74071693D01*
X49710000Y-74071693D01*
X49778612Y-74064935D01*
X49844587Y-74044922D01*
X49905390Y-74012422D01*
X49958685Y-73968685D01*
X50001834Y-73916106D01*
X49985065Y-73971388D01*
X49978307Y-74040000D01*
X49978307Y-74580000D01*
X49985065Y-74648612D01*
X50005078Y-74714587D01*
X50018662Y-74740000D01*
X50005078Y-74765413D01*
X49985065Y-74831388D01*
X49978307Y-74900000D01*
X49978307Y-75440000D01*
X49985065Y-75508612D01*
X50005078Y-75574587D01*
X50037578Y-75635390D01*
X50081315Y-75688685D01*
X50134610Y-75732422D01*
X50180875Y-75757151D01*
X50155078Y-75805413D01*
X50135065Y-75871388D01*
X50128307Y-75940000D01*
X50128307Y-76540000D01*
X50135065Y-76608612D01*
X50155078Y-76674587D01*
X50187578Y-76735390D01*
X50231315Y-76788685D01*
X50284610Y-76832422D01*
X50345413Y-76864922D01*
X50411388Y-76884935D01*
X50480000Y-76891693D01*
X51020000Y-76891693D01*
X51088612Y-76884935D01*
X51154587Y-76864922D01*
X51160000Y-76862029D01*
X51160000Y-77457782D01*
X51154265Y-77476688D01*
X51147507Y-77545300D01*
X51147507Y-77845300D01*
X51154265Y-77913912D01*
X51160000Y-77932818D01*
X51160000Y-78657496D01*
X51142422Y-78624610D01*
X51098685Y-78571315D01*
X51045390Y-78527578D01*
X50984587Y-78495078D01*
X50918612Y-78475065D01*
X50850000Y-78468307D01*
X50250000Y-78468307D01*
X50181388Y-78475065D01*
X50115413Y-78495078D01*
X50054610Y-78527578D01*
X50001315Y-78571315D01*
X49957578Y-78624610D01*
X49925078Y-78685413D01*
X49905065Y-78751388D01*
X49898307Y-78820000D01*
X49898307Y-79212798D01*
X49855390Y-79177578D01*
X49794587Y-79145078D01*
X49728612Y-79125065D01*
X49660000Y-79118307D01*
X48610000Y-79118307D01*
X48541388Y-79125065D01*
X48475413Y-79145078D01*
X48414610Y-79177578D01*
X48361315Y-79221315D01*
X48317578Y-79274610D01*
X48285078Y-79335413D01*
X48265065Y-79401388D01*
X48258307Y-79470000D01*
X45610854Y-79470000D01*
X45618332Y-67540444D01*
X46650000Y-67540444D01*
X46650000Y-67859556D01*
X46712256Y-68172536D01*
X46834375Y-68467358D01*
X47011664Y-68732689D01*
X47237311Y-68958336D01*
X47502642Y-69135625D01*
X47797464Y-69257744D01*
X48110444Y-69320000D01*
X48429556Y-69320000D01*
X48742536Y-69257744D01*
X49037358Y-69135625D01*
X49302689Y-68958336D01*
X49528336Y-68732689D01*
X49705625Y-68467358D01*
X49827744Y-68172536D01*
X49890000Y-67859556D01*
X49890000Y-67540444D01*
X49827744Y-67227464D01*
X49705625Y-66932642D01*
X49528336Y-66667311D01*
X49302689Y-66441664D01*
X49037358Y-66264375D01*
X48742536Y-66142256D01*
X48429556Y-66080000D01*
X48110444Y-66080000D01*
X47797464Y-66142256D01*
X47502642Y-66264375D01*
X47237311Y-66441664D01*
X47011664Y-66667311D01*
X46834375Y-66932642D01*
X46712256Y-67227464D01*
X46650000Y-67540444D01*
X45618332Y-67540444D01*
X45619553Y-65591800D01*
X50890107Y-65591800D01*
X50890107Y-67268200D01*
X50896865Y-67336812D01*
X50916878Y-67402787D01*
X50949378Y-67463590D01*
X50993115Y-67516885D01*
X51046410Y-67560622D01*
X51107213Y-67593122D01*
X51173188Y-67613135D01*
X51241800Y-67619893D01*
X52918200Y-67619893D01*
X52986812Y-67613135D01*
X53052787Y-67593122D01*
X53113590Y-67560622D01*
X53166885Y-67516885D01*
X53210622Y-67463590D01*
X53243122Y-67402787D01*
X53263135Y-67336812D01*
X53269893Y-67268200D01*
X53269893Y-65591800D01*
X53263135Y-65523188D01*
X53243122Y-65457213D01*
X53210622Y-65396410D01*
X53166885Y-65343115D01*
X53113590Y-65299378D01*
X53052787Y-65266878D01*
X52986812Y-65246865D01*
X52918200Y-65240107D01*
X51241800Y-65240107D01*
X51173188Y-65246865D01*
X51107213Y-65266878D01*
X51046410Y-65299378D01*
X50993115Y-65343115D01*
X50949378Y-65396410D01*
X50916878Y-65457213D01*
X50896865Y-65523188D01*
X50890107Y-65591800D01*
X45619553Y-65591800D01*
X45619906Y-65029971D01*
X96640383Y-65020029D01*
X96699615Y-88179824D01*
G36*
X69955780Y-81902885D02*
G01*
X69861307Y-81953381D01*
X69747105Y-82047105D01*
X69653381Y-82161308D01*
X69583739Y-82291600D01*
X69540853Y-82432975D01*
X69530000Y-82543166D01*
X69530001Y-84189340D01*
X69506783Y-84212558D01*
X69504116Y-84211132D01*
X69392415Y-84177248D01*
X69276250Y-84165807D01*
X68900046Y-84165807D01*
X68102200Y-83367962D01*
X68081843Y-83343157D01*
X67982868Y-83261930D01*
X67931205Y-83234316D01*
X67963694Y-83173533D01*
X67992101Y-83079888D01*
X68001693Y-82982500D01*
X68001693Y-82687500D01*
X67992101Y-82590112D01*
X67963694Y-82496467D01*
X67922822Y-82420000D01*
X67970000Y-82420000D01*
X67999264Y-82417118D01*
X68027403Y-82408582D01*
X68053336Y-82394720D01*
X68076066Y-82376066D01*
X68094720Y-82353336D01*
X68108582Y-82327403D01*
X68117118Y-82299264D01*
X68120000Y-82270000D01*
X68120000Y-81695300D01*
X69748195Y-81695300D01*
X69955780Y-81902885D01*
G37*
X69955780Y-81902885D02*
X69861307Y-81953381D01*
X69747105Y-82047105D01*
X69653381Y-82161308D01*
X69583739Y-82291600D01*
X69540853Y-82432975D01*
X69530000Y-82543166D01*
X69530001Y-84189340D01*
X69506783Y-84212558D01*
X69504116Y-84211132D01*
X69392415Y-84177248D01*
X69276250Y-84165807D01*
X68900046Y-84165807D01*
X68102200Y-83367962D01*
X68081843Y-83343157D01*
X67982868Y-83261930D01*
X67931205Y-83234316D01*
X67963694Y-83173533D01*
X67992101Y-83079888D01*
X68001693Y-82982500D01*
X68001693Y-82687500D01*
X67992101Y-82590112D01*
X67963694Y-82496467D01*
X67922822Y-82420000D01*
X67970000Y-82420000D01*
X67999264Y-82417118D01*
X68027403Y-82408582D01*
X68053336Y-82394720D01*
X68076066Y-82376066D01*
X68094720Y-82353336D01*
X68108582Y-82327403D01*
X68117118Y-82299264D01*
X68120000Y-82270000D01*
X68120000Y-81695300D01*
X69748195Y-81695300D01*
X69955780Y-81902885D01*
G36*
X90062307Y-72934590D02*
G01*
X89886897Y-73110000D01*
X85722805Y-73110000D01*
X86542808Y-72289999D01*
X90062307Y-72289999D01*
X90062307Y-72934590D01*
G37*
X90062307Y-72934590D02*
X89886897Y-73110000D01*
X85722805Y-73110000D01*
X86542808Y-72289999D01*
X90062307Y-72289999D01*
X90062307Y-72934590D01*
M02*
