M48
INCH,TZ
T1C0.0059
T2C0.0098
T3C0.0118
T4C0.0157
T5C0.0394
T6C0.0984
%
G90
G05
T1
X19949Y-33823
X20382Y-28179
X20382Y-29014
X20382Y-29801
X20382Y-30195
X20382Y-30392
X20382Y-30786
X20382Y-30982
X20382Y-32211
X20461Y-33630
X20823Y-28179
X20823Y-32211
X20949Y-33724
X21019Y-32211
X21118Y-28935
X21118Y-29565
X21118Y-30195
X21118Y-30825
X21118Y-31455
X21216Y-32211
X21413Y-28179
X21413Y-32211
X21610Y-32211
X21807Y-32211
X21905Y-28935
X21905Y-29565
X21905Y-30195
X21905Y-30825
X21905Y-31455
X22004Y-28179
X22004Y-32211
X22200Y-32211
X22397Y-32211
X22594Y-28179
X22693Y-28935
X22693Y-29565
X22693Y-30195
X22693Y-30825
X22693Y-31455
X22988Y-32211
X23480Y-28935
X23480Y-29565
X23480Y-30195
X23480Y-30825
X23480Y-31455
X23578Y-28179
X23972Y-32211
X24267Y-28935
X24267Y-29565
X24267Y-30195
X24267Y-30825
X24267Y-31455
X24567Y-28179
X24760Y-32211
X25055Y-28935
X25055Y-29565
X25055Y-30195
X25055Y-30825
X25055Y-31455
X25350Y-28179
X25547Y-32211
X25842Y-28935
X25842Y-29565
X25842Y-30195
X25842Y-30825
X25842Y-31455
X26578Y-28179
X26578Y-29014
X26578Y-29604
X26578Y-30589
X26578Y-31376
X26578Y-32211
X27949Y-33823
X28449Y-33323
X28949Y-33823
T2
X20818Y-28935
X20818Y-29565
X20818Y-30195
X20818Y-30825
X20818Y-31455
X20940Y-27820
X21216Y-27803
X21272Y-33122
X21504Y-27567
X21511Y-28935
X21511Y-29565
X21511Y-30195
X21511Y-30825
X21511Y-31455
X22028Y-32969
X22126Y-32744
X22217Y-27398
X22299Y-28935
X22299Y-29565
X22299Y-30195
X22299Y-30825
X22299Y-31455
X22417Y-32539
X22642Y-32661
X22972Y-32732
X23086Y-28935
X23086Y-29565
X23086Y-30195
X23086Y-30825
X23086Y-31455
X23874Y-28935
X23874Y-29565
X23874Y-30195
X23874Y-30825
X23874Y-31455
X23972Y-27287
X24001Y-32945
X24147Y-27464
X24321Y-27636
X24520Y-27782
X24661Y-28935
X24661Y-29565
X24661Y-30195
X24661Y-30825
X24661Y-31455
X24709Y-33189
X24760Y-27882
X24939Y-27803
X25213Y-27807
X25449Y-28935
X25449Y-29565
X25449Y-30195
X25449Y-30825
X25449Y-31455
X25456Y-27810
X25744Y-27803
X26020Y-27803
X26142Y-28935
X26142Y-29565
X26142Y-30195
X26142Y-30825
X26142Y-31455
X26313Y-27779
X26982Y-32211
X27094Y-32728
X27311Y-32280
X27618Y-32665
X27657Y-30189
X27685Y-32449
X27744Y-28343
X27996Y-28343
X31591Y-26795
X31709Y-28193
X31988Y-28130
X32945Y-26972
X34513Y-28559
X35281Y-28638
T3
X18169Y-32531
X18197Y-33165
X18201Y-30461
X18232Y-29831
X18236Y-27815
X18240Y-27323
X18575Y-30142
X18594Y-27559
X18661Y-32831
X18949Y-29823
X18949Y-30453
X18996Y-25874
X18996Y-27323
X18996Y-27811
X19161Y-32559
X19287Y-30138
X19409Y-27567
X19449Y-34323
X19598Y-25949
X19699Y-27323
X19699Y-27823
X19850Y-26516
X19862Y-30831
X19878Y-30429
X20173Y-27024
X20193Y-27598
X20705Y-27331
X20768Y-26787
X20980Y-34433
X21028Y-25921
X21449Y-26823
X21984Y-25898
X22016Y-34429
X23020Y-25945
X23028Y-34429
X23996Y-34409
X24024Y-25921
X24988Y-25921
X24988Y-34441
X26012Y-25925
X26039Y-34413
X27028Y-34433
X27043Y-25898
X27996Y-25890
X28024Y-34425
X28449Y-28823
X28449Y-29823
X28449Y-30823
X28949Y-27823
X28949Y-29323
X28949Y-30323
X28949Y-31323
X29024Y-25902
X29035Y-34413
X29449Y-28823
X29449Y-29823
X29449Y-30823
X29449Y-31823
X29949Y-29323
X29949Y-30323
X29949Y-31323
X29949Y-32323
X29996Y-34425
X30000Y-25909
X30449Y-29823
X30449Y-30823
X30449Y-31823
X30449Y-32823
X30949Y-30323
X30949Y-31323
X30949Y-32323
X30949Y-33323
X30969Y-34406
X30988Y-25898
X31449Y-29823
X31449Y-30823
X31449Y-31823
X31449Y-32823
X31949Y-30323
X31949Y-31323
X31949Y-32323
X31949Y-33323
X32008Y-25921
X32449Y-29823
X32449Y-30823
X32449Y-31823
X32449Y-32823
X32449Y-33823
X32949Y-33323
X32949Y-34323
X32996Y-25921
X33449Y-29823
X33449Y-30823
X33449Y-31823
X33449Y-33823
X33949Y-30323
X33949Y-31323
X33949Y-33323
X33949Y-34323
X34449Y-29823
X34449Y-30823
X34449Y-31823
X34449Y-33823
X34949Y-30323
X34949Y-31323
X34949Y-33323
X34949Y-34323
X35217Y-27189
X35449Y-29823
X35449Y-30823
X35449Y-33823
X35866Y-27646
X35949Y-33323
X35949Y-34323
X36209Y-25992
X36449Y-27823
X36449Y-29823
X36449Y-30823
X36449Y-31823
X36949Y-30323
X37449Y-27823
X37449Y-29823
X37449Y-30823
X37449Y-31823
T4
X34937Y-27697
T5
X20504Y-26154
X20504Y-34154
X21504Y-26154
X21504Y-34154
X22504Y-26154
X22504Y-34154
X23504Y-26154
X23504Y-34154
X24504Y-26154
X24504Y-34154
X25504Y-26154
X25504Y-34154
X26504Y-26154
X26504Y-34154
X27504Y-26154
X27504Y-34154
X28504Y-26154
X28504Y-34154
X29504Y-26154
X29504Y-34154
X30504Y-26154
X30504Y-34154
X31504Y-26154
X31504Y-34154
X32504Y-26154
X33504Y-26154
X34504Y-26154
X35504Y-26154
T6
X37004Y-26654
X37004Y-33654
T0
M30
