M48
INCH
T1C0.0157
T2C0.0394
T3C0.0984
%
G90
G05
T1
X1.725Y-3.0
X1.9Y-2.675
X2.025Y-2.675
X2.1Y-2.6773
X2.1Y-2.75
X2.1Y-2.7776
X2.1291Y-2.6788
X2.1612Y-2.6933
X2.1827Y-2.715
X2.325Y-3.3
X2.3343Y-2.7634
X2.3552Y-2.7456
X2.3597Y-2.775
X2.375Y-3.275
X2.4518Y-2.775
X2.4722Y-3.2722
X2.537Y-2.7466
X2.5527Y-3.3257
X2.6832Y-2.7832
X2.725Y-3.1
X2.75Y-3.2218
X2.7773Y-3.2253
X2.975Y-2.75
X2.975Y-2.8
X3.1Y-2.725
X3.125Y-2.725
X3.15Y-2.725
X3.175Y-2.75
T2
X1.9358Y-2.6108
X1.9358Y-3.4108
X2.0358Y-2.6108
X2.0358Y-3.4108
X2.1358Y-2.6108
X2.1358Y-3.4108
X2.2358Y-2.6108
X2.2358Y-3.4108
X2.3358Y-2.6108
X2.3358Y-3.4108
X2.4358Y-2.6108
X2.4358Y-3.4108
X2.5358Y-2.6108
X2.5358Y-3.4108
X2.6358Y-2.6108
X2.6358Y-3.4108
X2.7358Y-2.6108
X2.7358Y-3.4108
X2.8358Y-2.6108
X2.8358Y-3.4108
X2.9358Y-2.6108
X2.9358Y-3.4108
X3.0358Y-2.6108
X3.0358Y-3.4108
X3.1358Y-2.6108
X3.2358Y-2.6108
X3.3358Y-2.6108
X3.4358Y-2.6108
T3
X3.5858Y-2.6608
X3.5858Y-3.3608
T0
M30
