M48
INCH,TZ
T1C0.0157
T2C0.0394
T3C0.0984
T4C0.0390
T5C0.1000
%
G90
G05
T1
X17250Y-30000
X19000Y-26750
X20250Y-26750
X21000Y-26773
X21000Y-27500
X21000Y-27776
X21291Y-26788
X21612Y-26933
X21827Y-27150
X23250Y-33000
X23343Y-27634
X23552Y-27456
X23597Y-27750
X23750Y-32750
X24518Y-27750
X24722Y-32722
X25370Y-27466
X25527Y-33257
X26832Y-27832
X27250Y-31000
X27500Y-32218
X27773Y-32253
X29750Y-27500
X29750Y-28000
X31000Y-27250
X31250Y-27250
X31500Y-27250
X31750Y-27500
T2
X19358Y-26108
X19358Y-34108
X20358Y-26108
X20358Y-34108
X21358Y-26108
X21358Y-34108
X22358Y-26108
X22358Y-34108
X23358Y-26108
X23358Y-34108
X24358Y-26108
X24358Y-34108
X25358Y-26108
X25358Y-34108
X26358Y-26108
X26358Y-34108
X27358Y-26108
X27358Y-34108
X28358Y-26108
X28358Y-34108
X29358Y-26108
X29358Y-34108
X30358Y-26108
X30358Y-34108
X31358Y-26108
X32358Y-26108
X33358Y-26108
X34358Y-26108
T3
X35858Y-26608
X35858Y-33608
T4
X19035Y-28855
X19435Y-26855
X19835Y-28855
T5
X17858Y-26608
X17858Y-33608
T0
M30
