G04 #@! TF.GenerationSoftware,KiCad,Pcbnew,(5.1.6)-1*
G04 #@! TF.CreationDate,2021-04-28T16:07:40-06:00*
G04 #@! TF.ProjectId,oasis_iot,6f617369-735f-4696-9f74-2e6b69636164,rev?*
G04 #@! TF.SameCoordinates,Original*
G04 #@! TF.FileFunction,Soldermask,Top*
G04 #@! TF.FilePolarity,Negative*
%FSLAX46Y46*%
G04 Gerber Fmt 4.6, Leading zero omitted, Abs format (unit mm)*
G04 Created by KiCad (PCBNEW (5.1.6)-1) date 2021-04-28 16:07:40*
%MOMM*%
%LPD*%
G01*
G04 APERTURE LIST*
%ADD10R,1.570000X1.260000*%
%ADD11R,1.243000X0.506400*%
%ADD12C,1.091000*%
%ADD13C,0.887000*%
%ADD14R,1.070000X0.490000*%
%ADD15R,0.640000X0.700000*%
%ADD16R,0.700000X0.640000*%
%ADD17C,1.776400*%
%ADD18R,1.776400X1.776400*%
%ADD19C,3.300000*%
%ADD20C,2.640000*%
%ADD21R,0.730000X0.610000*%
%ADD22R,1.030000X0.970000*%
%ADD23R,0.735000X0.735000*%
%ADD24R,1.000000X1.000000*%
%ADD25R,0.450000X0.450000*%
%ADD26R,0.800000X1.000000*%
%ADD27R,1.100000X1.150000*%
%ADD28R,1.150000X2.300000*%
%ADD29R,1.100000X1.200000*%
%ADD30R,0.900000X1.100000*%
%ADD31R,2.400000X1.100000*%
G04 APERTURE END LIST*
D10*
X69253100Y-76637900D03*
X69253100Y-74887900D03*
D11*
X72885000Y-72950000D03*
X69535000Y-72950000D03*
X72885000Y-70850000D03*
X69535000Y-70850000D03*
D12*
X49364900Y-68211700D03*
X50380900Y-73291700D03*
X48348900Y-73291700D03*
D13*
X48729900Y-69481700D03*
X49999900Y-69481700D03*
X48729900Y-70751700D03*
X49999900Y-70751700D03*
X48729900Y-72021700D03*
X49999900Y-72021700D03*
D14*
X43673200Y-78168500D03*
X43673200Y-78818500D03*
X43673200Y-77518500D03*
X45633200Y-78168500D03*
X45633200Y-77518500D03*
X45633200Y-78818500D03*
D15*
X47256500Y-78651100D03*
X48120500Y-78651100D03*
D16*
X43434000Y-74854000D03*
X43434000Y-73990000D03*
D17*
X69490001Y-66315001D03*
X66950001Y-66315001D03*
X72030001Y-66315001D03*
X74570001Y-66315001D03*
X77110001Y-66315001D03*
X64410001Y-66315001D03*
X59330001Y-66315001D03*
X61870001Y-66315001D03*
X79650001Y-66315001D03*
X82190001Y-66315001D03*
X84730001Y-66315001D03*
X56790001Y-66315001D03*
X51710001Y-66315001D03*
X54250001Y-66315001D03*
D18*
X49170001Y-66315001D03*
D17*
X87270001Y-66315001D03*
D19*
X91080001Y-67585001D03*
X91080001Y-85365001D03*
D20*
X45360001Y-67585001D03*
X45360001Y-85365001D03*
D17*
X66950001Y-86635001D03*
X64410001Y-86635001D03*
X61870001Y-86635001D03*
X59330001Y-86635001D03*
X56790001Y-86635001D03*
X54250001Y-86635001D03*
X51710001Y-86635001D03*
X69490001Y-86635001D03*
X72030001Y-86635001D03*
X74570001Y-86635001D03*
D18*
X77110001Y-86635001D03*
D17*
X49170001Y-86635001D03*
D21*
X66040000Y-83995000D03*
X66040000Y-84915000D03*
D22*
X71755000Y-82405000D03*
X71755000Y-83965000D03*
D23*
X69862700Y-83477100D03*
X69862700Y-84366100D03*
D24*
X53639200Y-79895300D03*
X53639200Y-78295300D03*
X53639200Y-76695300D03*
X53639200Y-75095300D03*
X53639200Y-73495300D03*
X55639200Y-79895300D03*
X55639200Y-78295300D03*
X55639200Y-76695300D03*
X55639200Y-75095300D03*
X55639200Y-73495300D03*
X57639200Y-79895300D03*
X57639200Y-78295300D03*
X57639200Y-76695300D03*
X57639200Y-75095300D03*
X57639200Y-73495300D03*
X59639200Y-79895300D03*
X59639200Y-78295300D03*
X59639200Y-76695300D03*
X59639200Y-75095300D03*
X59639200Y-73495300D03*
X61639200Y-79895300D03*
X61639200Y-78295300D03*
X61639200Y-76695300D03*
X61639200Y-75095300D03*
X61639200Y-73495300D03*
X63639200Y-79895300D03*
X63639200Y-78295300D03*
X63639200Y-76695300D03*
X63639200Y-75095300D03*
X63639200Y-73495300D03*
X65639200Y-79895300D03*
X65639200Y-78295300D03*
X65639200Y-76695300D03*
X65639200Y-75095300D03*
D25*
X65389200Y-81045300D03*
X64889200Y-81045300D03*
X64389200Y-81045300D03*
X63889200Y-81045300D03*
X61389200Y-81045300D03*
X60889200Y-81045300D03*
X60389200Y-81045300D03*
X59889200Y-81045300D03*
X56389200Y-81045300D03*
X55889200Y-81045300D03*
X55389200Y-81045300D03*
X54889200Y-81045300D03*
X54889200Y-72345300D03*
X55389200Y-72345300D03*
X55889200Y-72345300D03*
X56389200Y-72345300D03*
X59889200Y-72345300D03*
X60389200Y-72345300D03*
X60889200Y-72345300D03*
X61389200Y-72345300D03*
X63889200Y-72345300D03*
X64389200Y-72345300D03*
X64889200Y-72345300D03*
X65389200Y-72345300D03*
D24*
X65639200Y-73495300D03*
D25*
X66889200Y-81695300D03*
X66389200Y-81695300D03*
X65889200Y-81695300D03*
X65389200Y-81695300D03*
X64889200Y-81695300D03*
X64389200Y-81695300D03*
X63889200Y-81695300D03*
X63389200Y-81695300D03*
X62889200Y-81695300D03*
X62389200Y-81695300D03*
X61889200Y-81695300D03*
X61389200Y-81695300D03*
X60889200Y-81695300D03*
X60389200Y-81695300D03*
X59889200Y-81695300D03*
X59389200Y-81695300D03*
X58889200Y-81695300D03*
X58389200Y-81695300D03*
X57889200Y-81695300D03*
X57389200Y-81695300D03*
X56889200Y-81695300D03*
X56389200Y-81695300D03*
X55889200Y-81695300D03*
X55389200Y-81695300D03*
X54889200Y-81695300D03*
X54389200Y-81695300D03*
X53889200Y-81695300D03*
X53389200Y-81695300D03*
X52889200Y-81695300D03*
X52389200Y-81695300D03*
X51889200Y-81695300D03*
X51889200Y-81195300D03*
X51889200Y-80695300D03*
X51889200Y-80195300D03*
X51889200Y-79695300D03*
X51889200Y-79195300D03*
X51889200Y-78695300D03*
X51889200Y-78195300D03*
X51889200Y-77695300D03*
X51889200Y-77195300D03*
X51889200Y-76695300D03*
X51889200Y-76195300D03*
X51889200Y-75695300D03*
X51889200Y-75195300D03*
X51889200Y-74695300D03*
X51889200Y-74195300D03*
X51889200Y-73695300D03*
X51889200Y-73195300D03*
X51889200Y-72695300D03*
X51889200Y-72195300D03*
X51889200Y-71695300D03*
X52389200Y-71695300D03*
X52889200Y-71695300D03*
X53389200Y-71695300D03*
X53889200Y-71695300D03*
X54389200Y-71695300D03*
X54889200Y-71695300D03*
X55389200Y-71695300D03*
X55889200Y-71695300D03*
X56389200Y-71695300D03*
X56889200Y-71695300D03*
X57389200Y-71695300D03*
X57889200Y-71695300D03*
X58389200Y-71695300D03*
X58889200Y-71695300D03*
X59389200Y-71695300D03*
X59889200Y-71695300D03*
X60389200Y-71695300D03*
X60889200Y-71695300D03*
X61389200Y-71695300D03*
X61889200Y-71695300D03*
X62389200Y-71695300D03*
X62889200Y-71695300D03*
X63389200Y-71695300D03*
X63889200Y-71695300D03*
X64389200Y-71695300D03*
X64889200Y-71695300D03*
X65389200Y-71695300D03*
X65889200Y-71695300D03*
X66389200Y-71695300D03*
X66889200Y-71695300D03*
X67389200Y-71695300D03*
X67389200Y-72195300D03*
X67389200Y-72695300D03*
X67389200Y-73195300D03*
X67389200Y-73695300D03*
X67389200Y-74195300D03*
X67389200Y-74695300D03*
X67389200Y-75195300D03*
X67389200Y-75695300D03*
X67389200Y-76195300D03*
X67389200Y-76695300D03*
X67389200Y-77195300D03*
X67389200Y-77695300D03*
X67389200Y-78195300D03*
X67389200Y-78695300D03*
X67389200Y-79195300D03*
X67389200Y-79695300D03*
X67389200Y-80195300D03*
X67389200Y-80695300D03*
X67389200Y-81195300D03*
X67389200Y-81695300D03*
D26*
X48922700Y-84645500D03*
X47622700Y-84645500D03*
D16*
X67310000Y-84887000D03*
X67310000Y-84023000D03*
D27*
X45173900Y-80529700D03*
D28*
X43698900Y-82054700D03*
X46648900Y-82054700D03*
D29*
X80593000Y-74595900D03*
X80593000Y-78235900D03*
D30*
X86468000Y-81315900D03*
X87668000Y-81315900D03*
X86468000Y-71515900D03*
X87668000Y-71515900D03*
X88868000Y-71515900D03*
X88868000Y-81315900D03*
D31*
X91718000Y-71315900D03*
X84518000Y-71315900D03*
X84518000Y-81515900D03*
X91718000Y-81515900D03*
D27*
X45161200Y-72606900D03*
D28*
X46636200Y-71081900D03*
X43686200Y-71081900D03*
D15*
X47180500Y-77330300D03*
X48040500Y-77330300D03*
D16*
X49530000Y-78155800D03*
X49530000Y-77295800D03*
D15*
X44528000Y-74168000D03*
X45388000Y-74168000D03*
X45388000Y-75438000D03*
X44528000Y-75438000D03*
D22*
X73660000Y-82405000D03*
X73660000Y-83965000D03*
M02*
